<svg width="40" height="40" viewBox="0 0 40 40" fill="none" xmlns="http://www.w3.org/2000/svg">
<path d="M17.5 12C18.1667 13.5 19.0755 15.8939 23.5 17C25.5 17.5 30.1667 20.1667 31 21.5" stroke="#ffffff" stroke-width="0.75"/>
<path d="M30.4345 31.4238C32.7944 29.0653 32.7944 25.2414 30.4345 22.8828C28.0746 20.5243 24.2485 20.5243 21.8886 22.8828C19.5288 25.2414 19.5288 29.0653 21.8886 31.4238C24.2485 33.7823 28.0746 33.7823 30.4345 31.4238Z" stroke="#ffffff" stroke-miterlimit="10"/>
<path d="M27.5685 31.8819C30.752 31.8819 33.3333 29.3026 33.3333 26.1202C33.3333 22.9378 30.752 20.3584 27.5685 20.3584C24.385 20.3584 21.8037 22.9378 21.8037 26.1202C21.8037 29.3026 24.385 31.8819 27.5685 31.8819Z" stroke="#ffffff" stroke-miterlimit="10"/>
<path d="M10.7695 19.9996C9.4531 19.9996 8.08481 19.5172 7.05624 18.6137C6.73069 18.3252 6.44288 18.0083 6.18809 17.663C5.95218 17.7529 5.70683 17.8191 5.45205 17.7671C5.00854 17.682 4.76319 17.3319 4.65467 16.8921C3.3147 16.3387 2.01719 15.5346 1.38967 14.3947C0.960311 13.6095 0.884819 12.7392 1.16791 11.798C1.46516 10.8236 2.24838 9.99587 3.29111 9.52288C3.27224 9.20124 3.27695 8.90799 3.3147 8.65258C3.01273 6.789 3.87145 4.84028 5.38128 3.99363C6.77787 3.20846 8.40093 3.39766 9.88245 4.0362C10.3873 3.47334 10.9205 2.93886 11.4819 2.43749C12.2746 1.72801 13.4777 0.815135 14.8083 1.03271C17.9223 1.54354 19.1962 6.55723 18.9792 8.9884C18.8518 10.3932 18.2856 11.5804 17.3184 12.4649C17.743 13.5717 17.7147 14.6312 17.2381 15.3927C16.8513 16.0123 16.2096 16.3954 15.6387 16.6839C15.3745 16.8164 15.1055 16.9394 14.8319 17.0529C14.5771 18.136 13.9212 18.9969 12.9163 19.5077C12.2652 19.8388 11.5244 19.9996 10.7695 19.9996ZM6.51837 17.5211C6.74484 17.8191 6.99962 18.0982 7.28272 18.3489C8.79726 19.6827 11.0998 20.0422 12.7511 19.2002C13.6004 18.7698 14.1666 18.084 14.4308 17.209C11.9773 18.1171 9.16528 18.2353 6.51837 17.5211C6.52308 17.5211 6.52308 17.5211 6.51837 17.5211ZM7.03265 17.2941C9.56161 17.8901 12.218 17.7103 14.5299 16.8022C14.6007 16.4143 14.6148 15.9934 14.5771 15.5488C14.5299 15.0285 14.3931 14.5129 14.1713 14.0163C13.3975 14.1913 12.5671 14.2717 11.7037 14.2528C11.6707 14.2528 11.6329 14.2528 11.5999 14.248C10.2363 15.4825 8.68875 16.5184 7.03265 17.2941ZM5.08403 17.0623C5.17839 17.2515 5.31994 17.384 5.51811 17.4265C5.66437 17.4549 5.82007 17.4218 5.98049 17.3698C5.68796 17.2752 5.386 17.1759 5.08403 17.0623ZM6.20696 17.0671C6.30605 17.0954 6.40513 17.1238 6.49949 17.1522C8.16031 16.4238 9.72675 15.4258 11.1045 14.2197C9.31627 14.1109 7.77813 13.6946 6.52308 12.9757C6.21168 12.796 5.91444 12.5973 5.64078 12.3797C5.42374 13.1223 5.24917 13.8791 5.11706 14.6406C5.40015 15.5251 5.74458 16.3481 6.20696 17.0671ZM4.95664 16.6414C5.2067 16.7407 5.45677 16.8306 5.70683 16.911C5.43318 16.4333 5.2067 15.9224 5.00854 15.3832C4.98495 15.5535 4.96607 15.7238 4.9472 15.894C4.91889 16.14 4.91889 16.4001 4.95664 16.6414ZM14.5157 13.9264C14.7375 14.442 14.8743 14.9764 14.9262 15.5109C14.964 15.9035 14.9545 16.2819 14.9074 16.6414C15.1008 16.5562 15.2942 16.4664 15.483 16.3718C16.0161 16.1022 16.6059 15.7569 16.9456 15.2082C17.4693 14.3663 17.2523 13.3257 17.0353 12.7061C16.8607 12.848 16.672 12.9804 16.4738 13.1034C15.8982 13.4582 15.2376 13.7372 14.5157 13.9264ZM3.32414 9.89654C2.42768 10.3364 1.75769 11.0554 1.50291 11.902C1.24812 12.7487 1.30946 13.5291 1.69635 14.2291C2.24838 15.2366 3.38547 15.965 4.59334 16.49C4.57446 16.2819 4.5839 16.0691 4.60277 15.8609C4.64524 15.4731 4.69714 15.0852 4.76319 14.6974C4.25362 13.9311 3.50343 11.6419 3.32414 9.89654ZM4.14511 10.7527C4.20172 10.9939 4.25362 11.2398 4.31024 11.4905C4.49425 12.3041 4.67826 13.1271 4.90002 13.9217C5.02269 13.321 5.17368 12.725 5.34825 12.1385C4.87643 11.727 4.47066 11.2588 4.14511 10.7527ZM13.2465 12.5547C12.8455 13.023 12.4209 13.4771 11.9726 13.9028C12.6568 13.9028 13.3503 13.8365 14.0203 13.6946C13.8127 13.2973 13.5532 12.9142 13.2465 12.5547ZM5.7493 12.025C6.04183 12.2662 6.35795 12.4838 6.69294 12.6777C7.98101 13.4156 9.58521 13.8224 11.4725 13.8933C12.0198 13.3919 12.5341 12.8575 13.0106 12.2946C12.7842 12.0534 12.5341 11.8311 12.2652 11.6182C11.1752 10.7668 9.7645 10.1472 7.9527 9.72626C7.59884 9.64585 7.17892 9.55599 6.72125 9.4945C6.34379 10.3175 6.01824 11.1642 5.7493 12.025ZM13.473 12.2851C13.8316 12.7014 14.1336 13.146 14.3695 13.6142C15.3131 13.373 16.1907 12.971 16.9079 12.3797C15.7849 9.79721 14.1241 7.53159 12.1 5.83356C11.4772 5.30854 10.7506 4.82609 9.98154 4.46189C9.38232 5.15245 8.82557 5.88086 8.32072 6.64237C10.5477 6.61872 12.3548 7.03022 13.808 7.89106C14.1713 8.10864 14.6148 8.41608 14.8271 8.88434C15.1197 9.5418 14.9215 10.3364 14.2279 11.3155C13.9779 11.6466 13.7325 11.9682 13.473 12.2851ZM10.2127 4.18755C10.9771 4.55648 11.699 5.03893 12.3171 5.55922C14.3553 7.27145 16.035 9.5418 17.1768 12.1291C17.9695 11.3675 18.5073 10.327 18.63 8.95529C18.8471 6.54304 17.5354 1.83206 14.7469 1.37326C13.5674 1.17934 12.4492 2.03545 11.7084 2.69763C11.1847 3.16589 10.6845 3.66726 10.2127 4.18755ZM6.87223 9.16814C7.29687 9.22962 7.68848 9.31003 8.02819 9.39044C9.89189 9.82086 11.3451 10.4641 12.4775 11.3439C12.7511 11.5567 13.0012 11.7838 13.2371 12.025C13.4777 11.727 13.7136 11.4243 13.9354 11.1121C14.5535 10.2418 14.7422 9.56072 14.5016 9.02624C14.3317 8.64785 13.9637 8.39243 13.624 8.18905C12.1755 7.3282 10.3543 6.93562 8.08481 6.99238C7.63658 7.69241 7.23554 8.42081 6.87223 9.16814ZM3.95638 9.64586C4.2725 10.4263 4.79622 11.1594 5.4662 11.779C5.71627 10.9891 6.01824 10.2134 6.35795 9.45666C5.66437 9.39044 4.91417 9.3999 4.18757 9.58437C4.10736 9.60329 4.03187 9.62221 3.95638 9.64586ZM3.80068 10.8094C3.86201 11.1263 3.9375 11.4527 4.01771 11.7743C4.00356 11.7034 3.98469 11.6371 3.97053 11.5662C3.91863 11.3155 3.86201 11.0601 3.80068 10.8094ZM3.66385 8.6242C3.66857 8.64785 3.67328 8.66677 3.67328 8.69042C3.71103 8.90326 3.76765 9.11138 3.8337 9.31949C3.91863 9.29111 4.00828 9.26746 4.09792 9.24381C4.91417 9.04043 5.75402 9.04043 6.50893 9.12084C6.85336 8.39716 7.23553 7.68768 7.66017 7.00657C7.24497 7.02549 6.8109 7.06333 6.36738 7.11063C5.4898 7.20996 4.40933 7.41807 3.82427 8.19851C3.74878 8.30256 3.69687 8.44919 3.66385 8.6242ZM7.42426 3.82335C6.77787 3.82335 6.14091 3.96525 5.55585 4.29634C4.34799 4.97745 3.59307 6.42479 3.60251 7.92417C4.27722 7.09644 5.40959 6.8694 6.33436 6.76535C6.87223 6.70386 7.39124 6.66602 7.89137 6.6471C8.41981 5.82883 9.00487 5.04366 9.64182 4.31053C8.91522 4.00782 8.1603 3.82335 7.42426 3.82335Z" fill="#ffffff"/>
<path d="M6.51837 17.5211C6.74484 17.8191 6.99962 18.0982 7.28272 18.3489C8.79726 19.6827 11.0998 20.0422 12.7511 19.2002C13.6004 18.7698 14.1666 18.084 14.4308 17.209C11.9773 18.1171 9.16528 18.2353 6.51837 17.5211ZM6.51837 17.5211C6.52308 17.5211 6.52308 17.5211 6.51837 17.5211ZM10.7695 19.9996C9.4531 19.9996 8.08481 19.5172 7.05624 18.6137C6.73069 18.3252 6.44288 18.0083 6.18809 17.663C5.95218 17.7529 5.70683 17.8191 5.45205 17.7671C5.00854 17.682 4.76319 17.3319 4.65467 16.8921C3.3147 16.3387 2.01719 15.5346 1.38967 14.3947C0.960311 13.6095 0.884819 12.7392 1.16791 11.798C1.46516 10.8236 2.24838 9.99587 3.29111 9.52288C3.27224 9.20124 3.27695 8.90799 3.3147 8.65258C3.01273 6.789 3.87145 4.84028 5.38128 3.99363C6.77787 3.20846 8.40093 3.39766 9.88245 4.0362C10.3873 3.47334 10.9205 2.93886 11.4819 2.43749C12.2746 1.72801 13.4777 0.815135 14.8083 1.03271C17.9223 1.54354 19.1962 6.55723 18.9792 8.9884C18.8518 10.3932 18.2856 11.5804 17.3184 12.4649C17.743 13.5717 17.7147 14.6312 17.2381 15.3927C16.8513 16.0123 16.2096 16.3954 15.6387 16.6839C15.3745 16.8164 15.1055 16.9394 14.8319 17.0529C14.5771 18.136 13.9212 18.9969 12.9163 19.5077C12.2652 19.8388 11.5244 19.9996 10.7695 19.9996ZM7.03265 17.2941C9.56161 17.8901 12.218 17.7103 14.5299 16.8022C14.6007 16.4143 14.6148 15.9934 14.5771 15.5488C14.5299 15.0285 14.3931 14.5129 14.1713 14.0163C13.3975 14.1913 12.5671 14.2717 11.7037 14.2528C11.6707 14.2528 11.6329 14.2528 11.5999 14.248C10.2363 15.4825 8.68875 16.5184 7.03265 17.2941ZM5.08403 17.0623C5.17839 17.2515 5.31994 17.384 5.51811 17.4265C5.66437 17.4549 5.82007 17.4218 5.98049 17.3698C5.68796 17.2752 5.386 17.1759 5.08403 17.0623ZM6.20696 17.0671C6.30605 17.0954 6.40513 17.1238 6.49949 17.1522C8.16031 16.4238 9.72675 15.4258 11.1045 14.2197C9.31627 14.1109 7.77813 13.6946 6.52308 12.9757C6.21168 12.796 5.91444 12.5973 5.64078 12.3797C5.42374 13.1223 5.24917 13.8791 5.11706 14.6406C5.40015 15.5251 5.74458 16.3481 6.20696 17.0671ZM4.95664 16.6414C5.2067 16.7407 5.45677 16.8306 5.70683 16.911C5.43318 16.4333 5.2067 15.9224 5.00854 15.3832C4.98495 15.5535 4.96607 15.7238 4.9472 15.894C4.91889 16.14 4.91889 16.4001 4.95664 16.6414ZM14.5157 13.9264C14.7375 14.442 14.8743 14.9764 14.9262 15.5109C14.964 15.9035 14.9545 16.2819 14.9074 16.6414C15.1008 16.5562 15.2942 16.4664 15.483 16.3718C16.0161 16.1022 16.6059 15.7569 16.9456 15.2082C17.4693 14.3663 17.2523 13.3257 17.0353 12.7061C16.8607 12.848 16.672 12.9804 16.4738 13.1034C15.8982 13.4582 15.2376 13.7372 14.5157 13.9264ZM3.32414 9.89654C2.42768 10.3364 1.75769 11.0554 1.50291 11.902C1.24812 12.7487 1.30946 13.5291 1.69635 14.2291C2.24838 15.2366 3.38547 15.965 4.59334 16.49C4.57446 16.2819 4.5839 16.0691 4.60277 15.8609C4.64524 15.4731 4.69714 15.0852 4.76319 14.6974C4.25362 13.9311 3.50343 11.6419 3.32414 9.89654ZM4.14511 10.7527C4.20172 10.9939 4.25362 11.2398 4.31024 11.4905C4.49425 12.3041 4.67826 13.1271 4.90002 13.9217C5.02269 13.321 5.17368 12.725 5.34825 12.1385C4.87643 11.727 4.47066 11.2588 4.14511 10.7527ZM13.2465 12.5547C12.8455 13.023 12.4209 13.4771 11.9726 13.9028C12.6568 13.9028 13.3503 13.8365 14.0203 13.6946C13.8127 13.2973 13.5532 12.9142 13.2465 12.5547ZM5.7493 12.025C6.04183 12.2662 6.35795 12.4838 6.69294 12.6777C7.98101 13.4156 9.58521 13.8224 11.4725 13.8933C12.0198 13.3919 12.5341 12.8575 13.0106 12.2946C12.7842 12.0534 12.5341 11.8311 12.2652 11.6182C11.1752 10.7668 9.7645 10.1472 7.9527 9.72626C7.59884 9.64585 7.17892 9.55599 6.72125 9.4945C6.34379 10.3175 6.01824 11.1642 5.7493 12.025ZM13.473 12.2851C13.8316 12.7014 14.1336 13.146 14.3695 13.6142C15.3131 13.373 16.1907 12.971 16.9079 12.3797C15.7849 9.79721 14.1241 7.53159 12.1 5.83356C11.4772 5.30854 10.7506 4.82609 9.98154 4.46189C9.38232 5.15245 8.82557 5.88086 8.32072 6.64237C10.5477 6.61872 12.3548 7.03022 13.808 7.89106C14.1713 8.10864 14.6148 8.41608 14.8271 8.88434C15.1197 9.5418 14.9215 10.3364 14.2279 11.3155C13.9779 11.6466 13.7325 11.9682 13.473 12.2851ZM10.2127 4.18755C10.9771 4.55648 11.699 5.03893 12.3171 5.55922C14.3553 7.27145 16.035 9.5418 17.1768 12.1291C17.9695 11.3675 18.5073 10.327 18.63 8.95529C18.8471 6.54304 17.5354 1.83206 14.7469 1.37326C13.5674 1.17934 12.4492 2.03545 11.7084 2.69763C11.1847 3.16589 10.6845 3.66726 10.2127 4.18755ZM6.87223 9.16814C7.29687 9.22962 7.68848 9.31003 8.02819 9.39044C9.89189 9.82086 11.3451 10.4641 12.4775 11.3439C12.7511 11.5567 13.0012 11.7838 13.2371 12.025C13.4777 11.727 13.7136 11.4243 13.9354 11.1121C14.5535 10.2418 14.7422 9.56072 14.5016 9.02624C14.3317 8.64785 13.9637 8.39243 13.624 8.18905C12.1755 7.3282 10.3543 6.93562 8.08481 6.99238C7.63658 7.69241 7.23554 8.42081 6.87223 9.16814ZM3.95638 9.64586C4.2725 10.4263 4.79622 11.1594 5.4662 11.779C5.71627 10.9891 6.01824 10.2134 6.35795 9.45666C5.66437 9.39044 4.91417 9.3999 4.18757 9.58437C4.10736 9.60329 4.03187 9.62221 3.95638 9.64586ZM3.80068 10.8094C3.86201 11.1263 3.9375 11.4527 4.01771 11.7743C4.00356 11.7034 3.98469 11.6371 3.97053 11.5662C3.91863 11.3155 3.86201 11.0601 3.80068 10.8094ZM3.66385 8.6242C3.66857 8.64785 3.67328 8.66677 3.67328 8.69042C3.71103 8.90326 3.76765 9.11138 3.8337 9.31949C3.91863 9.29111 4.00828 9.26746 4.09792 9.24381C4.91417 9.04043 5.75402 9.04043 6.50893 9.12084C6.85336 8.39716 7.23553 7.68768 7.66017 7.00657C7.24497 7.02549 6.8109 7.06333 6.36738 7.11063C5.4898 7.20996 4.40933 7.41807 3.82427 8.19851C3.74878 8.30256 3.69687 8.44919 3.66385 8.6242ZM7.42426 3.82335C6.77787 3.82335 6.14091 3.96525 5.55585 4.29634C4.34799 4.97745 3.59307 6.42479 3.60251 7.92417C4.27722 7.09644 5.40959 6.8694 6.33436 6.76535C6.87223 6.70386 7.39124 6.66602 7.89137 6.6471C8.41981 5.82883 9.00487 5.04366 9.64182 4.31053C8.91522 4.00782 8.1603 3.82335 7.42426 3.82335Z" stroke="#ffffff" stroke-width="0.3"/>
</svg>
