<svg width="31" height="21" viewBox="0 0 31 21" fill="none" xmlns="http://www.w3.org/2000/svg">
<path d="M14.3783 13.0419L14.3784 13.0421L14.3829 13.0403L14.7773 12.8807L14.7773 12.8807L14.7789 12.88C14.8669 12.8409 14.9129 12.7444 14.8724 12.6562C14.6277 11.9216 14.6942 11.079 15.0437 10.3936C15.4777 9.54263 16.5103 8.87333 17.5437 8.77501C18.3097 8.70641 18.9662 8.94169 19.406 9.45587L19.406 9.45593L19.408 9.45809C19.4716 9.52402 19.566 9.53947 19.6456 9.48445L19.6457 9.48461L19.6491 9.48181L19.9859 9.20254L19.9859 9.20255L19.9866 9.20189C20.0678 9.13177 20.0636 9.02273 20.0152 8.94751L20.0156 8.94726L20.0111 8.94201C19.3841 8.2107 18.4922 7.86613 17.4669 7.96732C16.1718 8.0885 14.9149 8.90545 14.3581 10.009C13.8999 10.8984 13.8218 11.9791 14.1528 12.9292C14.1822 13.0316 14.2921 13.0674 14.3783 13.0419Z" fill="white" stroke="white" stroke-width="0.1" stroke-linecap="square" stroke-linejoin="round"/>
<path d="M22.7578 11.0684L22.7578 11.0684L22.7577 11.0689L22.5973 11.5012C22.5595 11.5882 22.5973 11.7008 22.6875 11.7445C23.7098 12.2746 24.2875 13.2717 24.2875 14.5238C24.2781 16.1037 23.3602 17.6191 22.054 18.2553L22.054 18.2552L22.0515 18.2566C21.9765 18.2985 21.9247 18.3968 21.9627 18.4972L22.1139 18.9302L22.1138 18.9302L22.1144 18.9316C22.1323 18.9784 22.1639 19.016 22.2062 19.0357C22.2491 19.0557 22.298 19.0547 22.3435 19.0328L22.3437 19.0327C23.9334 18.262 25.0308 16.4243 25.0499 14.5245L25.0499 14.5243C25.0595 12.9311 24.3123 11.6435 22.9977 10.9678L22.9977 10.9678L22.9965 10.9672C22.9015 10.9217 22.7957 10.9696 22.7578 11.0684Z" fill="white" stroke="white" stroke-width="0.1" stroke-linecap="square" stroke-linejoin="round"/>
<path d="M11.2698 6.05089L11.2699 6.05099L11.7288 5.9559C11.8412 5.92922 11.9477 5.99675 11.9641 6.10182C12.0634 6.59336 12.2743 8.26286 11.2091 9.55022L11.2089 9.55037C10.3748 10.5504 9.01119 11.05 7.1423 11.05H7.14205H7.14179H7.14153H7.14127H7.14102H7.14076H7.1405H7.14024H7.13998H7.13972H7.13946H7.13921H7.13895H7.13869H7.13843H7.13817H7.13791H7.13764H7.13738H7.13712H7.13686H7.1366H7.13634H7.13607H7.13581H7.13555H7.13529H7.13502H7.13476H7.1345H7.13423H7.13397H7.13371H7.13344H7.13318H7.13291H7.13265H7.13238H7.13212H7.13185H7.13158H7.13132H7.13105H7.13079H7.13052H7.13025H7.12998H7.12972H7.12945H7.12918H7.12891H7.12865H7.12838H7.12811H7.12784H7.12757H7.1273H7.12703H7.12676H7.12649H7.12622H7.12595H7.12568H7.12541H7.12514H7.12487H7.1246H7.12433H7.12406H7.12379H7.12351H7.12324H7.12297H7.1227H7.12242H7.12215H7.12188H7.12161H7.12133H7.12106H7.12079H7.12051H7.12024H7.11996H7.11969H7.11942H7.11914H7.11887H7.11859H7.11832H7.11804H7.11777H7.11749H7.11721H7.11694H7.11666H7.11639H7.11611H7.11583H7.11556H7.11528H7.115H7.11473H7.11445H7.11417H7.11389H7.11362H7.11334H7.11306H7.11278H7.1125H7.11223H7.11195H7.11167H7.11139H7.11111H7.11083H7.11055H7.11027H7.10999H7.10971H7.10943H7.10915H7.10887H7.10859H7.10831H7.10803H7.10775H7.10747H7.10719H7.10691H7.10663H7.10635H7.10607H7.10579H7.1055H7.10522H7.10494H7.10466H7.10438H7.10409H7.10381H7.10353H7.10325H7.10297H7.10268H7.1024H7.10212H7.10183H7.10155H7.10127H7.10098H7.1007H7.10042H7.10013H7.09985H7.09957H7.09928H7.099H7.09871H7.09843H7.09815H7.09786H7.09758H7.09729H7.09701H7.09672H7.09644H7.09615H7.09587H7.09558H7.0953H7.09501H7.09473H7.09444H7.09416H7.09387H7.09359H7.0933H7.09301H7.09273H7.09244H7.09216H7.09187H7.09158H7.0913H7.09101H7.09073H7.09044H7.09015H7.08987H7.08958H7.08929H7.08901H7.08872H7.08843H7.08815H7.08786H7.08757H7.08729H7.087H7.08671H7.08642H7.08614H7.08585H7.08556H7.08527H7.08499H7.0847H7.08441H7.08412H7.08384H7.08355H7.08326H7.08297H7.08269H7.0824H7.08211H7.08182H7.08153H7.08125H7.08096H7.08067H7.08038H7.08009H7.07981H7.07952H7.07923H7.07894H7.07865H7.07836H7.07808H7.07779H7.0775H7.07721H7.07692H7.07663H7.07635H7.07606H7.07577H7.07548H7.07519H7.0749H7.07461H7.07433H7.07404H7.07375H7.07346H7.07317H7.07288H7.07259H7.07231H7.07202H7.07173H7.07144H7.07115H7.07086H7.07057H7.07029H7.07H7.06971H7.06942H7.06913H7.06884H7.06855H7.06826H7.06798H7.06769H7.0674H7.06711H7.06682H7.06653H7.06625H7.06596H7.06567H7.06538H7.06509H7.0648H7.06451H7.06423H7.06394H7.06365H7.06336H7.06307H7.06278H7.0625H7.06221H7.06192H7.06163H7.06134H7.06106H7.06077H7.06048H7.06019H7.0599H7.05962H7.05933H7.05904H7.05875H7.05847H7.05818H7.05789H7.0576H7.05732H7.05703H7.05674H7.05645H7.05617H7.05588H7.05559H7.0553H7.05502H7.05473H7.05444H7.05416H7.05387H7.05358H7.0533H7.05301H7.05272H7.05244H7.05215H7.05186H7.05158H7.05129H7.051H7.05072H7.05043H7.05014H7.04986H7.04957H7.04929H7.049H7.04872H7.04843H7.04814H7.04786H7.04757H7.04729H7.047H7.04672H7.04643H7.04615H7.04586H7.04558H7.04529H7.04501H7.04472H7.04444H7.04416H7.04387H7.04359H7.0433H7.04302H7.04274H7.04245H7.04217H7.04188H7.0416H7.04132H7.04103H7.04075H7.04047H7.04019H7.0399H7.03962H7.03934H7.03905H7.03877H7.03849H7.03821H7.03793H7.03764H7.03736H7.03708H7.0368H7.03652H7.03624H7.03595H7.03567H7.03539H7.03511H7.03483H7.03455H7.03427H7.03399H7.03371H7.03343H7.03315H7.03287H7.03259H7.03231H7.03203H7.03175H7.03147H7.03119H7.03091H7.03063H7.03035H7.03008H7.0298H7.02952H7.02924H7.02896H7.02869H7.02841H7.02813H7.02785H7.02758H7.0273H7.02702H7.02674H7.02647H7.02619H7.02592H7.02564H7.02536H7.02509H7.02481H7.02454H7.02426H7.02399H7.02371H7.02344H7.02316H7.02289H7.02261H7.02234H7.02206H7.02179H7.02152H7.02124H7.02097H7.0207H7.02042H7.02015H7.01988H7.0196H7.01933H7.01906H7.01879H7.01852H7.01825H7.01797H7.0177H7.01743H7.01716H7.01689H7.01662H7.01635H7.01608H7.01581H7.01554H7.01527H7.015H7.01473H7.01446H7.01419H7.01392H7.01366H7.01339H7.01312H7.01285H7.01259H7.01232H7.01205H7.01178H7.01152H7.01125H7.01098H7.01072H7.01045H7.01019H7.00992H7.00966H7.00939H7.00913H7.00886H7.0086H7.00833H7.00807H7.0078H7.00754H7.00728H7.00702H7.00675H7.00649H7.00623H7.00597H7.0057H7.00544H7.00518H7.00492H7.00466H7.0044H7.00414H7.00388H7.00362H7.00336H7.0031H7.00284H7.00258H7.00232H7.00206H7.0018H7.00154H7.00129H7.00103H7.00077H7.00051H7.00026H7C6.98658 11.05 6.97373 11.0446 6.96433 11.035C6.95492 11.0255 6.94976 11.0125 6.95001 10.9991L6.96095 10.3963L6.96096 10.3958L7.01095 10.3968C7.01095 10.3227 7.07662 10.2592 7.15325 10.2592L11.2698 6.05089ZM11.2698 6.05089L11.2667 6.05176C11.168 6.07901 11.1061 6.16467 11.1211 6.26601L11.121 6.26601L11.1214 6.26783C11.1591 6.47097 11.2159 6.91304 11.1605 7.42809C11.1051 7.94316 10.9377 8.52802 10.53 9.02081C9.88697 9.79789 8.75583 10.1986 7.15308 10.2092L11.2698 6.05089ZM11.28 6.09995C11.2034 6.12112 11.1596 6.18462 11.1705 6.2587L11.28 6.09995Z" fill="white" stroke="white" stroke-width="0.1" stroke-linecap="square" stroke-linejoin="round"/>
<path d="M15.8556 15.1653L15.8555 15.1653C15.0747 16.1454 15.0168 17.0602 15.1948 17.7772C15.373 18.4957 15.7892 19.0191 15.9633 19.2106C15.9863 19.2328 16.0142 19.2449 16.0382 19.2449H26.0871C30.0833 15.6404 29.4767 11.3072 28.2116 9.44232L28.2114 9.44207C27.5967 8.52364 26.4645 7.96532 25.3421 8.00446C24.5497 8.03377 23.9114 8.36474 23.5387 8.94388C23.5108 8.99125 23.4652 9.02204 23.4104 9.03046C23.3564 9.03879 23.2971 9.02489 23.2394 8.99094C23.2392 8.99081 23.239 8.99069 23.2388 8.99057L22.9175 8.81251L22.9172 8.81235C22.8246 8.76019 22.7809 8.62875 22.8502 8.53189C22.8504 8.53156 22.8506 8.53123 22.8509 8.5309L22.8914 8.56024C23.2542 8.00414 23.7984 7.597 24.4636 7.39839L15.8556 15.1653ZM15.8556 15.1653C17.1545 13.5336 19.0894 13.981 19.6115 14.1393L19.6125 14.1396M15.8556 15.1653L19.6125 14.1396M26.1616 19.2449C30.1321 15.6303 29.5271 11.2924 28.253 9.41425C27.6281 8.4808 26.4792 7.91477 25.3404 7.95449L26.1616 19.2449ZM26.1616 19.2449H26.1063H26.1616ZM19.6125 14.1396C19.7043 14.1654 19.8131 14.1269 19.854 14.0204C19.854 14.0202 19.8541 14.02 19.8542 14.0199L19.9344 13.8223L19.9346 13.8218M19.6125 14.1396L19.9346 13.8218M19.9346 13.8218L20.0051 13.6431L20.0053 13.6425M19.9346 13.8218L20.0053 13.6425M20.0053 13.6425C20.0445 13.5395 19.9941 13.4166 19.8813 13.3879C19.262 13.198 16.8455 12.6548 15.2331 14.6759L15.2331 14.676M20.0053 13.6425L15.2331 14.676M15.2331 14.676C14.5102 15.5839 14.292 16.4597 14.3253 17.2254C14.3585 17.9898 14.6421 18.6409 14.9168 19.1021L14.9171 19.1025M15.2331 14.676L14.9171 19.1025M14.9171 19.1025C14.9554 19.1654 14.9143 19.2449 14.8288 19.2449H11.0696C10.9904 19.2449 10.9441 19.1549 10.997 19.0888M14.9171 19.1025L10.8133 14.8213M10.8133 14.8213L10.8133 14.8213C11.4212 15.4508 11.6743 16.3706 11.5831 17.5606C11.5421 18.2258 11.3167 18.7227 10.997 19.0888M10.8133 14.8213C10.1952 14.1819 9.22179 13.8726 7.92474 13.8925M10.8133 14.8213L7.92474 13.8925M10.997 19.0888C10.9968 19.089 10.9966 19.0893 10.9964 19.0895L10.9587 19.0566M10.997 19.0888C10.9972 19.0886 10.9974 19.0883 10.9975 19.0881L10.9587 19.0566M10.9587 19.0566C11.2711 18.6991 11.4929 18.2125 11.5332 17.5571M10.9587 19.0566C10.8781 19.1559 10.9486 19.2949 11.0696 19.2949H14.8288C14.9497 19.2949 15.0203 19.1758 14.9598 19.0765L11.5332 17.5571M11.5332 17.5571C11.6239 16.3754 11.3719 15.4718 10.7773 14.8561C10.1726 14.2305 9.21518 13.9226 7.92517 13.9425L11.5332 17.5571ZM7.92474 13.8925C7.81987 13.8927 7.72162 13.9825 7.73415 14.095L7.74415 14.4992L7.74417 14.4998L7.79415 14.4986M7.92474 13.8925L10.2375 15.3775M7.79415 14.4986C7.79415 14.578 7.8647 14.6376 7.94532 14.6376C9.0237 14.6277 9.8098 14.866 10.2734 15.3427M7.79415 14.4986L7.78407 14.0914L7.79415 14.4986ZM10.2734 15.3427L10.2375 15.3775M10.2734 15.3427L10.2376 15.3775C10.2375 15.3775 10.2375 15.3775 10.2375 15.3775M10.2734 15.3427C10.7168 15.7995 10.9083 16.5343 10.8378 17.5075M10.2375 15.3775C10.6667 15.8196 10.858 16.5373 10.7879 17.5037M10.8378 17.5075L10.7879 17.5034C10.7879 17.5035 10.7879 17.5036 10.7879 17.5037M10.8378 17.5075L10.7879 17.5039C10.7879 17.5038 10.7879 17.5037 10.7879 17.5037M10.8378 17.5075L10.7879 17.5037M3.21102 7.42426L3.21094 7.4244C2.31964 8.88809 2.8807 10.6418 3.69176 11.787C3.71945 11.8203 3.76023 11.8344 3.80327 11.8279C4.56413 11.6384 5.2432 11.6581 5.54847 11.678M3.21102 7.42426L5.72734 11.8931C5.74046 11.789 5.66268 11.6792 5.54847 11.678M3.21102 7.42426C3.76803 6.50301 4.6112 5.95705 5.57141 5.86926L5.57155 5.86925M3.21102 7.42426L5.57155 5.86925M5.54847 11.678C5.54897 11.6781 5.54947 11.6781 5.54998 11.6781L5.5467 11.728M5.54847 11.678C5.54788 11.678 5.54729 11.678 5.5467 11.678V11.728M5.5467 11.728C5.62733 11.728 5.6878 11.8075 5.67772 11.8869L3.81324 11.877C4.56911 11.6883 5.24435 11.7082 5.5467 11.728ZM5.57155 5.86925C6.50142 5.78152 7.4439 6.16123 8.16022 6.90568C8.23174 6.98871 8.3536 6.98386 8.43057 6.92066L8.43058 6.92067M5.57155 5.86925L8.43058 6.92067M8.43058 6.92067L8.43141 6.91996M8.43058 6.92067L8.43141 6.91996M8.43141 6.91996L8.74346 6.65216C8.82475 6.58495 8.83927 6.45192 8.75692 6.37021C8.3605 5.95967 7.9124 5.62824 7.42249 5.40685C7.39957 5.39542 7.38575 5.38199 7.37799 5.36809C7.37032 5.35435 7.36623 5.33598 7.36996 5.31027L7.37001 5.31027M8.43141 6.91996L7.37001 5.31027M7.37001 5.31027L7.37023 5.30798C7.40002 5.00466 7.49962 4.49402 7.7487 3.9639L7.74872 3.96384C8.28514 2.81866 9.25796 2.11243 10.6656 1.84683L10.6564 1.79768M7.37001 5.31027L7.70345 3.94263C8.24767 2.78078 9.23534 2.0658 10.6564 1.79768M10.6564 1.79768C13.8411 1.20186 15.1513 3.19786 15.504 3.91284M10.6564 1.79768L10.6656 1.84681M15.504 3.91284L10.6656 1.84681M15.504 3.91284C15.5342 3.96249 15.5242 4.02208 15.4839 4.07173M15.504 3.91284L10.6656 1.84681M10.6656 1.84681C12.2455 1.55125 13.3559 1.89888 14.1144 2.40529C14.8744 2.91268 15.2851 3.58222 15.4592 3.93496L15.459 3.93505L15.4613 3.93885C15.4777 3.96573 15.4758 4.00214 15.4453 4.03992M15.4839 4.07173L15.4455 4.0396C15.4455 4.03971 15.4454 4.03981 15.4453 4.03992M15.4839 4.07173C15.1009 4.52852 14.8489 4.93567 14.7381 5.13427M15.4839 4.07173L15.445 4.04021C15.4451 4.04011 15.4452 4.04001 15.4453 4.03992M15.4453 4.03992L14.7381 5.13427M14.7381 5.13427C14.6978 5.20379 14.728 5.29316 14.7985 5.33288C14.854 5.35771 14.9195 5.38998 14.985 5.42226C15.0505 5.45453 15.116 5.4868 15.1714 5.51163L14.7381 5.13427ZM2.87216 12.1608C2.56661 12.3214 2.27036 12.5227 2.00438 12.7847C1.13281 13.6435 0.799457 14.9326 1.01228 16.5903C1.20531 18.1217 2.38841 19.7207 4.58622 20.015C4.59485 20.03 4.61104 20.0401 4.62958 20.0401H4.83114C4.84149 20.0401 4.85255 20.0418 4.86839 20.0444L4.86981 20.0446C4.88403 20.0469 4.9026 20.05 4.92185 20.05L4.93193 20.05L4.93257 20.05L5.69787 20.0401H5.69823H25.9854C26.3333 20.0401 26.6486 19.8743 26.8803 19.7052C27.1056 19.5409 27.2573 19.3695 27.2906 19.3305C28.0742 18.6723 28.7495 17.558 29.2352 16.3871C29.7217 15.2142 30.0211 13.9767 30.0465 13.0702C30.1074 11.0903 29.3565 9.66996 28.8991 8.99891C28.129 7.86072 26.7467 7.16949 25.3597 7.2084C25.4497 6.66866 25.4888 5.77831 25.0621 4.84536C24.6185 3.87557 23.675 2.8669 21.7802 2.15803C19.8686 1.43668 18.0155 1.7478 16.4296 3.06003L16.4296 3.06002L16.4285 3.06094L16.1571 3.29868C16.157 3.29877 16.1569 3.29886 16.1568 3.29895C16.1072 3.34054 16.0426 3.33159 16.01 3.28062C15.6997 2.77444 15.1424 2.06977 14.2537 1.56795C13.3638 1.06544 12.1449 0.768321 10.5163 1.07325C9.00697 1.34867 8.06874 2.0633 7.48689 2.84909C6.90596 3.63364 6.68223 4.48635 6.59583 5.03715L6.59581 5.03715L6.59563 5.03861C6.58987 5.08402 6.54089 5.12128 6.48138 5.1146C6.15447 5.05437 5.82788 5.04444 5.50181 5.07455C4.2954 5.18537 3.21366 5.89044 2.53098 7.00485L2.57362 7.03097L2.53098 7.00485C1.48852 8.70671 2.04298 10.695 2.90456 12.0234L2.90451 12.0234L2.90603 12.0255C2.93641 12.0674 2.91986 12.1335 2.87216 12.1608ZM2.87216 12.1608C2.87239 12.1607 2.87263 12.1605 2.87286 12.1604L2.89612 12.2047L2.87159 12.1611C2.87178 12.161 2.87197 12.1609 2.87216 12.1608ZM26.0563 19.2949H16.0382C15.9978 19.2949 15.9575 19.2751 15.9273 19.2453L26.0563 19.2949ZM4.84358 19.2549C2.96526 19.0776 1.96534 17.7572 1.80688 16.5082C1.62647 15.086 1.88862 14.0322 2.5684 13.3624C3.03768 12.9 3.64706 12.6697 4.19973 12.5591C4.75212 12.4485 5.24378 12.4583 5.47295 12.473L5.47294 12.4731H5.47615C5.58007 12.4731 5.66345 12.4066 5.67693 12.3003L5.67695 12.3002L5.72732 11.8932L4.84358 19.2549ZM15.149 5.55638C15.2469 5.60998 15.355 5.56542 15.4062 5.47713L15.4064 5.47666C15.6014 5.13192 16.2219 4.14856 17.2438 3.42106C18.2636 2.69509 19.6825 2.22382 21.4831 2.89713L21.5006 2.8503L15.149 5.55638Z" fill="white" stroke="white" stroke-width="0.1" stroke-linecap="square" stroke-linejoin="round"/>
</svg>
