<svg width="617" height="689" viewBox="0 0 617 689" fill="none" xmlns="http://www.w3.org/2000/svg">
<path opacity="0.3" d="M519.524 241.857C521.209 227.666 511.618 214.03 505.493 200.312C501.133 190.552 497.796 180.448 494.038 170.514C485.378 147.598 463.37 129.659 437.301 118.286C395.021 99.8297 341.808 96.3763 294.704 103.767C284.174 105.422 279.848 102.6 281.211 94.1232C283.569 79.5315 277.75 67.3688 258.281 64.4518C245.859 62.5915 232.949 63.6465 220.619 66.0296C197.475 70.5053 179.161 80.4271 169.726 98.2379C164.878 107.395 162.573 117.25 160.928 127.074C156.761 151.987 158.982 178.977 186.823 194.692C210.489 208.049 241.544 214.136 269.783 218.185C300.456 222.582 331.768 224.95 361.65 232.223C383.109 237.442 403.514 245.708 420.782 257.078C426.502 260.843 431.913 264.906 437.88 268.43C461.69 282.477 500.231 276.088 514.513 254.852C517.482 250.459 519.012 246.132 519.524 241.857Z" fill="#CBEEF3"/>
<path d="M430.203 597.103C431.245 581.566 428.135 544.74 409.665 508.787M430.203 597.103L460.711 604.182C463.054 604.726 441.046 566.301 431.059 548.85M430.203 597.103L342.76 576.792M363.102 112.691C371.721 127.002 377.342 144.13 377.832 163.032C378.873 184.382 377.569 234.076 364.026 262.059C347.097 297.038 350.662 319.609 349.987 327.464C349.311 335.318 367.587 442.94 400.68 493.349C404.017 498.433 407.001 503.601 409.665 508.787M363.102 112.691C331.823 60.749 256.08 40.1067 197.895 54.1095C121.245 72.5558 98.7832 146.526 107.016 178.345C108.894 185.648 110.637 202.99 102.581 213.936C94.5254 224.883 84.1012 239.654 79.8961 245.671C76.8098 250.168 74.6725 260.251 90.814 264.609C106.956 268.968 109.367 273.75 108.555 275.596C108.33 278.214 107.416 283.8 105.559 285.2C103.238 286.949 91.3251 298.679 106.611 303.754C101.075 307.809 98.4176 311.007 102.468 314.999L111.938 323.683C114.537 325.685 119.313 331.499 117.632 338.738C115.531 347.787 112.019 379.397 143.911 377.266C169.425 375.561 186.648 374.602 192.071 374.335C204.611 374.195 227.077 381.548 216.618 412.078C209.087 444.509 213.555 447.864 205.607 459.494L125.602 595.246C123.545 598.737 125.467 603.221 129.414 604.137L163.595 612.075M363.102 112.691C362.478 119.031 351.297 130.548 346.968 126.11C341.092 120.086 357.361 113.428 366.792 111.64C503.37 85.7536 566.167 199.518 543.24 263.621C539.956 272.268 536.036 292.008 546.629 301.792C553.374 314.955 560.011 328.805 562.487 334.085C564.273 337.933 565.415 346.209 555.687 348.528C545.959 350.846 538.719 352.344 536.315 352.803C533.939 353.141 529.885 355.43 532.677 361.876C535.468 368.323 537.357 372.5 537.953 373.783C539.246 377.007 539.25 383.697 528.919 384.655C534.254 389.708 535.032 397.9 526.59 401.28C519.835 403.984 516.6 405.827 515.826 406.41C513.916 407.492 510.657 412.839 512.909 425.569C515.723 441.481 500.567 453.983 486.008 449.077C471.448 444.17 429.067 434.467 421.283 435.954C414.071 437.331 402.329 443.378 406.335 475.589L409.665 508.787M163.595 612.075C221.548 538.939 275.376 399.783 281.848 371.913C283.445 365.036 295.681 325.534 282.084 298.344C274.969 276.22 265.765 220.55 285.87 174.864C296.951 151.879 321.029 127.334 333.889 123.073M163.595 612.075L195.205 619.431" stroke="#CBEEF3" stroke-width="3" stroke-linecap="round"/>
</svg>
