<svg width="17" height="17" viewBox="0 0 17 17" fill="none" xmlns="http://www.w3.org/2000/svg">
<path d="M15.7592 2.91955V2.91953H15.7575H14.172H14.072V3.01953V4.02855V4.12855H14.172H15.5355V15.0278H2.07582V4.12855H3.43936H3.53936V4.02855V3.01953V2.91953H3.43936H1.85386V2.91952L1.85213 2.91955C1.72448 2.92175 1.5986 2.94995 1.48169 3.00242C1.3648 3.05488 1.25927 3.13055 1.17103 3.22493C1.0828 3.3193 1.01358 3.43054 0.96716 3.55222C0.920842 3.67363 0.89809 3.80317 0.900125 3.9335V15.2228C0.89809 15.3532 0.920842 15.4827 0.96716 15.6041C1.01358 15.7258 1.0828 15.837 1.17103 15.9314C1.25927 16.0258 1.3648 16.1014 1.48169 16.1539C1.5986 16.2064 1.72448 16.2346 1.85213 16.2368L1.85213 16.2368H1.85386L15.7575 16.2368L15.7592 16.2368C15.8868 16.2346 16.0127 16.2064 16.1296 16.1539C16.2465 16.1014 16.3521 16.0258 16.4403 15.9314C16.5285 15.837 16.5977 15.7258 16.6442 15.6041C16.6905 15.4827 16.7132 15.3532 16.7112 15.2229V3.93344C16.7132 3.80314 16.6905 3.67362 16.6442 3.55222C16.5977 3.43054 16.5285 3.3193 16.4403 3.22493C16.3521 3.13055 16.2465 3.05488 16.1296 3.00242L16.0887 3.09361L16.1296 3.00242C16.0127 2.94995 15.8868 2.92175 15.7592 2.91955Z" fill="#00AEC7" stroke="#00AEC7" stroke-width="0.2"/>
<path d="M3.9541 7.5414C3.9541 7.17767 4.24896 6.88281 4.61269 6.88281C4.97642 6.88281 5.27129 7.17767 5.27129 7.5414V7.5864C5.27129 7.95013 4.97642 8.24499 4.61269 8.24499C4.24896 8.24499 3.9541 7.95013 3.9541 7.5864V7.5414Z" fill="#00AEC7"/>
<path d="M6.88086 7.5414C6.88086 7.17767 7.17572 6.88281 7.53945 6.88281C7.90318 6.88281 8.19804 7.17767 8.19804 7.5414V7.5864C8.19804 7.95013 7.90318 8.24499 7.53945 8.24499C7.17572 8.24499 6.88086 7.95013 6.88086 7.5864V7.5414Z" fill="#00AEC7"/>
<path d="M9.80859 7.5414C9.80859 7.17767 10.1035 6.88281 10.4672 6.88281C10.8309 6.88281 11.1258 7.17767 11.1258 7.5414V7.5864C11.1258 7.95013 10.8309 8.24499 10.4672 8.24499C10.1035 8.24499 9.80859 7.95013 9.80859 7.5864V7.5414Z" fill="#00AEC7"/>
<path d="M12.7349 7.5414C12.7349 7.17767 13.0297 6.88281 13.3935 6.88281C13.7572 6.88281 14.052 7.17767 14.052 7.5414V7.5864C14.052 7.95013 13.7572 8.24499 13.3935 8.24499C13.0297 8.24499 12.7349 7.95013 12.7349 7.5864V7.5414Z" fill="#00AEC7"/>
<path d="M3.9541 10.0648C3.9541 9.70111 4.24896 9.40625 4.61269 9.40625C4.97642 9.40625 5.27129 9.70111 5.27129 10.0648V10.1098C5.27129 10.4736 4.97642 10.7684 4.61269 10.7684C4.24896 10.7684 3.9541 10.4736 3.9541 10.1098V10.0648Z" fill="#00AEC7"/>
<path d="M6.88086 10.0648C6.88086 9.70111 7.17572 9.40625 7.53945 9.40625C7.90318 9.40625 8.19804 9.70111 8.19804 10.0648V10.1098C8.19804 10.4736 7.90318 10.7684 7.53945 10.7684C7.17572 10.7684 6.88086 10.4736 6.88086 10.1098V10.0648Z" fill="#00AEC7"/>
<path d="M9.80859 10.0648C9.80859 9.70111 10.1035 9.40625 10.4672 9.40625C10.8309 9.40625 11.1258 9.70111 11.1258 10.0648V10.1098C11.1258 10.4736 10.8309 10.7684 10.4672 10.7684C10.1035 10.7684 9.80859 10.4736 9.80859 10.1098V10.0648Z" fill="#00AEC7"/>
<path d="M12.7349 10.0648C12.7349 9.70111 13.0297 9.40625 13.3935 9.40625C13.7572 9.40625 14.052 9.70111 14.052 10.0648V10.1098C14.052 10.4736 13.7572 10.7684 13.3935 10.7684C13.0297 10.7684 12.7349 10.4736 12.7349 10.1098V10.0648Z" fill="#00AEC7"/>
<path d="M3.9541 12.5883C3.9541 12.2245 4.24896 11.9297 4.61269 11.9297C4.97642 11.9297 5.27129 12.2245 5.27129 12.5883V12.6333C5.27129 12.997 4.97642 13.2919 4.61269 13.2919C4.24896 13.2919 3.9541 12.997 3.9541 12.6333V12.5883Z" fill="#00AEC7"/>
<path d="M6.88086 12.5883C6.88086 12.2245 7.17572 11.9297 7.53945 11.9297C7.90318 11.9297 8.19804 12.2245 8.19804 12.5883V12.6333C8.19804 12.997 7.90318 13.2919 7.53945 13.2919C7.17572 13.2919 6.88086 12.997 6.88086 12.6333V12.5883Z" fill="#00AEC7"/>
<path d="M9.80859 12.5883C9.80859 12.2245 10.1035 11.9297 10.4672 11.9297C10.8309 11.9297 11.1258 12.2245 11.1258 12.5883V12.6333C11.1258 12.997 10.8309 13.2919 10.4672 13.2919C10.1035 13.2919 9.80859 12.997 9.80859 12.6333V12.5883Z" fill="#00AEC7"/>
<path d="M12.7349 12.5883C12.7349 12.2245 13.0297 11.9297 13.3935 11.9297C13.7572 11.9297 14.052 12.2245 14.052 12.5883V12.6333C14.052 12.997 13.7572 13.2919 13.3935 13.2919C13.0297 13.2919 12.7349 12.997 12.7349 12.6333V12.5883Z" fill="#00AEC7"/>
<path d="M4.90289 5.13608C5.0599 5.13608 5.20977 5.07155 5.31973 4.95783C5.42959 4.84422 5.49073 4.69083 5.49073 4.53157V1.50451C5.49073 1.34525 5.42959 1.19186 5.31973 1.07825C5.20977 0.964534 5.0599 0.9 4.90289 0.9C4.74587 0.9 4.596 0.964534 4.48604 1.07825C4.37618 1.19186 4.31504 1.34525 4.31504 1.50451V4.53157C4.31504 4.69083 4.37618 4.84422 4.48604 4.95783C4.596 5.07155 4.74587 5.13608 4.90289 5.13608Z" fill="#00AEC7" stroke="#00AEC7" stroke-width="0.2"/>
<path d="M12.7081 5.13608C12.8651 5.13608 13.0149 5.07155 13.1249 4.95783C13.2348 4.84422 13.2959 4.69083 13.2959 4.53157V1.50451C13.2959 1.34525 13.2348 1.19186 13.1249 1.07825C13.0149 0.964534 12.8651 0.9 12.7081 0.9C12.5511 0.9 12.4012 0.964534 12.2912 1.07825C12.1814 1.19186 12.1202 1.34525 12.1202 1.50451V4.53157C12.1202 4.69083 12.1814 4.84422 12.2912 4.95783C12.4012 5.07155 12.5511 5.13608 12.7081 5.13608Z" fill="#00AEC7" stroke="#00AEC7" stroke-width="0.2"/>
<path d="M6.36621 2.91953H6.26621V3.01953V4.02855V4.12855H6.36621H11.2447H11.3447V4.02855V3.01953V2.91953H11.2447H6.36621Z" fill="#00AEC7" stroke="#00AEC7" stroke-width="0.2"/>
</svg>
