<svg width="24" height="24" viewBox="0 0 24 24" fill="none" xmlns="http://www.w3.org/2000/svg">
<path d="M18.7592 6.91955V6.91953H18.7575H17.172H17.072V7.01953V8.02855V8.12855H17.172H18.5355V19.0278H5.07582V8.12855H6.43936H6.53936V8.02855V7.01953V6.91953H6.43936H4.85386V6.91952L4.85213 6.91955C4.72448 6.92175 4.5986 6.94995 4.48169 7.00242C4.3648 7.05488 4.25927 7.13055 4.17103 7.22493C4.0828 7.3193 4.01358 7.43054 3.96716 7.55222C3.92084 7.67363 3.89809 7.80317 3.90013 7.9335V19.2228C3.89809 19.3532 3.92084 19.4827 3.96716 19.6041C4.01358 19.7258 4.0828 19.837 4.17103 19.9314C4.25927 20.0258 4.3648 20.1014 4.48169 20.1539C4.5986 20.2064 4.72448 20.2346 4.85213 20.2368L4.85213 20.2368H4.85386L18.7575 20.2368L18.7592 20.2368C18.8868 20.2346 19.0127 20.2064 19.1296 20.1539C19.2465 20.1014 19.3521 20.0258 19.4403 19.9314C19.5285 19.837 19.5977 19.7258 19.6442 19.6041C19.6905 19.4827 19.7132 19.3532 19.7112 19.2229V7.93344C19.7132 7.80314 19.6905 7.67362 19.6442 7.55222C19.5977 7.43054 19.5285 7.3193 19.4403 7.22493C19.3521 7.13055 19.2465 7.05488 19.1296 7.00242L19.0887 7.09361L19.1296 7.00242C19.0127 6.94995 18.8868 6.92175 18.7592 6.91955Z" fill="#00AEC7" stroke="#00AEC7" stroke-width="0.2"/>
<path d="M6.9541 11.5414C6.9541 11.1777 7.24896 10.8828 7.61269 10.8828C7.97642 10.8828 8.27129 11.1777 8.27129 11.5414V11.5864C8.27129 11.9501 7.97642 12.245 7.61269 12.245C7.24896 12.245 6.9541 11.9501 6.9541 11.5864V11.5414Z" fill="#00AEC7"/>
<path d="M9.88086 11.5414C9.88086 11.1777 10.1757 10.8828 10.5395 10.8828C10.9032 10.8828 11.198 11.1777 11.198 11.5414V11.5864C11.198 11.9501 10.9032 12.245 10.5395 12.245C10.1757 12.245 9.88086 11.9501 9.88086 11.5864V11.5414Z" fill="#00AEC7"/>
<path d="M12.8086 11.5414C12.8086 11.1777 13.1035 10.8828 13.4672 10.8828C13.8309 10.8828 14.1258 11.1777 14.1258 11.5414V11.5864C14.1258 11.9501 13.8309 12.245 13.4672 12.245C13.1035 12.245 12.8086 11.9501 12.8086 11.5864V11.5414Z" fill="#00AEC7"/>
<path d="M15.7349 11.5414C15.7349 11.1777 16.0297 10.8828 16.3935 10.8828C16.7572 10.8828 17.052 11.1777 17.052 11.5414V11.5864C17.052 11.9501 16.7572 12.245 16.3935 12.245C16.0297 12.245 15.7349 11.9501 15.7349 11.5864V11.5414Z" fill="#00AEC7"/>
<path d="M6.9541 14.0648C6.9541 13.7011 7.24896 13.4062 7.61269 13.4062C7.97642 13.4062 8.27129 13.7011 8.27129 14.0648V14.1098C8.27129 14.4736 7.97642 14.7684 7.61269 14.7684C7.24896 14.7684 6.9541 14.4736 6.9541 14.1098V14.0648Z" fill="#00AEC7"/>
<path d="M9.88086 14.0648C9.88086 13.7011 10.1757 13.4062 10.5395 13.4062C10.9032 13.4062 11.198 13.7011 11.198 14.0648V14.1098C11.198 14.4736 10.9032 14.7684 10.5395 14.7684C10.1757 14.7684 9.88086 14.4736 9.88086 14.1098V14.0648Z" fill="#00AEC7"/>
<path d="M12.8086 14.0648C12.8086 13.7011 13.1035 13.4062 13.4672 13.4062C13.8309 13.4062 14.1258 13.7011 14.1258 14.0648V14.1098C14.1258 14.4736 13.8309 14.7684 13.4672 14.7684C13.1035 14.7684 12.8086 14.4736 12.8086 14.1098V14.0648Z" fill="#00AEC7"/>
<path d="M15.7349 14.0648C15.7349 13.7011 16.0297 13.4062 16.3935 13.4062C16.7572 13.4062 17.052 13.7011 17.052 14.0648V14.1098C17.052 14.4736 16.7572 14.7684 16.3935 14.7684C16.0297 14.7684 15.7349 14.4736 15.7349 14.1098V14.0648Z" fill="#00AEC7"/>
<path d="M6.9541 16.5873C6.9541 16.2236 7.24896 15.9287 7.61269 15.9287C7.97642 15.9287 8.27129 16.2236 8.27129 16.5873V16.6323C8.27129 16.996 7.97642 17.2909 7.61269 17.2909C7.24896 17.2909 6.9541 16.996 6.9541 16.6323V16.5873Z" fill="#00AEC7"/>
<path d="M9.88086 16.5873C9.88086 16.2236 10.1757 15.9287 10.5395 15.9287C10.9032 15.9287 11.198 16.2236 11.198 16.5873V16.6323C11.198 16.996 10.9032 17.2909 10.5395 17.2909C10.1757 17.2909 9.88086 16.996 9.88086 16.6323V16.5873Z" fill="#00AEC7"/>
<path d="M12.8086 16.5873C12.8086 16.2236 13.1035 15.9287 13.4672 15.9287C13.8309 15.9287 14.1258 16.2236 14.1258 16.5873V16.6323C14.1258 16.996 13.8309 17.2909 13.4672 17.2909C13.1035 17.2909 12.8086 16.996 12.8086 16.6323V16.5873Z" fill="#00AEC7"/>
<path d="M15.7349 16.5873C15.7349 16.2236 16.0297 15.9287 16.3935 15.9287C16.7572 15.9287 17.052 16.2236 17.052 16.5873V16.6323C17.052 16.996 16.7572 17.2909 16.3935 17.2909C16.0297 17.2909 15.7349 16.996 15.7349 16.6323V16.5873Z" fill="#00AEC7"/>
<path d="M7.90289 9.13608C8.0599 9.13608 8.20977 9.07155 8.31973 8.95783C8.42959 8.84422 8.49073 8.69083 8.49073 8.53157V5.50451C8.49073 5.34525 8.42959 5.19186 8.31973 5.07825C8.20977 4.96453 8.0599 4.9 7.90289 4.9C7.74587 4.9 7.596 4.96453 7.48604 5.07825C7.37618 5.19186 7.31504 5.34525 7.31504 5.50451V8.53157C7.31504 8.69083 7.37618 8.84422 7.48604 8.95783C7.596 9.07155 7.74587 9.13608 7.90289 9.13608Z" fill="#00AEC7" stroke="#00AEC7" stroke-width="0.2"/>
<path d="M15.7081 9.13608C15.8651 9.13608 16.0149 9.07155 16.1249 8.95783C16.2348 8.84422 16.2959 8.69083 16.2959 8.53157V5.50451C16.2959 5.34525 16.2348 5.19186 16.1249 5.07825C16.0149 4.96453 15.8651 4.9 15.7081 4.9C15.5511 4.9 15.4012 4.96453 15.2912 5.07825C15.1814 5.19186 15.1202 5.34525 15.1202 5.50451V8.53157C15.1202 8.69083 15.1814 8.84422 15.2912 8.95783C15.4012 9.07155 15.5511 9.13608 15.7081 9.13608Z" fill="#00AEC7" stroke="#00AEC7" stroke-width="0.2"/>
<path d="M9.36621 6.91953H9.26621V7.01953V8.02855V8.12855H9.36621H14.2447H14.3447V8.02855V7.01953V6.91953H14.2447H9.36621Z" fill="#00AEC7" stroke="#00AEC7" stroke-width="0.2"/>
</svg>
