<svg width="26" height="26" viewBox="0 0 26 26" fill="none" xmlns="http://www.w3.org/2000/svg">
<path d="M19.8867 24.9703C20.187 21.5503 22.6191 19.8403 23.9102 16.9587C25.0512 14.457 25.0212 11.322 24.9912 8.63034C24.9912 7.26867 24.9311 5.90701 24.7209 4.57701C24.6609 4.00701 24.5708 2.74034 23.9703 2.45534C22.1687 1.60034 22.6191 7.83867 22.5891 8.40867" stroke="white" stroke-miterlimit="10" stroke-linecap="round" stroke-linejoin="round"/>
<path d="M19.3148 18.0363C20.1255 15.9463 21.9271 14.363 22.4075 12.1463C22.5576 11.513 22.8279 10.0246 22.0172 9.73963C21.2365 9.45463 20.4258 10.753 20.0655 11.2596C19.3749 12.2096 18.8044 13.2863 17.9937 14.1413C17.1529 14.9646 16.102 15.503 15.2913 16.358C13.0394 18.8596 14.6308 21.963 14.6308 24.908" stroke="white" stroke-miterlimit="10" stroke-linecap="round" stroke-linejoin="round"/>
<path d="M12.8321 13.2867C12.5919 13.1283 6.31641 9.075 6.31641 4.76833C6.31641 2.67833 7.90779 1 9.88951 1C11.2107 1 12.4117 1.76 13.0122 2.96333C13.6127 1.79167 14.8138 1 16.1349 1C18.1167 1 19.708 2.67833 19.708 4.76833C19.708 9.075 13.4326 13.1283 13.1624 13.2867L12.9822 13.3817L12.8321 13.2867Z" stroke="white" stroke-miterlimit="10" stroke-linecap="round" stroke-linejoin="round"/>
<path d="M16.1328 3.3125C16.8835 3.3125 17.514 3.9775 17.514 4.76917" stroke="white" stroke-miterlimit="10" stroke-linecap="round" stroke-linejoin="round"/>
<path d="M6.13454 24.9703C5.83428 21.582 3.40217 19.8403 2.08102 16.9587C0.970053 14.457 1.00008 11.322 1.00008 8.63034C1.00008 7.26867 1.06013 5.90701 1.27031 4.57701C1.36039 4.00701 1.45047 2.74034 2.05099 2.45534C3.85256 1.60034 3.40217 7.83867 3.43219 8.40867" stroke="white" stroke-miterlimit="10" stroke-linecap="round" stroke-linejoin="round"/>
<path d="M6.70557 18.0363C5.89486 15.9463 4.0933 14.363 3.61288 12.1463C3.46275 11.513 3.19251 10.0246 4.00322 9.73963C4.7839 9.45463 5.5946 10.753 5.95492 11.2596C6.64552 12.2096 7.21601 13.2863 8.02672 14.1413C8.86745 14.9646 9.91836 15.503 10.7291 16.358C12.981 18.8596 11.3896 21.963 11.3896 24.908" stroke="white" stroke-miterlimit="10" stroke-linecap="round" stroke-linejoin="round"/>
</svg>
