<svg width="502" height="494" viewBox="0 0 502 494" fill="none" xmlns="http://www.w3.org/2000/svg">
<path fill-rule="evenodd" clip-rule="evenodd" d="M258.468 204.679C273.31 204.103 288.151 201.883 301.835 207.647C318.174 214.53 333.322 224.784 342.355 240.015C352.877 257.755 365.547 280.58 355.905 298.812C346.03 317.484 318.413 314.786 298.725 322.514C285.111 327.857 273.009 335.455 258.468 337.054C242.328 338.829 224.543 341.379 211.203 332.139C197.785 322.844 197.369 303.927 189.794 289.485C180.038 270.884 153.51 255.252 160.491 235.446C167.528 215.481 197.255 217.276 217.485 210.923C230.998 206.68 244.313 205.229 258.468 204.679Z" fill="#00AEC7"/>
<path d="M181.39 287.17C175.07 305.929 159.18 344.96 146.179 351.021C129.927 358.596 27.5438 395.391 17.2513 394.85C6.95882 394.309 1 369.418 1 363.466C1 357.514 12.3759 337.493 45.4203 356.973C58.4162 364.634 110.967 321.26 115.843 313.143C120.718 305.027 134.803 230.354 145.095 215.203C149.572 208.613 165.118 201.818 181.39 195.843M181.39 287.17C186.59 300.157 198.725 304.125 204.142 304.486M181.39 287.17C177.056 276.348 172.875 258.5 181.39 233.06V195.843M225.81 178.949C227.11 175.053 227.796 163.257 227.977 157.846M225.81 178.949C224.892 181.701 202.528 188.081 181.39 195.843M225.81 178.949C224.366 201.315 227.25 237.875 251 237.875C274.75 237.875 278.537 198.79 277.273 178.949M227.977 157.846C238.269 165.963 267.522 164.881 276.731 157.846M227.977 157.846C223.782 154.538 219.49 146.863 216.047 136.743M276.731 157.846C300.025 138.908 309.234 78.8449 290.815 49.6253C271.856 26.8984 235.561 25.8162 218.226 49.6253M276.731 157.846C276.189 164.881 275.648 175.703 277.273 178.949M218.226 49.6253C215.518 66.9401 227.11 74.732 247.479 82.0911C277.814 90.7488 291.574 15.3187 238.269 1.46644C224.185 -2.19305 195.691 15.968 190.057 45.837C187.89 60.2667 182.69 91.6152 179.223 101.572C174.889 114.017 165.138 130.25 155.929 135.661C146.72 141.072 179.223 148.648 192.224 147.024C202.625 145.726 212.44 139.629 216.047 136.743M218.226 49.6253C204.534 75.4596 207.932 112.891 216.047 136.743M277.273 178.949C278.856 182.113 304.557 188.175 322.776 192.863M322.776 287.17C323.21 289.335 343.361 334.247 361.238 354.268C372.072 362.492 467.955 400.803 489.623 393.227C497.207 388.357 500.999 369.49 500.999 361.302C500.999 352.644 486.915 343.987 476.081 349.939C467.413 354.7 453.69 355.53 447.912 355.35C426.677 347.558 388.865 319.637 380.739 301.78C377.273 284.898 363.405 212.498 340.653 198.429C339.548 197.326 332.153 195.277 322.776 192.863M322.776 287.17C327.471 276.709 331.625 259.75 322.776 233.06C322.776 213.58 322.776 198.146 322.776 192.863M322.776 287.17C320.668 291.664 314.028 299.656 302.191 302.976M204.142 304.486C225.088 304.486 271.747 304.486 290.815 304.486C295.038 304.486 298.825 303.92 302.191 302.976M204.142 304.486C203.819 316.817 201.741 335.904 196.604 354.268M302.191 302.976C302.191 316.42 304.663 336.217 309.9 354.268M338.486 397.015C438.703 329.377 464.705 433.81 380.739 449.502L272.939 492.249H265.897M338.486 397.015L257.229 453.831M338.486 397.015C325.18 392.661 315.791 374.57 309.9 354.268M257.229 453.831C246.756 456.897 223.643 462.705 214.976 461.406C206.309 460.108 199.086 455.815 196.558 453.831C184.098 447.953 176.289 455.448 171.435 464.112M257.229 453.831L265.897 492.249M257.229 453.831L166.557 402.426M171.435 464.112C165.331 475.005 166.9 489.838 184.098 492.249H265.897M171.435 464.112L89.2989 430.563C54.196 415.412 58.9631 352.644 116.926 374.288L166.557 402.426M166.557 402.426C181.494 394.013 190.921 374.584 196.604 354.268M196.604 354.268H309.9" stroke="#3A3A3A" stroke-width="2" stroke-linecap="round" stroke-linejoin="round"/>
</svg>
