<svg width="330" height="158" viewBox="0 0 330 158" fill="none" xmlns="http://www.w3.org/2000/svg">
<path fill-rule="evenodd" clip-rule="evenodd" d="M157.365 0.0649862C193.654 1.45349 205.557 26.4025 234.655 37.5966C262.997 48.5001 309.317 47.8539 324.337 64.3002C339.447 80.8451 321.06 100.202 307.2 117.032C294.365 132.616 279.076 149.952 248.519 156.363C219.287 162.496 188.89 149.497 157.365 148.468C128.995 147.542 99.5298 157.365 74.2795 150.674C48.1112 143.74 38.5043 127.668 26.6889 113.843C13.5215 98.4353 -6.61426 82.4655 2.13323 66.2542C10.9668 49.8834 45.7219 42.2084 71.2053 31.3425C98.9385 19.5174 121.382 -1.31184 157.365 0.0649862Z" fill="#F9F2EA"/>
</svg>
