<svg width="240" height="125" viewBox="0 0 240 125" fill="none" xmlns="http://www.w3.org/2000/svg">
<path fill-rule="evenodd" clip-rule="evenodd" d="M120.494 0.186139C152.894 -1.49511 183.391 8.49787 205.267 18.6499C224.677 27.6581 224.342 40.6345 232.689 52.2547C240.789 63.5303 242.218 73.938 232.689 85.0158C223.177 96.0738 209.619 98.9136 186.713 105.703C164.215 112.37 148.035 125.406 120.494 124.99C92.9229 124.574 79.8026 110.644 57.6531 103.755C35.8541 96.9742 21.4641 95.3659 10.2079 85.0158C-1.29379 74.44 -3.9242 56.2343 6.70803 45.5C16.7119 35.4001 31.3963 34.5092 49.7202 26.7211C72.5017 17.0383 88.2846 1.85745 120.494 0.186139Z" fill="#F9F2EA"/>
</svg>
