<svg width="241" height="153" viewBox="0 0 241 153" fill="none" xmlns="http://www.w3.org/2000/svg">
<path fill-rule="evenodd" clip-rule="evenodd" d="M118.049 0.843642C149.995 -1.43612 186.314 0.512796 210.06 11.5511C233.204 22.31 232.174 40.3349 236.817 56.0536C240.675 69.1195 243.915 82.3532 234.617 94.6998C225.619 106.648 205.365 114.638 186.348 123.068C165.179 132.453 145.057 142.347 118.049 146.374C83.4124 151.538 47.3699 156.929 20.9253 144.5C-6.39378 131.66 13.4078 112.412 6.39171 93.8935C0.738294 78.9715 -3.51075 66.1903 4.15831 51.5C11.8414 36.7828 18.6561 32.31 43.1605 23.4618C67.4161 14.7034 88.5321 2.95012 118.049 0.843642Z" fill="#F9F2EA"/>
</svg>
