<svg width="252" height="151" viewBox="0 0 252 151" fill="none" xmlns="http://www.w3.org/2000/svg">
<path fill-rule="evenodd" clip-rule="evenodd" d="M119.711 0.0073223C148.313 -0.403918 167.597 16.601 189.892 27.3283C210.879 37.4267 229.989 44.447 241.552 59C254.211 74.9332 256.47 91.2826 241.552 106.5C226.448 121.907 203.15 123.982 176.138 131.588C156.148 137.218 141.634 148.839 119.711 150.479C96.12 152.243 70.7213 149.647 52.0115 140.871C33.5933 132.231 31.9431 116.712 21.202 104.271C7.51215 88.4153 -5.05538 76.3325 2.05177 59C9.06019 41.9083 27.8088 39.3758 51.9389 29.3118C75.378 19.5361 91.1471 0.418019 119.711 0.0073223Z" fill="#F9F2EA"/>
</svg>
