<svg width="294" height="165" viewBox="0 0 294 165" fill="none" xmlns="http://www.w3.org/2000/svg">
<path fill-rule="evenodd" clip-rule="evenodd" d="M151.534 0.273182C185.407 1.66484 218.24 9.54881 241.741 22.7254C263.079 34.689 261.324 50.0406 272.785 68.2554C284.103 86.2442 294.981 95.3432 292.958 116.5C290.315 144.142 271.482 148.699 241.898 156.225C213.936 163.339 182.423 152.18 151.534 153.132C117.551 154.179 82.0125 171.864 53.3061 162.039C24.9548 152.335 37.5145 128.292 28.2474 110.934C19.4521 94.4599 -3.51844 80.0548 0.458232 63.05C4.83635 44.3287 22.927 26.4221 50.711 14.877C78.9333 3.14971 115.957 -1.18851 151.534 0.273182Z" fill="#F9F2EA"/>
</svg>
