<svg width="38" height="33" viewBox="0 0 38 33" fill="none" xmlns="http://www.w3.org/2000/svg">
<path d="M26.5777 32C25.5162 32 23.2725 31.8601 21.0892 31.5716C17.4819 31.0995 15.4798 30.435 14.9534 29.552C14.729 29.176 14.7549 28.7564 15.0138 28.3717C15.2641 27.9957 15.6783 27.8733 16.0925 27.7947C18.0946 27.4187 20.1399 27.3663 22.1247 27.3138C23.6608 27.2788 25.2573 27.2351 26.802 27.0428C26.9574 27.0253 27.0005 26.8941 27.0091 26.8417C27.0178 26.7892 27.0264 26.6581 26.8797 26.5881C26.2843 26.2996 25.732 26.0461 25.2918 25.8625C24.869 25.6876 24.6101 25.2767 24.6274 24.8133C24.6446 24.3674 24.9294 23.9915 25.3436 23.8516C26.7934 23.3795 28.8904 23.327 30.4179 23.2833C30.9702 23.2658 31.4449 23.2571 31.8159 23.2309C32.1266 23.2046 32.5149 23.2134 32.9292 23.2134C33.9561 23.2221 35.3541 23.2396 35.9151 22.75C36.1998 22.4965 36.1826 22.3216 36.1826 22.2691C36.1308 21.7008 34.8881 20.9664 34.2236 20.573C33.9561 20.4156 33.7317 20.2845 33.5591 20.1621C29.7362 17.4518 27.7168 13.5262 26.103 9.69683C25.9391 9.29465 25.7492 8.72636 25.5335 8.0619C24.7568 5.68383 23.4623 1.69706 21.5465 1.83695C20.9856 1.88066 20.0795 2.52764 18.9662 5.37783C18.1637 7.44116 17.5078 10.0116 17.0245 11.8826C16.9814 12.0574 16.9382 12.2323 16.8951 12.3896C16.9987 12.5208 17.0936 12.6607 17.1885 12.8093C18.4053 14.7153 18.0774 16.1928 17.4215 16.866C16.9814 17.3294 16.3687 17.4431 15.9027 17.1545C15.5661 16.9447 14.8499 16.2103 15.592 13.9983C15.7042 13.6661 15.8336 13.1765 15.989 12.5907C15.0397 11.5066 13.7107 10.8684 12.3645 10.8684C12.3559 10.8684 12.3472 10.8684 12.3386 10.8684C10.8974 10.8771 9.65474 11.6028 8.84354 12.9142C6.72063 16.3152 4.58045 19.6288 1.70675 22.7587C1.55142 22.9249 1.29253 22.9336 1.12856 22.7762C0.964597 22.6189 0.955971 22.3566 1.11131 22.1905C3.93323 19.1217 6.05614 15.8431 8.15316 12.4683C9.11106 10.9296 10.6385 10.0465 12.3386 10.0378C12.3472 10.0378 12.3559 10.0378 12.3645 10.0378C13.7711 10.0378 15.1605 10.6323 16.2306 11.6552C17.5855 6.36578 19.1043 1.18997 21.4775 1.00637C24.0319 0.814028 25.3954 5.01937 26.3015 7.79962C26.5086 8.44659 26.6899 9.00614 26.8452 9.37334C28.4072 13.0978 30.3575 16.8922 34.0165 19.4889C34.1632 19.5938 34.379 19.7162 34.6292 19.8648C35.6389 20.4594 36.8988 21.2112 36.9938 22.1992C37.0369 22.6276 36.8557 23.0298 36.4501 23.3882C35.6562 24.0964 34.1373 24.0789 32.9205 24.0614C32.5322 24.0527 32.1611 24.0527 31.8763 24.0702C31.488 24.0964 31.0047 24.1139 30.4438 24.1314C28.9681 24.1751 26.9401 24.2276 25.6025 24.656C25.4817 24.6997 25.4558 24.7958 25.4558 24.857C25.4558 24.9008 25.4644 25.0406 25.6111 25.1018C26.0685 25.2942 26.6295 25.5477 27.2422 25.845C27.665 26.0548 27.898 26.5095 27.829 26.9816C27.7513 27.4537 27.3889 27.8121 26.9142 27.8733C25.335 28.0744 23.7212 28.1094 22.1592 28.1531C20.2089 28.2056 18.1896 28.2493 16.2565 28.6165C16.0321 28.6602 15.7905 28.7214 15.7042 28.8438C15.592 29.0099 15.6352 29.0799 15.6697 29.1323C15.8078 29.3596 16.6017 30.1465 21.21 30.7585C23.8248 31.0995 26.4827 31.2219 27.0005 31.1607C27.2249 31.1345 27.4234 31.3006 27.4493 31.5279C27.4752 31.7552 27.3112 31.9563 27.0868 31.9825C26.966 31.9913 26.7934 32 26.5777 32ZM16.6103 13.4475C16.524 13.771 16.4377 14.0421 16.3687 14.2606C15.8854 15.7032 16.127 16.3152 16.3342 16.4376C16.4636 16.5163 16.6621 16.4551 16.8347 16.2802C17.2921 15.8081 17.387 14.759 16.6103 13.4475Z" fill="white" stroke="white" stroke-width="0.3"/>
</svg>
