<svg width="32" height="32" viewBox="0 0 32 32" fill="none" xmlns="http://www.w3.org/2000/svg">
<path d="M26.5887 10.418C26.3137 9.43768 25.6261 8.73746 24.6635 8.45738C21.7757 8.17729 18.8878 7.89721 16 8.03725C13.1122 8.03725 10.2243 8.17729 7.3365 8.45738C6.5114 8.73746 5.68631 9.57772 5.41128 10.418C4.86291 14.7882 4.86291 19.2118 5.41128 23.582C5.68631 24.5623 6.37389 25.2625 7.3365 25.5426C10.2243 25.8227 13.1122 26.1028 16 25.9627C18.8878 25.9627 21.7757 25.8227 24.6635 25.5426C25.6261 25.2625 26.3137 24.5623 26.5887 23.582C27.1371 19.2118 27.1371 14.7882 26.5887 10.418ZM13.2497 21.2013V12.7987L20.4005 17L13.2497 21.2013Z" fill="#ffffff"/>
</svg>
