<svg width="22" height="23" viewBox="0 0 22 23" fill="none" xmlns="http://www.w3.org/2000/svg">
<g clip-path="url(#clip0_2_498)">
<path d="M11 22.29C4.95322 22.29 0 17.3368 0 11.29C0 5.24326 4.95322 0.290039 11 0.290039C17.0468 0.290039 22 5.24326 22 11.29C22 17.3368 17.0468 22.29 11 22.29ZM11 1.57659C5.66082 1.57659 1.28655 5.95086 1.28655 11.29C1.28655 16.6292 5.66082 21.0035 11 21.0035C16.3392 21.0035 20.7135 16.6292 20.7135 11.29C20.7135 5.95086 16.3392 1.57659 11 1.57659Z" fill="white"/>
<path d="M11.0649 17.6582C8.68477 17.6582 6.81927 16.1144 6.81927 14.1845C6.81927 13.7986 7.07658 13.5413 7.46255 13.5413C7.84851 13.5413 8.10582 13.7986 8.10582 14.1845C8.10582 15.4068 9.4567 16.3717 11.0649 16.3717C12.7374 16.3717 14.0239 15.4068 14.0239 14.1845C14.0239 13.6056 13.445 11.9974 11.0006 11.9974C8.04149 11.9974 6.69062 9.93893 6.69062 8.4594C6.69062 6.52957 8.62044 4.92139 10.9362 4.92139C13.3163 4.92139 15.1818 6.46525 15.1818 8.4594C15.1818 8.84536 14.9245 9.10267 14.5386 9.10267C14.1526 9.10267 13.8953 8.84536 13.8953 8.4594C13.8953 7.23718 12.5444 6.20794 10.9362 6.20794C9.26372 6.20794 7.97717 7.23718 7.97717 8.4594C7.97717 9.167 8.68477 10.7109 11.0006 10.7109C14.1526 10.7109 15.3105 12.8337 15.3105 14.1845C15.3105 16.1144 13.3807 17.6582 11.0649 17.6582Z" fill="white"/>
<path d="M11.0008 6.14363C10.6149 6.14363 10.3576 5.88632 10.3576 5.50035V3.69918C10.3576 3.31322 10.6149 3.05591 11.0008 3.05591C11.3868 3.05591 11.6441 3.31322 11.6441 3.69918V5.50035C11.6441 5.82199 11.3868 6.14363 11.0008 6.14363Z" fill="white"/>
<path d="M11.0008 19.5235C10.6149 19.5235 10.3576 19.2662 10.3576 18.8802V17.0791C10.3576 16.6931 10.6149 16.4358 11.0008 16.4358C11.3868 16.4358 11.6441 16.6931 11.6441 17.0791V18.8802C11.6441 19.2662 11.3868 19.5235 11.0008 19.5235Z" fill="white"/>
</g>
<defs>
<clipPath id="clip0_2_498">
<rect width="22" height="22" fill="white" transform="translate(0 0.290039)"/>
</clipPath>
</defs>
</svg>
