<svg width="26" height="21" viewBox="0 0 26 21" fill="none" xmlns="http://www.w3.org/2000/svg">
<path d="M2.31847 20.768C1.38914 17.652 0.924469 14.6727 0.924469 11.83C0.924469 8.33133 1.79914 5.598 3.54847 3.63C5.2978 1.60733 7.86714 0.595998 11.2565 0.595998V5.106C9.83514 5.106 8.76914 5.54333 8.05847 6.418C7.40247 7.238 7.07447 8.52266 7.07447 10.272V11.748H11.8305V20.768H2.31847ZM16.1765 20.768C15.2471 17.652 14.7825 14.6727 14.7825 11.83C14.7825 8.33133 15.6571 5.598 17.4065 3.63C19.1558 1.60733 21.7251 0.595998 25.1145 0.595998V5.106C23.6931 5.106 22.6271 5.54333 21.9165 6.418C21.2605 7.238 20.9325 8.52266 20.9325 10.272V11.748H25.6885V20.768H16.1765Z" fill="#00AEC7"/>
</svg>
