<svg width="238" height="59" viewBox="0 0 238 59" fill="none" xmlns="http://www.w3.org/2000/svg">
<g clip-path="url(#clip0)">
<path d="M2.87218 4.50347C2.87218 5.48248 2.39348 5.97199 1.43609 5.97199C0.478696 5.97199 0 5.48248 0 4.50347C0 3.52445 0.478696 3.03495 1.43609 3.03495C2.39348 3.03495 2.87218 3.52445 2.87218 4.50347ZM2.34561 34.2655H0.526566V11.0629H2.34561V34.2655Z" fill="white"/>
<path d="M11.9525 34.2655H10.1334V0H11.9525V34.2655Z" fill="white"/>
<path d="M22.5642 34.2655H20.7451V0H22.5642V34.2655Z" fill="white"/>
<path d="M48.0155 24.3775C48.0155 26.5639 47.7283 28.3098 47.1538 29.6152C46.3879 31.3448 45.0476 32.7317 43.1328 33.776C42.4945 34.1023 41.8563 34.3634 41.218 34.5592C40.5797 34.7876 39.9574 34.9019 39.3511 34.9019C38.5214 34.9019 37.7235 34.8203 36.9576 34.6571C36.2236 34.4939 35.4736 34.2002 34.7077 33.776C32.761 32.7317 31.4207 31.3448 30.6867 29.6152C30.1122 28.2772 29.825 26.5313 29.825 24.3775V11.0629H31.6441V24.1817C31.6441 26.107 31.8834 27.6572 32.3621 28.832C32.9685 30.3331 34.0216 31.459 35.5215 32.2096C36.5427 32.7317 37.6757 32.9928 38.9203 32.9928C40.1649 32.9928 41.2978 32.7317 42.319 32.2096C43.787 31.459 44.8242 30.3494 45.4305 28.8809C45.9411 27.6408 46.1964 26.0744 46.1964 24.1817V11.0629H48.0155V24.3775Z" fill="white"/>
<path d="M82.7689 34.2655H80.9498V19.6292C80.9498 18.7155 80.886 17.8996 80.7583 17.1817C80.6626 16.4311 80.4073 15.7132 79.9924 15.0279C79.6095 14.3426 79.0669 13.7715 78.3648 13.3146C77.4074 12.6619 76.3064 12.3356 75.0618 12.3356C73.7534 12.3356 72.6524 12.6619 71.7588 13.3146C71.1206 13.7715 70.578 14.3589 70.1313 15.0768C69.7164 15.7948 69.4451 16.578 69.3175 17.4265C69.2217 18.2749 69.1739 19.1887 69.1739 20.1677V34.2655H67.3548V19.5803C67.3548 18.6665 67.291 17.867 67.1633 17.1817C67.0676 16.4964 66.7963 15.7948 66.3496 15.0768C65.9347 14.3589 65.4241 13.7878 64.8177 13.3635C63.8603 12.6782 62.7434 12.3356 61.4669 12.3356C60.1903 12.3356 59.0893 12.6456 58.1639 13.2656C57.4937 13.7225 56.9512 14.3099 56.5363 15.0279C56.1533 15.7132 55.898 16.4148 55.7704 17.1327C55.6427 17.8181 55.5789 18.6502 55.5789 19.6292V34.2655H53.7598V19.6782C53.7598 17.7202 53.9992 16.1537 54.4779 14.9789C55.1162 13.4125 56.265 12.205 57.9245 11.3566C59.0096 10.8018 60.2382 10.5244 61.6105 10.5244C63.0785 10.5244 64.355 10.8507 65.44 11.5034C66.7485 12.2866 67.7059 13.4941 68.3122 15.1258C68.8228 13.5593 69.6685 12.4172 70.8493 11.6992C72.0301 10.9486 73.4343 10.5734 75.0618 10.5734C76.3703 10.5734 77.5511 10.8344 78.6042 11.3566C80.2318 12.1724 81.3647 13.3799 82.0029 14.9789C82.5135 16.219 82.7689 17.7854 82.7689 19.6782V34.2655Z" fill="white"/>
<path d="M91.3656 4.50347C91.3656 5.48248 90.8869 5.97199 89.9295 5.97199C88.9721 5.97199 88.4934 5.48248 88.4934 4.50347C88.4934 3.52445 88.9721 3.03495 89.9295 3.03495C90.8869 3.03495 91.3656 3.52445 91.3656 4.50347ZM90.839 34.2655H89.02V11.0629H90.839V34.2655Z" fill="white"/>
<path d="M115.285 34.2655H113.466V21.1467C113.466 19.2213 113.227 17.6712 112.748 16.4964C112.142 14.9952 111.089 13.8694 109.589 13.1188C108.568 12.5967 107.435 12.3356 106.19 12.3356C104.946 12.3356 103.813 12.5967 102.791 13.1188C101.323 13.8694 100.302 14.93 99.7278 16.3006C99.1853 17.6386 98.914 19.2539 98.914 21.1467V34.2655H97.095V20.9509C97.095 18.8297 97.3822 17.0838 97.9566 15.7132C98.7225 13.9183 100.063 12.5314 101.978 11.5524C102.552 11.2587 103.206 11.0302 103.94 10.8671C104.706 10.6713 105.456 10.5734 106.19 10.5734C107.754 10.5734 109.158 10.8997 110.403 11.5524C112.318 12.5314 113.658 13.9183 114.424 15.7132C114.998 17.0512 115.285 18.7971 115.285 20.9509V34.2655Z" fill="white"/>
<path d="M143.337 34.2655H141.518V23.9369C141.518 20.1187 140.545 17.1817 138.598 15.1258C136.843 13.2656 134.593 12.3356 131.848 12.3356C128.88 12.3356 126.423 13.3962 124.476 15.5174C122.562 17.6059 121.604 20.0861 121.604 22.9579C121.604 25.797 122.578 28.1793 124.524 30.1047C126.471 32.0301 128.912 32.9928 131.848 32.9928C133.38 32.9928 134.736 32.7317 135.917 32.2096C137.13 31.6548 138.359 30.7737 139.603 29.5662V31.7201C138.582 32.6664 137.449 33.417 136.204 33.9718C134.96 34.4939 133.54 34.755 131.944 34.755C128.721 34.755 125.928 33.7107 123.567 31.6222C121.046 29.3704 119.785 26.4823 119.785 22.9579C119.785 19.6945 120.854 16.8717 122.992 14.4894C125.322 11.8787 128.306 10.5734 131.944 10.5734C135.103 10.5734 137.72 11.6013 139.795 13.6572C142.156 16.0069 143.337 19.3029 143.337 23.5453V34.2655Z" fill="white"/>
<path d="M158.94 34.2655H155.684C153.004 34.2655 151.153 33.417 150.132 31.7201C149.429 30.5452 149.078 28.8157 149.078 26.5313V4.69927H150.897V11.0629H158.94V12.8251H150.897V26.4334C150.897 27.6082 150.929 28.473 150.993 29.0278C151.057 29.5499 151.296 30.1536 151.711 30.8389C152.126 31.4916 152.669 31.9322 153.339 32.1606C154.009 32.3891 154.791 32.5033 155.684 32.5033H158.94V34.2655Z" fill="white"/>
<path d="M164.105 4.50347C164.105 5.48248 163.626 5.97199 162.669 5.97199C161.711 5.97199 161.233 5.48248 161.233 4.50347C161.233 3.52445 161.711 3.03495 162.669 3.03495C163.626 3.03495 164.105 3.52445 164.105 4.50347ZM163.578 34.2655H161.759V11.0629H163.578V34.2655Z" fill="white"/>
<path d="M192.046 22.6642C192.046 26.0255 190.913 28.8809 188.647 31.2306C186.381 33.5802 183.637 34.755 180.414 34.755C177.19 34.755 174.446 33.5802 172.18 31.2306C169.914 28.8809 168.781 26.0255 168.781 22.6642C168.781 19.3029 169.914 16.4474 172.18 14.0978C174.446 11.7482 177.19 10.5734 180.414 10.5734C183.637 10.5734 186.381 11.7482 188.647 14.0978C190.913 16.4474 192.046 19.3029 192.046 22.6642Z" fill="white"/>
<path d="M215.98 34.2655H214.161V21.1467C214.161 19.2213 213.922 17.6712 213.443 16.4964C212.837 14.9952 211.783 13.8694 210.283 13.1188C209.262 12.5967 208.129 12.3356 206.885 12.3356C205.64 12.3356 204.507 12.5967 203.486 13.1188C202.018 13.8694 200.997 14.93 200.422 16.3006C199.88 17.6386 199.609 19.2539 199.609 21.1467V34.2655H197.789V20.9509C197.789 18.8297 198.077 17.0838 198.651 15.7132C199.417 13.9183 200.757 12.5314 202.672 11.5524C203.247 11.2587 203.901 11.0302 204.635 10.8671C205.401 10.6713 206.151 10.5734 206.885 10.5734C208.448 10.5734 209.853 10.8997 211.097 11.5524C213.012 12.5314 214.352 13.9183 215.118 15.7132C215.693 17.0512 215.98 18.7971 215.98 20.9509V34.2655Z" fill="white"/>
<path d="M238 28.3914C238 29.5336 237.713 30.5616 237.138 31.4753C236.564 32.3564 235.686 33.0417 234.506 33.5312C233.357 34.0207 231.873 34.2655 230.054 34.2655H220.671V32.5033H230.245C231.394 32.5033 232.351 32.4054 233.117 32.2096C234.394 31.8832 235.271 31.2958 235.75 30.4473C235.91 30.1863 236.021 29.8926 236.085 29.5662C236.149 29.2399 236.181 28.9136 236.181 28.5872C236.181 27.5429 235.91 26.6781 235.367 25.9928C234.857 25.3075 234.139 24.7691 233.213 24.3775C232.288 23.9532 230.835 23.5127 228.857 23.0558C226.878 22.5989 225.602 22.2726 225.027 22.0768C223.719 21.6199 222.714 20.9999 222.012 20.2166C221.118 19.205 220.671 17.9812 220.671 16.5453C220.671 15.6316 220.847 14.8321 221.198 14.1468C221.676 13.1351 222.379 12.3682 223.304 11.8461C224.261 11.3239 225.682 11.0629 227.564 11.0629H236.468V12.8251H227.229C226.08 12.8251 225.331 12.874 224.979 12.9719C224.182 13.2004 223.543 13.6899 223.065 14.4405C222.873 14.7342 222.73 15.0931 222.634 15.5174C222.538 15.909 222.49 16.2843 222.49 16.6432C222.49 17.4591 222.746 18.2097 223.256 18.895C223.671 19.4497 224.405 19.9229 225.458 20.3145C226.224 20.6082 227.501 20.9672 229.288 21.3915C233.085 22.2399 235.511 23.2516 236.564 24.4264C237.521 25.4707 238 26.7924 238 28.3914Z" fill="white"/>
<path d="M191.729 10.9555C192.687 10.9555 193.165 10.466 193.165 9.487C193.165 8.50799 192.687 8.01848 191.729 8.01848C190.772 8.01848 190.293 8.50799 190.293 9.487C190.293 10.466 190.772 10.9555 191.729 10.9555Z" fill="white"/>
<path d="M0 48.0072H1.428L2.45933 51.894C2.75551 53.1315 2.94062 53.9511 3.01467 54.353H3.06227C3.16804 53.8771 3.39547 53.0627 3.74453 51.9099L4.998 48.0072H6.17213L7.36213 51.8465C7.63716 52.7137 7.86458 53.5492 8.0444 54.353H8.092C8.19778 53.7185 8.39347 52.8882 8.67907 51.8623L9.77387 48.0072H11.1543L8.67907 55.6857H7.40973L6.2356 52.021C5.92884 51.0162 5.70142 50.1701 5.55333 49.4826H5.5216C5.36293 50.2441 5.13022 51.0955 4.82347 52.0368L3.58587 55.6857H2.31653L0 48.0072Z" fill="white"/>
<path d="M18.5729 52.1003H13.1941C13.2047 52.9887 13.4533 53.655 13.9399 54.0992C14.437 54.5328 15.0611 54.7497 15.8121 54.7497C16.6266 54.7497 17.3353 54.6174 17.9383 54.353L18.1921 55.3525C17.4623 55.6804 16.6055 55.8443 15.6217 55.8443C14.4582 55.8443 13.5379 55.49 12.8609 54.7814C12.1839 54.0728 11.8455 53.1368 11.8455 51.9734C11.8455 50.7888 12.1734 49.8052 12.8292 49.0226C13.4956 48.2294 14.3735 47.8327 15.4631 47.8327C16.0554 47.8327 16.5684 47.9544 17.0021 48.1976C17.4358 48.4303 17.7637 48.7423 17.9859 49.1336C18.208 49.5144 18.3667 49.9004 18.4619 50.2917C18.5676 50.6725 18.6205 51.0585 18.6205 51.4498C18.6205 51.7248 18.6047 51.9416 18.5729 52.1003ZM13.21 51.1008H17.2719C17.2719 50.8576 17.2454 50.6143 17.1925 50.3711C17.1396 50.1278 17.0444 49.8845 16.9069 49.6413C16.7694 49.398 16.5684 49.2024 16.304 49.0543C16.0395 48.9062 15.7222 48.8322 15.352 48.8322C14.7067 48.8322 14.2043 49.0649 13.8447 49.5302C13.485 49.9956 13.2735 50.5191 13.21 51.1008Z" fill="white"/>
<path d="M20.3496 55.6857V44.4219H21.7459V55.6857H20.3496Z" fill="white"/>
<path d="M24.0994 55.6857V44.4219H25.4956V55.6857H24.0994Z" fill="white"/>
<path d="M31.2115 53.7026V44.4219H32.6077V49.2288H32.6395C33.1789 48.2981 34.0516 47.8327 35.2575 47.8327C36.2095 47.8327 36.9869 48.1976 37.5899 48.9274C38.1928 49.6466 38.4943 50.5826 38.4943 51.7354C38.4943 53.0363 38.1505 54.0516 37.4629 54.7814C36.7754 55.5006 35.9662 55.8602 35.0353 55.8602C33.8824 55.8602 33.0256 55.3789 32.4649 54.4165H32.4332L32.3539 55.6857H31.148C31.1903 55.2203 31.2115 54.5593 31.2115 53.7026ZM32.6077 51.2277V52.6079C32.6077 52.7877 32.6236 52.957 32.6553 53.1156C32.7928 53.6021 33.052 53.9987 33.4328 54.3054C33.8136 54.6016 34.2526 54.7497 34.7497 54.7497C35.4796 54.7497 36.0508 54.48 36.4633 53.9406C36.8759 53.4012 37.0821 52.6873 37.0821 51.7989C37.0821 50.9845 36.8812 50.3023 36.4792 49.7523C36.0772 49.2024 35.5166 48.9274 34.7973 48.9274C34.3108 48.9274 33.8718 49.086 33.4804 49.4033C33.089 49.71 32.8246 50.1225 32.6871 50.6408C32.6342 50.8311 32.6077 51.0268 32.6077 51.2277Z" fill="white"/>
<path d="M46.4171 52.1003H41.0383C41.0488 52.9887 41.2974 53.655 41.784 54.0992C42.2812 54.5328 42.9052 54.7497 43.6563 54.7497C44.4708 54.7497 45.1795 54.6174 45.7824 54.353L46.0363 55.3525C45.3064 55.6804 44.4496 55.8443 43.4659 55.8443C42.3023 55.8443 41.382 55.49 40.7051 54.7814C40.0281 54.0728 39.6896 53.1368 39.6896 51.9734C39.6896 50.7888 40.0175 49.8052 40.6733 49.0226C41.3397 48.2294 42.2177 47.8327 43.3072 47.8327C43.8996 47.8327 44.4126 47.9544 44.8463 48.1976C45.28 48.4303 45.6079 48.7423 45.83 49.1336C46.0521 49.5144 46.2108 49.9004 46.306 50.2917C46.4118 50.6725 46.4647 51.0585 46.4647 51.4498C46.4647 51.7248 46.4488 51.9416 46.4171 52.1003ZM41.0541 51.1008H45.116C45.116 50.8576 45.0896 50.6143 45.0367 50.3711C44.9838 50.1278 44.8886 49.8845 44.7511 49.6413C44.6136 49.398 44.4126 49.2024 44.1481 49.0543C43.8837 48.9062 43.5664 48.8322 43.1961 48.8322C42.5509 48.8322 42.0484 49.0649 41.6888 49.5302C41.3292 49.9956 41.1176 50.5191 41.0541 51.1008Z" fill="white"/>
<path d="M49.59 55.6857H48.1938V48.0072H49.59V55.6857ZM48.876 46.7064H48.8602C48.6169 46.7064 48.4159 46.6217 48.2572 46.4525C48.0986 46.2833 48.0192 46.0824 48.0192 45.8497C48.0192 45.5958 48.0986 45.3896 48.2572 45.231C48.4265 45.0617 48.638 44.9771 48.8919 44.9771C49.1458 44.9771 49.352 45.0617 49.5107 45.231C49.6694 45.3896 49.7487 45.5958 49.7487 45.8497C49.7487 46.0929 49.6694 46.2992 49.5107 46.4684C49.352 46.627 49.1405 46.7064 48.876 46.7064Z" fill="white"/>
<path d="M51.9125 55.6857V50.0855C51.9125 49.2605 51.8914 48.5678 51.849 48.0072H53.0866L53.166 49.2605H53.1977C53.4093 48.8692 53.7372 48.5361 54.1814 48.2611C54.6257 47.9755 55.144 47.8327 55.7364 47.8327C56.0326 47.8327 56.3234 47.8856 56.609 47.9914C56.9052 48.0866 57.1961 48.2505 57.4817 48.4832C57.7673 48.7053 58 49.0437 58.1798 49.4985C58.3597 49.9427 58.4496 50.4768 58.4496 51.1008V55.6857H57.0533V51.2595C57.0533 50.5826 56.9105 50.0326 56.6249 49.6096C56.3393 49.1865 55.8898 48.975 55.2762 48.975C54.8426 48.975 54.4565 49.1125 54.118 49.3875C53.7795 49.6624 53.5415 50.0009 53.404 50.4028C53.3405 50.5826 53.3088 50.7994 53.3088 51.0532V55.6857H51.9125Z" fill="white"/>
<path d="M67.2823 50.1014V54.5593C67.2823 56.2198 66.9174 57.3937 66.1876 58.0812C65.5 58.6946 64.5639 59.0013 63.3792 59.0013C62.3108 59.0013 61.4593 58.7898 60.8246 58.3668L61.1737 57.288C61.7978 57.7004 62.5488 57.9067 63.4268 57.9067C64.1884 57.9067 64.7913 57.6899 65.2356 57.2562C65.6798 56.8226 65.902 56.1404 65.902 55.2097V54.3689H65.8702C65.6481 54.7497 65.3255 55.0617 64.9024 55.3049C64.4898 55.5376 63.998 55.6539 63.4268 55.6539C62.4748 55.6539 61.692 55.2996 61.0785 54.591C60.465 53.8718 60.1582 52.9728 60.1582 51.894C60.1582 50.6566 60.502 49.673 61.1896 48.9433C61.8771 48.2029 62.6916 47.8327 63.633 47.8327C64.7543 47.8327 65.5529 48.2769 66.0289 49.1654H66.0606L66.1082 48.0072H67.3458C67.3035 48.4832 67.2823 49.1812 67.2823 50.1014ZM65.8861 52.4017V51.0215C65.8861 50.7677 65.8596 50.5614 65.8067 50.4028C65.6692 49.9692 65.4312 49.6148 65.0928 49.3399C64.7648 49.0543 64.3523 48.9115 63.8552 48.9115C63.1782 48.9115 62.6281 49.1759 62.205 49.7047C61.7819 50.2336 61.5704 50.9422 61.5704 51.8306C61.5704 52.6132 61.766 53.269 62.1574 53.7978C62.5594 54.3266 63.12 54.591 63.8393 54.591C64.2836 54.591 64.6802 54.4641 65.0293 54.2103C65.3889 53.9459 65.6375 53.5915 65.775 53.1473C65.8491 52.9358 65.8861 52.6873 65.8861 52.4017Z" fill="white"/>
<path d="M78.1749 54.353L78.4129 55.4001C77.7889 55.6962 77.0537 55.8443 76.2075 55.8443C75.0545 55.8443 74.1289 55.4847 73.4308 54.7655C72.7327 54.0463 72.3836 53.0997 72.3836 51.9258C72.3836 50.7307 72.7591 49.7523 73.5101 48.9908C74.2717 48.2188 75.2713 47.8327 76.5089 47.8327C77.2917 47.8327 77.9369 47.9702 78.4447 48.2452L78.1273 49.3081C77.6619 49.0649 77.1225 48.9433 76.5089 48.9433C75.6627 48.9433 74.9963 49.2235 74.5097 49.7841C74.0337 50.334 73.7957 51.0215 73.7957 51.8465C73.7957 52.7137 74.0443 53.4117 74.5415 53.9406C75.0492 54.4588 75.6892 54.7179 76.4613 54.7179C77.0537 54.7179 77.6249 54.5963 78.1749 54.353Z" fill="white"/>
<path d="M86.1302 52.1003H80.7514C80.762 52.9887 81.0106 53.655 81.4972 54.0992C81.9943 54.5328 82.6184 54.7497 83.3694 54.7497C84.1839 54.7497 84.8926 54.6174 85.4956 54.353L85.7494 55.3525C85.0196 55.6804 84.1628 55.8443 83.179 55.8443C82.0155 55.8443 81.0952 55.49 80.4182 54.7814C79.7412 54.0728 79.4028 53.1368 79.4028 51.9734C79.4028 50.7888 79.7307 49.8052 80.3865 49.0226C81.0529 48.2294 81.9308 47.8327 83.0203 47.8327C83.6127 47.8327 84.1257 47.9544 84.5594 48.1976C84.9931 48.4303 85.321 48.7423 85.5432 49.1336C85.7653 49.5144 85.924 49.9004 86.0191 50.2917C86.1249 50.6725 86.1778 51.0585 86.1778 51.4498C86.1778 51.7248 86.1619 51.9416 86.1302 52.1003ZM80.7673 51.1008H84.8291C84.8291 50.8576 84.8027 50.6143 84.7498 50.3711C84.6969 50.1278 84.6017 49.8845 84.4642 49.6413C84.3267 49.398 84.1257 49.2024 83.8613 49.0543C83.5968 48.9062 83.2795 48.8322 82.9093 48.8322C82.264 48.8322 81.7616 49.0649 81.4019 49.5302C81.0423 49.9956 80.8308 50.5191 80.7673 51.1008Z" fill="white"/>
<path d="M87.9069 55.6857V50.0855C87.9069 49.2605 87.8858 48.5678 87.8434 48.0072H89.081L89.1604 49.2605H89.1921C89.4037 48.8692 89.7316 48.5361 90.1758 48.2611C90.6201 47.9755 91.1384 47.8327 91.7308 47.8327C92.027 47.8327 92.3178 47.8856 92.6034 47.9914C92.8996 48.0866 93.1905 48.2505 93.4761 48.4832C93.7617 48.7053 93.9944 49.0437 94.1742 49.4985C94.3541 49.9427 94.444 50.4768 94.444 51.1008V55.6857H93.0477V51.2595C93.0477 50.5826 92.9049 50.0326 92.6193 49.6096C92.3337 49.1865 91.8842 48.975 91.2707 48.975C90.837 48.975 90.4509 49.1125 90.1124 49.3875C89.7739 49.6624 89.5359 50.0009 89.3984 50.4028C89.3349 50.5826 89.3032 50.7994 89.3032 51.0532V55.6857H87.9069Z" fill="white"/>
<path d="M96.9633 46.5953L98.3278 46.167V48.0072H100.327V49.0702H98.3278V53.1949C98.3278 54.1891 98.6769 54.6862 99.375 54.6862C99.703 54.6862 99.9727 54.6545 100.184 54.591L100.248 55.6539C99.8881 55.7808 99.4755 55.8443 99.0101 55.8443C98.3649 55.8443 97.8624 55.6486 97.5028 55.2573C97.1431 54.8554 96.9633 54.1838 96.9633 53.2425V49.0702H95.7733V48.0072H96.9633V46.5953Z" fill="white"/>
<path d="M107.978 52.1003H102.599C102.61 52.9887 102.858 53.655 103.345 54.0992C103.842 54.5328 104.466 54.7497 105.217 54.7497C106.032 54.7497 106.74 54.6174 107.343 54.353L107.597 55.3525C106.867 55.6804 106.01 55.8443 105.027 55.8443C103.863 55.8443 102.943 55.49 102.266 54.7814C101.589 54.0728 101.25 53.1368 101.25 51.9734C101.25 50.7888 101.578 49.8052 102.234 49.0226C102.901 48.2294 103.779 47.8327 104.868 47.8327C105.46 47.8327 105.973 47.9544 106.407 48.1976C106.841 48.4303 107.169 48.7423 107.391 49.1336C107.613 49.5144 107.772 49.9004 107.867 50.2917C107.973 50.6725 108.025 51.0585 108.025 51.4498C108.025 51.7248 108.01 51.9416 107.978 52.1003ZM102.615 51.1008H106.677C106.677 50.8576 106.65 50.6143 106.597 50.3711C106.545 50.1278 106.449 49.8845 106.312 49.6413C106.174 49.398 105.973 49.2024 105.709 49.0543C105.445 48.9062 105.127 48.8322 104.757 48.8322C104.112 48.8322 103.609 49.0649 103.25 49.5302C102.89 49.9956 102.678 50.5191 102.615 51.1008Z" fill="white"/>
<path d="M109.755 55.6857V50.4028C109.755 49.4403 109.733 48.6418 109.691 48.0072H110.913L110.976 49.5144H111.024C111.193 49.0067 111.473 48.5995 111.865 48.2928C112.256 47.9861 112.69 47.8327 113.166 47.8327C113.251 47.8327 113.377 47.8433 113.547 47.8645V49.1812C113.356 49.1601 113.198 49.1495 113.071 49.1495C112.584 49.1495 112.172 49.3134 111.833 49.6413C111.505 49.9692 111.294 50.3975 111.198 50.9263C111.167 51.1378 111.151 51.3547 111.151 51.5768V55.6857H109.755Z" fill="white"/>
</g>
<defs>
<clipPath id="clip0">
<rect width="238" height="59" fill="white"/>
</clipPath>
</defs>
</svg>
