<svg width="18" height="18" viewBox="0 0 18 18" fill="none" xmlns="http://www.w3.org/2000/svg">
<mask id="path-1-outside-1" maskUnits="userSpaceOnUse" x="-0.5" y="-0.5" width="19" height="19" fill="black">
<rect fill="white" x="-0.5" y="-0.5" width="19" height="19"/>
<path d="M0.5 8.72406V8.70002C0.713389 5.91077 1.70921 3.81883 3.44003 2.49634C5.14714 1.1498 6.99651 0.500582 9.01186 0.500582C11.122 0.476537 13.09 1.19789 14.8445 2.64061C16.6227 4.05928 17.5 6.17526 17.5 8.91642V9.08474C17.5 11.8499 16.6227 13.9178 14.8445 15.3365C13.0662 16.7792 11.0983 17.5006 8.98814 17.5006H8.89331C6.83054 17.4765 4.93375 16.7552 3.17922 15.3125C1.42469 13.8938 0.52371 11.7057 0.5 8.72406ZM8.49024 4.94896V1.1498H7.9212C7.80265 1.29408 7.70781 1.46239 7.61297 1.60666C7.51813 1.75094 7.42329 1.89521 7.32845 2.06352C7.23361 2.2078 7.11506 2.40016 7.04393 2.54443C6.94909 2.6887 6.87796 2.83297 6.80683 3.00129C6.66457 3.24174 6.54603 3.48219 6.45119 3.6986C6.33264 3.91501 6.2378 4.13142 6.16667 4.32378C6.30893 4.41996 6.4749 4.54019 6.66457 4.61232C6.87796 4.68446 7.09135 4.75659 7.30474 4.80468C7.54184 4.85277 7.75523 4.87682 7.94491 4.90087C8.1583 4.92491 8.34798 4.94896 8.49024 4.94896ZM9.48605 1.1498V4.92491C9.6046 4.92491 9.74686 4.94896 9.88912 4.92491C10.0314 4.92491 10.1974 4.90087 10.3396 4.87682C10.6004 4.82873 10.9086 4.75659 11.1457 4.68446C11.4066 4.58828 11.6437 4.46805 11.8096 4.32378C11.5251 3.62647 11.2169 3.07343 10.9086 2.54443C10.6004 2.01543 10.2448 1.55857 9.86541 1.17385V1.1498H9.48605ZM6.92538 1.36621V1.34217C6.75941 1.4143 6.59344 1.53453 6.40377 1.60666C6.2378 1.6788 6.02441 1.77498 5.85844 1.87116C5.5265 2.03948 5.19456 2.23184 4.86262 2.44825C4.55439 2.66466 4.24616 2.90511 3.98536 3.14556C4.0802 3.24174 4.19874 3.33792 4.29358 3.41006C4.38842 3.48219 4.50697 3.57838 4.62552 3.67456C4.72036 3.72265 4.83891 3.79478 4.95746 3.89096C5.07601 3.9631 5.21827 4.05928 5.36053 4.15546C5.55021 3.72265 5.73989 3.26579 5.97699 2.85702C6.21409 2.4242 6.4749 2.01543 6.7357 1.65475C6.75941 1.60666 6.78312 1.55857 6.83054 1.51048C6.85425 1.48644 6.87796 1.4143 6.92538 1.36621ZM14.1806 3.14556V3.12152C13.5879 2.66466 13.0662 2.27993 12.5446 2.03948C12.023 1.79903 11.5014 1.55857 11.0272 1.36621C11.4066 1.75094 11.7385 2.23184 11.9519 2.6887C12.189 3.16961 12.4261 3.67456 12.6158 4.15546C12.7106 4.10737 12.8291 4.05928 12.9714 3.9631C13.09 3.89096 13.2559 3.81883 13.3982 3.74669C13.5404 3.65051 13.659 3.55433 13.8013 3.45815C13.9435 3.33792 14.0858 3.24174 14.1806 3.14556ZM13.7775 8.50765H16.5042C16.5042 7.61798 16.3145 6.7764 15.9589 5.91077C15.6269 5.06918 15.1527 4.37187 14.56 3.77074V3.74669C14.4414 3.93905 14.2755 4.10737 14.1095 4.2276C13.9198 4.34782 13.7538 4.44401 13.5642 4.54019C13.4456 4.61232 13.3271 4.7085 13.2085 4.75659C13.09 4.82873 12.924 4.87682 12.8054 4.94896C12.9003 5.14132 12.9951 5.35773 13.09 5.55009C13.1611 5.76649 13.2796 6.00695 13.3271 6.22335C13.4693 6.60808 13.5642 7.01685 13.659 7.42562C13.7301 7.7863 13.7775 8.17102 13.7775 8.50765ZM5.19456 4.94896V4.92491C5.00488 4.82873 4.79149 4.75659 4.62552 4.66041C4.45955 4.54019 4.29358 4.41996 4.15132 4.32378C4.00907 4.25164 3.86681 4.15546 3.74826 4.05928C3.62971 3.9631 3.53487 3.86692 3.44003 3.77074C2.82357 4.37187 2.37308 5.04514 2.08856 5.83863C1.78033 6.63212 1.56695 7.5218 1.47211 8.48361H4.38842C4.38842 7.81034 4.48326 7.16112 4.64923 6.5119C4.79149 5.83863 5.00488 5.33368 5.19456 4.94896ZM8.49024 8.48361V5.7184C8.30056 5.74245 8.06346 5.74245 7.85007 5.7184C7.61297 5.69436 7.37587 5.62222 7.16248 5.55009C6.9728 5.502 6.7357 5.45391 6.54603 5.38177C6.33264 5.33368 6.11925 5.2375 5.95328 5.14132C5.81102 5.38177 5.69247 5.67031 5.59763 5.9829C5.47908 6.27144 5.40795 6.58403 5.33682 6.87258C5.2894 7.16112 5.26569 7.47371 5.24198 7.73821C5.21827 8.0027 5.19456 8.2672 5.19456 8.48361H8.49024ZM9.48605 5.76649V8.48361H12.9951C12.9951 8.33934 12.9951 8.17102 12.9714 7.97866C12.924 7.81034 12.9003 7.59393 12.8766 7.40157C12.8054 7.11303 12.7343 6.80044 12.6395 6.5119C12.5446 6.2474 12.4498 5.9829 12.3312 5.76649C12.2838 5.64627 12.2364 5.502 12.189 5.40582C12.1179 5.28559 12.0467 5.21345 11.9993 5.14132C11.7385 5.33368 11.3828 5.45391 10.9561 5.55009C10.553 5.64627 10.0788 5.74245 9.65202 5.76649H9.48605ZM4.38842 9.2771H1.47211C1.47211 9.68587 1.54324 10.1427 1.66179 10.6958C1.78033 11.2729 2.01743 11.8019 2.27824 12.3789C2.39679 12.6675 2.53905 12.956 2.68131 13.2446C2.84728 13.5091 3.03696 13.7976 3.22664 14.0621C3.3689 13.9659 3.51116 13.8938 3.62971 13.8217C3.77197 13.7495 3.93794 13.6533 4.0802 13.5812C4.24616 13.5091 4.41213 13.4369 4.60181 13.3408C4.76778 13.2686 4.98117 13.1724 5.19456 13.0763C5.00488 12.4751 4.79149 11.898 4.64923 11.2488C4.48326 10.6236 4.38842 9.99846 4.38842 9.30115V9.2771ZM8.49024 12.0904V9.2771H5.19456C5.19456 9.46947 5.21827 9.75801 5.26569 10.0466C5.2894 10.3351 5.36053 10.6477 5.40795 10.9603C5.50279 11.2969 5.57392 11.6335 5.66876 11.9221C5.7636 12.2106 5.85844 12.4511 5.95328 12.6675C6.38006 12.4992 6.80683 12.3789 7.09135 12.3068C7.39958 12.2106 7.6841 12.1385 7.96862 12.1144H8.22943C8.32427 12.0904 8.41911 12.0904 8.49024 12.0904ZM9.48605 9.2771V12.0664C9.65202 12.0904 9.8417 12.1144 10.0314 12.1385C10.2448 12.1625 10.5056 12.2106 10.719 12.2587L11.0746 12.3309C11.1932 12.3789 11.3354 12.403 11.454 12.427C11.5962 12.4751 11.7385 12.4992 11.8808 12.5473C11.9993 12.5953 12.1179 12.6194 12.2127 12.6675C12.5209 11.874 12.7106 11.2248 12.8291 10.6717C12.9477 10.1427 12.9951 9.68587 12.9951 9.30115V9.2771H9.48605ZM16.5042 9.30115V9.2771H13.7775V9.42137C13.7538 9.87823 13.6827 10.4072 13.5879 10.9603C13.493 11.4893 13.2796 12.1144 12.9951 12.8839C13.3745 13.0763 13.7301 13.2686 14.0146 13.461C14.2992 13.6533 14.56 13.8697 14.7497 14.0621C15.1527 13.6533 15.5084 13.1003 15.8166 12.3789C16.1248 11.6816 16.3382 10.9603 16.4568 10.1908C16.4805 10.0466 16.4805 9.90228 16.5042 9.75801V9.30115ZM8.49024 16.6109V12.8598C7.89749 12.956 7.39958 13.0763 7.02022 13.1724C6.64086 13.2686 6.35635 13.3648 6.16667 13.461C6.30893 13.8217 6.45119 14.1342 6.59344 14.4228C6.7357 14.6873 6.90167 14.9758 7.04393 15.2163C7.09135 15.3125 7.18619 15.4086 7.25732 15.5289C7.32845 15.6251 7.37587 15.7453 7.447 15.8415C7.51813 15.9617 7.58926 16.106 7.66039 16.2502C7.75523 16.3705 7.82636 16.5147 7.9212 16.6109H8.49024ZM9.48605 16.6109H10.0314C10.2448 16.4426 10.4582 16.2021 10.6241 15.9376C10.8138 15.6731 11.0272 15.3606 11.1695 15.0961C11.3354 14.7835 11.5014 14.4949 11.6437 14.2064C11.7859 13.9178 11.9045 13.6533 11.9993 13.461C11.7385 13.3648 11.3828 13.2686 11.0272 13.1724C10.6715 13.0763 10.1736 12.9801 9.48605 12.8839V16.6109ZM14.1806 14.6392V14.6152C14.1332 14.543 14.0384 14.4468 13.9672 14.3747C13.8961 14.3026 13.7775 14.2064 13.659 14.1342C13.5642 14.0621 13.4456 13.99 13.3033 13.9178C13.1611 13.8457 12.9714 13.7495 12.8054 13.6533C12.7106 13.8457 12.5446 14.1823 12.3075 14.6392C12.0941 15.0961 11.7148 15.6491 11.2406 16.2502C11.8333 16.154 12.355 15.9376 12.8291 15.6491C13.3508 15.3846 13.8013 15.0239 14.1806 14.6392ZM5.36053 13.8697V13.8457C5.19456 13.9419 4.93375 14.0621 4.67294 14.1823C4.38842 14.3026 4.0802 14.4468 3.79568 14.6392C3.96165 14.7835 4.12761 14.9277 4.26987 15.0239C4.41213 15.1441 4.5781 15.2403 4.72036 15.3365C4.98117 15.5048 5.2894 15.6731 5.59763 15.8174C5.90586 15.9617 6.28522 16.106 6.75941 16.2502C6.59344 16.0579 6.4749 15.8174 6.35635 15.6251C6.2378 15.4327 6.09554 15.2403 5.97699 15.048C5.85844 14.8556 5.7636 14.6392 5.66876 14.4468C5.55021 14.2545 5.45537 14.0621 5.36053 13.8697Z"/>
</mask>
<path d="M0.5 8.72406V8.70002C0.713389 5.91077 1.70921 3.81883 3.44003 2.49634C5.14714 1.1498 6.99651 0.500582 9.01186 0.500582C11.122 0.476537 13.09 1.19789 14.8445 2.64061C16.6227 4.05928 17.5 6.17526 17.5 8.91642V9.08474C17.5 11.8499 16.6227 13.9178 14.8445 15.3365C13.0662 16.7792 11.0983 17.5006 8.98814 17.5006H8.89331C6.83054 17.4765 4.93375 16.7552 3.17922 15.3125C1.42469 13.8938 0.52371 11.7057 0.5 8.72406ZM8.49024 4.94896V1.1498H7.9212C7.80265 1.29408 7.70781 1.46239 7.61297 1.60666C7.51813 1.75094 7.42329 1.89521 7.32845 2.06352C7.23361 2.2078 7.11506 2.40016 7.04393 2.54443C6.94909 2.6887 6.87796 2.83297 6.80683 3.00129C6.66457 3.24174 6.54603 3.48219 6.45119 3.6986C6.33264 3.91501 6.2378 4.13142 6.16667 4.32378C6.30893 4.41996 6.4749 4.54019 6.66457 4.61232C6.87796 4.68446 7.09135 4.75659 7.30474 4.80468C7.54184 4.85277 7.75523 4.87682 7.94491 4.90087C8.1583 4.92491 8.34798 4.94896 8.49024 4.94896ZM9.48605 1.1498V4.92491C9.6046 4.92491 9.74686 4.94896 9.88912 4.92491C10.0314 4.92491 10.1974 4.90087 10.3396 4.87682C10.6004 4.82873 10.9086 4.75659 11.1457 4.68446C11.4066 4.58828 11.6437 4.46805 11.8096 4.32378C11.5251 3.62647 11.2169 3.07343 10.9086 2.54443C10.6004 2.01543 10.2448 1.55857 9.86541 1.17385V1.1498H9.48605ZM6.92538 1.36621V1.34217C6.75941 1.4143 6.59344 1.53453 6.40377 1.60666C6.2378 1.6788 6.02441 1.77498 5.85844 1.87116C5.5265 2.03948 5.19456 2.23184 4.86262 2.44825C4.55439 2.66466 4.24616 2.90511 3.98536 3.14556C4.0802 3.24174 4.19874 3.33792 4.29358 3.41006C4.38842 3.48219 4.50697 3.57838 4.62552 3.67456C4.72036 3.72265 4.83891 3.79478 4.95746 3.89096C5.07601 3.9631 5.21827 4.05928 5.36053 4.15546C5.55021 3.72265 5.73989 3.26579 5.97699 2.85702C6.21409 2.4242 6.4749 2.01543 6.7357 1.65475C6.75941 1.60666 6.78312 1.55857 6.83054 1.51048C6.85425 1.48644 6.87796 1.4143 6.92538 1.36621ZM14.1806 3.14556V3.12152C13.5879 2.66466 13.0662 2.27993 12.5446 2.03948C12.023 1.79903 11.5014 1.55857 11.0272 1.36621C11.4066 1.75094 11.7385 2.23184 11.9519 2.6887C12.189 3.16961 12.4261 3.67456 12.6158 4.15546C12.7106 4.10737 12.8291 4.05928 12.9714 3.9631C13.09 3.89096 13.2559 3.81883 13.3982 3.74669C13.5404 3.65051 13.659 3.55433 13.8013 3.45815C13.9435 3.33792 14.0858 3.24174 14.1806 3.14556ZM13.7775 8.50765H16.5042C16.5042 7.61798 16.3145 6.7764 15.9589 5.91077C15.6269 5.06918 15.1527 4.37187 14.56 3.77074V3.74669C14.4414 3.93905 14.2755 4.10737 14.1095 4.2276C13.9198 4.34782 13.7538 4.44401 13.5642 4.54019C13.4456 4.61232 13.3271 4.7085 13.2085 4.75659C13.09 4.82873 12.924 4.87682 12.8054 4.94896C12.9003 5.14132 12.9951 5.35773 13.09 5.55009C13.1611 5.76649 13.2796 6.00695 13.3271 6.22335C13.4693 6.60808 13.5642 7.01685 13.659 7.42562C13.7301 7.7863 13.7775 8.17102 13.7775 8.50765ZM5.19456 4.94896V4.92491C5.00488 4.82873 4.79149 4.75659 4.62552 4.66041C4.45955 4.54019 4.29358 4.41996 4.15132 4.32378C4.00907 4.25164 3.86681 4.15546 3.74826 4.05928C3.62971 3.9631 3.53487 3.86692 3.44003 3.77074C2.82357 4.37187 2.37308 5.04514 2.08856 5.83863C1.78033 6.63212 1.56695 7.5218 1.47211 8.48361H4.38842C4.38842 7.81034 4.48326 7.16112 4.64923 6.5119C4.79149 5.83863 5.00488 5.33368 5.19456 4.94896ZM8.49024 8.48361V5.7184C8.30056 5.74245 8.06346 5.74245 7.85007 5.7184C7.61297 5.69436 7.37587 5.62222 7.16248 5.55009C6.9728 5.502 6.7357 5.45391 6.54603 5.38177C6.33264 5.33368 6.11925 5.2375 5.95328 5.14132C5.81102 5.38177 5.69247 5.67031 5.59763 5.9829C5.47908 6.27144 5.40795 6.58403 5.33682 6.87258C5.2894 7.16112 5.26569 7.47371 5.24198 7.73821C5.21827 8.0027 5.19456 8.2672 5.19456 8.48361H8.49024ZM9.48605 5.76649V8.48361H12.9951C12.9951 8.33934 12.9951 8.17102 12.9714 7.97866C12.924 7.81034 12.9003 7.59393 12.8766 7.40157C12.8054 7.11303 12.7343 6.80044 12.6395 6.5119C12.5446 6.2474 12.4498 5.9829 12.3312 5.76649C12.2838 5.64627 12.2364 5.502 12.189 5.40582C12.1179 5.28559 12.0467 5.21345 11.9993 5.14132C11.7385 5.33368 11.3828 5.45391 10.9561 5.55009C10.553 5.64627 10.0788 5.74245 9.65202 5.76649H9.48605ZM4.38842 9.2771H1.47211C1.47211 9.68587 1.54324 10.1427 1.66179 10.6958C1.78033 11.2729 2.01743 11.8019 2.27824 12.3789C2.39679 12.6675 2.53905 12.956 2.68131 13.2446C2.84728 13.5091 3.03696 13.7976 3.22664 14.0621C3.3689 13.9659 3.51116 13.8938 3.62971 13.8217C3.77197 13.7495 3.93794 13.6533 4.0802 13.5812C4.24616 13.5091 4.41213 13.4369 4.60181 13.3408C4.76778 13.2686 4.98117 13.1724 5.19456 13.0763C5.00488 12.4751 4.79149 11.898 4.64923 11.2488C4.48326 10.6236 4.38842 9.99846 4.38842 9.30115V9.2771ZM8.49024 12.0904V9.2771H5.19456C5.19456 9.46947 5.21827 9.75801 5.26569 10.0466C5.2894 10.3351 5.36053 10.6477 5.40795 10.9603C5.50279 11.2969 5.57392 11.6335 5.66876 11.9221C5.7636 12.2106 5.85844 12.4511 5.95328 12.6675C6.38006 12.4992 6.80683 12.3789 7.09135 12.3068C7.39958 12.2106 7.6841 12.1385 7.96862 12.1144H8.22943C8.32427 12.0904 8.41911 12.0904 8.49024 12.0904ZM9.48605 9.2771V12.0664C9.65202 12.0904 9.8417 12.1144 10.0314 12.1385C10.2448 12.1625 10.5056 12.2106 10.719 12.2587L11.0746 12.3309C11.1932 12.3789 11.3354 12.403 11.454 12.427C11.5962 12.4751 11.7385 12.4992 11.8808 12.5473C11.9993 12.5953 12.1179 12.6194 12.2127 12.6675C12.5209 11.874 12.7106 11.2248 12.8291 10.6717C12.9477 10.1427 12.9951 9.68587 12.9951 9.30115V9.2771H9.48605ZM16.5042 9.30115V9.2771H13.7775V9.42137C13.7538 9.87823 13.6827 10.4072 13.5879 10.9603C13.493 11.4893 13.2796 12.1144 12.9951 12.8839C13.3745 13.0763 13.7301 13.2686 14.0146 13.461C14.2992 13.6533 14.56 13.8697 14.7497 14.0621C15.1527 13.6533 15.5084 13.1003 15.8166 12.3789C16.1248 11.6816 16.3382 10.9603 16.4568 10.1908C16.4805 10.0466 16.4805 9.90228 16.5042 9.75801V9.30115ZM8.49024 16.6109V12.8598C7.89749 12.956 7.39958 13.0763 7.02022 13.1724C6.64086 13.2686 6.35635 13.3648 6.16667 13.461C6.30893 13.8217 6.45119 14.1342 6.59344 14.4228C6.7357 14.6873 6.90167 14.9758 7.04393 15.2163C7.09135 15.3125 7.18619 15.4086 7.25732 15.5289C7.32845 15.6251 7.37587 15.7453 7.447 15.8415C7.51813 15.9617 7.58926 16.106 7.66039 16.2502C7.75523 16.3705 7.82636 16.5147 7.9212 16.6109H8.49024ZM9.48605 16.6109H10.0314C10.2448 16.4426 10.4582 16.2021 10.6241 15.9376C10.8138 15.6731 11.0272 15.3606 11.1695 15.0961C11.3354 14.7835 11.5014 14.4949 11.6437 14.2064C11.7859 13.9178 11.9045 13.6533 11.9993 13.461C11.7385 13.3648 11.3828 13.2686 11.0272 13.1724C10.6715 13.0763 10.1736 12.9801 9.48605 12.8839V16.6109ZM14.1806 14.6392V14.6152C14.1332 14.543 14.0384 14.4468 13.9672 14.3747C13.8961 14.3026 13.7775 14.2064 13.659 14.1342C13.5642 14.0621 13.4456 13.99 13.3033 13.9178C13.1611 13.8457 12.9714 13.7495 12.8054 13.6533C12.7106 13.8457 12.5446 14.1823 12.3075 14.6392C12.0941 15.0961 11.7148 15.6491 11.2406 16.2502C11.8333 16.154 12.355 15.9376 12.8291 15.6491C13.3508 15.3846 13.8013 15.0239 14.1806 14.6392ZM5.36053 13.8697V13.8457C5.19456 13.9419 4.93375 14.0621 4.67294 14.1823C4.38842 14.3026 4.0802 14.4468 3.79568 14.6392C3.96165 14.7835 4.12761 14.9277 4.26987 15.0239C4.41213 15.1441 4.5781 15.2403 4.72036 15.3365C4.98117 15.5048 5.2894 15.6731 5.59763 15.8174C5.90586 15.9617 6.28522 16.106 6.75941 16.2502C6.59344 16.0579 6.4749 15.8174 6.35635 15.6251C6.2378 15.4327 6.09554 15.2403 5.97699 15.048C5.85844 14.8556 5.7636 14.6392 5.66876 14.4468C5.55021 14.2545 5.45537 14.0621 5.36053 13.8697Z" fill="#00AEC7"/>
<path d="M0.5 8.72406V8.70002C0.713389 5.91077 1.70921 3.81883 3.44003 2.49634C5.14714 1.1498 6.99651 0.500582 9.01186 0.500582C11.122 0.476537 13.09 1.19789 14.8445 2.64061C16.6227 4.05928 17.5 6.17526 17.5 8.91642V9.08474C17.5 11.8499 16.6227 13.9178 14.8445 15.3365C13.0662 16.7792 11.0983 17.5006 8.98814 17.5006H8.89331C6.83054 17.4765 4.93375 16.7552 3.17922 15.3125C1.42469 13.8938 0.52371 11.7057 0.5 8.72406ZM8.49024 4.94896V1.1498H7.9212C7.80265 1.29408 7.70781 1.46239 7.61297 1.60666C7.51813 1.75094 7.42329 1.89521 7.32845 2.06352C7.23361 2.2078 7.11506 2.40016 7.04393 2.54443C6.94909 2.6887 6.87796 2.83297 6.80683 3.00129C6.66457 3.24174 6.54603 3.48219 6.45119 3.6986C6.33264 3.91501 6.2378 4.13142 6.16667 4.32378C6.30893 4.41996 6.4749 4.54019 6.66457 4.61232C6.87796 4.68446 7.09135 4.75659 7.30474 4.80468C7.54184 4.85277 7.75523 4.87682 7.94491 4.90087C8.1583 4.92491 8.34798 4.94896 8.49024 4.94896ZM9.48605 1.1498V4.92491C9.6046 4.92491 9.74686 4.94896 9.88912 4.92491C10.0314 4.92491 10.1974 4.90087 10.3396 4.87682C10.6004 4.82873 10.9086 4.75659 11.1457 4.68446C11.4066 4.58828 11.6437 4.46805 11.8096 4.32378C11.5251 3.62647 11.2169 3.07343 10.9086 2.54443C10.6004 2.01543 10.2448 1.55857 9.86541 1.17385V1.1498H9.48605ZM6.92538 1.36621V1.34217C6.75941 1.4143 6.59344 1.53453 6.40377 1.60666C6.2378 1.6788 6.02441 1.77498 5.85844 1.87116C5.5265 2.03948 5.19456 2.23184 4.86262 2.44825C4.55439 2.66466 4.24616 2.90511 3.98536 3.14556C4.0802 3.24174 4.19874 3.33792 4.29358 3.41006C4.38842 3.48219 4.50697 3.57838 4.62552 3.67456C4.72036 3.72265 4.83891 3.79478 4.95746 3.89096C5.07601 3.9631 5.21827 4.05928 5.36053 4.15546C5.55021 3.72265 5.73989 3.26579 5.97699 2.85702C6.21409 2.4242 6.4749 2.01543 6.7357 1.65475C6.75941 1.60666 6.78312 1.55857 6.83054 1.51048C6.85425 1.48644 6.87796 1.4143 6.92538 1.36621ZM14.1806 3.14556V3.12152C13.5879 2.66466 13.0662 2.27993 12.5446 2.03948C12.023 1.79903 11.5014 1.55857 11.0272 1.36621C11.4066 1.75094 11.7385 2.23184 11.9519 2.6887C12.189 3.16961 12.4261 3.67456 12.6158 4.15546C12.7106 4.10737 12.8291 4.05928 12.9714 3.9631C13.09 3.89096 13.2559 3.81883 13.3982 3.74669C13.5404 3.65051 13.659 3.55433 13.8013 3.45815C13.9435 3.33792 14.0858 3.24174 14.1806 3.14556ZM13.7775 8.50765H16.5042C16.5042 7.61798 16.3145 6.7764 15.9589 5.91077C15.6269 5.06918 15.1527 4.37187 14.56 3.77074V3.74669C14.4414 3.93905 14.2755 4.10737 14.1095 4.2276C13.9198 4.34782 13.7538 4.44401 13.5642 4.54019C13.4456 4.61232 13.3271 4.7085 13.2085 4.75659C13.09 4.82873 12.924 4.87682 12.8054 4.94896C12.9003 5.14132 12.9951 5.35773 13.09 5.55009C13.1611 5.76649 13.2796 6.00695 13.3271 6.22335C13.4693 6.60808 13.5642 7.01685 13.659 7.42562C13.7301 7.7863 13.7775 8.17102 13.7775 8.50765ZM5.19456 4.94896V4.92491C5.00488 4.82873 4.79149 4.75659 4.62552 4.66041C4.45955 4.54019 4.29358 4.41996 4.15132 4.32378C4.00907 4.25164 3.86681 4.15546 3.74826 4.05928C3.62971 3.9631 3.53487 3.86692 3.44003 3.77074C2.82357 4.37187 2.37308 5.04514 2.08856 5.83863C1.78033 6.63212 1.56695 7.5218 1.47211 8.48361H4.38842C4.38842 7.81034 4.48326 7.16112 4.64923 6.5119C4.79149 5.83863 5.00488 5.33368 5.19456 4.94896ZM8.49024 8.48361V5.7184C8.30056 5.74245 8.06346 5.74245 7.85007 5.7184C7.61297 5.69436 7.37587 5.62222 7.16248 5.55009C6.9728 5.502 6.7357 5.45391 6.54603 5.38177C6.33264 5.33368 6.11925 5.2375 5.95328 5.14132C5.81102 5.38177 5.69247 5.67031 5.59763 5.9829C5.47908 6.27144 5.40795 6.58403 5.33682 6.87258C5.2894 7.16112 5.26569 7.47371 5.24198 7.73821C5.21827 8.0027 5.19456 8.2672 5.19456 8.48361H8.49024ZM9.48605 5.76649V8.48361H12.9951C12.9951 8.33934 12.9951 8.17102 12.9714 7.97866C12.924 7.81034 12.9003 7.59393 12.8766 7.40157C12.8054 7.11303 12.7343 6.80044 12.6395 6.5119C12.5446 6.2474 12.4498 5.9829 12.3312 5.76649C12.2838 5.64627 12.2364 5.502 12.189 5.40582C12.1179 5.28559 12.0467 5.21345 11.9993 5.14132C11.7385 5.33368 11.3828 5.45391 10.9561 5.55009C10.553 5.64627 10.0788 5.74245 9.65202 5.76649H9.48605ZM4.38842 9.2771H1.47211C1.47211 9.68587 1.54324 10.1427 1.66179 10.6958C1.78033 11.2729 2.01743 11.8019 2.27824 12.3789C2.39679 12.6675 2.53905 12.956 2.68131 13.2446C2.84728 13.5091 3.03696 13.7976 3.22664 14.0621C3.3689 13.9659 3.51116 13.8938 3.62971 13.8217C3.77197 13.7495 3.93794 13.6533 4.0802 13.5812C4.24616 13.5091 4.41213 13.4369 4.60181 13.3408C4.76778 13.2686 4.98117 13.1724 5.19456 13.0763C5.00488 12.4751 4.79149 11.898 4.64923 11.2488C4.48326 10.6236 4.38842 9.99846 4.38842 9.30115V9.2771ZM8.49024 12.0904V9.2771H5.19456C5.19456 9.46947 5.21827 9.75801 5.26569 10.0466C5.2894 10.3351 5.36053 10.6477 5.40795 10.9603C5.50279 11.2969 5.57392 11.6335 5.66876 11.9221C5.7636 12.2106 5.85844 12.4511 5.95328 12.6675C6.38006 12.4992 6.80683 12.3789 7.09135 12.3068C7.39958 12.2106 7.6841 12.1385 7.96862 12.1144H8.22943C8.32427 12.0904 8.41911 12.0904 8.49024 12.0904ZM9.48605 9.2771V12.0664C9.65202 12.0904 9.8417 12.1144 10.0314 12.1385C10.2448 12.1625 10.5056 12.2106 10.719 12.2587L11.0746 12.3309C11.1932 12.3789 11.3354 12.403 11.454 12.427C11.5962 12.4751 11.7385 12.4992 11.8808 12.5473C11.9993 12.5953 12.1179 12.6194 12.2127 12.6675C12.5209 11.874 12.7106 11.2248 12.8291 10.6717C12.9477 10.1427 12.9951 9.68587 12.9951 9.30115V9.2771H9.48605ZM16.5042 9.30115V9.2771H13.7775V9.42137C13.7538 9.87823 13.6827 10.4072 13.5879 10.9603C13.493 11.4893 13.2796 12.1144 12.9951 12.8839C13.3745 13.0763 13.7301 13.2686 14.0146 13.461C14.2992 13.6533 14.56 13.8697 14.7497 14.0621C15.1527 13.6533 15.5084 13.1003 15.8166 12.3789C16.1248 11.6816 16.3382 10.9603 16.4568 10.1908C16.4805 10.0466 16.4805 9.90228 16.5042 9.75801V9.30115ZM8.49024 16.6109V12.8598C7.89749 12.956 7.39958 13.0763 7.02022 13.1724C6.64086 13.2686 6.35635 13.3648 6.16667 13.461C6.30893 13.8217 6.45119 14.1342 6.59344 14.4228C6.7357 14.6873 6.90167 14.9758 7.04393 15.2163C7.09135 15.3125 7.18619 15.4086 7.25732 15.5289C7.32845 15.6251 7.37587 15.7453 7.447 15.8415C7.51813 15.9617 7.58926 16.106 7.66039 16.2502C7.75523 16.3705 7.82636 16.5147 7.9212 16.6109H8.49024ZM9.48605 16.6109H10.0314C10.2448 16.4426 10.4582 16.2021 10.6241 15.9376C10.8138 15.6731 11.0272 15.3606 11.1695 15.0961C11.3354 14.7835 11.5014 14.4949 11.6437 14.2064C11.7859 13.9178 11.9045 13.6533 11.9993 13.461C11.7385 13.3648 11.3828 13.2686 11.0272 13.1724C10.6715 13.0763 10.1736 12.9801 9.48605 12.8839V16.6109ZM14.1806 14.6392V14.6152C14.1332 14.543 14.0384 14.4468 13.9672 14.3747C13.8961 14.3026 13.7775 14.2064 13.659 14.1342C13.5642 14.0621 13.4456 13.99 13.3033 13.9178C13.1611 13.8457 12.9714 13.7495 12.8054 13.6533C12.7106 13.8457 12.5446 14.1823 12.3075 14.6392C12.0941 15.0961 11.7148 15.6491 11.2406 16.2502C11.8333 16.154 12.355 15.9376 12.8291 15.6491C13.3508 15.3846 13.8013 15.0239 14.1806 14.6392ZM5.36053 13.8697V13.8457C5.19456 13.9419 4.93375 14.0621 4.67294 14.1823C4.38842 14.3026 4.0802 14.4468 3.79568 14.6392C3.96165 14.7835 4.12761 14.9277 4.26987 15.0239C4.41213 15.1441 4.5781 15.2403 4.72036 15.3365C4.98117 15.5048 5.2894 15.6731 5.59763 15.8174C5.90586 15.9617 6.28522 16.106 6.75941 16.2502C6.59344 16.0579 6.4749 15.8174 6.35635 15.6251C6.2378 15.4327 6.09554 15.2403 5.97699 15.048C5.85844 14.8556 5.7636 14.6392 5.66876 14.4468C5.55021 14.2545 5.45537 14.0621 5.36053 13.8697Z" stroke="#00AEC7" stroke-width="0.2" mask="url(#path-1-outside-1)"/>
</svg>
