<svg width="24" height="24" viewBox="0 0 24 24" fill="none" xmlns="http://www.w3.org/2000/svg">
<path d="M16.8041 15.4049L16.7474 15.4749L16.8111 15.5386L23.636 22.3635L23.7068 22.2928L23.636 22.3635C23.988 22.7154 23.988 23.2841 23.6361 23.636C23.4606 23.8116 23.2303 23.8998 22.9998 23.8998C22.7693 23.8998 22.539 23.8116 22.3635 23.636L15.5386 16.8111L15.4749 16.7474L15.4049 16.8041C13.7889 18.1123 11.736 18.8998 9.49992 18.8998C4.3172 18.8998 0.1 14.6826 0.1 9.49988C0.1 4.31716 4.31716 0.1 9.49988 0.1C14.6826 0.1 18.8998 4.3172 18.8998 9.49992C18.8998 11.736 18.1123 13.7889 16.8041 15.4049ZM1.9 9.49988C1.9 13.6911 5.30872 17.0998 9.49992 17.0998C13.6911 17.0998 17.0998 13.6911 17.0998 9.49988C17.0998 5.30867 13.6911 1.89995 9.49992 1.89995C5.30872 1.89995 1.9 5.30867 1.9 9.49988Z" fill="#585858" stroke="white" stroke-width="0.2"/>
</svg>
