<svg width="30" height="23" viewBox="0 0 30 23" fill="none" xmlns="http://www.w3.org/2000/svg">
<path d="M17.9092 7.54533C18.7385 7.54533 19.4139 6.89114 19.4139 6.08775C19.4139 5.82951 19.1947 5.61719 18.9281 5.61719C18.6615 5.61719 18.4423 5.82951 18.4423 6.08775C18.4423 6.37467 18.1994 6.60995 17.9032 6.60995C17.607 6.60995 17.3641 6.37467 17.3641 6.08775C17.3641 5.82951 17.1449 5.61719 16.8784 5.61719C16.6118 5.61719 16.3926 5.82951 16.3926 6.08775C16.4044 6.89688 17.0798 7.54533 17.9092 7.54533Z" fill="white"/>
<path d="M15.3427 11.3795C15.396 11.4024 15.4553 11.4082 15.5145 11.4082C15.5382 11.4082 15.556 11.4082 15.5797 11.4024C16.4861 11.2819 17.0252 10.9089 17.0252 10.3924C17.0252 10.1342 16.806 9.92188 16.5394 9.92188C16.5335 9.92188 16.5276 9.92188 16.5216 9.92188C16.3024 9.93335 16.1188 10.0826 16.0714 10.2891C15.9944 10.3408 15.787 10.4269 15.4494 10.4728C15.1828 10.5072 14.9991 10.7425 15.0347 11.0007C15.0584 11.1786 15.1828 11.3163 15.3427 11.3795Z" fill="white"/>
<path d="M12.0976 7.54533C12.927 7.54533 13.6024 6.89114 13.6024 6.08775C13.6024 5.82951 13.3832 5.61719 13.1166 5.61719C12.85 5.61719 12.6308 5.82951 12.6308 6.08775C12.6308 6.37467 12.3879 6.60995 12.0917 6.60995C11.7955 6.60995 11.5526 6.37467 11.5526 6.08775C11.5526 5.82951 11.3334 5.61719 11.0668 5.61719C10.8002 5.61719 10.5811 5.82951 10.5811 6.08775C10.5929 6.89688 11.2683 7.54533 12.0976 7.54533Z" fill="white"/>
<path d="M26.0189 13.3086C25.7524 13.3086 25.5332 13.5209 25.5332 13.7792C25.5332 14.0661 25.2903 14.2956 24.9941 14.2956C24.6979 14.2956 24.455 14.0603 24.455 13.7792C24.455 13.5209 24.2358 13.3086 23.9692 13.3086C23.7026 13.3086 23.4834 13.5209 23.4834 13.7792C23.4834 14.5825 24.1588 15.2367 24.9881 15.2367C25.8175 15.2367 26.4929 14.5825 26.4929 13.7792C26.5047 13.5152 26.2855 13.3086 26.0189 13.3086Z" fill="white"/>
<path d="M23.6367 17.6133C23.4056 17.6133 23.2101 17.7682 23.1627 17.9805C23.0502 18.0551 22.6947 18.1929 22.0964 18.1929C21.498 18.1929 21.1367 18.0551 21.03 17.9805C20.9826 17.774 20.7931 17.619 20.562 17.6133H20.5561C20.2895 17.6133 20.0703 17.8256 20.0703 18.0838C20.0703 18.7323 20.8819 19.0537 21.7765 19.1168C21.8831 19.1225 21.9897 19.1283 22.0964 19.1283C23.1035 19.1283 24.1224 18.8069 24.1224 18.0838C24.1165 17.8256 23.9033 17.6133 23.6367 17.6133Z" fill="white"/>
<path d="M6.50472 13.7792C6.50472 13.5209 6.28553 13.3086 6.01894 13.3086C5.75236 13.3086 5.53316 13.5209 5.53316 13.7792C5.53316 14.0661 5.29027 14.2956 4.99406 14.2956C4.69785 14.2956 4.45496 14.0603 4.45496 13.7792C4.45496 13.5209 4.23577 13.3086 3.96918 13.3086C3.70259 13.3086 3.4834 13.5209 3.4834 13.7792C3.4834 14.5825 4.15875 15.2367 4.98814 15.2367C5.82937 15.231 6.50472 14.5768 6.50472 13.7792Z" fill="white"/>
<path d="M9.44916 17.6133C9.21812 17.6133 9.02262 17.7682 8.97523 17.9805C8.86267 18.0551 8.50722 18.1929 7.90888 18.1929C7.31054 18.1929 6.94916 18.0551 6.84253 17.9805C6.79513 17.7682 6.59964 17.6133 6.36859 17.6133C6.10201 17.6133 5.88281 17.8256 5.88281 18.0838C5.88281 18.8069 6.90177 19.1283 7.90888 19.1283C8.91599 19.1283 9.93494 18.8069 9.93494 18.0838C9.92902 17.8256 9.71575 17.6133 9.44916 17.6133Z" fill="white"/>
<path d="M11.8295 13.3086C11.5629 13.3086 11.3437 13.5209 11.3437 13.7792C11.3437 14.0661 11.1008 14.2956 10.8046 14.2956C10.5084 14.2956 10.2655 14.0603 10.2655 13.7792C10.2655 13.5209 10.0463 13.3086 9.77973 13.3086C9.51314 13.3086 9.29395 13.5209 9.29395 13.7792C9.29395 14.5825 9.9693 15.2367 10.7987 15.2367C11.6281 15.2367 12.3034 14.5825 12.3034 13.7792C12.3153 13.5152 12.0961 13.3086 11.8295 13.3086Z" fill="white"/>
<path d="M29.6149 12.9978C29.609 12.9748 29.6031 12.9518 29.5972 12.9289C29.4017 12.3665 29.141 11.8271 28.8211 11.3221C28.8033 11.2934 28.7855 11.2705 28.7619 11.2475C28.1339 10.2949 27.2986 9.48578 26.3152 8.88323C26.2915 8.86028 26.2678 8.84306 26.2382 8.82585C26.0012 8.68812 25.7583 8.55614 25.5154 8.44137C24.6919 8.05689 23.8152 7.82161 22.9088 7.72979C22.9088 7.70684 22.9088 7.67814 22.9088 7.65519C22.9088 3.43738 19.3602 0 15 0C10.6398 0 7.09123 3.43738 7.09123 7.66093C7.09123 7.68388 7.09123 7.70684 7.09123 7.72405C3.11611 8.12001 0 11.3852 0 15.3391C0 19.5626 3.54858 23 7.90877 23C11.013 23 13.7085 21.2555 15 18.7248C16.3092 21.3244 19.0284 23 22.0972 23C22.1801 23 22.2571 23 22.3341 22.9943C22.3519 22.9943 22.3756 23 22.3934 23C22.3993 23 22.4052 23 22.4111 23C26.6647 22.8336 29.9941 19.4765 29.9941 15.3563C30 14.5357 29.8637 13.738 29.6149 12.9978ZM15 0.935379C18.827 0.935379 21.9372 3.9481 21.9372 7.65519C21.9372 7.66667 21.9372 7.68388 21.9372 7.69536C21.9372 7.81587 21.9313 7.93638 21.9254 8.05115C21.9194 8.0741 21.9135 8.10279 21.9135 8.13149C21.9017 8.30364 21.8839 8.47006 21.8543 8.63648C21.4277 11.4828 19.1706 13.7323 16.2796 14.2545C16.2678 14.2545 16.2559 14.2602 16.2441 14.2602C16.2145 14.266 16.1848 14.2717 16.1552 14.2774C16.1256 14.2832 16.096 14.2889 16.0723 14.2889C16.0545 14.2889 16.0427 14.2947 16.0249 14.2947C15.9834 14.3004 15.9419 14.3061 15.9005 14.3119C15.8946 14.3119 15.8946 14.3119 15.8886 14.3119C15.8412 14.3176 15.7879 14.3234 15.7405 14.3291C15.6872 13.9561 15.6102 13.5888 15.5036 13.233C15.3732 12.7912 15.2014 12.3723 15 11.9648C13.8329 9.66941 11.5166 8.01672 8.77962 7.72405C8.7263 7.71831 8.67299 7.71258 8.62559 7.70684C8.60782 7.70684 8.59597 7.70684 8.5782 7.7011C8.53673 7.69536 8.49526 7.69536 8.45379 7.68962C8.43009 7.68962 8.40047 7.68388 8.37678 7.68388C8.34123 7.68388 8.30569 7.67814 8.27014 7.67814C8.2346 7.67814 8.19905 7.67814 8.16943 7.67241C8.13981 7.67241 8.11611 7.67241 8.08649 7.67241C8.08057 7.67241 8.06872 7.67241 8.0628 7.67241C8.0628 7.66093 8.0628 7.65519 8.0628 7.64371C8.0628 3.95384 11.173 0.935379 15 0.935379ZM7.90877 22.0646C4.08175 22.0646 0.971564 19.0519 0.971564 15.3448C0.971564 11.764 3.88033 8.82585 7.5237 8.63648C7.55332 8.64222 7.58886 8.64222 7.62441 8.64222C7.6718 8.64222 7.71327 8.63648 7.76066 8.63648C7.80806 8.63074 7.86137 8.63074 7.90877 8.63074C7.96801 8.63074 8.02133 8.63074 8.08057 8.63074C8.11611 8.63074 8.14573 8.63074 8.18128 8.63648C8.20498 8.63648 8.22867 8.63648 8.25237 8.63648C8.29976 8.63648 8.34716 8.64222 8.39455 8.64222C8.40047 8.64222 8.41232 8.64222 8.41825 8.64222C11.2441 8.84306 13.6315 10.7081 14.4964 13.256C14.6682 13.7725 14.7808 14.3119 14.8223 14.8743L14.8282 14.9374C14.84 15.0751 14.8519 15.2128 14.8519 15.3505C14.8519 15.4252 14.8519 15.4998 14.846 15.5744C14.846 15.5916 14.846 15.6145 14.846 15.6317C14.84 15.7006 14.84 15.7695 14.8341 15.8383C14.8341 15.8441 14.8341 15.8498 14.8341 15.8555C14.8282 15.9301 14.8223 16.0047 14.8104 16.0793C14.8104 16.0966 14.8045 16.108 14.8045 16.1252C14.7986 16.1941 14.7867 16.263 14.7749 16.3318C14.7749 16.3376 14.7749 16.3433 14.7749 16.3491C14.763 16.4237 14.7512 16.4983 14.7334 16.5729C14.7334 16.5843 14.7275 16.6015 14.7275 16.613C14.7156 16.6819 14.6979 16.745 14.686 16.8139C14.686 16.8196 14.6801 16.8311 14.6801 16.8368C14.6623 16.9114 14.6446 16.9803 14.6268 17.0492C14.6209 17.0664 14.6149 17.0836 14.609 17.1065C14.5912 17.1639 14.5735 17.2213 14.5557 17.2787C13.6848 20.0447 11.0367 22.0646 7.90877 22.0646ZM26.8128 20.2857C26.7832 20.3029 26.7476 20.3258 26.7239 20.3488C26.5462 20.5037 26.3566 20.6529 26.1611 20.7907C25.1718 21.485 24.0344 21.9039 22.8318 22.0245C22.5889 22.0474 22.346 22.0646 22.0972 22.0646C22.0201 22.0646 21.9372 22.0646 21.8602 22.0589C18.9455 21.9671 16.4277 20.1422 15.5095 17.4566V17.4508C15.5332 17.3705 15.5509 17.2959 15.5746 17.2156C15.5806 17.1984 15.5806 17.1869 15.5865 17.1697C15.6043 17.1008 15.622 17.0319 15.6339 16.9631C15.6339 16.9516 15.6398 16.9401 15.6398 16.9229C15.6576 16.8426 15.6754 16.7565 15.6872 16.6761C15.6872 16.6704 15.6872 16.6704 15.6872 16.6647C15.6991 16.5901 15.7109 16.5097 15.7227 16.4351C15.7227 16.4179 15.7287 16.4007 15.7287 16.3835C15.7287 16.372 15.7287 16.3663 15.7346 16.3548C15.7464 16.2859 15.7524 16.2228 15.7583 16.1539C15.7583 16.1482 15.7583 16.1425 15.7583 16.1367C15.7642 16.0564 15.7761 15.976 15.782 15.89C15.782 15.8728 15.782 15.8555 15.7879 15.8383C15.7938 15.7752 15.7938 15.7121 15.7998 15.649C15.7998 15.626 15.7998 15.603 15.7998 15.5858C15.7998 15.5342 15.7998 15.4768 15.8057 15.4251C15.8057 15.3965 15.8057 15.3735 15.8057 15.3448C15.8057 15.3219 15.8057 15.2989 15.8057 15.2702C15.8294 15.2702 15.8531 15.2645 15.8827 15.2645C15.9005 15.2645 15.9182 15.2587 15.9301 15.2587C15.9716 15.253 16.013 15.2473 16.0545 15.2415C16.0782 15.2358 16.1019 15.2358 16.1256 15.23C16.1552 15.2243 16.1848 15.2243 16.2145 15.2186C19.686 14.7021 22.3756 12.0337 22.8318 8.67665C26.3092 9.03817 29.0284 11.896 29.0284 15.362C29.0284 15.6719 29.0047 15.976 28.9633 16.2745C28.9633 16.2859 28.9573 16.2974 28.9573 16.3146C28.8803 16.8311 28.7441 17.3361 28.5427 17.8181C28.5308 17.8411 28.5249 17.8698 28.519 17.8927C28.1398 18.8051 27.5533 19.6257 26.8128 20.2857Z" fill="white"/>
</svg>
