<svg width="520" height="537" viewBox="0 0 520 537" fill="none" xmlns="http://www.w3.org/2000/svg">
<g clip-path="url(#clip0)">
<path d="M488.309 354.979C503.99 362.297 521.784 368.198 505.036 400.976C463.109 483.039 383.664 522.242 290.209 522.242C169.467 522.242 43.8666 454.384 49.9991 310.502C55.6515 177.885 148.009 293.302 280.8 293.302C413.591 293.302 410.632 318.73 488.309 354.979Z" fill="#CECAEE"/>
<path d="M240.439 240.439C220.054 300.549 138.514 318.844 93.5623 318.844C53.3148 318.844 38.7202 359.641 20.2358 337.138C9.9312 324.593 -1.03019e-07 274.837 -9.01258e-08 240.439C-4.03507e-08 107.648 107.648 4.03507e-08 240.439 9.01258e-08C269.534 1.01032e-07 303.772 1.13865e-07 314.662 15.6814C325.552 31.3628 295.322 49.1333 295.322 77.3588C295.322 146.902 260.825 180.33 240.439 240.439Z" fill="#EDD0AE"/>
<path d="M519.849 258.527C519.849 301.461 511.006 343.244 488.878 376.656C473.721 399.543 456.472 395.884 449.154 379.681C437.454 353.773 355.009 411.154 361.282 309.751C361.282 204.802 254.188 139.765 262.551 92.7224C265.363 76.9107 286.597 69.7227 286.597 53.5198C286.597 37.3169 287.059 27.2186 303.263 28.5418C405.188 36.865 519.849 132.424 519.849 258.527Z" fill="#D2F5E2"/>
<g clip-path="url(#clip1)">
<path d="M61.8539 162.87C63.1774 162.508 64.374 162.599 65.7338 162.981C67.71 163.78 68.6529 164.779 69.3422 166.683C69.8682 168.298 69.8141 170.239 68.8898 172.669L65.3195 181.935L43.2904 173.306L46.8606 164.04C47.4949 161.773 48.9088 160.214 50.359 159.398C51.8093 158.583 53.296 158.511 55.109 159.02C56.4688 159.402 57.4117 160.4 58.0646 161.561C58.7174 162.723 58.917 163.757 58.8265 164.954C59.5335 164.174 60.5305 163.232 61.8539 162.87ZM54.277 172.478L55.8719 168.525C56.4156 167.455 56.216 166.421 56.1797 165.678C56.1433 164.934 55.3636 164.226 54.4571 163.972C53.5505 163.717 52.8072 163.753 52.0639 163.789C51.4838 164.115 50.7768 164.894 50.2331 165.964L48.6382 169.917L54.277 172.478ZM65.2814 168.966C64.7917 168.095 64.4653 167.515 63.5588 167.26C62.6523 167.006 61.7457 166.751 60.8756 167.241C60.0054 167.73 59.5885 168.346 59.208 169.706L57.6131 173.66L63.5419 176.057L64.9736 171.814C65.5173 170.744 65.3177 169.71 65.2814 168.966Z" fill="white"/>
<path d="M62.0194 144.828C63.1796 144.176 64.503 143.814 65.6996 143.906L62.3272 141.981L64.5021 137.701L81.0016 146.001L78.6998 150.734L75.3273 148.809C76.2702 149.807 76.9231 150.968 76.8326 152.165C76.7421 153.362 76.8149 154.85 75.9811 156.083C75.1473 157.316 74.3135 158.549 73.1532 159.201C71.993 159.853 70.3795 160.378 68.8929 160.45C67.4062 160.521 65.5932 160.012 63.9069 159.05C62.2207 158.088 60.8245 156.962 59.8816 155.964C58.7755 154.675 58.4127 153.351 58.34 151.864C58.2673 150.376 58.6478 149.016 59.3184 147.493C59.989 145.97 60.8591 145.481 62.0194 144.828ZM63.1264 152.229C63.4891 153.554 64.4321 154.552 65.9551 155.224C67.4781 155.896 68.8379 156.278 69.9981 155.626C71.3215 155.264 72.3185 154.321 72.8623 153.251C73.6961 152.018 73.6234 150.531 72.9705 149.37C72.6077 148.045 71.6648 147.047 70.1418 146.375C68.6188 145.703 67.259 145.321 66.0988 145.974C64.9385 146.626 64.2316 147.405 63.6878 148.475C62.854 149.708 62.9268 151.195 63.1264 152.229Z" fill="white"/>
<path d="M64.2443 126.383L85.4219 138.93L83.0838 142.919L61.9062 130.372L64.2443 126.383Z" fill="white"/>
<path d="M79.2577 116.418C80.5811 116.056 81.6145 115.857 82.9743 116.239L79.8919 114.151L82.6833 110.289L97.8052 120.891L95.0138 124.753L91.9314 122.665C92.5842 123.826 93.2371 124.988 93.1466 126.185C93.0561 127.382 92.6756 128.742 91.8418 129.975C91.008 131.208 90.011 132.15 88.3975 132.675C86.784 133.2 85.7506 133.399 84.1008 133.18C82.4509 132.962 80.9279 132.29 79.5317 131.164C77.8455 130.202 76.7394 128.913 75.9233 127.462C75.1073 126.01 74.7445 124.686 74.9618 123.035C74.8891 121.548 75.5597 120.025 76.3935 118.792C77.1004 118.012 78.0974 117.07 79.2577 116.418ZM79.3313 124.018C79.6941 125.342 80.3469 126.503 81.8699 127.175C83.2661 128.301 84.4627 128.392 85.9493 128.321C87.2728 127.959 88.1429 127.469 88.9767 126.236C89.8105 125.004 89.901 123.807 89.8283 122.319C89.7555 120.832 88.8126 119.834 87.5797 118.998C86.3467 118.163 84.9869 117.782 83.5003 117.853C82.1768 118.215 81.0166 118.867 80.4729 119.937C79.5122 121.623 78.9685 122.693 79.3313 124.018Z" fill="white"/>
<path d="M97.7227 94.9496C99.6626 95.0052 101.639 95.8045 103.652 97.3475L111.738 104.263L108.784 107.835L101.15 101.046C99.9172 100.211 98.8474 99.6662 97.814 99.8651C96.6174 99.7737 95.7473 100.263 94.9135 101.496C93.9165 102.438 93.826 103.635 93.7355 104.832C93.9351 105.867 94.5879 107.028 95.694 108.316L103.165 114.814L99.8834 117.805L85.8854 105.807L88.84 102.236L91.6324 104.487C90.9795 103.325 90.6167 102.001 90.9973 100.641C91.0878 99.4438 91.9216 98.2109 92.7554 96.978C94.3325 95.7093 95.7828 94.8939 97.7227 94.9496Z" fill="white"/>
<path d="M112.932 79.9017C115.162 79.7943 116.975 80.3033 118.825 81.556L115.417 85.0001C114.637 84.2923 113.731 84.0378 112.697 84.2367C111.954 84.2725 111.084 84.7617 110.377 85.5412C109.38 86.4838 109.126 87.3905 109.036 88.5876C108.945 89.7847 109.761 91.2362 110.867 92.5248C111.974 93.8133 113.497 94.4853 114.693 94.5768C115.89 94.6682 116.923 94.4693 117.92 93.5267C118.627 92.7472 119.334 91.9677 119.298 91.224C119.551 90.3173 119.062 89.4463 118.572 88.5754L121.98 85.1312C123.123 87.1634 123.812 89.0683 123.468 91.1722C123.123 93.276 122.163 94.9623 120.459 96.6844C119.009 97.4997 117.558 98.315 115.945 98.8401C114.331 99.3651 112.681 99.1464 111.322 98.7646C109.799 98.0926 108.276 97.4205 107.006 95.8417C105.737 94.2629 104.631 92.9743 104.395 91.1966C103.869 89.582 104.086 87.9315 104.467 86.5714C105.137 85.0482 105.808 83.525 107.095 82.4193C108.962 80.9876 110.702 80.0092 112.932 79.9017Z" fill="white"/>
<path d="M136.938 70.9943L126.315 79.2589C127.421 80.5474 128.491 81.0922 129.688 81.1836C130.884 81.275 131.918 81.0762 132.915 80.1336C133.622 79.3541 134.329 78.5746 134.582 77.6678C134.836 76.761 134.8 76.0173 134.31 75.1464L138.334 72.1198C138.987 73.281 139.35 74.6054 139.26 75.8024C139.169 76.9995 138.789 78.3597 138.408 79.7198C138.027 81.0799 137.03 82.0225 135.743 83.1282C134.456 84.2338 132.843 84.7588 131.229 85.2838C129.453 85.5185 128.256 85.4271 126.733 84.755C125.21 84.083 123.814 82.9575 122.708 81.669C121.438 80.0902 120.622 78.6386 120.386 76.8609C120.15 75.0832 120.241 73.8861 120.912 72.3629C121.129 70.7125 122.253 69.3165 123.54 68.2109C124.827 67.1052 126.44 66.5802 128.054 66.0552C129.667 65.5302 131.027 65.9119 132.55 66.584C134.073 67.2561 135.306 68.0912 136.122 69.5428C136.449 70.1234 136.612 70.4137 136.938 70.9943ZM129.142 70.0282C127.946 69.9367 126.912 70.1356 125.915 71.0782C124.918 72.0208 124.211 72.8003 124.121 73.9974C124.03 75.1944 124.23 76.2284 125.046 77.68L132.225 72.116C131.282 71.1178 130.339 70.1196 129.142 70.0282Z" fill="white"/>
</g>
<path d="M305.819 94.8747C308.407 82.7733 299.52 70.6216 287.194 71.724C255.303 74.5762 224.259 84.044 196.081 99.6263C160.634 119.228 130.971 147.816 110.074 182.515C89.1769 217.214 77.7819 256.803 77.0341 297.302C76.3605 333.786 84.3492 369.851 100.271 402.558C103.471 409.132 110.482 412.808 117.689 411.583C141.739 407.496 194.931 394.397 206.782 357.396C218.631 320.404 271.802 307.302 295.86 303.212C303.075 301.985 309.245 297.113 311.143 290.045C317.307 267.083 328.109 215.317 309.88 186.204C294.929 162.328 300.223 121.037 305.819 94.8747Z" fill="#00AEC7"/>
<path d="M418.914 353.201C428.435 361.106 443.398 359.213 448.056 347.747C456.784 326.261 461.316 303.217 461.316 279.87C461.316 248.211 452.982 217.11 437.153 189.693C421.324 162.275 398.556 139.507 371.138 123.678C347.2 109.857 320.453 101.751 292.979 99.9157C285.685 99.4286 279.059 103.812 276.746 110.748C270.381 129.829 261.045 168.557 280.961 189.693C300.871 210.822 291.545 249.535 285.181 268.622C282.866 275.566 284.136 283.346 289.463 288.366C303.732 301.812 333.453 326.351 359.057 324.959C379.214 323.863 402.946 339.943 418.914 353.201Z" fill="#F9F2EA"/>
<path d="M163.734 354.197C152.474 359.33 147.668 373.627 155.965 382.808C171.513 400.016 190.29 414.123 211.311 424.281C239.816 438.056 271.445 444.084 303.019 441.761C334.592 439.438 364.998 428.844 391.18 411.045C414.04 395.505 432.976 374.95 446.582 351.011C450.194 344.655 449.13 336.782 443.892 331.682C429.48 317.649 398.673 292.392 370.977 301.128C343.29 309.861 312.491 284.62 298.074 270.585C292.83 265.48 285.272 263.239 278.435 265.851C260.119 272.848 225.093 288.932 215.206 312.59C207.423 331.216 182.619 345.588 163.734 354.197Z" fill="#F6FDFF"/>
<g filter="url(#filter0_d)">
<path d="M336.252 268.348C336.252 297.215 302.028 320.617 283.982 320.617C255.115 320.617 231.713 297.215 231.713 268.348C231.713 239.48 241.047 216.078 283.982 216.078C312.85 216.078 336.252 239.48 336.252 268.348Z" fill="white"/>
<path d="M335.225 268.348C335.225 282.372 326.899 295.181 316.208 304.535C305.497 313.906 292.661 319.59 283.982 319.59C255.682 319.59 232.74 296.648 232.74 268.348C232.74 253.986 235.07 241.215 242.543 232.036C249.98 222.901 262.695 217.105 283.982 217.105C312.283 217.105 335.225 240.047 335.225 268.348Z" stroke="#00AEC7" stroke-opacity="0.3" stroke-width="2.05363"/>
</g>
<path d="M284.423 241.848C287.877 241.848 290.646 244.617 290.646 248.071C290.646 251.524 287.877 254.294 284.423 254.294C280.97 254.294 278.2 251.524 278.2 248.071C278.2 244.617 281.001 241.848 284.423 241.848ZM312.427 279.186V272.963C305.457 272.963 299.483 269.976 295.002 264.624L290.833 259.645C290.254 258.944 289.527 258.379 288.704 257.991C287.881 257.604 286.982 257.404 286.072 257.405H282.868C280.97 257.405 279.227 258.214 278.045 259.645L273.875 264.624C269.364 269.976 263.39 272.963 256.42 272.963V279.186C265.039 279.186 272.569 275.545 278.2 269.073V276.074L266.128 280.897C264.043 281.737 262.643 283.853 262.643 286.062C262.643 289.142 265.132 291.631 268.212 291.631H275.089V290.076C275.089 288.013 275.908 286.034 277.367 284.575C278.826 283.117 280.805 282.297 282.868 282.297H292.202C293.073 282.297 293.758 282.982 293.758 283.853C293.758 284.724 293.073 285.409 292.202 285.409H282.868C280.285 285.409 278.2 287.493 278.2 290.076V291.631H300.634C303.715 291.631 306.204 289.142 306.204 286.062C306.204 283.853 304.804 281.737 302.719 280.897L290.646 276.074V269.073C296.278 275.545 303.808 279.186 312.427 279.186Z" fill="#00AEC7"/>
<path d="M351.811 140.721L350.379 143.918L344.814 141.423L337.215 158.373L333.191 156.569L340.79 139.619L335.254 137.137L336.687 133.941L351.811 140.721Z" fill="#00AEC7"/>
<path d="M362.221 152.133C363.917 153.195 364.92 154.599 365.229 156.343C365.539 158.087 365.063 159.966 363.801 161.98L358.456 170.513L354.745 168.189L359.826 160.079C360.556 158.913 360.82 157.824 360.618 156.812C360.427 155.782 359.81 154.94 358.768 154.287C357.708 153.623 356.644 153.436 355.576 153.727C354.508 154.018 353.571 154.808 352.763 156.098L347.881 163.889L344.145 161.548L356.43 141.937L360.167 144.278L355.236 152.149C356.245 151.403 357.362 151.033 358.589 151.039C359.844 151.038 361.055 151.402 362.221 152.133Z" fill="#00AEC7"/>
<path d="M378.254 164.125C379.537 165.223 380.456 166.474 381.009 167.88C381.578 169.3 381.716 170.775 381.421 172.306C381.141 173.822 380.411 175.269 379.232 176.647C378.053 178.026 376.737 178.971 375.284 179.484C373.83 179.997 372.352 180.09 370.848 179.764C369.373 179.436 367.994 178.723 366.71 177.626C365.427 176.528 364.5 175.27 363.931 173.85C363.391 172.429 363.261 170.96 363.542 169.445C363.823 167.929 364.553 166.482 365.732 165.104C366.91 163.725 368.226 162.779 369.68 162.267C371.147 161.738 372.618 161.638 374.092 161.966C375.583 162.308 376.97 163.028 378.254 164.125ZM375.774 167.025C374.839 166.226 373.763 165.881 372.544 165.991C371.339 166.085 370.201 166.758 369.131 168.01C368.06 169.262 367.565 170.498 367.646 171.719C367.74 172.924 368.255 173.927 369.19 174.726C370.124 175.525 371.194 175.878 372.4 175.784C373.618 175.674 374.763 174.993 375.833 173.741C376.904 172.489 377.392 171.261 377.297 170.056C377.217 168.835 376.709 167.824 375.774 167.025Z" fill="#00AEC7"/>
<path d="M398.762 185.665L385.673 197.015L382.784 193.684L385.43 191.389C384.248 191.808 383.056 191.834 381.856 191.468C380.684 191.104 379.648 190.402 378.747 189.362C377.435 187.85 376.887 186.215 377.1 184.457C377.314 182.698 378.311 181.047 380.091 179.504L387.699 172.907L390.567 176.215L383.337 182.484C382.298 183.385 381.719 184.356 381.6 185.397C381.498 186.425 381.842 187.395 382.635 188.309C383.468 189.269 384.437 189.767 385.543 189.801C386.649 189.836 387.777 189.354 388.927 188.357L395.873 182.334L398.762 185.665Z" fill="#00AEC7"/>
<path d="M406.008 195.862C406.788 197.095 407.166 198.336 407.142 199.585C407.118 200.834 406.729 201.955 405.976 202.949L409.016 201.027L411.356 204.727L396.661 214.021C395.304 214.879 393.916 215.375 392.495 215.508C391.069 215.671 389.707 215.409 388.41 214.725C387.125 214.057 386.003 212.966 385.045 211.451C383.708 209.336 383.129 207.31 383.309 205.371C383.488 203.432 384.352 201.775 385.901 200.401L388.224 204.075C387.618 204.754 387.302 205.522 387.275 206.377C387.242 207.261 387.527 208.179 388.129 209.131C388.82 210.223 389.703 210.898 390.778 211.155C391.836 211.423 393.017 211.145 394.321 210.321L397.439 208.348C396.219 208.602 395.03 208.478 393.874 207.976C392.735 207.463 391.776 206.589 390.996 205.356C390.216 204.123 389.813 202.823 389.788 201.458C389.763 200.092 390.136 198.771 390.907 197.494C391.707 196.223 392.874 195.103 394.407 194.133C395.94 193.164 397.443 192.596 398.916 192.429C400.418 192.268 401.78 192.492 403.003 193.1C404.226 193.708 405.228 194.628 406.008 195.862ZM403.493 199.081C402.757 197.918 401.788 197.223 400.584 196.998C399.381 196.772 398.118 197.077 396.797 197.913C395.475 198.749 394.659 199.759 394.347 200.943C394.053 202.115 394.273 203.283 395.009 204.446C395.722 205.574 396.686 206.259 397.9 206.503C399.144 206.752 400.408 206.47 401.695 205.657C402.999 204.832 403.795 203.81 404.085 202.591C404.403 201.378 404.206 200.208 403.493 199.081Z" fill="#00AEC7"/>
<path d="M418.13 218.624C418.937 220.456 418.978 222.18 418.255 223.797C417.532 225.414 416.083 226.701 413.908 227.659L404.692 231.717L402.927 227.71L411.685 223.854C412.945 223.299 413.775 222.546 414.176 221.595C414.596 220.636 414.559 219.593 414.063 218.467C413.559 217.322 412.784 216.57 411.737 216.211C410.69 215.852 409.471 215.979 408.078 216.592L399.663 220.297L397.886 216.262L419.066 206.936L420.843 210.972L412.342 214.715C413.596 214.664 414.728 214.985 415.74 215.679C416.779 216.383 417.576 217.365 418.13 218.624Z" fill="#00AEC7"/>
<path d="M411.841 242.542L408.22 243.641L407.548 241.426C406.985 239.571 407.001 238.008 407.595 236.738C408.196 235.488 409.544 234.545 411.639 233.91L418.821 231.729L418.121 229.425L421.682 228.344L422.382 230.648L426.481 229.404L427.762 233.623L423.663 234.868L424.789 238.578L421.228 239.659L420.102 235.949L412.86 238.147C412.062 238.389 411.552 238.718 411.33 239.134C411.107 239.551 411.111 240.138 411.341 240.896L411.841 242.542Z" fill="#00AEC7"/>
<path d="M427.141 248.289C427.535 250.358 427.33 252.116 426.524 253.565C425.718 255.013 424.474 256.057 422.792 256.696L422.018 252.642C422.806 252.321 423.391 251.828 423.773 251.161C424.155 250.493 424.258 249.699 424.082 248.777C423.941 248.04 423.658 247.5 423.231 247.157C422.805 246.814 422.295 246.699 421.701 246.812C421.23 246.902 420.883 247.138 420.658 247.521C420.434 247.903 420.287 248.356 420.217 248.878C420.147 249.401 420.087 250.145 420.038 251.109C419.997 252.454 419.89 253.557 419.714 254.418C419.564 255.296 419.195 256.088 418.608 256.794C418.045 257.517 417.181 257.99 416.013 258.213C414.559 258.49 413.272 258.142 412.152 257.167C411.036 256.213 410.295 254.773 409.927 252.848C409.505 250.636 409.659 248.771 410.388 247.252C411.137 245.73 412.406 244.649 414.194 244.011L414.986 248.158C414.166 248.42 413.57 248.916 413.2 249.644C412.85 250.369 412.773 251.244 412.968 252.267C413.109 253.005 413.391 253.535 413.813 253.857C414.256 254.176 414.764 254.281 415.337 254.171C415.829 254.077 416.195 253.827 416.436 253.42C416.68 253.034 416.836 252.569 416.902 252.026C416.972 251.503 417.032 250.76 417.081 249.795C417.125 248.471 417.215 247.382 417.349 246.529C417.508 245.692 417.86 244.924 418.406 244.226C418.956 243.548 419.804 243.099 420.951 242.88C422.425 242.599 423.731 242.933 424.867 243.884C426.004 244.834 426.761 246.303 427.141 248.289Z" fill="#00AEC7"/>
<path d="M358.242 402.195L355.66 397.118L348.724 400.644L347.201 397.647L354.137 394.121L351.457 388.85L343.689 392.799L342.095 389.664L353.775 383.726L363.733 403.313L352.053 409.251L350.473 406.144L358.242 402.195Z" fill="#00AEC7"/>
<path d="M334.693 410.903C332.796 411.511 331.085 411.373 329.56 410.489C328.035 409.605 326.911 408.037 326.189 405.784L323.13 396.241L327.28 394.911L330.187 403.98C330.605 405.284 331.264 406.184 332.163 406.68C333.069 407.196 334.105 407.267 335.271 406.894C336.457 406.514 337.282 405.824 337.746 404.826C338.21 403.827 338.211 402.606 337.749 401.164L334.956 392.45L339.135 391.111L344.398 407.531L340.219 408.87L339.164 405.58C339.084 406.826 338.649 407.914 337.857 408.843C337.052 409.798 335.997 410.485 334.693 410.903Z" fill="#00AEC7"/>
<path d="M305.993 408.665C305.921 408.236 305.89 407.736 305.899 407.166L318.362 405.078C318.047 403.574 317.451 402.527 316.573 401.938C315.696 401.348 314.695 401.148 313.569 401.336C312.567 401.505 311.779 401.889 311.206 402.49C310.613 403.094 310.295 403.831 310.252 404.701L305.678 405.468C305.704 404.243 306.007 403.098 306.586 402.034C307.165 400.969 307.993 400.073 309.07 399.345C310.127 398.621 311.361 398.141 312.773 397.904C314.431 397.626 315.962 397.727 317.368 398.207C318.777 398.707 319.95 399.552 320.886 400.741C321.821 401.931 322.438 403.416 322.737 405.196C323.035 406.977 322.936 408.582 322.439 410.011C321.946 411.462 321.113 412.643 319.94 413.555C318.768 414.466 317.353 415.061 315.695 415.339C314.017 415.62 312.496 415.518 311.131 415.031C309.745 414.548 308.612 413.749 307.731 412.634C306.833 411.544 306.254 410.221 305.993 408.665ZM310.424 408.365C310.596 409.766 311.141 410.759 312.059 411.341C312.956 411.927 313.978 412.124 315.124 411.932C316.291 411.736 317.213 411.214 317.891 410.364C318.569 409.514 318.832 408.386 318.681 406.981L310.424 408.365Z" fill="#00AEC7"/>
<path d="M296.445 417.241C294.992 417.271 293.741 416.954 292.689 416.291C291.638 415.627 290.883 414.719 290.423 413.567L290.497 417.145L286.14 417.235L285.784 399.934C285.752 398.336 286.044 396.898 286.661 395.62C287.257 394.321 288.18 393.295 289.43 392.543C290.66 391.791 292.167 391.397 293.951 391.36C296.44 391.309 298.465 391.859 300.024 393.01C301.584 394.161 302.55 395.749 302.924 397.776L298.599 397.865C298.332 396.998 297.841 396.334 297.126 395.871C296.389 395.388 295.461 395.158 294.341 395.181C293.055 395.208 292.025 395.613 291.253 396.397C290.48 397.16 290.109 398.309 290.141 399.844L290.216 403.516C290.628 402.345 291.345 401.396 292.368 400.67C293.391 399.964 294.629 399.596 296.081 399.566C297.533 399.536 298.847 399.862 300.024 400.544C301.2 401.225 302.133 402.223 302.825 403.537C303.495 404.872 303.849 406.442 303.887 408.247C303.924 410.052 303.634 411.624 303.018 412.965C302.382 414.327 301.491 415.373 300.344 416.102C299.196 416.831 297.897 417.211 296.445 417.241ZM294.997 413.442C296.366 413.413 297.456 412.945 298.268 412.036C299.079 411.127 299.469 409.894 299.437 408.338C299.405 406.782 298.965 405.567 298.117 404.692C297.269 403.838 296.16 403.425 294.791 403.453C293.464 403.48 292.384 403.949 291.551 404.858C290.699 405.789 290.288 407.011 290.319 408.526C290.351 410.061 290.812 411.265 291.701 412.14C292.57 413.035 293.669 413.469 294.997 413.442Z" fill="#00AEC7"/>
<path d="M276.986 413.012C276.232 414.038 275.296 414.806 274.178 415.315C273.059 415.844 271.849 416.041 270.549 415.904L271.039 411.23L272.308 411.363C275.507 411.699 277.262 410.381 277.574 407.409L278.44 399.144L282.805 399.602L281.006 416.75L276.642 416.293L276.986 413.012Z" fill="#00AEC7"/>
<path d="M263.588 414.119L261.881 401.624L254.803 411.913L250.125 410.737L266.561 388.616L271.27 389.799L265.373 397.303L268.327 415.31L263.588 414.119Z" fill="#00AEC7"/>
<path d="M124.918 257.967L130.582 258.437L131.225 250.699L134.567 250.977L133.925 258.715L139.806 259.203L140.525 250.536L144.023 250.827L142.941 263.857L121.089 262.043L122.171 249.013L125.638 249.3L124.918 257.967Z" fill="white"/>
<path d="M132.38 223.386C132.916 221.365 133.969 219.941 135.537 219.114C137.091 218.262 139.019 218.142 141.321 218.752L150.987 221.315L149.873 225.518L140.687 223.082C139.406 222.743 138.337 222.813 137.482 223.293C136.612 223.747 136.025 224.545 135.723 225.686C135.41 226.867 135.53 227.906 136.085 228.802C136.64 229.699 137.628 230.336 139.049 230.713L147.875 233.053L146.76 237.256L137.574 234.82C136.293 234.481 135.225 234.551 134.369 235.031C133.499 235.485 132.913 236.283 132.61 237.424C132.297 238.605 132.418 239.644 132.973 240.54C133.527 241.437 134.515 242.074 135.936 242.451L144.762 244.791L143.64 249.024L127.009 244.614L128.131 240.381L131.283 241.217C130.319 240.49 129.672 239.579 129.341 238.485C128.995 237.365 128.989 236.175 129.324 234.914C129.679 233.573 130.307 232.497 131.208 231.686C132.114 230.855 133.233 230.349 134.567 230.167C133.564 229.344 132.868 228.335 132.478 227.139C132.073 225.918 132.041 224.667 132.38 223.386Z" fill="white"/>
<path d="M140.204 204.476C140.935 202.967 141.906 201.769 143.118 200.884C144.338 199.98 145.721 199.476 147.266 199.374C148.793 199.262 150.367 199.599 151.988 200.384C153.609 201.17 154.849 202.196 155.707 203.464C156.566 204.731 157.027 206.128 157.093 207.655C157.148 209.155 156.811 210.659 156.079 212.168C155.348 213.678 154.372 214.884 153.152 215.789C151.922 216.665 150.544 217.159 149.017 217.271C147.49 217.382 145.917 217.045 144.295 216.26C142.674 215.474 141.435 214.448 140.576 213.181C139.699 211.905 139.233 210.517 139.177 209.017C139.13 207.499 139.473 205.985 140.204 204.476ZM143.614 206.128C143.081 207.228 143.021 208.349 143.433 209.492C143.827 210.626 144.76 211.55 146.232 212.263C147.704 212.976 149.016 213.141 150.169 212.756C151.303 212.362 152.137 211.615 152.669 210.516C153.202 209.417 153.272 208.3 152.878 207.166C152.465 206.023 151.523 205.095 150.051 204.381C148.579 203.668 147.276 203.508 146.142 203.902C144.989 204.287 144.146 205.029 143.614 206.128Z" fill="white"/>
<path d="M162.609 192.911L165.781 194.926L164.549 196.866C163.517 198.491 162.33 199.491 160.988 199.865C159.658 200.222 158.075 199.818 156.24 198.652L149.948 194.655L148.665 196.674L145.546 194.692L146.828 192.674L143.236 190.392L145.584 186.696L149.176 188.977L151.241 185.726L154.361 187.708L152.296 190.959L158.64 194.989C159.339 195.433 159.917 195.604 160.375 195.502C160.832 195.4 161.271 195.017 161.693 194.353L162.609 192.911Z" fill="white"/>
<path d="M149.275 180.046C148.711 179.624 148.404 179.083 148.354 178.425C148.288 177.754 148.496 177.096 148.98 176.449C149.464 175.803 150.038 175.417 150.7 175.293C151.346 175.156 151.951 175.298 152.514 175.72C153.061 176.13 153.368 176.67 153.435 177.341C153.485 177.999 153.268 178.652 152.784 179.298C152.3 179.944 151.734 180.336 151.089 180.473C150.426 180.598 149.821 180.455 149.275 180.046ZM156.15 179.103L169.921 189.419L167.296 192.924L153.525 182.608L156.15 179.103Z" fill="white"/>
<path d="M164.347 169.081C165.484 167.848 166.76 166.983 168.176 166.487C169.606 165.974 171.075 165.893 172.584 166.242C174.078 166.577 175.487 167.355 176.811 168.577C178.135 169.798 179.025 171.139 179.479 172.601C179.934 174.062 179.972 175.533 179.592 177.014C179.211 178.465 178.452 179.808 177.315 181.04C176.178 182.273 174.895 183.146 173.465 183.658C172.034 184.141 170.572 184.215 169.078 183.88C167.585 183.544 166.176 182.766 164.852 181.545C163.527 180.324 162.638 178.983 162.183 177.521C161.713 176.045 161.668 174.582 162.049 173.131C162.444 171.664 163.21 170.314 164.347 169.081ZM167.132 171.65C166.304 172.548 165.922 173.604 165.986 174.817C166.034 176.017 166.66 177.171 167.862 178.28C169.065 179.389 170.274 179.926 171.488 179.892C172.688 179.843 173.702 179.37 174.53 178.472C175.358 177.574 175.748 176.525 175.699 175.325C175.636 174.112 175.002 172.95 173.8 171.842C172.597 170.733 171.396 170.203 170.197 170.251C168.982 170.286 167.961 170.752 167.132 171.65Z" fill="white"/>
<path d="M181.272 153.345C182.817 152.095 184.458 151.605 186.196 151.876C187.935 152.148 189.546 153.201 191.031 155.035L197.323 162.809L193.944 165.544L187.964 158.157C187.104 157.095 186.166 156.496 185.15 156.359C184.121 156.207 183.132 156.515 182.182 157.283C181.217 158.065 180.698 159.004 180.627 160.101C180.555 161.197 180.995 162.333 181.946 163.508L187.691 170.605L184.287 173.361L173.462 159.987L176.866 157.231L179.035 159.911C178.659 158.723 178.672 157.554 179.073 156.404C179.477 155.225 180.21 154.205 181.272 153.345Z" fill="white"/>
<path d="M195.774 143.296C197.562 142.211 199.27 141.792 200.898 142.04C202.525 142.287 203.928 143.083 205.107 144.426L201.602 146.553C201.031 145.931 200.368 145.558 199.615 145.434C198.861 145.31 198.086 145.489 197.29 145.973C196.653 146.359 196.248 146.81 196.077 147.326C195.905 147.842 195.975 148.356 196.287 148.87C196.534 149.277 196.874 149.519 197.308 149.594C197.741 149.67 198.214 149.65 198.724 149.534C199.235 149.418 199.948 149.216 200.863 148.927C202.128 148.498 203.192 148.216 204.054 148.08C204.923 147.916 205.788 147.985 206.649 148.286C207.517 148.558 208.257 149.199 208.869 150.208C209.632 151.465 209.754 152.784 209.235 154.164C208.734 155.534 207.652 156.723 205.988 157.733C204.076 158.893 202.287 159.397 200.621 159.246C198.944 159.076 197.498 158.27 196.284 156.828L199.868 154.653C200.397 155.325 201.065 155.707 201.871 155.798C202.667 155.873 203.508 155.641 204.393 155.104C205.03 154.718 205.425 154.272 205.579 153.767C205.722 153.244 205.643 152.735 205.343 152.239C205.085 151.814 204.725 151.56 204.263 151.478C203.818 151.384 203.332 151.4 202.804 151.527C202.293 151.644 201.58 151.846 200.665 152.135C199.417 152.553 198.373 152.847 197.532 153.018C196.699 153.161 195.862 153.099 195.023 152.834C194.201 152.557 193.49 151.923 192.888 150.932C192.115 149.658 191.973 148.327 192.463 146.939C192.954 145.552 194.057 144.337 195.774 143.296Z" fill="white"/>
<g clip-path="url(#clip2)">
<path d="M410.32 95.3019L398.669 113.63L394.988 111.232L400.26 103.381L392.51 98.3841L387.238 106.235L383.557 103.837L395.208 85.5094L398.889 87.9073L394.111 95.2759L401.861 100.273L406.639 92.904L410.32 95.3019Z" fill="#00AEC7"/>
<path d="M419.716 109.514C420.092 110.693 420.174 111.966 419.574 113.132L421.951 110.425L425.431 113.212L414.723 126.368L411.242 123.582L413.619 120.875C412.537 121.545 411.36 121.92 410.29 121.612C408.926 121.398 407.856 121.09 406.891 120.099C405.633 119.201 404.963 118.116 404.587 116.937C404.211 115.758 404.035 114.191 404.247 112.824C404.46 111.458 405.26 109.904 406.448 108.55C407.637 107.197 408.919 106.139 410.002 105.469C411.378 104.705 412.649 104.625 414.013 104.839C415.377 105.053 416.542 105.656 417.8 106.554C418.376 107.344 419.34 108.335 419.716 109.514ZM412.788 109.126C411.518 109.207 410.435 109.877 409.541 111.136C408.647 112.395 408.046 113.561 408.128 114.834C408.21 116.106 408.88 117.191 409.75 117.888C410.715 118.879 411.785 119.187 412.961 118.812C414.232 118.732 415.314 118.062 416.208 116.803C417.103 115.543 417.703 114.378 417.621 113.105C417.539 111.832 416.869 110.747 415.999 110.05C415.129 109.354 413.764 109.14 412.788 109.126Z" fill="#00AEC7"/>
<path d="M438.542 126.89C438.918 128.069 438.705 129.436 438.199 130.896C437.693 132.356 436.798 133.616 435.61 134.969C434.421 136.322 433.045 137.086 431.575 137.555C430.104 138.024 428.834 138.104 427.469 137.89C426.105 137.676 424.941 137.073 423.883 135.787C422.824 134.501 422.248 133.71 421.872 132.531C421.496 131.352 421.803 130.281 422.403 129.115L414.096 137.609L410.815 134.434L428.712 116.388L431.993 119.563L429.522 121.974C430.698 121.599 431.874 121.224 432.945 121.532C434.309 121.746 435.473 122.349 436.437 123.34C437.496 124.626 438.166 125.711 438.542 126.89ZM429.497 123.93C428.227 124.011 427.051 124.386 426.156 125.645C425.168 126.61 424.568 127.775 424.649 129.048C424.731 130.321 425.107 131.5 425.978 132.196C426.942 133.188 428.012 133.496 429.282 133.415C430.553 133.335 431.635 132.665 432.623 131.7C433.612 130.736 434.212 129.57 434.424 128.203C434.342 126.931 434.06 126.047 433.096 125.055C431.838 124.158 430.768 123.85 429.497 123.93Z" fill="#00AEC7"/>
<path d="M452.687 143.813C453.063 144.992 452.85 146.359 452.344 147.819C451.838 149.279 450.555 150.338 449.273 151.396C447.99 152.454 446.614 153.218 445.143 153.687C443.673 154.156 442.309 153.942 441.144 153.339C439.98 152.736 438.816 152.133 437.852 151.142C436.887 150.151 436.511 148.972 436.43 147.699C436.348 146.426 436.654 145.355 437.254 144.189L428.277 151.598L425.584 148.235L445.116 132.265L447.808 135.628L444.655 137.932C445.831 137.557 447.102 137.477 448.172 137.785C449.242 138.093 450.5 138.99 451.171 140.075C452.135 141.067 452.605 142.54 452.687 143.813ZM444.243 139.687C442.878 139.473 441.796 140.143 440.713 140.813C439.431 141.871 438.831 143.037 438.819 144.015C438.606 145.381 438.888 146.265 439.853 147.257C440.817 148.248 441.687 148.945 442.957 148.864C444.228 148.784 445.404 148.409 446.392 147.444C447.675 146.386 448.275 145.22 448.581 144.148C448.794 142.782 448.512 141.898 447.547 140.906C446.383 140.303 445.607 139.902 444.243 139.687Z" fill="#00AEC7"/>
<path d="M463.304 145.62C463.987 145.727 464.763 146.129 465.045 147.013C465.527 147.509 465.809 148.393 465.703 149.076C465.597 149.759 465.397 150.148 464.608 150.724C464.114 151.206 463.432 151.099 462.75 150.992C462.068 150.885 461.585 150.389 461.103 149.893C460.621 149.398 460.339 148.514 460.445 147.83C460.551 147.147 460.952 146.37 461.54 146.182C462.328 145.606 462.916 145.419 463.304 145.62ZM460.385 152.72L446.396 162.702L443.998 159.245L457.987 149.264L460.385 152.72Z" fill="#00AEC7"/>
<path d="M469.634 170.551C469.221 172.306 467.739 173.753 465.868 174.999L457.409 179.97L454.917 176.219L463.082 171.342C464.164 170.672 464.858 169.801 465.164 168.729C465.471 167.658 465.189 166.773 464.519 165.688C463.848 164.603 462.978 163.907 462.002 163.893C460.932 163.585 459.755 163.96 458.379 164.724L450.508 169.507L448.31 165.662L462.969 156.766L465.461 160.517L462.508 162.433C463.779 162.352 464.755 162.366 465.919 162.969C467.084 163.571 467.954 164.268 468.718 165.648C469.776 166.934 470.046 168.796 469.634 170.551Z" fill="#00AEC7"/>
<path d="M472.57 193.968L467.34 182.648C465.964 183.412 465.269 184.282 464.869 185.059C464.563 186.131 464.551 187.109 465.221 188.194C465.503 189.078 466.373 189.775 466.855 190.271C467.337 190.766 468.313 190.78 469.196 190.498L470.806 194.531C469.629 194.906 468.359 194.986 467.289 194.678C466.218 194.37 465.054 193.767 464.184 193.071C463.314 192.374 462.256 191.088 461.88 189.909C461.116 188.529 460.94 186.962 460.764 185.395C460.976 184.028 461.482 182.568 462.083 181.402C462.977 180.143 464.259 179.084 465.73 178.615C467.4 177.758 468.965 177.584 470.235 177.503C471.894 177.624 473.058 178.227 474.222 178.829C475.387 179.432 476.445 180.718 477.009 182.487C477.773 183.866 477.949 185.434 478.125 187.001C477.912 188.368 477.7 189.734 476.806 190.994C475.911 192.253 474.829 192.923 473.453 193.687C473.453 193.687 473.159 193.78 472.57 193.968ZM474.902 187.055C475.208 185.983 475.22 185.005 474.55 183.92C473.88 182.835 473.304 182.045 472.233 181.737C471.163 181.429 470.187 181.415 468.716 181.884L472.431 189.467C473.807 188.703 474.501 187.832 474.902 187.055Z" fill="#00AEC7"/>
<path d="M485.035 204.604C484.528 206.065 483.34 207.418 481.964 208.182L480.447 204.444C481.236 203.868 481.73 203.385 481.836 202.702C482.236 201.925 482.342 201.242 482.06 200.358C481.872 199.768 481.39 199.273 480.908 198.777C480.52 198.576 479.838 198.469 479.25 198.656C478.662 198.844 478.461 199.233 478.261 199.621C478.061 200.01 477.861 200.398 478.049 200.988C478.237 201.577 478.131 202.26 478.119 203.238C478.201 204.511 478.283 205.784 478.471 206.373C478.459 207.351 478.353 208.034 477.658 208.905C477.258 209.682 476.47 210.258 475.293 210.634C473.823 211.103 472.553 211.183 471.294 210.285C470.036 209.388 469.072 208.397 468.414 206.333C467.756 204.27 467.486 202.408 467.898 200.653C468.793 199.394 469.981 198.041 471.358 197.277L472.874 201.015C471.991 201.296 471.591 202.073 471.485 202.756C471.379 203.44 471.367 204.418 471.649 205.302C471.837 205.891 472.319 206.387 472.707 206.588C473.095 206.789 473.777 206.896 474.366 206.708C474.954 206.521 475.154 206.132 475.354 205.744C475.554 205.355 475.66 204.672 475.566 204.377C475.378 203.788 475.484 203.104 475.496 202.126C475.414 200.854 475.333 199.581 475.145 198.992C474.957 198.402 475.263 197.33 475.663 196.553C476.063 195.776 476.851 195.2 478.028 194.825C479.498 194.356 480.769 194.276 482.027 195.173C483.285 196.071 484.343 197.357 484.907 199.125C485.565 201.188 485.541 203.144 485.035 204.604Z" fill="#00AEC7"/>
<path d="M490.096 221.497C489.296 223.051 488.308 224.016 486.637 224.873L485.415 221.042C486.297 220.76 486.698 219.983 487.192 219.501C487.592 218.724 487.604 217.746 487.322 216.862C487.134 216.272 486.946 215.683 486.17 215.281C485.782 215.08 485.1 214.973 484.511 215.16C483.923 215.348 483.629 215.442 483.429 215.83C483.229 216.219 483.029 216.607 483.217 217.197C483.111 217.88 483.299 218.469 483.287 219.447C483.369 220.72 483.45 221.993 483.344 222.676C483.238 223.359 482.932 224.431 482.532 225.208C482.132 225.985 481.343 226.561 480.167 226.937C478.697 227.406 477.332 227.191 476.368 226.2C475.11 225.302 474.346 223.923 473.782 222.154C473.124 220.091 473.148 218.135 473.654 216.675C474.161 215.214 475.349 213.861 477.114 213.299L478.336 217.13C477.453 217.411 476.959 217.894 476.559 218.671C476.159 219.448 476.147 220.426 476.429 221.31C476.617 221.899 476.805 222.489 477.581 222.891C478.357 223.293 478.651 223.199 478.945 223.105C479.533 222.917 479.827 222.824 479.933 222.14C480.134 221.752 480.334 221.363 480.146 220.774C480.252 220.091 480.064 219.501 480.076 218.523C479.994 217.251 480.006 216.273 480.018 215.295C480.03 214.317 480.43 213.54 480.925 213.057C481.419 212.575 482.113 211.704 483.383 211.624C484.854 211.155 486.218 211.369 487.477 212.266C488.735 213.164 489.699 214.155 490.357 216.218C491.015 218.282 490.897 219.943 490.096 221.497Z" fill="#00AEC7"/>
</g>
<g clip-path="url(#clip3)">
<path d="M345.643 476.572L343.508 467.561L348.408 466.496L353.89 490.684L345.039 492.505C342.191 493.428 339.984 493.094 338.099 492.132C336.213 491.17 335.123 489.425 334.668 487.212C334.212 484.999 334.546 482.793 335.823 481.068C337.099 479.342 338.844 478.252 341.692 477.329L345.643 476.572ZM339.728 485.834C339.876 487.097 340.658 487.893 341.287 488.213C342.23 488.695 343.333 488.861 344.757 488.4L348.233 487.797L346.4 480.524L342.923 481.126C340.236 481.735 338.959 483.46 339.728 485.834Z" fill="white"/>
<path d="M311.199 481.971L325.258 480.035C324.957 478.297 324.335 477.187 323.552 476.392C322.77 475.597 321.353 475.269 320.089 475.417C318.825 475.564 318.19 476.032 317.395 476.815C316.6 477.597 316.279 478.226 316.112 479.329L311.058 479.919C311.071 478.341 311.552 477.398 312.193 476.141C312.835 474.884 313.791 473.787 315.214 473.325C316.485 472.389 317.909 471.927 319.486 471.94C321.225 471.639 323.117 471.812 324.688 472.614C326.259 473.416 327.516 474.058 328.607 475.802C329.543 477.073 330.159 478.971 330.46 480.709C330.761 482.448 330.427 484.654 330.1 486.071C329.613 487.803 328.657 488.9 327.226 490.15C325.956 491.087 324.372 491.863 322.319 492.004C320.267 492.145 318.689 492.132 317.118 491.33C315.546 490.528 314.289 489.886 313.353 488.616C312.417 487.346 311.641 485.762 311.654 484.184C311.346 483.235 311.352 482.446 311.199 481.971ZM318.1 487.077C319.042 487.558 320.299 488.2 321.563 488.053C322.827 487.905 323.936 487.283 324.732 486.501C325.527 485.718 325.854 484.301 325.867 482.723L316.548 483.909C316.695 485.172 317.003 486.122 318.1 487.077Z" fill="white"/>
<path d="M295.964 492.409C294.707 491.767 294.085 490.658 293.149 489.388L293.431 493.493L288.537 493.768L287.91 474.038L292.804 473.763L293.086 477.868C293.413 476.451 294.369 475.354 295.479 474.732C296.749 473.795 298.012 473.648 299.751 473.347C301.328 473.36 302.746 473.687 304.317 474.489C305.574 475.13 306.825 476.561 307.447 477.671C308.069 478.78 308.524 480.993 308.665 483.046C308.806 485.098 308.318 486.83 307.831 488.562C307.029 490.133 306.073 491.23 304.803 492.166C303.533 493.102 302.109 493.564 300.531 493.551C298.479 493.692 297.061 493.365 295.964 492.409ZM302.001 487.567C302.956 486.47 303.284 485.053 303.297 483.475C303.31 481.897 302.848 480.473 301.751 479.517C300.654 478.561 299.712 478.08 298.134 478.067C296.556 478.054 295.446 478.676 294.49 479.773C293.535 480.87 293.207 482.287 293.194 483.865C293.181 485.443 293.643 486.867 294.74 487.823C295.837 488.779 297.094 489.42 298.357 489.273C299.935 489.286 301.045 488.664 302.001 487.567Z" fill="white"/>
<path d="M267.576 490.606C266.011 489.015 264.921 487.27 264.941 484.904L270.303 485.263C270.61 486.213 270.918 487.162 271.701 487.957C272.483 488.753 273.272 488.759 274.375 488.926C275.478 489.093 276.588 488.471 277.698 487.849C278.653 486.752 279.295 485.495 279.468 483.603C279.642 481.711 279.18 480.287 278.558 479.177C277.936 478.067 276.679 477.426 275.415 477.573C274.312 477.407 273.363 477.714 272.567 478.497C271.932 478.965 271.137 479.747 270.97 480.851L265.608 480.491C266.102 477.97 267.379 476.245 269.123 475.155C270.868 474.064 273.241 473.295 275.448 473.629C277.34 473.802 279.072 474.29 280.643 475.092C282.214 475.894 283.151 477.164 283.927 478.748C284.702 480.332 285.004 482.07 284.83 483.963C284.657 485.855 284.169 487.586 283.368 489.158C282.566 490.729 281.296 491.666 279.711 492.441C277.498 492.897 275.76 493.198 273.868 493.025C271.501 493.005 269.141 492.197 267.576 490.606Z" fill="white"/>
<path d="M243.375 478.252L257.556 480.736C257.729 478.843 257.582 477.58 256.8 476.784C256.017 475.989 255.235 475.194 253.817 474.866C252.4 474.539 251.611 474.533 250.815 475.315C249.866 475.623 249.385 476.566 249.064 477.194L243.863 476.52C244.504 475.263 245.146 474.006 245.941 473.224C246.897 472.127 248.321 471.665 249.745 471.204C251.169 470.742 252.747 470.755 254.164 471.082C256.056 471.255 257.627 472.057 259.038 473.174C260.296 473.815 261.232 475.085 261.847 476.984C262.623 478.568 262.45 480.46 262.277 482.352C261.943 484.559 261.141 486.13 260.185 487.227C259.069 488.638 257.799 489.574 256.375 490.036C254.951 490.497 252.899 490.638 251.006 490.465C249.114 490.292 247.543 489.49 245.972 488.688C244.561 487.572 243.624 486.302 243.163 484.878C242.701 483.454 242.4 481.715 242.887 479.984C242.894 479.195 243.054 478.881 243.375 478.252ZM248.371 484.763C249.153 485.558 250.25 486.514 251.514 486.366C252.931 486.694 253.88 486.386 254.99 485.764C256.1 485.142 256.741 483.885 257.068 482.467L247.768 481.286C247.441 482.704 247.588 483.967 248.371 484.763Z" fill="white"/>
</g>
</g>
<defs>
<filter id="filter0_d" x="219.391" y="206.837" width="129.182" height="129.182" filterUnits="userSpaceOnUse" color-interpolation-filters="sRGB">
<feFlood flood-opacity="0" result="BackgroundImageFix"/>
<feColorMatrix in="SourceAlpha" type="matrix" values="0 0 0 0 0 0 0 0 0 0 0 0 0 0 0 0 0 0 127 0" result="hardAlpha"/>
<feOffset dy="3.08044"/>
<feGaussianBlur stdDeviation="6.16088"/>
<feColorMatrix type="matrix" values="0 0 0 0 0.0444444 0 0 0 0 0.533333 0 0 0 0 0.5304 0 0 0 0.2 0"/>
<feBlend mode="normal" in2="BackgroundImageFix" result="effect1_dropShadow"/>
<feBlend mode="normal" in="SourceGraphic" in2="effect1_dropShadow" result="shape"/>
</filter>
<clipPath id="clip0">
<rect width="520" height="537" fill="white"/>
</clipPath>
<clipPath id="clip1">
<rect width="132.102" height="70.6062" fill="white" transform="translate(17.6699 127.734) rotate(-29.3441)"/>
</clipPath>
<clipPath id="clip2">
<rect width="160.556" height="67.6024" fill="white" transform="translate(443.736 70.0352) rotate(72.3112)"/>
</clipPath>
<clipPath id="clip3">
<rect width="104.79" height="66.3318" fill="white" transform="translate(332.398 532.793) rotate(-152.964)"/>
</clipPath>
</defs>
</svg>
