<svg width="20" height="21" viewBox="0 0 20 21" fill="none" xmlns="http://www.w3.org/2000/svg">
<path d="M10.7714 19.9996C9.45505 19.9996 8.08677 19.5172 7.0582 18.6137C6.73264 18.3252 6.44483 18.0083 6.19004 17.663C5.95413 17.7529 5.70879 17.8191 5.454 17.7671C5.01049 17.682 4.76514 17.3319 4.65663 16.8921C3.31665 16.3387 2.01914 15.5346 1.39162 14.3947C0.962264 13.6095 0.886772 12.7392 1.16987 11.798C1.46711 10.8236 2.25034 9.99587 3.29306 9.52288C3.27419 9.20124 3.27891 8.90799 3.31665 8.65258C3.01469 6.789 3.8734 4.84028 5.38323 3.99363C6.77982 3.20846 8.40289 3.39766 9.88441 4.0362C10.3893 3.47334 10.9224 2.93886 11.4839 2.43749C12.2765 1.72801 13.4797 0.815135 14.8102 1.03271C17.9242 1.54354 19.1982 6.55723 18.9811 8.9884C18.8537 10.3932 18.2875 11.5804 17.3203 12.4649C17.7449 13.5717 17.7166 14.6312 17.2401 15.3927C16.8532 16.0123 16.2115 16.3954 15.6406 16.6839C15.3764 16.8164 15.1075 16.9394 14.8338 17.0529C14.579 18.136 13.9232 18.9969 12.9182 19.5077C12.2671 19.8388 11.5263 19.9996 10.7714 19.9996ZM6.52032 17.5211C6.74679 17.8191 7.00158 18.0982 7.28467 18.3489C8.79922 19.6827 11.1017 20.0422 12.7531 19.2002C13.6024 18.7698 14.1685 18.084 14.4328 17.209C11.9793 18.1171 9.16724 18.2353 6.52032 17.5211C6.52504 17.5211 6.52504 17.5211 6.52032 17.5211ZM7.03461 17.2941C9.56357 17.8901 12.2199 17.7103 14.5318 16.8022C14.6026 16.4143 14.6168 15.9934 14.579 15.5488C14.5318 15.0285 14.395 14.5129 14.1733 14.0163C13.3995 14.1913 12.5691 14.2717 11.7056 14.2528C11.6726 14.2528 11.6349 14.2528 11.6018 14.248C10.2383 15.4825 8.6907 16.5184 7.03461 17.2941ZM5.08598 17.0623C5.18035 17.2515 5.32189 17.384 5.52006 17.4265C5.66632 17.4549 5.82202 17.4218 5.98244 17.3698C5.68991 17.2752 5.38795 17.1759 5.08598 17.0623ZM6.20892 17.0671C6.308 17.0954 6.40708 17.1238 6.50145 17.1522C8.16226 16.4238 9.7287 15.4258 11.1064 14.2197C9.31822 14.1109 7.78008 13.6946 6.52504 12.9757C6.21364 12.796 5.91639 12.5973 5.64273 12.3797C5.42569 13.1223 5.25112 13.8791 5.11901 14.6406C5.4021 15.5251 5.74653 16.3481 6.20892 17.0671ZM4.95859 16.6414C5.20866 16.7407 5.45872 16.8306 5.70879 16.911C5.43513 16.4333 5.20866 15.9224 5.01049 15.3832C4.9869 15.5535 4.96803 15.7238 4.94915 15.894C4.92085 16.14 4.92085 16.4001 4.95859 16.6414ZM14.5177 13.9264C14.7394 14.442 14.8763 14.9764 14.9282 15.5109C14.9659 15.9035 14.9565 16.2819 14.9093 16.6414C15.1027 16.5562 15.2962 16.4664 15.4849 16.3718C16.0181 16.1022 16.6079 15.7569 16.9476 15.2082C17.4713 14.3663 17.2543 13.3257 17.0372 12.7061C16.8626 12.848 16.6739 12.9804 16.4758 13.1034C15.9001 13.4582 15.2396 13.7372 14.5177 13.9264ZM3.32609 9.89654C2.42963 10.3364 1.75964 11.0554 1.50486 11.902C1.25007 12.7487 1.31141 13.5291 1.69831 14.2291C2.25034 15.2366 3.38743 15.965 4.59529 16.49C4.57642 16.2819 4.58585 16.0691 4.60473 15.8609C4.64719 15.4731 4.69909 15.0852 4.76514 14.6974C4.25558 13.9311 3.50538 11.6419 3.32609 9.89654ZM4.14706 10.7527C4.20368 10.9939 4.25558 11.2398 4.3122 11.4905C4.49621 12.3041 4.68022 13.1271 4.90197 13.9217C5.02465 13.321 5.17563 12.725 5.3502 12.1385C4.87838 11.727 4.47262 11.2587 4.14706 10.7527ZM13.2485 12.5547C12.8474 13.023 12.4228 13.4771 11.9746 13.9028C12.6587 13.9028 13.3523 13.8365 14.0223 13.6946C13.8147 13.2973 13.5552 12.9142 13.2485 12.5547ZM5.75125 12.025C6.04378 12.2662 6.3599 12.4838 6.69489 12.6777C7.98297 13.4156 9.58716 13.8224 11.4744 13.8933C12.0218 13.3919 12.536 12.8575 13.0126 12.2946C12.7861 12.0534 12.536 11.8311 12.2671 11.6182C11.1772 10.7668 9.76645 10.1472 7.95466 9.72626C7.60079 9.64585 7.18087 9.55599 6.7232 9.4945C6.34575 10.3175 6.02019 11.1642 5.75125 12.025ZM13.475 12.2851C13.8336 12.7014 14.1355 13.146 14.3714 13.6142C15.3151 13.373 16.1927 12.971 16.9098 12.3797C15.7869 9.79721 14.1261 7.53159 12.102 5.83356C11.4792 5.30854 10.7526 4.82609 9.98349 4.46189C9.38428 5.15245 8.82753 5.88086 8.32268 6.64237C10.5497 6.61872 12.3568 7.03022 13.81 7.89106C14.1733 8.10864 14.6168 8.41608 14.8291 8.88434C15.1216 9.5418 14.9235 10.3364 14.2299 11.3155C13.9798 11.6466 13.7345 11.9682 13.475 12.2851ZM10.2147 4.18755C10.979 4.55648 11.7009 5.03893 12.319 5.55922C14.3573 7.27145 16.037 9.5418 17.1788 12.1291C17.9714 11.3675 18.5093 10.327 18.632 8.95529C18.849 6.54304 17.5373 1.83206 14.7489 1.37326C13.5693 1.17934 12.4511 2.03545 11.7104 2.69763C11.1866 3.16589 10.6865 3.66726 10.2147 4.18755ZM6.87419 9.16813C7.29883 9.22962 7.69044 9.31003 8.03015 9.39044C9.89384 9.82086 11.3471 10.4641 12.4794 11.3439C12.7531 11.5567 13.0031 11.7838 13.2391 12.025C13.4797 11.727 13.7156 11.4243 13.9374 11.1121C14.5554 10.2418 14.7442 9.56072 14.5035 9.02624C14.3337 8.64785 13.9657 8.39243 13.6259 8.18905C12.1775 7.32821 10.3562 6.93562 8.08677 6.99238C7.63854 7.69241 7.23749 8.42081 6.87419 9.16813ZM3.95833 9.64585C4.27445 10.4263 4.79817 11.1594 5.46816 11.779C5.71822 10.9891 6.02019 10.2134 6.3599 9.45666C5.66632 9.39044 4.91613 9.3999 4.18952 9.58437C4.10931 9.60329 4.03382 9.62221 3.95833 9.64585ZM3.80263 10.8094C3.86397 11.1263 3.93946 11.4527 4.01967 11.7743C4.00551 11.7034 3.98664 11.6371 3.97248 11.5662C3.92058 11.3155 3.86397 11.0601 3.80263 10.8094ZM3.6658 8.6242C3.67052 8.64785 3.67524 8.66677 3.67524 8.69042C3.71298 8.90326 3.7696 9.11138 3.83566 9.31949C3.92058 9.29111 4.01023 9.26746 4.09988 9.24381C4.91613 9.04043 5.75597 9.04043 6.51088 9.12084C6.85531 8.39716 7.23749 7.68768 7.66213 7.00657C7.24692 7.02549 6.81285 7.06333 6.36934 7.11063C5.49175 7.20996 4.41128 7.41807 3.82622 8.19851C3.75073 8.30256 3.69883 8.44919 3.6658 8.6242ZM7.42622 3.82335C6.77982 3.82335 6.14286 3.96525 5.5578 4.29634C4.34994 4.97745 3.59503 6.42479 3.60446 7.92417C4.27917 7.09644 5.41154 6.8694 6.33631 6.76535C6.87419 6.70386 7.39319 6.66602 7.89332 6.6471C8.42176 5.82883 9.00682 5.04366 9.64378 4.31053C8.91717 4.00782 8.16226 3.82335 7.42622 3.82335Z" fill="white"/>
<path d="M6.52032 17.5211C6.74679 17.8191 7.00158 18.0982 7.28467 18.3489C8.79922 19.6827 11.1017 20.0422 12.7531 19.2002C13.6024 18.7698 14.1685 18.084 14.4328 17.209C11.9793 18.1171 9.16724 18.2353 6.52032 17.5211ZM6.52032 17.5211C6.52504 17.5211 6.52504 17.5211 6.52032 17.5211ZM10.7714 19.9996C9.45505 19.9996 8.08677 19.5172 7.0582 18.6137C6.73264 18.3252 6.44483 18.0083 6.19004 17.663C5.95413 17.7529 5.70879 17.8191 5.454 17.7671C5.01049 17.682 4.76514 17.3319 4.65663 16.8921C3.31665 16.3387 2.01914 15.5346 1.39162 14.3947C0.962264 13.6095 0.886772 12.7392 1.16987 11.798C1.46711 10.8236 2.25034 9.99587 3.29306 9.52288C3.27419 9.20124 3.27891 8.90799 3.31665 8.65258C3.01469 6.789 3.8734 4.84028 5.38323 3.99363C6.77982 3.20846 8.40289 3.39766 9.88441 4.0362C10.3893 3.47334 10.9224 2.93886 11.4839 2.43749C12.2765 1.72801 13.4797 0.815135 14.8102 1.03271C17.9242 1.54354 19.1982 6.55723 18.9811 8.9884C18.8537 10.3932 18.2875 11.5804 17.3203 12.4649C17.745 13.5717 17.7166 14.6312 17.2401 15.3927C16.8532 16.0123 16.2115 16.3954 15.6406 16.6839C15.3764 16.8164 15.1075 16.9394 14.8338 17.0529C14.579 18.136 13.9232 18.9969 12.9182 19.5077C12.2671 19.8388 11.5263 19.9996 10.7714 19.9996ZM7.03461 17.2941C9.56357 17.8901 12.2199 17.7103 14.5318 16.8022C14.6026 16.4143 14.6168 15.9934 14.579 15.5488C14.5318 15.0285 14.395 14.5129 14.1733 14.0163C13.3995 14.1913 12.5691 14.2717 11.7056 14.2528C11.6726 14.2528 11.6349 14.2528 11.6018 14.248C10.2383 15.4825 8.6907 16.5184 7.03461 17.2941ZM5.08598 17.0623C5.18035 17.2515 5.32189 17.384 5.52006 17.4265C5.66632 17.4549 5.82202 17.4218 5.98244 17.3698C5.68991 17.2752 5.38795 17.1759 5.08598 17.0623ZM6.20892 17.0671C6.308 17.0954 6.40708 17.1238 6.50145 17.1522C8.16226 16.4238 9.7287 15.4258 11.1064 14.2197C9.31822 14.1109 7.78008 13.6946 6.52504 12.9757C6.21364 12.796 5.91639 12.5973 5.64273 12.3797C5.42569 13.1223 5.25112 13.8791 5.11901 14.6406C5.4021 15.5251 5.74653 16.3481 6.20892 17.0671ZM4.95859 16.6414C5.20866 16.7407 5.45872 16.8306 5.70879 16.911C5.43513 16.4333 5.20866 15.9224 5.01049 15.3832C4.9869 15.5535 4.96803 15.7238 4.94915 15.894C4.92085 16.14 4.92085 16.4001 4.95859 16.6414ZM14.5177 13.9264C14.7394 14.442 14.8763 14.9764 14.9282 15.5109C14.9659 15.9035 14.9565 16.2819 14.9093 16.6414C15.1028 16.5562 15.2962 16.4664 15.4849 16.3718C16.0181 16.1022 16.6079 15.7569 16.9476 15.2082C17.4713 14.3663 17.2543 13.3257 17.0372 12.7061C16.8626 12.848 16.6739 12.9804 16.4758 13.1034C15.9001 13.4582 15.2396 13.7372 14.5177 13.9264ZM3.32609 9.89654C2.42963 10.3364 1.75964 11.0554 1.50486 11.902C1.25007 12.7487 1.31141 13.5291 1.69831 14.2291C2.25034 15.2366 3.38743 15.965 4.59529 16.49C4.57642 16.2819 4.58585 16.0691 4.60473 15.8609C4.64719 15.4731 4.69909 15.0852 4.76514 14.6974C4.25558 13.9311 3.50538 11.6419 3.32609 9.89654ZM4.14706 10.7527C4.20368 10.9939 4.25558 11.2398 4.3122 11.4905C4.49621 12.3041 4.68022 13.1271 4.90197 13.9217C5.02465 13.321 5.17563 12.725 5.3502 12.1385C4.87838 11.727 4.47261 11.2588 4.14706 10.7527ZM13.2485 12.5547C12.8474 13.023 12.4228 13.4771 11.9746 13.9028C12.6587 13.9028 13.3523 13.8365 14.0223 13.6946C13.8147 13.2973 13.5552 12.9142 13.2485 12.5547ZM5.75125 12.025C6.04378 12.2662 6.3599 12.4838 6.69489 12.6777C7.98297 13.4156 9.58716 13.8224 11.4744 13.8933C12.0218 13.3919 12.536 12.8575 13.0126 12.2946C12.7861 12.0534 12.536 11.8311 12.2671 11.6182C11.1772 10.7668 9.76645 10.1472 7.95466 9.72626C7.60079 9.64585 7.18087 9.55599 6.7232 9.4945C6.34575 10.3175 6.02019 11.1642 5.75125 12.025ZM13.475 12.2851C13.8336 12.7014 14.1355 13.146 14.3714 13.6142C15.3151 13.373 16.1927 12.971 16.9098 12.3797C15.7869 9.79721 14.1261 7.53159 12.102 5.83356C11.4792 5.30854 10.7526 4.82609 9.98349 4.46189C9.38428 5.15245 8.82753 5.88086 8.32268 6.64237C10.5497 6.61872 12.3568 7.03022 13.81 7.89106C14.1733 8.10864 14.6168 8.41608 14.8291 8.88434C15.1216 9.5418 14.9235 10.3364 14.2299 11.3155C13.9798 11.6466 13.7345 11.9682 13.475 12.2851ZM10.2147 4.18755C10.979 4.55648 11.7009 5.03893 12.319 5.55922C14.3573 7.27145 16.037 9.5418 17.1788 12.1291C17.9714 11.3675 18.5093 10.327 18.632 8.95529C18.849 6.54304 17.5373 1.83206 14.7489 1.37326C13.5693 1.17934 12.4511 2.03545 11.7104 2.69763C11.1866 3.16589 10.6865 3.66726 10.2147 4.18755ZM6.87419 9.16814C7.29883 9.22962 7.69044 9.31003 8.03015 9.39044C9.89384 9.82086 11.3471 10.4641 12.4794 11.3439C12.7531 11.5567 13.0031 11.7838 13.2391 12.025C13.4797 11.727 13.7156 11.4243 13.9374 11.1121C14.5554 10.2418 14.7442 9.56072 14.5035 9.02624C14.3337 8.64785 13.9657 8.39243 13.6259 8.18905C12.1775 7.3282 10.3562 6.93562 8.08677 6.99238C7.63854 7.69241 7.23749 8.42081 6.87419 9.16814ZM3.95833 9.64586C4.27445 10.4263 4.79817 11.1594 5.46816 11.779C5.71822 10.9891 6.02019 10.2134 6.3599 9.45666C5.66632 9.39044 4.91613 9.3999 4.18952 9.58437C4.10931 9.60329 4.03382 9.62221 3.95833 9.64586ZM3.80263 10.8094C3.86397 11.1263 3.93946 11.4527 4.01967 11.7743C4.00551 11.7034 3.98664 11.6371 3.97248 11.5662C3.92058 11.3155 3.86397 11.0601 3.80263 10.8094ZM3.6658 8.6242C3.67052 8.64785 3.67524 8.66677 3.67524 8.69042C3.71298 8.90326 3.7696 9.11138 3.83566 9.31949C3.92058 9.29111 4.01023 9.26746 4.09988 9.24381C4.91613 9.04043 5.75597 9.04043 6.51088 9.12084C6.85531 8.39716 7.23749 7.68768 7.66213 7.00657C7.24692 7.02549 6.81285 7.06333 6.36934 7.11063C5.49175 7.20996 4.41128 7.41807 3.82622 8.19851C3.75073 8.30256 3.69883 8.44919 3.6658 8.6242ZM7.42622 3.82335C6.77982 3.82335 6.14286 3.96525 5.5578 4.29634C4.34994 4.97745 3.59503 6.42479 3.60446 7.92417C4.27917 7.09644 5.41154 6.8694 6.33631 6.76535C6.87419 6.70386 7.39319 6.66602 7.89332 6.6471C8.42176 5.82883 9.00682 5.04366 9.64378 4.31053C8.91717 4.00782 8.16226 3.82335 7.42622 3.82335Z" stroke="white" stroke-width="0.3"/>
</svg>
