<svg width="30" height="21" viewBox="0 0 30 21" fill="none" xmlns="http://www.w3.org/2000/svg">
<path d="M14.2153 12.5417L14.2153 12.5419L14.2197 12.5402L14.6264 12.3813L14.6264 12.3814L14.6279 12.3807C14.7173 12.3424 14.7662 12.2461 14.7239 12.1568C14.4717 11.4262 14.5402 10.5882 14.9003 9.90637C15.3476 9.0597 16.4124 8.39297 17.4789 8.295C18.2697 8.22664 18.9472 8.46123 19.4008 8.97319L19.4007 8.97325L19.4029 8.97537C19.468 9.04059 19.5637 9.0554 19.6445 9.00147L19.6446 9.00163L19.648 8.99891L19.9951 8.72098L19.9951 8.72099L19.9959 8.72035C20.0797 8.6505 20.0755 8.54102 20.0253 8.46563L20.0257 8.46537L20.0211 8.46015C19.3748 7.73248 18.4561 7.39007 17.4004 7.49066C16.0665 7.61115 14.7711 8.42358 14.197 9.52217C13.7246 10.4076 13.644 11.4836 13.9854 12.4297C14.0158 12.5323 14.1285 12.5665 14.2153 12.5417Z" fill="white" stroke="white" stroke-width="0.1" stroke-linecap="square" stroke-linejoin="round"/>
<path d="M22.6444 11.2254L22.6444 11.2254L22.6442 11.2259L22.4762 11.6314C22.4339 11.7186 22.4787 11.8264 22.5708 11.8664C23.644 12.3646 24.247 13.2998 24.2471 14.4709C24.2373 15.9493 23.2776 17.371 21.9067 17.9688L21.9067 17.9688L21.9043 17.97C21.828 18.0081 21.7688 18.1025 21.811 18.2023L21.9694 18.6086L21.9694 18.6086L21.97 18.6101C21.9895 18.6555 22.0232 18.6906 22.0662 18.7085C22.1093 18.7265 22.1581 18.7257 22.2043 18.7058L22.2045 18.7057C23.8687 17.9833 25.0213 16.2585 25.0414 14.4716L25.0414 14.4714C25.0514 12.9722 24.2659 11.7635 22.8898 11.1301L22.8898 11.1301L22.8886 11.1296C22.795 11.0894 22.6855 11.1294 22.6444 11.2254Z" fill="white" stroke="white" stroke-width="0.1" stroke-linecap="square" stroke-linejoin="round"/>
<path d="M11.2263 6.34162L11.2263 6.34173L11.6421 6.25256C11.7481 6.22655 11.8464 6.29296 11.8614 6.3921C11.9513 6.85312 12.1426 8.41964 11.1767 9.62799L11.1766 9.62814C10.4198 10.5674 9.18243 11.0364 7.48782 11.0364H7.48759H7.48736H7.48712H7.48689H7.48666H7.48642H7.48619H7.48595H7.48572H7.48549H7.48525H7.48502H7.48478H7.48454H7.48431H7.48407H7.48384H7.4836H7.48336H7.48313H7.48289H7.48265H7.48242H7.48218H7.48194H7.4817H7.48146H7.48123H7.48099H7.48075H7.48051H7.48027H7.48003H7.47979H7.47955H7.47931H7.47907H7.47883H7.47859H7.47835H7.47811H7.47787H7.47763H7.47739H7.47714H7.4769H7.47666H7.47642H7.47618H7.47593H7.47569H7.47545H7.4752H7.47496H7.47472H7.47447H7.47423H7.47399H7.47374H7.4735H7.47325H7.47301H7.47276H7.47252H7.47227H7.47203H7.47178H7.47154H7.47129H7.47104H7.4708H7.47055H7.4703H7.47006H7.46981H7.46956H7.46932H7.46907H7.46882H7.46857H7.46833H7.46808H7.46783H7.46758H7.46733H7.46708H7.46684H7.46659H7.46634H7.46609H7.46584H7.46559H7.46534H7.46509H7.46484H7.46459H7.46434H7.46409H7.46384H7.46359H7.46334H7.46309H7.46284H7.46258H7.46233H7.46208H7.46183H7.46158H7.46133H7.46107H7.46082H7.46057H7.46032H7.46007H7.45981H7.45956H7.45931H7.45905H7.4588H7.45855H7.45829H7.45804H7.45779H7.45753H7.45728H7.45703H7.45677H7.45652H7.45626H7.45601H7.45575H7.4555H7.45524H7.45499H7.45473H7.45448H7.45422H7.45397H7.45371H7.45346H7.4532H7.45295H7.45269H7.45244H7.45218H7.45192H7.45167H7.45141H7.45115H7.4509H7.45064H7.45038H7.45013H7.44987H7.44961H7.44936H7.4491H7.44884H7.44859H7.44833H7.44807H7.44781H7.44756H7.4473H7.44704H7.44678H7.44652H7.44627H7.44601H7.44575H7.44549H7.44523H7.44497H7.44472H7.44446H7.4442H7.44394H7.44368H7.44342H7.44316H7.4429H7.44265H7.44239H7.44213H7.44187H7.44161H7.44135H7.44109H7.44083H7.44057H7.44031H7.44005H7.43979H7.43953H7.43927H7.43901H7.43875H7.43849H7.43823H7.43797H7.43771H7.43745H7.43719H7.43693H7.43667H7.43641H7.43615H7.43589H7.43563H7.43537H7.43511H7.43485H7.43459H7.43433H7.43407H7.4338H7.43354H7.43328H7.43302H7.43276H7.4325H7.43224H7.43198H7.43172H7.43146H7.4312H7.43093H7.43067H7.43041H7.43015H7.42989H7.42963H7.42937H7.42911H7.42884H7.42858H7.42832H7.42806H7.4278H7.42754H7.42728H7.42701H7.42675H7.42649H7.42623H7.42597H7.42571H7.42545H7.42518H7.42492H7.42466H7.4244H7.42414H7.42388H7.42362H7.42335H7.42309H7.42283H7.42257H7.42231H7.42205H7.42178H7.42152H7.42126H7.421H7.42074H7.42048H7.42022H7.41995H7.41969H7.41943H7.41917H7.41891H7.41865H7.41839H7.41812H7.41786H7.4176H7.41734H7.41708H7.41682H7.41656H7.4163H7.41603H7.41577H7.41551H7.41525H7.41499H7.41473H7.41447H7.41421H7.41395H7.41369H7.41342H7.41316H7.4129H7.41264H7.41238H7.41212H7.41186H7.4116H7.41134H7.41108H7.41082H7.41056H7.4103H7.41004H7.40978H7.40952H7.40926H7.409H7.40874H7.40848H7.40822H7.40796H7.4077H7.40744H7.40718H7.40692H7.40666H7.4064H7.40614H7.40588H7.40562H7.40536H7.4051H7.40484H7.40458H7.40432H7.40406H7.4038H7.40354H7.40329H7.40303H7.40277H7.40251H7.40225H7.40199H7.40173H7.40147H7.40122H7.40096H7.4007H7.40044H7.40018H7.39993H7.39967H7.39941H7.39915H7.39889H7.39864H7.39838H7.39812H7.39786H7.39761H7.39735H7.39709H7.39684H7.39658H7.39632H7.39607H7.39581H7.39555H7.3953H7.39504H7.39478H7.39453H7.39427H7.39402H7.39376H7.3935H7.39325H7.39299H7.39274H7.39248H7.39223H7.39197H7.39172H7.39146H7.39121H7.39095H7.3907H7.39044H7.39019H7.38994H7.38968H7.38943H7.38917H7.38892H7.38867H7.38841H7.38816H7.38791H7.38765H7.3874H7.38715H7.3869H7.38664H7.38639H7.38614H7.38589H7.38563H7.38538H7.38513H7.38488H7.38463H7.38437H7.38412H7.38387H7.38362H7.38337H7.38312H7.38287H7.38262H7.38237H7.38212H7.38187H7.38162H7.38137H7.38112H7.38087H7.38062H7.38037H7.38012H7.37987H7.37962H7.37937H7.37913H7.37888H7.37863H7.37838H7.37813H7.37789H7.37764H7.37739H7.37714H7.3769H7.37665H7.3764H7.37616H7.37591H7.37566H7.37542H7.37517H7.37493H7.37468H7.37444H7.37419H7.37394H7.3737H7.37346H7.37321H7.37297H7.37272H7.37248H7.37223H7.37199H7.37175H7.3715H7.37126H7.37102H7.37077H7.37053H7.37029H7.37005H7.36981H7.36956H7.36932H7.36908H7.36884H7.3686H7.36836H7.36812H7.36788H7.36764H7.3674H7.36716H7.36692H7.36668H7.36644H7.3662H7.36596H7.36572H7.36548H7.36524H7.365H7.36477H7.36453H7.36429H7.36405H7.36382H7.36358H7.36334H7.36311H7.36287H7.36263H7.3624H7.36216H7.36193H7.36169H7.36146H7.36122H7.36099H7.36075H7.36052H7.36029H7.36005H7.35982H7.35959H7.35935H7.35912H7.35889C7.34547 11.0364 7.33262 11.031 7.32322 11.0215C7.31382 11.0119 7.30866 10.999 7.30889 10.9856L7.31881 10.4202L7.31881 10.4198L7.36881 10.4206C7.36881 10.3512 7.42831 10.2916 7.49774 10.2916L11.2263 6.34162ZM11.2263 6.34162L11.2231 6.34255C11.1307 6.36897 11.0745 6.45129 11.0881 6.54658L11.0881 6.54658L11.0884 6.54834C11.1226 6.73877 11.1741 7.15324 11.1239 7.63615C11.0736 8.11913 10.9221 8.66721 10.5531 9.1288C9.97164 9.85622 8.94866 10.2317 7.49757 10.2416L11.2263 6.34162ZM11.2368 6.39062C11.1674 6.41047 11.1277 6.47003 11.1376 6.53951L11.2368 6.39062Z" fill="white" stroke="white" stroke-width="0.1" stroke-linecap="square" stroke-linejoin="round"/>
<path d="M15.6202 15.1668L15.6202 15.1668C14.8517 16.1465 14.7947 17.0611 14.9698 17.7781C15.1453 18.4964 15.5549 19.0196 15.7262 19.2109C15.7487 19.2331 15.7759 19.245 15.799 19.245H25.6877C29.6199 15.6421 29.0231 11.3105 27.778 9.44627L27.7779 9.44601C27.1729 8.52801 26.059 7.97024 24.9551 8.00932C24.1758 8.03859 23.5479 8.36916 23.1811 8.94807C23.1537 8.99535 23.1086 9.02637 23.0543 9.03487C23.0006 9.04326 22.942 9.02923 22.8851 8.99521C22.8849 8.99509 22.8847 8.99496 22.8845 8.99483L22.5683 8.81687L22.568 8.8167C22.4764 8.76433 22.434 8.6332 22.5018 8.5368C22.5021 8.53647 22.5023 8.53614 22.5025 8.5358L22.5432 8.56485C22.9003 8.00899 23.4359 7.60202 24.0904 7.40349L15.6202 15.1668ZM15.6202 15.1668C16.8982 13.5363 18.8015 13.9833 19.3151 14.1415L19.3161 14.1418M15.6202 15.1668L19.3161 14.1418M8.56881 19.2652H8.57873C8.5811 19.2652 8.58509 19.2653 8.59059 19.2654C8.76878 19.2694 10.537 19.3089 10.6813 17.5083C10.7508 16.5355 10.5623 15.801 10.1259 15.3444C9.6697 14.8679 8.8961 14.6297 7.83488 14.6396C7.75553 14.6396 7.68611 14.5801 7.68611 14.5007H7.63611C7.63611 14.5009 7.63611 14.5011 7.63611 14.5013C7.63647 14.6123 7.73266 14.6896 7.83488 14.6896L7.83534 14.6896C8.89089 14.6798 9.64758 14.9171 10.0898 15.379C10.5122 15.8209 10.7004 16.5384 10.6315 17.5046C10.595 17.9597 10.4531 18.2918 10.2619 18.535C10.0704 18.7785 9.82736 18.9356 9.58476 19.0367C9.12777 19.2271 8.67783 19.2173 8.59093 19.2154C8.58531 19.2153 8.58121 19.2152 8.57873 19.2152L8.56881 19.2152L8.56814 19.2152L5.61325 19.2549H5.61286H4.79997H4.79992H4.79986H4.7998H4.79974H4.79969H4.79963H4.79957H4.79952H4.79946H4.7994H4.79935H4.79929H4.79924H4.79918H4.79913H4.79907H4.79902H4.79896H4.79891H4.79886H4.7988H4.79875H4.7987H4.79864H4.79859H4.79854H4.79848H4.79843H4.79838H4.79833H4.79828H4.79823H4.79817H4.79812H4.79807H4.79802H4.79797H4.79792H4.79787H4.79782H4.79777H4.79772H4.79767H4.79762H4.79758H4.79753H4.79748H4.79743H4.79738H4.79733H4.79729H4.79724H4.79719H4.79714H4.7971H4.79705H4.797H4.79696H4.79691H4.79686H4.79682H4.79677H4.79673H4.79668H4.79664H4.79659H4.79655H4.7965H4.79646H4.79641H4.79637H4.79632H4.79628H4.79624H4.79619H4.79615H4.7961H4.79606H4.79602H4.79598H4.79593H4.79589H4.79585H4.79581H4.79576H4.79572H4.79568H4.79564H4.7956H4.79556H4.79551H4.79547H4.79543H4.79539H4.79535H4.79531H4.79527H4.79523H4.79519H4.79515H4.79511H4.79507H4.79503H4.79499H4.79495H4.79491H4.79487H4.79484H4.7948H4.79476H4.79472H4.79468H4.79464H4.79461H4.79457H4.79453H4.79449H4.79445H4.79442H4.79438H4.79434H4.79431H4.79427H4.79423H4.79419H4.79416H4.79412H4.79409H4.79405H4.79401H4.79398H4.79394H4.79391H4.79387H4.79383H4.7938H4.79376H4.79373H4.79369H4.79366H4.79362H4.79359H4.79355H4.79352H4.79348H4.79345H4.79341H4.79338H4.79335H4.79331H4.79328H4.79324H4.79321H4.79318H4.79314H4.79311H4.79308H4.79304H4.79301H4.79298H4.79294H4.79291H4.79288H4.79284H4.79281H4.79278H4.79275H4.79271H4.79268H4.79265H4.79262H4.79258H4.79255H4.79252H4.79249H4.79246H4.79242H4.79239H4.79236H4.79233H4.7923H4.79227H4.79223H4.7922H4.79217H4.79214H4.79211H4.79208H4.79205H4.79202H4.79199H4.79195H4.79192H4.79189H4.79186H4.79183H4.7918H4.79177H4.79174H4.79171H4.79168H4.79165H4.79162H4.79159H4.79156H4.79153H4.7915H4.79147H4.79144H4.79141H4.79138H4.79135H4.79132H4.79129H4.79126H4.79123H4.7912H4.79117H4.79114H4.79111H4.79108H4.79105H4.79102H4.79099H4.79096H4.79093H4.7909H4.79087H4.79084H4.79081H4.79078H4.79076H4.79073H4.7907H4.79067H4.79064H4.79061H4.79058H4.79055H4.79052H4.79049H4.79046H4.79043H4.7904H4.79038H4.79035H4.79032H4.79029H4.79026H4.79023H4.7902H4.79017H4.79014H4.79011H4.79008H4.79006H4.79003H4.79H4.78997H4.78994H4.78991H4.78988H4.78985H4.78982H4.78979H4.78977H4.78974H4.78971H4.78968H4.78965H4.78962H4.78959H4.78956H4.78953H4.7895H4.78947H4.78944H4.78942H4.78939H4.78936H4.78933H4.7893H4.78927H4.78924H4.78921H4.78918H4.78915H4.78912H4.78909H4.78906H4.78903H4.789H4.78897H4.78894H4.78891H4.78888H4.78885H4.78882H4.78879H4.78876H4.78873H4.7887H4.78867H4.78864H4.78861H4.78858H4.78855H4.78852H4.78849H4.78846H4.78843H4.7884H4.78837H4.78834H4.78831H4.78828H4.78825H4.78822H4.78819H4.78816H4.78813H4.7881H4.78806H4.78803H4.788H4.78797H4.78794H4.78791H4.78788H4.78785H4.78781H4.78778H4.78775H4.78772H4.78769H4.78766H4.78762H4.78759H4.78756H4.78753H4.7875H4.78746H4.78743H4.7874H4.78737H4.78733H4.7873H4.78727H4.78723H4.7872H4.78717H4.78714H4.7871H4.78707H4.78704H4.787H4.78697H4.78694H4.7869H4.78687H4.78683H4.7868H4.78677H4.78673H4.7867H4.78666H4.78663H4.78659H4.78656H4.78652H4.78649H4.78645H4.78642H4.78638H4.78635H4.78631H4.78628H4.78624H4.78621H4.78617H4.78613H4.7861H4.78606H4.78603H4.78599H4.78595H4.78592H4.78588H4.78584H4.78581H4.78577H4.78573H4.7857H4.78566H4.78562H4.78558H4.78554H4.78551H4.78547H4.78543H4.78539H4.78535H4.78532H4.78528H4.78524H4.7852H4.78516H4.78512H4.78508H4.78504H4.785H4.78496H4.78492H4.78488H4.78484H4.7848H4.78476H4.78472H4.78468H4.78464H4.7846H4.78456H4.78451H4.78447H4.78443H4.78439H4.78435H4.78431H4.78426H4.78422H4.78418H4.78414H4.78409H4.78405H4.78401H4.78396H4.78392H4.78388H4.78383H4.78379H4.78374H4.7837H4.78366H4.78361H4.78357H4.78352H4.78348H4.78343H4.78339H4.78334H4.78329H4.78325H4.7832H4.78316H4.78311H4.78306H4.78302H4.78297H4.78292H4.78287H4.78283H4.78278H4.78273H4.78268H4.78263H4.78259H4.78254C2.93505 19.0778 1.95085 17.7585 1.79485 16.5095C1.61728 15.0878 1.87534 14.0342 2.54429 13.3647C3.00599 12.9027 3.60547 12.6725 4.14915 12.562C4.69258 12.4515 5.17628 12.4613 5.40171 12.476L5.40171 12.4761H5.40497C5.50826 12.4761 5.59016 12.409 5.60336 12.3033L5.60337 12.3031L5.65294 11.8963L8.56881 19.2652ZM8.56881 19.2652L5.61325 19.3049L8.56881 19.2652ZM14.4759 5.11596C14.5864 4.91506 14.8359 4.50574 15.2147 4.04673C15.2447 4.00898 15.2467 3.97226 15.2305 3.94513L15.2282 3.94135L15.2284 3.94127C15.0571 3.5886 14.6529 2.91941 13.9051 2.41233C13.1589 1.90627 12.0665 1.5589 10.5122 1.85427C9.12742 2.11967 8.17018 2.82535 7.64225 3.97014L7.64222 3.97019C7.39708 4.50014 7.29905 5.01063 7.26973 5.31389L7.26946 5.31614C7.26577 5.342 7.26983 5.36052 7.27742 5.37433C7.28506 5.38824 7.29861 5.40157 7.32097 5.4129C7.80323 5.63426 8.24427 5.96563 8.6344 6.37601C8.71532 6.45756 8.70118 6.59013 8.62112 6.65735L8.31404 6.92502L8.31322 6.92574L8.31321 6.92573C8.23706 6.98924 8.11623 6.9941 8.04551 6.91072C7.34064 6.16665 6.41349 5.78738 5.499 5.87501L5.49886 5.87502C4.5545 5.96272 3.72491 6.50814 3.17672 7.42907L3.17664 7.4292C2.29934 8.89256 2.85168 10.6458 3.64982 11.7906L21.1746 2.85732L21.1568 2.90407C19.3854 2.23127 17.9896 2.70212 16.9862 3.42765C15.9807 4.15477 15.3701 5.13766 15.1782 5.48229L15.1779 5.48276C15.1276 5.5709 15.0207 5.61622 14.9234 5.56214C14.8684 5.53706 14.8041 5.50486 14.7408 5.4732L14.7402 5.47291C14.6755 5.44052 14.6119 5.40872 14.5584 5.38437L14.5542 5.38245L14.5543 5.38226C14.4639 5.33057 14.4214 5.2121 14.4759 5.11596ZM14.4759 5.11596C14.476 5.11582 14.4761 5.11568 14.4762 5.11554L14.5196 5.14033L14.4758 5.11625C14.4758 5.11615 14.4759 5.11606 14.4759 5.11596ZM19.3161 14.1418C19.4074 14.1679 19.5149 14.1287 19.555 14.0224C19.555 14.0223 19.5551 14.0221 19.5552 14.0219L19.6341 13.8244L19.6343 13.824M19.3161 14.1418L19.6343 13.824M19.6343 13.824L19.7037 13.6453L19.7039 13.6447M19.6343 13.824L19.7039 13.6447M19.7039 13.6447C19.7422 13.5425 19.6934 13.4194 19.5815 13.3905M19.7039 13.6447L15.0059 14.6783M15.0059 14.6783L15.0059 14.6782C16.593 12.6576 18.9717 13.2007 19.5815 13.3905M15.0059 14.6783C14.2945 15.5859 14.0798 16.4611 14.1126 17.2263C14.1453 17.9902 14.4243 18.641 14.6947 19.1019L14.6949 19.1023M15.0059 14.6783L14.6949 19.1023M19.5815 13.3905C19.5819 13.3906 19.5823 13.3907 19.5827 13.3908L19.5679 13.4386L19.58 13.3901C19.5805 13.3902 19.581 13.3903 19.5815 13.3905ZM14.6949 19.1023C14.7333 19.1664 14.6912 19.245 14.6089 19.245H10.9095C10.8335 19.245 10.7859 19.1558 10.8389 19.0886M14.6949 19.1023L10.6581 14.8236M10.6581 14.8236L10.6581 14.8236C11.2563 15.4527 11.5054 16.372 11.4156 17.5613C11.3752 18.226 11.1535 18.7226 10.8389 19.0886M10.6581 14.8236C10.0497 14.1842 9.09137 13.8749 7.81466 13.8948M10.6581 14.8236L7.81466 13.8948M10.8389 19.0886C10.8387 19.0889 10.8385 19.0891 10.8383 19.0894L10.8004 19.0568M10.8389 19.0886C10.8391 19.0884 10.8392 19.0882 10.8394 19.088L10.8004 19.0568M10.8004 19.0568C11.1078 18.6994 11.326 18.2131 11.3657 17.5579L15.0452 14.7091C13.6369 16.5058 14.2022 18.1634 14.7378 19.0766C14.7973 19.1759 14.7279 19.295 14.6089 19.295H10.9095C10.7904 19.295 10.721 19.156 10.8004 19.0568ZM26.8734 19.3303C26.8406 19.3693 26.6913 19.5406 26.4695 19.7049C26.2415 19.8739 25.931 20.0398 25.5881 20.0398H5.62354H5.62317L4.87006 20.0498L4.8694 20.0498L4.85948 20.0498C4.8404 20.0498 4.822 20.0467 4.80802 20.0443L4.80662 20.0441C4.79101 20.0415 4.78025 20.0398 4.77022 20.0398H4.57186C4.55329 20.0398 4.53708 20.0297 4.52846 20.0147C2.36509 19.7202 1.20117 18.1215 1.01128 16.5914C0.801874 14.9346 1.12983 13.6463 1.98757 12.7878C2.24935 12.5258 2.54094 12.3246 2.84169 12.164M26.8734 19.3303L5.43008 5.08062C5.43007 5.08063 5.43006 5.08063 5.43005 5.08063C4.24225 5.19145 3.17756 5.89653 2.50578 7.0104L2.54859 7.03623L2.50577 7.01041C1.48005 8.71129 2.02554 10.6984 2.87342 12.0262L2.87336 12.0262L2.87486 12.0283C2.90506 12.0707 2.88823 12.137 2.84169 12.164M26.8734 19.3303C27.6445 18.6723 28.3091 17.5585 28.787 16.3882C29.2658 15.2157 29.5604 13.9789 29.5854 13.0728C29.6453 11.0939 28.9063 9.67428 28.4562 9.00353M26.8734 19.3303L6.38685 5.17011L6.39306 5.1205C6.39352 5.12056 6.39398 5.12061 6.39444 5.12066C6.45189 5.12718 6.50011 5.09069 6.50584 5.0448L6.50602 5.04337L6.50604 5.04337C6.59105 4.49289 6.81119 3.64061 7.38288 2.85641C7.95548 2.07094 8.87895 1.35642 10.3647 1.08103C11.9678 0.776168 13.1676 1.07324 14.0436 1.57567C14.9184 2.07738 15.4668 2.78183 15.7722 3.28775C15.8041 3.33847 15.8667 3.3471 15.9149 3.30603C15.915 3.30594 15.9151 3.30585 15.9152 3.30575L16.0484 3.18723L16.1823 3.06812L16.1834 3.06718L16.1834 3.0672C17.7443 1.75536 19.5685 1.44418 21.4502 2.16539C23.3152 2.87408 24.2438 3.88249 24.6803 4.8518C25.1002 5.78427 25.0617 6.67412 24.9731 7.21354C26.3384 7.17493 27.6985 7.8661 28.4562 9.00353M2.84169 12.164C2.84194 12.1639 2.84218 12.1638 2.84242 12.1636L2.86597 12.2077L2.84114 12.1643C2.84133 12.1642 2.84151 12.1641 2.84169 12.164ZM28.4562 9.00353C28.4562 9.00357 28.4563 9.00362 28.4563 9.00366L28.4147 9.03138L28.4562 9.00352C28.4562 9.00352 28.4562 9.00353 28.4562 9.00353ZM7.81466 13.8948C7.81479 13.8948 7.81491 13.8948 7.81504 13.8948V13.9448L7.81466 13.8948ZM5.40497 12.4261C5.48431 12.4261 5.54382 12.3765 5.55374 12.2971L5.40497 12.4261ZM5.65296 11.8962C5.66576 11.793 5.58987 11.6824 5.47619 11.6813L5.65296 11.8962ZM7.21996 5.30908C7.24972 5.00137 7.3489 4.48521 7.59684 3.9492L7.21996 5.30908ZM7.62626 14.0972C7.62636 14.0981 7.62646 14.099 7.62657 14.0999L7.67619 14.0937L7.6262 14.0949L7.62626 14.0972Z" fill="white" stroke="white" stroke-width="0.1" stroke-linecap="square" stroke-linejoin="round"/>
</svg>
