<svg width="28" height="26" viewBox="0 0 28 26" fill="none" xmlns="http://www.w3.org/2000/svg">
<path d="M10.0437 24.583H1V15.1016H10.0437V24.583Z" fill="#00AEC7" stroke="white" stroke-miterlimit="10"/>
<path d="M10.734 19.9417C10.1334 19.9417 7.0058 18.7526 6.9756 18.742C6.84137 18.6857 6.0125 18.3128 5.17692 17.9117C3.442 17.0744 3.38495 16.9372 3.31448 16.7613C3.24065 16.5889 3.18361 16.4517 3.77757 14.5484C4.06281 13.6301 4.36483 12.74 4.41852 12.5993C4.47221 12.4586 4.82792 11.5896 5.21048 10.7136C6.00915 8.89466 6.14002 8.83485 6.30781 8.76097C6.37157 8.73282 6.44204 8.71875 6.52258 8.71875C7.12325 8.71875 10.2508 9.90789 10.281 9.91845C10.4152 9.97474 11.2441 10.3477 12.0797 10.7487C13.8146 11.5861 13.8717 11.7233 13.9421 11.8992C14.016 12.0716 14.073 12.2088 13.479 14.1121C13.1938 15.0303 12.8918 15.9204 12.8381 16.0612C12.7844 16.2019 12.4287 17.0709 12.0461 17.9469C11.2475 19.7658 11.1166 19.8256 10.9488 19.8995C10.885 19.9276 10.8146 19.9417 10.734 19.9417Z" fill="#00AEC7" stroke="white" stroke-miterlimit="10"/>
<path d="M13.0388 16.1315C12.2502 16.1315 9.97504 14.6714 9.64953 14.4287C9.62604 14.4111 7.10922 12.3635 6.97164 11.5016C6.83405 10.6396 8.56897 7.84268 8.58575 7.81805C8.60253 7.79342 10.5556 5.15832 11.3777 5.01055C11.418 5.00352 11.4583 5 11.5019 5C12.2905 5 14.5657 6.46004 14.8912 6.70279C14.9147 6.72038 17.4315 8.76796 17.5691 9.62991C17.7067 10.4919 15.9718 13.2888 15.955 13.3134C15.9382 13.3381 13.9852 15.9732 13.163 16.1209C13.1227 16.128 13.0825 16.1315 13.0388 16.1315Z" fill="#00AEC7" stroke="white" stroke-miterlimit="10"/>
<path d="M17.5921 12.3707C16.6156 12.3707 15.0149 11.4912 14.3941 10.9951C13.686 10.4322 12.3571 8.92645 12.2229 7.92377C12.092 6.92109 12.9847 5.09516 13.5216 4.35283C14.0585 3.61049 15.4948 2.2173 16.4511 2.07657C16.5149 2.06602 16.5854 2.0625 16.6592 2.0625C17.6357 2.0625 19.2364 2.94204 19.8572 3.4381C20.5653 4.00101 21.8942 5.50679 22.0284 6.50946C22.1593 7.51214 21.2666 9.33807 20.7297 10.0804C20.1928 10.8227 18.7565 12.2159 17.8002 12.3567C17.7364 12.3672 17.6659 12.3707 17.5921 12.3707Z" fill="#00AEC7" stroke="white" stroke-miterlimit="10"/>
<path d="M22.4772 10.6725C21.2691 10.6725 20.1349 10.1799 19.2791 9.28281C18.4234 8.38567 17.9536 7.19653 17.9536 5.92999C17.9536 4.66345 18.4234 3.47431 19.2791 2.57718C20.1349 1.68004 21.2691 1.1875 22.4772 1.1875C23.6852 1.1875 24.8195 1.68004 25.6752 2.57718C26.5309 3.47431 27.0007 4.66345 27.0007 5.92999C27.0007 7.19653 26.5309 8.38567 25.6752 9.28281C24.8195 10.1799 23.6852 10.6725 22.4772 10.6725Z" fill="#00AEC7" stroke="white" stroke-miterlimit="10"/>
</svg>
