<svg width="26" height="26" viewBox="0 0 26 26" fill="none" xmlns="http://www.w3.org/2000/svg">
<path d="M19.8853 24.9703C20.1855 21.5503 22.6176 19.8403 23.9088 16.9587C25.0497 14.457 25.0197 11.322 24.9897 8.63034C24.9897 7.26867 24.9296 5.90701 24.7195 4.57701C24.6594 4.00701 24.5693 2.74034 23.9688 2.45534C22.1672 1.60034 22.6176 7.83867 22.5876 8.40867" stroke="white" stroke-miterlimit="10" stroke-linecap="round" stroke-linejoin="round"/>
<path d="M19.3138 18.0363C20.1246 15.9463 21.9261 14.363 22.4065 12.1463C22.5567 11.513 22.8269 10.0246 22.0162 9.73963C21.2355 9.45463 20.4248 10.753 20.0645 11.2596C19.3739 12.2096 18.8034 13.2863 17.9927 14.1413C17.152 14.9646 16.1011 15.503 15.2904 16.358C13.0384 18.8596 14.6298 21.963 14.6298 24.908" stroke="white" stroke-miterlimit="10" stroke-linecap="round" stroke-linejoin="round"/>
<path d="M12.8311 13.2867C12.5909 13.1283 6.31543 9.075 6.31543 4.76833C6.31543 2.67833 7.90681 1 9.88854 1C11.2097 1 12.4107 1.76 13.0113 2.96333C13.6118 1.79167 14.8128 1 16.134 1C18.1157 1 19.7071 2.67833 19.7071 4.76833C19.7071 9.075 13.4316 13.1283 13.1614 13.2867L12.9812 13.3817L12.8311 13.2867Z" stroke="white" stroke-miterlimit="10" stroke-linecap="round" stroke-linejoin="round"/>
<path d="M16.1318 3.3125C16.8825 3.3125 17.513 3.9775 17.513 4.76917" stroke="white" stroke-miterlimit="10" stroke-linecap="round" stroke-linejoin="round"/>
<path d="M6.13357 24.9703C5.83331 21.582 3.40119 19.8403 2.08004 16.9587C0.969076 14.457 0.999102 11.322 0.999102 8.63034C0.999102 7.26867 1.05915 5.90701 1.26934 4.57701C1.35942 4.00701 1.44949 2.74034 2.05002 2.45534C3.85158 1.60034 3.40119 7.83867 3.43122 8.40867" stroke="white" stroke-miterlimit="10" stroke-linecap="round" stroke-linejoin="round"/>
<path d="M6.7041 18.0363C5.8934 15.9463 4.09183 14.363 3.61141 12.1463C3.46128 11.513 3.19105 10.0246 4.00175 9.73963C4.78243 9.45463 5.59314 10.753 5.95345 11.2596C6.64405 12.2096 7.21455 13.2863 8.02525 14.1413C8.86598 14.9646 9.9169 15.503 10.7276 16.358C12.9796 18.8596 11.3882 21.963 11.3882 24.908" stroke="white" stroke-miterlimit="10" stroke-linecap="round" stroke-linejoin="round"/>
</svg>
