<svg width="25" height="25" viewBox="0 0 25 25" fill="none" xmlns="http://www.w3.org/2000/svg">
<g clip-path="url(#clip0)">
<path d="M24.4428 20.102C24.3416 20.102 24.2403 20.0768 24.1391 20.001C18.0156 16.0869 8.60269 15.6323 8.50148 15.6323H4.63002C3.56727 15.6323 2.68164 14.8495 2.68164 13.8646V6.23839C2.68164 5.25354 3.54196 4.47071 4.63002 4.47071H8.52678C8.57739 4.47071 18.876 3.66263 24.1391 0.102023C24.3163 -0.0242392 24.544 -0.0242392 24.7211 0.0767708C24.8982 0.177781 25.0248 0.354549 25.0248 0.581821V19.5717C25.0248 19.7737 24.9235 19.9758 24.7211 20.0515C24.6199 20.0768 24.544 20.102 24.4428 20.102ZM23.8861 1.56667C18.2434 4.8495 8.98225 5.55657 8.55208 5.58182H4.60472C4.14925 5.58182 3.795 5.88485 3.795 6.23839V13.8646C3.795 14.2182 4.17456 14.5212 4.60472 14.5212H8.50148C8.90634 14.5465 17.5349 14.9505 23.8608 18.5616V1.56667H23.8861Z" fill="white"/>
<path d="M9.08406 5.02734H7.9707V15.0779H9.08406V5.02734Z" fill="white"/>
<path d="M2.70749 13.2098H1.08806C0.480769 13.2098 0 12.7047 0 12.1239V8.00773C0 7.40167 0.480769 6.92188 1.08806 6.92188H2.68219V8.03299H1.08806L1.11336 12.1239L2.68219 12.0986V13.2098H2.70749Z" fill="white"/>
<path d="M12.2721 24.9997H8.14763C7.89459 24.9997 7.69217 24.8482 7.61625 24.6209L4.50391 15.3028L5.56666 14.9492L8.55249 23.8886H11.4877L8.6284 15.3028L9.69115 14.9492L12.8035 24.2674C12.8541 24.4442 12.8288 24.6209 12.7276 24.7725C12.6264 24.924 12.4492 24.9997 12.2721 24.9997Z" fill="white"/>
</g>
<defs>
<clipPath id="clip0">
<rect width="25" height="25" fill="white"/>
</clipPath>
</defs>
</svg>
