<svg width="32" height="32" viewBox="0 0 32 32" fill="none" xmlns="http://www.w3.org/2000/svg">
<path d="M19.52 16C19.52 16.6962 19.3136 17.3767 18.9268 17.9556C18.54 18.5345 17.9902 18.9856 17.347 19.2521C16.7038 19.5185 15.9961 19.5882 15.3133 19.4524C14.6305 19.3165 14.0033 18.9813 13.511 18.489C13.0187 17.9967 12.6835 17.3695 12.5476 16.6867C12.4118 16.0039 12.4815 15.2962 12.7479 14.653C13.0144 14.0098 13.4655 13.46 14.0444 13.0732C14.6233 12.6864 15.3038 12.48 16 12.48C16.9332 12.4811 17.8279 12.8523 18.4878 13.5122C19.1477 14.1721 19.5189 15.0668 19.52 16ZM27 11.16V20.84C26.9981 22.4732 26.3485 24.0389 25.1937 25.1937C24.0389 26.3485 22.4732 26.9981 20.84 27H11.16C9.52684 26.9981 7.9611 26.3485 6.80628 25.1937C5.65146 24.0389 5.00186 22.4732 5 20.84V11.16C5.00186 9.52684 5.65146 7.9611 6.80628 6.80628C7.9611 5.65146 9.52684 5.00186 11.16 5H20.84C22.4732 5.00186 24.0389 5.65146 25.1937 6.80628C26.3485 7.9611 26.9981 9.52684 27 11.16ZM21.28 16C21.28 14.9557 20.9703 13.9349 20.3902 13.0666C19.81 12.1983 18.9854 11.5215 18.0206 11.1219C17.0558 10.7223 15.9941 10.6177 14.9699 10.8215C13.9457 11.0252 13.0049 11.5281 12.2665 12.2665C11.5281 13.0049 11.0252 13.9457 10.8215 14.9699C10.6177 15.9941 10.7223 17.0558 11.1219 18.0206C11.5215 18.9854 12.1983 19.81 13.0666 20.3902C13.9349 20.9703 14.9557 21.28 16 21.28C17.3999 21.2784 18.7419 20.7216 19.7318 19.7318C20.7216 18.7419 21.2784 17.3999 21.28 16ZM23.04 10.28C23.04 10.0189 22.9626 9.76372 22.8175 9.54665C22.6725 9.32957 22.4663 9.16039 22.2251 9.06048C21.9839 8.96057 21.7185 8.93443 21.4625 8.98536C21.2064 9.0363 20.9712 9.16201 20.7866 9.34662C20.602 9.53122 20.4763 9.76643 20.4254 10.0225C20.3744 10.2785 20.4006 10.5439 20.5005 10.7851C20.6004 11.0263 20.7696 11.2325 20.9866 11.3775C21.2037 11.5226 21.4589 11.6 21.72 11.6C22.0701 11.6 22.4058 11.4609 22.6534 11.2134C22.9009 10.9658 23.04 10.6301 23.04 10.28Z" fill="#ffffff"/>
</svg>
