<svg width="1167" height="1751" viewBox="0 0 1167 1751" fill="none" xmlns="http://www.w3.org/2000/svg">
<path d="M353.269 1.5C416.5 1.49982 615.769 19.5 615.769 156.273C615.769 191.567 597.826 225.75 585.5 251C557.301 308.766 531.927 349.19 556 413C597.499 523 739.269 543.773 829.269 557.273C829.269 557.273 864.856 563.85 930.768 579.772C1023.27 602.117 1103.51 633.562 1140.77 718.773C1191.27 834.273 1159.77 953.772 1091.27 1035.27C1071.62 1058.65 993.5 1120 906.269 1141.77C743.234 1177.28 494.607 1208.89 334.769 1233.27C182.5 1256.5 63.2447 1331.81 27.7688 1385.27C-79.0716 1546.28 161.017 1690.99 285 1749.5" stroke="#00AEC7" stroke-width="2"/>
</svg>
