<svg width="18" height="22" viewBox="0 0 18 22" fill="none" xmlns="http://www.w3.org/2000/svg">
<g clip-path="url(#clip0)">
<path d="M1.55166 22.5H16.4483C17.5858 22.5 18.5 21.5655 18.5 20.429V1.57099C18.5 0.434525 17.5858 -0.5 16.4483 -0.5H1.55166C0.414189 -0.5 -0.5 0.434525 -0.5 1.57099V20.429C-0.5 21.5655 0.414189 22.5 1.55166 22.5ZM1.63135 1.64544H16.3687V20.3546H1.63135V1.64544Z" fill="white" stroke="#00AEC7"/>
<path d="M4.7855 7.68388L4.79431 7.68419H4.80312H4.80316H4.80319H4.80323H4.80326H4.8033H4.80334H4.80337H4.80341H4.80345H4.80348H4.80352H4.80355H4.80359H4.80363H4.80366H4.8037H4.80373H4.80377H4.80381H4.80384H4.80388H4.80392H4.80395H4.80399H4.80403H4.80406H4.8041H4.80413H4.80417H4.80421H4.80424H4.80428H4.80432H4.80435H4.80439H4.80443H4.80446H4.8045H4.80454H4.80457H4.80461H4.80465H4.80468H4.80472H4.80476H4.80479H4.80483H4.80487H4.8049H4.80494H4.80498H4.80501H4.80505H4.80509H4.80512H4.80516H4.8052H4.80524H4.80527H4.80531H4.80535H4.80538H4.80542H4.80546H4.80549H4.80553H4.80557H4.80561H4.80564H4.80568H4.80572H4.80575H4.80579H4.80583H4.80587H4.8059H4.80594H4.80598H4.80601H4.80605H4.80609H4.80613H4.80616H4.8062H4.80624H4.80628H4.80631H4.80635H4.80639H4.80643H4.80646H4.8065H4.80654H4.80657H4.80661H4.80665H4.80669H4.80672H4.80676H4.8068H4.80684H4.80687H4.80691H4.80695H4.80699H4.80703H4.80706H4.8071H4.80714H4.80718H4.80721H4.80725H4.80729H4.80733H4.80736H4.8074H4.80744H4.80748H4.80752H4.80755H4.80759H4.80763H4.80767H4.8077H4.80774H4.80778H4.80782H4.80786H4.80789H4.80793H4.80797H4.80801H4.80804H4.80808H4.80812H4.80816H4.8082H4.80823H4.80827H4.80831H4.80835H4.80839H4.80842H4.80846H4.8085H4.80854H4.80858H4.80861H4.80865H4.80869H4.80873H4.80877H4.8088H4.80884H4.80888H4.80892H4.80896H4.80899H4.80903H4.80907H4.80911H4.80915H4.80919H4.80922H4.80926H4.8093H4.80934H4.80938H4.80941H4.80945H4.80949H4.80953H4.80957H4.80961H4.80964H4.80968H4.80972H4.80976H4.8098H4.80983H4.80987H4.80991H4.80995H4.80999H4.81003H4.81006H4.8101H4.81014H4.81018H4.81022H4.81026H4.81029H4.81033H4.81037H4.81041H4.81045H4.81049H4.81052H4.81056H4.8106H4.81064H4.81068H4.81072H4.81075H4.81079H4.81083H4.81087H4.81091H4.81095H4.81098H4.81102H4.81106H4.8111H4.81114H4.81118H4.81122H4.81125H4.81129H4.81133H4.81137H4.81141H4.81145H4.81148H4.81152H4.81156H4.8116H4.81164H4.81168H4.81171H4.81175H4.81179H4.81183H4.81187H4.81191H4.81195H4.81198H4.81202H4.81206H4.8121H4.81214H4.81218H4.81221H4.81225H4.81229H4.81233H4.81237H4.81241H4.81245H4.81248H4.81252H4.81256H4.8126H4.81264H4.81268H4.81271H4.81275H4.81279H4.81283H4.81287H4.81291H4.81295H4.81298H4.81302H4.81306H4.8131H4.81314H4.81318H4.81322H4.81325H4.81329H4.81333H4.81337H4.81341H4.81345H4.81348H4.81352H4.81356H4.8136H4.81364H4.81368H4.81372H4.81375H4.81379H4.81383H4.81387H4.81391H4.81395H4.81398H4.81402H4.81406H4.8141H4.81414H4.81418H4.81422H4.81425H4.81429H4.81433H4.81437H4.81441H4.81445H4.81448H4.81452H4.81456H4.8146H4.81464H4.81468H4.81471H4.81475H4.81479H4.81483H4.81487H4.81491H4.81494H4.81498H4.81502H4.81506H4.8151H4.81514H4.81517H4.81521H4.81525H4.81529H4.81533H4.81537H4.8154H4.81544H4.81548H4.81552H4.81556H4.8156H4.81563H4.81567H4.81571H4.81575H4.81579H4.81583H4.81586H4.8159H4.81594H4.81598H4.81602H4.81605H4.81609H4.81613H4.81617H4.81621H4.81625H4.81628H4.81632H4.81636H4.8164H4.81644H4.81647H4.81651H4.81655H4.81659H4.81663H4.81666H4.8167H4.81674H4.81678H4.81682H4.81685H4.81689H4.81693H4.81697H4.81701H4.81704H4.81708H4.81712H4.81716H4.8172H4.81723H4.81727H4.81731H4.81735H4.81739H4.81742H4.81746H4.8175H4.81754H4.81758H4.81761H4.81765H4.81769H4.81773H4.81777H4.8178H4.81784H4.81788H4.81792H4.81795H4.81799H4.81803H4.81807H4.8181H4.81814H4.81818H4.81822H4.81826H4.81829H4.81833H4.81837H4.81841H4.81844H4.81848H4.81852H4.81856H4.81859H4.81863H4.81867H4.81871H4.81874H4.81878H4.81882H4.81886H4.81889H4.81893H4.81897H4.81901H4.81904H4.81908H4.81912H4.81916H4.81919H4.81923H4.81927H4.81931H4.81934H4.81938H4.81942H4.81946H4.81949H4.81953H4.81957H4.8196H4.81964H4.81968H4.81972H4.81975H4.81979H4.81983H4.81986H4.8199H4.81994H4.81998H4.82001H4.82005H4.82009H4.82012H4.82016H4.8202H4.82023H4.82027H4.82031H4.82035H4.82038H4.82042H4.82046H4.82049H4.82053H4.82057H4.8206H4.82064H4.82068H4.82071H4.82075H4.82079H4.82082H4.82086H4.8209H4.82093H4.82097H4.82101H4.82104H4.82108H4.82112H4.82115H4.82119H4.82123H4.82126H4.8213H4.82134H4.82137H4.82141H4.82145H4.82148H4.82152H4.82155H4.82159H4.82163H4.82166H4.8217H4.82174H4.82177H4.82181H4.82184H4.82188H4.82192H4.82195H4.82199H4.82203H4.82206H4.8221H4.82213H4.82217H4.82221H4.82224H4.82228H4.82231H4.82235H4.82239C5.1444 7.68419 5.44594 7.53734 5.64686 7.29093L5.64767 7.28992L7.09432 5.50626C7.09449 5.50606 7.09465 5.50587 7.09481 5.50567C7.46581 5.04996 7.40151 4.37619 6.94874 4.00013C6.49262 3.61964 5.81685 3.68843 5.4444 4.14856C5.44431 4.14868 5.44422 4.14879 5.44413 4.14891L4.83541 4.89904C4.47729 4.6584 3.9931 4.65124 3.62146 4.91982C3.14353 5.26522 3.03672 5.93309 3.37433 6.41197L3.37434 6.41198L3.95314 7.23293L3.9539 7.234C4.14534 7.50403 4.45168 7.67211 4.7855 7.68388Z" fill="white" stroke="#00AEC7"/>
<path d="M8.53052 7.122H13.7547C14.3493 7.122 14.8204 6.63608 14.8204 6.04928C14.8204 5.46249 14.3493 4.97656 13.7547 4.97656H8.53052C7.93595 4.97656 7.46484 5.46249 7.46484 6.04928C7.46484 6.63608 7.93595 7.122 8.53052 7.122Z" fill="white" stroke="#00AEC7"/>
<path d="M4.7855 12.9652L4.79431 12.9655H4.80312H4.80316H4.80319H4.80323H4.80326H4.8033H4.80334H4.80337H4.80341H4.80345H4.80348H4.80352H4.80355H4.80359H4.80363H4.80366H4.8037H4.80373H4.80377H4.80381H4.80384H4.80388H4.80392H4.80395H4.80399H4.80403H4.80406H4.8041H4.80413H4.80417H4.80421H4.80424H4.80428H4.80432H4.80435H4.80439H4.80443H4.80446H4.8045H4.80454H4.80457H4.80461H4.80465H4.80468H4.80472H4.80476H4.80479H4.80483H4.80487H4.8049H4.80494H4.80498H4.80501H4.80505H4.80509H4.80512H4.80516H4.8052H4.80524H4.80527H4.80531H4.80535H4.80538H4.80542H4.80546H4.80549H4.80553H4.80557H4.80561H4.80564H4.80568H4.80572H4.80575H4.80579H4.80583H4.80587H4.8059H4.80594H4.80598H4.80601H4.80605H4.80609H4.80613H4.80616H4.8062H4.80624H4.80628H4.80631H4.80635H4.80639H4.80643H4.80646H4.8065H4.80654H4.80657H4.80661H4.80665H4.80669H4.80672H4.80676H4.8068H4.80684H4.80687H4.80691H4.80695H4.80699H4.80703H4.80706H4.8071H4.80714H4.80718H4.80721H4.80725H4.80729H4.80733H4.80736H4.8074H4.80744H4.80748H4.80752H4.80755H4.80759H4.80763H4.80767H4.8077H4.80774H4.80778H4.80782H4.80786H4.80789H4.80793H4.80797H4.80801H4.80804H4.80808H4.80812H4.80816H4.8082H4.80823H4.80827H4.80831H4.80835H4.80839H4.80842H4.80846H4.8085H4.80854H4.80858H4.80861H4.80865H4.80869H4.80873H4.80877H4.8088H4.80884H4.80888H4.80892H4.80896H4.80899H4.80903H4.80907H4.80911H4.80915H4.80919H4.80922H4.80926H4.8093H4.80934H4.80938H4.80941H4.80945H4.80949H4.80953H4.80957H4.80961H4.80964H4.80968H4.80972H4.80976H4.8098H4.80983H4.80987H4.80991H4.80995H4.80999H4.81003H4.81006H4.8101H4.81014H4.81018H4.81022H4.81026H4.81029H4.81033H4.81037H4.81041H4.81045H4.81049H4.81052H4.81056H4.8106H4.81064H4.81068H4.81072H4.81075H4.81079H4.81083H4.81087H4.81091H4.81095H4.81098H4.81102H4.81106H4.8111H4.81114H4.81118H4.81122H4.81125H4.81129H4.81133H4.81137H4.81141H4.81145H4.81148H4.81152H4.81156H4.8116H4.81164H4.81168H4.81171H4.81175H4.81179H4.81183H4.81187H4.81191H4.81195H4.81198H4.81202H4.81206H4.8121H4.81214H4.81218H4.81221H4.81225H4.81229H4.81233H4.81237H4.81241H4.81245H4.81248H4.81252H4.81256H4.8126H4.81264H4.81268H4.81271H4.81275H4.81279H4.81283H4.81287H4.81291H4.81295H4.81298H4.81302H4.81306H4.8131H4.81314H4.81318H4.81322H4.81325H4.81329H4.81333H4.81337H4.81341H4.81345H4.81348H4.81352H4.81356H4.8136H4.81364H4.81368H4.81372H4.81375H4.81379H4.81383H4.81387H4.81391H4.81395H4.81398H4.81402H4.81406H4.8141H4.81414H4.81418H4.81422H4.81425H4.81429H4.81433H4.81437H4.81441H4.81445H4.81448H4.81452H4.81456H4.8146H4.81464H4.81468H4.81471H4.81475H4.81479H4.81483H4.81487H4.81491H4.81494H4.81498H4.81502H4.81506H4.8151H4.81514H4.81517H4.81521H4.81525H4.81529H4.81533H4.81537H4.8154H4.81544H4.81548H4.81552H4.81556H4.8156H4.81563H4.81567H4.81571H4.81575H4.81579H4.81583H4.81586H4.8159H4.81594H4.81598H4.81602H4.81605H4.81609H4.81613H4.81617H4.81621H4.81625H4.81628H4.81632H4.81636H4.8164H4.81644H4.81647H4.81651H4.81655H4.81659H4.81663H4.81666H4.8167H4.81674H4.81678H4.81682H4.81685H4.81689H4.81693H4.81697H4.81701H4.81704H4.81708H4.81712H4.81716H4.8172H4.81723H4.81727H4.81731H4.81735H4.81739H4.81742H4.81746H4.8175H4.81754H4.81758H4.81761H4.81765H4.81769H4.81773H4.81777H4.8178H4.81784H4.81788H4.81792H4.81795H4.81799H4.81803H4.81807H4.8181H4.81814H4.81818H4.81822H4.81826H4.81829H4.81833H4.81837H4.81841H4.81844H4.81848H4.81852H4.81856H4.81859H4.81863H4.81867H4.81871H4.81874H4.81878H4.81882H4.81886H4.81889H4.81893H4.81897H4.81901H4.81904H4.81908H4.81912H4.81916H4.81919H4.81923H4.81927H4.81931H4.81934H4.81938H4.81942H4.81946H4.81949H4.81953H4.81957H4.8196H4.81964H4.81968H4.81972H4.81975H4.81979H4.81983H4.81986H4.8199H4.81994H4.81998H4.82001H4.82005H4.82009H4.82012H4.82016H4.8202H4.82023H4.82027H4.82031H4.82035H4.82038H4.82042H4.82046H4.82049H4.82053H4.82057H4.8206H4.82064H4.82068H4.82071H4.82075H4.82079H4.82082H4.82086H4.8209H4.82093H4.82097H4.82101H4.82104H4.82108H4.82112H4.82115H4.82119H4.82123H4.82126H4.8213H4.82134H4.82137H4.82141H4.82145H4.82148H4.82152H4.82155H4.82159H4.82163H4.82166H4.8217H4.82174H4.82177H4.82181H4.82184H4.82188H4.82192H4.82195H4.82199H4.82203H4.82206H4.8221H4.82213H4.82217H4.82221H4.82224H4.82228H4.82231H4.82235H4.82239C5.1438 12.9655 5.44571 12.8191 5.6462 12.5728L5.64678 12.5721L7.09433 10.7875C7.09447 10.7873 7.09461 10.7872 7.09475 10.787C7.46581 10.3313 7.40154 9.6575 6.94878 9.28142C6.49267 8.90089 5.81689 8.96967 5.44442 9.42979C5.44432 9.42992 5.44422 9.43004 5.44413 9.43016L4.83541 10.1803C4.47729 9.93966 3.9931 9.9325 3.62146 10.2011C3.14353 10.5465 3.03672 11.2144 3.37433 11.6932L3.37433 11.6932L3.95314 12.5142L3.9539 12.5153C4.14534 12.7853 4.45168 12.9534 4.7855 12.9652Z" fill="white" stroke="#00AEC7"/>
<path d="M8.53052 12.4032H13.7547C14.3493 12.4032 14.8204 11.9173 14.8204 11.3305C14.8204 10.7437 14.3493 10.2578 13.7547 10.2578H8.53052C7.93595 10.2578 7.46484 10.7437 7.46484 11.3305C7.46484 11.9173 7.93595 12.4032 8.53052 12.4032Z" fill="white" stroke="#00AEC7"/>
<path d="M4.7855 18.2463L4.79431 18.2466H4.80312H4.80316H4.80319H4.80323H4.80326H4.8033H4.80334H4.80337H4.80341H4.80345H4.80348H4.80352H4.80355H4.80359H4.80363H4.80366H4.8037H4.80373H4.80377H4.80381H4.80384H4.80388H4.80392H4.80395H4.80399H4.80403H4.80406H4.8041H4.80413H4.80417H4.80421H4.80424H4.80428H4.80432H4.80435H4.80439H4.80443H4.80446H4.8045H4.80454H4.80457H4.80461H4.80465H4.80468H4.80472H4.80476H4.80479H4.80483H4.80487H4.8049H4.80494H4.80498H4.80501H4.80505H4.80509H4.80512H4.80516H4.8052H4.80524H4.80527H4.80531H4.80535H4.80538H4.80542H4.80546H4.80549H4.80553H4.80557H4.80561H4.80564H4.80568H4.80572H4.80575H4.80579H4.80583H4.80587H4.8059H4.80594H4.80598H4.80601H4.80605H4.80609H4.80613H4.80616H4.8062H4.80624H4.80628H4.80631H4.80635H4.80639H4.80643H4.80646H4.8065H4.80654H4.80657H4.80661H4.80665H4.80669H4.80672H4.80676H4.8068H4.80684H4.80687H4.80691H4.80695H4.80699H4.80703H4.80706H4.8071H4.80714H4.80718H4.80721H4.80725H4.80729H4.80733H4.80736H4.8074H4.80744H4.80748H4.80752H4.80755H4.80759H4.80763H4.80767H4.8077H4.80774H4.80778H4.80782H4.80786H4.80789H4.80793H4.80797H4.80801H4.80804H4.80808H4.80812H4.80816H4.8082H4.80823H4.80827H4.80831H4.80835H4.80839H4.80842H4.80846H4.8085H4.80854H4.80858H4.80861H4.80865H4.80869H4.80873H4.80877H4.8088H4.80884H4.80888H4.80892H4.80896H4.80899H4.80903H4.80907H4.80911H4.80915H4.80919H4.80922H4.80926H4.8093H4.80934H4.80938H4.80941H4.80945H4.80949H4.80953H4.80957H4.80961H4.80964H4.80968H4.80972H4.80976H4.8098H4.80983H4.80987H4.80991H4.80995H4.80999H4.81003H4.81006H4.8101H4.81014H4.81018H4.81022H4.81026H4.81029H4.81033H4.81037H4.81041H4.81045H4.81049H4.81052H4.81056H4.8106H4.81064H4.81068H4.81072H4.81075H4.81079H4.81083H4.81087H4.81091H4.81095H4.81098H4.81102H4.81106H4.8111H4.81114H4.81118H4.81122H4.81125H4.81129H4.81133H4.81137H4.81141H4.81145H4.81148H4.81152H4.81156H4.8116H4.81164H4.81168H4.81171H4.81175H4.81179H4.81183H4.81187H4.81191H4.81195H4.81198H4.81202H4.81206H4.8121H4.81214H4.81218H4.81221H4.81225H4.81229H4.81233H4.81237H4.81241H4.81245H4.81248H4.81252H4.81256H4.8126H4.81264H4.81268H4.81271H4.81275H4.81279H4.81283H4.81287H4.81291H4.81295H4.81298H4.81302H4.81306H4.8131H4.81314H4.81318H4.81322H4.81325H4.81329H4.81333H4.81337H4.81341H4.81345H4.81348H4.81352H4.81356H4.8136H4.81364H4.81368H4.81372H4.81375H4.81379H4.81383H4.81387H4.81391H4.81395H4.81398H4.81402H4.81406H4.8141H4.81414H4.81418H4.81422H4.81425H4.81429H4.81433H4.81437H4.81441H4.81445H4.81448H4.81452H4.81456H4.8146H4.81464H4.81468H4.81471H4.81475H4.81479H4.81483H4.81487H4.81491H4.81494H4.81498H4.81502H4.81506H4.8151H4.81514H4.81517H4.81521H4.81525H4.81529H4.81533H4.81537H4.8154H4.81544H4.81548H4.81552H4.81556H4.8156H4.81563H4.81567H4.81571H4.81575H4.81579H4.81583H4.81586H4.8159H4.81594H4.81598H4.81602H4.81605H4.81609H4.81613H4.81617H4.81621H4.81625H4.81628H4.81632H4.81636H4.8164H4.81644H4.81647H4.81651H4.81655H4.81659H4.81663H4.81666H4.8167H4.81674H4.81678H4.81682H4.81685H4.81689H4.81693H4.81697H4.81701H4.81704H4.81708H4.81712H4.81716H4.8172H4.81723H4.81727H4.81731H4.81735H4.81739H4.81742H4.81746H4.8175H4.81754H4.81758H4.81761H4.81765H4.81769H4.81773H4.81777H4.8178H4.81784H4.81788H4.81792H4.81795H4.81799H4.81803H4.81807H4.8181H4.81814H4.81818H4.81822H4.81826H4.81829H4.81833H4.81837H4.81841H4.81844H4.81848H4.81852H4.81856H4.81859H4.81863H4.81867H4.81871H4.81874H4.81878H4.81882H4.81886H4.81889H4.81893H4.81897H4.81901H4.81904H4.81908H4.81912H4.81916H4.81919H4.81923H4.81927H4.81931H4.81934H4.81938H4.81942H4.81946H4.81949H4.81953H4.81957H4.8196H4.81964H4.81968H4.81972H4.81975H4.81979H4.81983H4.81986H4.8199H4.81994H4.81998H4.82001H4.82005H4.82009H4.82012H4.82016H4.8202H4.82023H4.82027H4.82031H4.82035H4.82038H4.82042H4.82046H4.82049H4.82053H4.82057H4.8206H4.82064H4.82068H4.82071H4.82075H4.82079H4.82082H4.82086H4.8209H4.82093H4.82097H4.82101H4.82104H4.82108H4.82112H4.82115H4.82119H4.82123H4.82126H4.8213H4.82134H4.82137H4.82141H4.82145H4.82148H4.82152H4.82155H4.82159H4.82163H4.82166H4.8217H4.82174H4.82177H4.82181H4.82184H4.82188H4.82192H4.82195H4.82199H4.82203H4.82206H4.8221H4.82213H4.82217H4.82221H4.82224H4.82228H4.82231H4.82235H4.82239C5.14379 18.2466 5.4457 18.1003 5.6462 17.854L5.64677 17.8533L7.09432 16.0687C7.09448 16.0686 7.09464 16.0684 7.0948 16.0682C7.46582 15.6125 7.40151 14.9387 6.94873 14.5626C6.49262 14.1822 5.81689 14.2509 5.44444 14.711C5.44434 14.7111 5.44423 14.7113 5.44413 14.7114L4.83541 15.4615C4.47729 15.2209 3.9931 15.2137 3.62146 15.4823C3.14353 15.8277 3.03672 16.4956 3.37433 16.9744L3.37434 16.9744L3.95315 17.7954L3.9539 17.7965C4.14534 18.0665 4.45169 18.2346 4.7855 18.2463Z" fill="white" stroke="#00AEC7"/>
<path d="M8.53052 17.6825H13.7547C14.3493 17.6825 14.8204 17.1966 14.8204 16.6098C14.8204 16.023 14.3493 15.5371 13.7547 15.5371H8.53052C7.93596 15.5371 7.46484 16.023 7.46484 16.6098C7.46484 17.1966 7.93596 17.6825 8.53052 17.6825Z" fill="white" stroke="#00AEC7"/>
</g>
<defs>
<clipPath id="clip0">
<rect width="18" height="22" fill="white"/>
</clipPath>
</defs>
</svg>
