<svg width="24" height="24" viewBox="0 0 24 24" fill="none" xmlns="http://www.w3.org/2000/svg">
<path d="M11.8905 20.1025C11.9178 20.1317 11.9556 20.1488 11.9956 20.1499C12.0355 20.1511 12.0743 20.1363 12.1033 20.1088L12.4725 19.7581L12.473 19.7585L12.482 19.7482C12.4865 19.7431 12.4929 19.7358 12.5012 19.7264C12.7073 19.4928 14.0641 17.9548 15.3946 16.0249C16.0867 15.0211 16.7737 13.9082 17.2884 12.8153C17.8016 11.7251 18.15 10.641 18.15 9.69863C18.15 6.45243 15.3985 3.85 12 3.85C8.60146 3.85 5.85 6.45243 5.85 9.69863C5.85 10.641 6.19837 11.7251 6.71166 12.8146C7.22628 13.9069 7.9134 15.0185 8.60546 16.0195C9.97538 18.0012 11.3768 19.5669 11.5238 19.7107L11.8905 20.1025ZM7.07308 9.69863C7.07308 7.11469 9.26008 5.02671 12 5.02671C14.7399 5.02671 16.9269 7.11469 16.9269 9.69863C16.9269 10.3692 16.6942 11.1686 16.3153 12.0213C15.9376 12.8716 15.4201 13.7628 14.863 14.6137C13.8153 16.214 12.6346 17.6612 12 18.4097C11.3654 17.6612 10.1847 16.214 9.13704 14.6137C8.57995 13.7628 8.06245 12.8716 7.68468 12.0213C7.30582 11.1686 7.07308 10.3692 7.07308 9.69863Z" fill="#00AEC7" stroke="#00AEC7" stroke-width="0.3" stroke-linecap="round" stroke-linejoin="round"/>
<path d="M9.54238 10.0772C9.54238 11.4524 10.6249 12.5349 12.0001 12.5349C13.3752 12.5349 14.4578 11.4524 14.4578 10.0772C14.4578 8.70207 13.3752 7.61953 12.0001 7.61953C10.6249 7.61953 9.54238 8.70207 9.54238 10.0772ZM10.7655 10.0772C10.7655 9.37545 11.2983 8.84261 12.0001 8.84261C12.7018 8.84261 13.2347 9.37545 13.2347 10.0772C13.2347 10.779 12.7018 11.3118 12.0001 11.3118C11.2983 11.3118 10.7655 10.779 10.7655 10.0772Z" fill="#00AEC7" stroke="#00AEC7" stroke-width="0.3"/>
</svg>
