<svg width="150" height="38" viewBox="0 0 150 38" fill="none" xmlns="http://www.w3.org/2000/svg">
<g clip-path="url(#clip0)">
<path d="M1.8102 2.83871C1.8102 3.45582 1.5085 3.76438 0.905098 3.76438C0.301699 3.76438 0 3.45582 0 2.83871C0 2.2216 0.301699 1.91304 0.905098 1.91304C1.5085 1.91304 1.8102 2.2216 1.8102 2.83871ZM1.47833 21.5989H0.331869V6.97335H1.47833V21.5989Z" fill="#00AEC7"/>
<path d="M7.53306 21.5989H6.3866V0H7.53306V21.5989Z" fill="#00AEC7"/>
<path d="M14.2211 21.5989H13.0747V0H14.2211V21.5989Z" fill="#00AEC7"/>
<path d="M30.2619 15.3661C30.2619 16.7443 30.0808 17.8448 29.7188 18.6676C29.2361 19.7578 28.3913 20.6321 27.1845 21.2903C26.7823 21.496 26.38 21.6606 25.9777 21.784C25.5755 21.928 25.1833 22 24.8011 22C24.2782 22 23.7753 21.9486 23.2926 21.8457C22.83 21.7429 22.3573 21.5577 21.8746 21.2903C20.6477 20.6321 19.803 19.7578 19.3403 18.6676C18.9783 17.8242 18.7973 16.7237 18.7973 15.3661V6.97335H19.9437V15.2426C19.9437 16.4563 20.0946 17.4334 20.3963 18.1739C20.7784 19.1201 21.4422 19.8298 22.3875 20.3029C23.0311 20.6321 23.7452 20.7966 24.5296 20.7966C25.314 20.7966 26.028 20.6321 26.6716 20.3029C27.5969 19.8298 28.2505 19.1304 28.6327 18.2048C28.9545 17.4231 29.1154 16.4357 29.1154 15.2426V6.97335H30.2619V15.3661Z" fill="#00AEC7"/>
<path d="M52.1652 21.5989H51.0188V12.3731C51.0188 11.7971 50.9786 11.2828 50.8981 10.8303C50.8378 10.3572 50.6769 9.90463 50.4154 9.47265C50.174 9.04067 49.8321 8.68069 49.3896 8.39271C48.7862 7.9813 48.0923 7.7756 47.3079 7.7756C46.4832 7.7756 45.7893 7.9813 45.2262 8.39271C44.8239 8.68069 44.482 9.05096 44.2004 9.50351C43.9389 9.95605 43.7679 10.4497 43.6875 10.9846C43.6272 11.5194 43.597 12.0954 43.597 12.7125V21.5989H42.4505V12.3422C42.4505 11.7662 42.4103 11.2623 42.3298 10.8303C42.2695 10.3983 42.0985 9.95605 41.817 9.50351C41.5555 9.05096 41.2337 8.69098 40.8515 8.42356C40.2481 7.99158 39.5442 7.7756 38.7396 7.7756C37.9351 7.7756 37.2412 7.97101 36.6579 8.36185C36.2355 8.64984 35.8936 9.0201 35.6321 9.47265C35.3908 9.90463 35.2298 10.3469 35.1494 10.7994C35.0689 11.2314 35.0287 11.756 35.0287 12.3731V21.5989H33.8823V12.4039C33.8823 11.1697 34.0331 10.1823 34.3348 9.4418C34.7371 8.45442 35.4612 7.69331 36.507 7.15849C37.1909 6.80879 37.9653 6.63394 38.8301 6.63394C39.7553 6.63394 40.5599 6.83964 41.2437 7.25105C42.0684 7.74474 42.6718 8.50584 43.0539 9.53436C43.3757 8.54698 43.9087 7.82702 44.6529 7.37447C45.3971 6.90136 46.2821 6.6648 47.3079 6.6648C48.1325 6.6648 48.8767 6.82936 49.5405 7.15849C50.5662 7.67274 51.2803 8.43385 51.6825 9.4418C52.0043 10.2235 52.1652 11.2108 52.1652 12.4039V21.5989Z" fill="#00AEC7"/>
<path d="M57.5833 2.83871C57.5833 3.45582 57.2816 3.76438 56.6782 3.76438C56.0748 3.76438 55.7731 3.45582 55.7731 2.83871C55.7731 2.2216 56.0748 1.91304 56.6782 1.91304C57.2816 1.91304 57.5833 2.2216 57.5833 2.83871ZM57.2515 21.5989H56.105V6.97335H57.2515V21.5989Z" fill="#00AEC7"/>
<path d="M72.6589 21.5989H71.5124V13.3296C71.5124 12.1159 71.3616 11.1389 71.0599 10.3983C70.6777 9.45208 70.014 8.7424 69.0687 8.26929C68.425 7.94016 67.711 7.7756 66.9266 7.7756C66.1422 7.7756 65.4282 7.94016 64.7845 8.26929C63.8593 8.7424 63.2157 9.41094 62.8536 10.2749C62.5117 11.1183 62.3408 12.1365 62.3408 13.3296V21.5989H61.1943V13.2062C61.1943 11.8691 61.3753 10.7686 61.7374 9.90463C62.2201 8.77326 63.0648 7.89902 64.2716 7.28191C64.6337 7.09677 65.046 6.95278 65.5086 6.84993C65.9913 6.72651 66.464 6.6648 66.9266 6.6648C67.9121 6.6648 68.7971 6.8705 69.5816 7.28191C70.7883 7.89902 71.6331 8.77326 72.1158 9.90463C72.4779 10.748 72.6589 11.8485 72.6589 13.2062V21.5989Z" fill="#00AEC7"/>
<path d="M90.3385 21.5989H89.192V15.0884C89.192 12.6816 88.5786 10.8303 87.3516 9.53436C86.2454 8.36185 84.8274 7.7756 83.0977 7.7756C81.2271 7.7756 79.6784 8.44413 78.4515 9.78121C77.2447 11.0977 76.6413 12.6611 76.6413 14.4712C76.6413 16.2609 77.2548 17.7625 78.4817 18.9762C79.7086 20.1898 81.2473 20.7966 83.0977 20.7966C84.0631 20.7966 84.9179 20.6321 85.6621 20.3029C86.4264 19.9532 87.2008 19.3978 87.9852 18.6367V19.9944C87.3416 20.5909 86.6276 21.064 85.8431 21.4137C85.0587 21.7429 84.1637 21.9074 83.158 21.9074C81.1266 21.9074 79.3667 21.2492 77.8783 19.9327C76.2893 18.5133 75.4949 16.6928 75.4949 14.4712C75.4949 12.4142 76.1687 10.6349 77.5162 9.13324C78.9845 7.48761 80.8651 6.6648 83.158 6.6648C85.1492 6.6648 86.7985 7.31276 88.1059 8.6087C89.5943 10.0898 90.3385 12.1674 90.3385 14.8415V21.5989Z" fill="#00AEC7"/>
<path d="M100.172 21.5989H98.1204C96.4309 21.5989 95.2643 21.064 94.6207 19.9944C94.1782 19.2539 93.957 18.1636 93.957 16.7237V2.96213H95.1034V6.97335H100.172V8.08415H95.1034V16.662C95.1034 17.4025 95.1235 17.9476 95.1638 18.2973C95.204 18.6265 95.3549 19.007 95.6163 19.439C95.8778 19.8504 96.2197 20.1281 96.6421 20.2721C97.0645 20.4161 97.5573 20.4881 98.1204 20.4881H100.172V21.5989Z" fill="#00AEC7"/>
<path d="M103.428 2.83871C103.428 3.45582 103.126 3.76438 102.522 3.76438C101.919 3.76438 101.617 3.45582 101.617 2.83871C101.617 2.2216 101.919 1.91304 102.522 1.91304C103.126 1.91304 103.428 2.2216 103.428 2.83871ZM103.096 21.5989H101.949V6.97335H103.096V21.5989Z" fill="#00AEC7"/>
<path d="M121.037 14.2861C121.037 16.4049 120.323 18.2048 118.895 19.6858C117.467 21.1669 115.737 21.9074 113.706 21.9074C111.675 21.9074 109.945 21.1669 108.517 19.6858C107.089 18.2048 106.375 16.4049 106.375 14.2861C106.375 12.1674 107.089 10.3675 108.517 8.88639C109.945 7.40533 111.675 6.6648 113.706 6.6648C115.737 6.6648 117.467 7.40533 118.895 8.88639C120.323 10.3675 121.037 12.1674 121.037 14.2861Z" fill="#00AEC7"/>
<path d="M136.122 21.5989H134.975V13.3296C134.975 12.1159 134.825 11.1389 134.523 10.3983C134.141 9.45208 133.477 8.7424 132.532 8.26929C131.888 7.94016 131.174 7.7756 130.39 7.7756C129.605 7.7756 128.891 7.94016 128.247 8.26929C127.322 8.7424 126.679 9.41094 126.317 10.2749C125.975 11.1183 125.804 12.1365 125.804 13.3296V21.5989H124.657V13.2062C124.657 11.8691 124.838 10.7686 125.2 9.90463C125.683 8.77326 126.528 7.89902 127.735 7.28191C128.097 7.09677 128.509 6.95278 128.972 6.84993C129.454 6.72651 129.927 6.6648 130.39 6.6648C131.375 6.6648 132.26 6.8705 133.044 7.28191C134.251 7.89902 135.096 8.77326 135.579 9.90463C135.941 10.748 136.122 11.8485 136.122 13.2062V21.5989Z" fill="#00AEC7"/>
<path d="M150 17.8962C150 18.6162 149.819 19.2641 149.457 19.8401C149.095 20.3955 148.542 20.8275 147.798 21.136C147.074 21.4446 146.138 21.5989 144.992 21.5989H139.078V20.4881H145.112C145.837 20.4881 146.44 20.4264 146.923 20.3029C147.727 20.0972 148.28 19.727 148.582 19.1921C148.683 19.0276 148.753 18.8424 148.793 18.6367C148.833 18.431 148.854 18.2253 148.854 18.0196C148.854 17.3614 148.683 16.8163 148.341 16.3843C148.019 15.9523 147.566 15.6129 146.983 15.3661C146.4 15.0986 145.485 14.8209 144.238 14.533C142.991 14.245 142.186 14.0393 141.824 13.9158C140.999 13.6279 140.366 13.237 139.923 12.7433C139.36 12.1057 139.078 11.3343 139.078 10.4292C139.078 9.8532 139.189 9.34923 139.41 8.91725C139.712 8.27957 140.155 7.79617 140.738 7.46704C141.341 7.13791 142.236 6.97335 143.423 6.97335H149.035V8.08415H143.212C142.488 8.08415 142.015 8.11501 141.794 8.17672C141.291 8.32071 140.889 8.62926 140.587 9.10238C140.466 9.28752 140.376 9.51379 140.315 9.78121C140.255 10.028 140.225 10.2646 140.225 10.4909C140.225 11.0051 140.386 11.4783 140.708 11.9102C140.969 12.2599 141.432 12.5582 142.095 12.805C142.578 12.9902 143.383 13.2165 144.509 13.4839C146.903 14.0187 148.431 14.6564 149.095 15.3969C149.698 16.0552 150 16.8883 150 17.8962Z" fill="#00AEC7"/>
<path d="M120.838 6.90569C121.441 6.90569 121.743 6.59714 121.743 5.98002C121.743 5.36291 121.441 5.05436 120.838 5.05436C120.234 5.05436 119.933 5.36291 119.933 5.98002C119.933 6.59714 120.234 6.90569 120.838 6.90569Z" fill="#00AEC7"/>
<path d="M0 30.26H0.9L1.55 32.71C1.73667 33.49 1.85333 34.0067 1.9 34.26H1.93C1.99667 33.96 2.14 33.4467 2.36 32.72L3.15 30.26H3.89L4.64 32.68C4.81333 33.2267 4.95667 33.7533 5.07 34.26H5.1C5.16667 33.86 5.29 33.3367 5.47 32.69L6.16 30.26H7.03L5.47 35.1H4.67L3.93 32.79C3.73667 32.1567 3.59333 31.6233 3.5 31.19H3.48C3.38 31.67 3.23333 32.2067 3.04 32.8L2.26 35.1H1.46L0 30.26Z" fill="#00AEC7"/>
<path d="M11.7056 32.84H8.31563C8.32229 33.4 8.47896 33.82 8.78563 34.1C9.09896 34.3733 9.49229 34.51 9.96562 34.51C10.479 34.51 10.9256 34.4267 11.3056 34.26L11.4656 34.89C11.0056 35.0967 10.4656 35.2 9.84562 35.2C9.11229 35.2 8.53229 34.9767 8.10563 34.53C7.67896 34.0833 7.46562 33.4933 7.46562 32.76C7.46562 32.0133 7.67229 31.3933 8.08562 30.9C8.50562 30.4 9.05896 30.15 9.74562 30.15C10.119 30.15 10.4423 30.2267 10.7156 30.38C10.989 30.5267 11.1956 30.7233 11.3356 30.97C11.4756 31.21 11.5756 31.4533 11.6356 31.7C11.7023 31.94 11.7356 32.1833 11.7356 32.43C11.7356 32.6033 11.7256 32.74 11.7056 32.84ZM8.32563 32.21H10.8856C10.8856 32.0567 10.869 31.9033 10.8356 31.75C10.8023 31.5967 10.7423 31.4433 10.6556 31.29C10.569 31.1367 10.4423 31.0133 10.2756 30.92C10.109 30.8267 9.90896 30.78 9.67562 30.78C9.26896 30.78 8.95229 30.9267 8.72563 31.22C8.49896 31.5133 8.36563 31.8433 8.32563 32.21Z" fill="#00AEC7"/>
<path d="M12.8254 35.1V28H13.7054V35.1H12.8254Z" fill="#00AEC7"/>
<path d="M15.1887 35.1V28H16.0687V35.1H15.1887Z" fill="#00AEC7"/>
<path d="M19.6711 33.85V28H20.5511V31.03H20.5711C20.9111 30.4433 21.4611 30.15 22.2211 30.15C22.8211 30.15 23.3111 30.38 23.6911 30.84C24.0711 31.2933 24.2611 31.8833 24.2611 32.61C24.2611 33.43 24.0444 34.07 23.6111 34.53C23.1778 34.9833 22.6678 35.21 22.0811 35.21C21.3544 35.21 20.8144 34.9067 20.4611 34.3H20.4411L20.3911 35.1H19.6311C19.6578 34.8067 19.6711 34.39 19.6711 33.85ZM20.5511 32.29V33.16C20.5511 33.2733 20.5611 33.38 20.5811 33.48C20.6678 33.7867 20.8311 34.0367 21.0711 34.23C21.3111 34.4167 21.5878 34.51 21.9011 34.51C22.3611 34.51 22.7211 34.34 22.9811 34C23.2411 33.66 23.3711 33.21 23.3711 32.65C23.3711 32.1367 23.2444 31.7067 22.9911 31.36C22.7378 31.0133 22.3844 30.84 21.9311 30.84C21.6244 30.84 21.3478 30.94 21.1011 31.14C20.8544 31.3333 20.6878 31.5933 20.6011 31.92C20.5678 32.04 20.5511 32.1633 20.5511 32.29Z" fill="#00AEC7"/>
<path d="M29.2545 32.84H25.8645C25.8711 33.4 26.0278 33.82 26.3345 34.1C26.6478 34.3733 27.0411 34.51 27.5145 34.51C28.0278 34.51 28.4745 34.4267 28.8545 34.26L29.0145 34.89C28.5545 35.0967 28.0145 35.2 27.3945 35.2C26.6611 35.2 26.0811 34.9767 25.6545 34.53C25.2278 34.0833 25.0145 33.4933 25.0145 32.76C25.0145 32.0133 25.2211 31.3933 25.6345 30.9C26.0545 30.4 26.6078 30.15 27.2945 30.15C27.6678 30.15 27.9911 30.2267 28.2645 30.38C28.5378 30.5267 28.7445 30.7233 28.8845 30.97C29.0245 31.21 29.1245 31.4533 29.1845 31.7C29.2511 31.94 29.2845 32.1833 29.2845 32.43C29.2845 32.6033 29.2745 32.74 29.2545 32.84ZM25.8745 32.21H28.4345C28.4345 32.0567 28.4178 31.9033 28.3845 31.75C28.3511 31.5967 28.2911 31.4433 28.2045 31.29C28.1178 31.1367 27.9911 31.0133 27.8245 30.92C27.6578 30.8267 27.4578 30.78 27.2245 30.78C26.8178 30.78 26.5011 30.9267 26.2745 31.22C26.0478 31.5133 25.9145 31.8433 25.8745 32.21Z" fill="#00AEC7"/>
<path d="M31.2542 35.1H30.3742V30.26H31.2542V35.1ZM30.8042 29.44H30.7942C30.6409 29.44 30.5142 29.3867 30.4142 29.28C30.3142 29.1733 30.2642 29.0467 30.2642 28.9C30.2642 28.74 30.3142 28.61 30.4142 28.51C30.5209 28.4033 30.6542 28.35 30.8142 28.35C30.9742 28.35 31.1042 28.4033 31.2042 28.51C31.3042 28.61 31.3542 28.74 31.3542 28.9C31.3542 29.0533 31.3042 29.1833 31.2042 29.29C31.1042 29.39 30.9709 29.44 30.8042 29.44Z" fill="#00AEC7"/>
<path d="M32.718 35.1V31.57C32.718 31.05 32.7046 30.6133 32.678 30.26H33.458L33.508 31.05H33.528C33.6613 30.8033 33.868 30.5933 34.148 30.42C34.428 30.24 34.7546 30.15 35.128 30.15C35.3146 30.15 35.498 30.1833 35.678 30.25C35.8646 30.31 36.048 30.4133 36.228 30.56C36.408 30.7 36.5546 30.9133 36.668 31.2C36.7813 31.48 36.838 31.8167 36.838 32.21V35.1H35.958V32.31C35.958 31.8833 35.868 31.5367 35.688 31.27C35.508 31.0033 35.2246 30.87 34.838 30.87C34.5646 30.87 34.3213 30.9567 34.108 31.13C33.8946 31.3033 33.7446 31.5167 33.658 31.77C33.618 31.8833 33.598 32.02 33.598 32.18V35.1H32.718Z" fill="#00AEC7"/>
<path d="M42.4048 31.58V34.39C42.4048 35.4367 42.1748 36.1767 41.7148 36.61C41.2815 36.9967 40.6915 37.19 39.9448 37.19C39.2715 37.19 38.7348 37.0567 38.3348 36.79L38.5548 36.11C38.9482 36.37 39.4215 36.5 39.9748 36.5C40.4548 36.5 40.8348 36.3633 41.1148 36.09C41.3948 35.8167 41.5348 35.3867 41.5348 34.8V34.27H41.5148C41.3748 34.51 41.1715 34.7067 40.9048 34.86C40.6448 35.0067 40.3348 35.08 39.9748 35.08C39.3748 35.08 38.8815 34.8567 38.4948 34.41C38.1082 33.9567 37.9148 33.39 37.9148 32.71C37.9148 31.93 38.1315 31.31 38.5648 30.85C38.9982 30.3833 39.5115 30.15 40.1048 30.15C40.8115 30.15 41.3148 30.43 41.6148 30.99H41.6348L41.6648 30.26H42.4448C42.4182 30.56 42.4048 31 42.4048 31.58ZM41.5248 33.03V32.16C41.5248 32 41.5082 31.87 41.4748 31.77C41.3882 31.4967 41.2382 31.2733 41.0248 31.1C40.8182 30.92 40.5582 30.83 40.2448 30.83C39.8182 30.83 39.4715 30.9967 39.2048 31.33C38.9382 31.6633 38.8048 32.11 38.8048 32.67C38.8048 33.1633 38.9282 33.5767 39.1748 33.91C39.4282 34.2433 39.7815 34.41 40.2348 34.41C40.5148 34.41 40.7648 34.33 40.9848 34.17C41.2115 34.0033 41.3682 33.78 41.4548 33.5C41.5015 33.3667 41.5248 33.21 41.5248 33.03Z" fill="#00AEC7"/>
<path d="M49.2699 34.26L49.4199 34.92C49.0266 35.1067 48.5633 35.2 48.0299 35.2C47.3033 35.2 46.7199 34.9733 46.2799 34.52C45.8399 34.0667 45.6199 33.47 45.6199 32.73C45.6199 31.9767 45.8566 31.36 46.3299 30.88C46.8099 30.3933 47.4399 30.15 48.2199 30.15C48.7133 30.15 49.1199 30.2367 49.4399 30.41L49.2399 31.08C48.9466 30.9267 48.6066 30.85 48.2199 30.85C47.6866 30.85 47.2666 31.0267 46.9599 31.38C46.6599 31.7267 46.5099 32.16 46.5099 32.68C46.5099 33.2267 46.6666 33.6667 46.9799 34C47.2999 34.3267 47.7033 34.49 48.1899 34.49C48.5633 34.49 48.9233 34.4133 49.2699 34.26Z" fill="#00AEC7"/>
<path d="M54.2837 32.84H50.8937C50.9004 33.4 51.0571 33.82 51.3638 34.1C51.6771 34.3733 52.0704 34.51 52.5438 34.51C53.0571 34.51 53.5037 34.4267 53.8838 34.26L54.0438 34.89C53.5838 35.0967 53.0438 35.2 52.4238 35.2C51.6904 35.2 51.1104 34.9767 50.6838 34.53C50.2571 34.0833 50.0438 33.4933 50.0438 32.76C50.0438 32.0133 50.2504 31.3933 50.6637 30.9C51.0837 30.4 51.6371 30.15 52.3237 30.15C52.6971 30.15 53.0204 30.2267 53.2938 30.38C53.5671 30.5267 53.7738 30.7233 53.9137 30.97C54.0537 31.21 54.1537 31.4533 54.2137 31.7C54.2804 31.94 54.3138 32.1833 54.3138 32.43C54.3138 32.6033 54.3037 32.74 54.2837 32.84ZM50.9038 32.21H53.4637C53.4637 32.0567 53.4471 31.9033 53.4137 31.75C53.3804 31.5967 53.3204 31.4433 53.2337 31.29C53.1471 31.1367 53.0204 31.0133 52.8537 30.92C52.6871 30.8267 52.4871 30.78 52.2537 30.78C51.8471 30.78 51.5304 30.9267 51.3037 31.22C51.0771 31.5133 50.9438 31.8433 50.9038 32.21Z" fill="#00AEC7"/>
<path d="M55.4035 35.1V31.57C55.4035 31.05 55.3902 30.6133 55.3635 30.26H56.1435L56.1935 31.05H56.2135C56.3469 30.8033 56.5535 30.5933 56.8335 30.42C57.1135 30.24 57.4402 30.15 57.8135 30.15C58.0002 30.15 58.1835 30.1833 58.3635 30.25C58.5502 30.31 58.7335 30.4133 58.9135 30.56C59.0935 30.7 59.2402 30.9133 59.3535 31.2C59.4669 31.48 59.5235 31.8167 59.5235 32.21V35.1H58.6435V32.31C58.6435 31.8833 58.5535 31.5367 58.3735 31.27C58.1935 31.0033 57.9102 30.87 57.5235 30.87C57.2502 30.87 57.0068 30.9567 56.7935 31.13C56.5802 31.3033 56.4302 31.5167 56.3435 31.77C56.3035 31.8833 56.2835 32.02 56.2835 32.18V35.1H55.4035Z" fill="#00AEC7"/>
<path d="M61.1113 29.37L61.9713 29.1V30.26H63.2313V30.93H61.9713V33.53C61.9713 34.1567 62.1913 34.47 62.6313 34.47C62.838 34.47 63.008 34.45 63.1413 34.41L63.1813 35.08C62.9547 35.16 62.6947 35.2 62.4013 35.2C61.9947 35.2 61.678 35.0767 61.4513 34.83C61.2247 34.5767 61.1113 34.1533 61.1113 33.56V30.93H60.3613V30.26H61.1113V29.37Z" fill="#00AEC7"/>
<path d="M68.0533 32.84H64.6633C64.67 33.4 64.8266 33.82 65.1333 34.1C65.4466 34.3733 65.8399 34.51 66.3133 34.51C66.8266 34.51 67.2733 34.4267 67.6533 34.26L67.8133 34.89C67.3533 35.0967 66.8133 35.2 66.1933 35.2C65.46 35.2 64.8799 34.9767 64.4533 34.53C64.0266 34.0833 63.8133 33.4933 63.8133 32.76C63.8133 32.0133 64.02 31.3933 64.4333 30.9C64.8533 30.4 65.4066 30.15 66.0933 30.15C66.4666 30.15 66.7899 30.2267 67.0633 30.38C67.3366 30.5267 67.5433 30.7233 67.6833 30.97C67.8233 31.21 67.9233 31.4533 67.9833 31.7C68.0499 31.94 68.0833 32.1833 68.0833 32.43C68.0833 32.6033 68.0733 32.74 68.0533 32.84ZM64.6733 32.21H67.2333C67.2333 32.0567 67.2166 31.9033 67.1833 31.75C67.1499 31.5967 67.09 31.4433 67.0033 31.29C66.9166 31.1367 66.7899 31.0133 66.6233 30.92C66.4566 30.8267 66.2566 30.78 66.0233 30.78C65.6166 30.78 65.2999 30.9267 65.0733 31.22C64.8466 31.5133 64.7133 31.8433 64.6733 32.21Z" fill="#00AEC7"/>
<path d="M69.173 35.1V31.77C69.173 31.1633 69.1597 30.66 69.133 30.26H69.903L69.943 31.21H69.973C70.0797 30.89 70.2564 30.6333 70.503 30.44C70.7497 30.2467 71.023 30.15 71.323 30.15C71.3764 30.15 71.4564 30.1567 71.563 30.17V31C71.443 30.9867 71.343 30.98 71.263 30.98C70.9564 30.98 70.6964 31.0833 70.483 31.29C70.2764 31.4967 70.143 31.7667 70.083 32.1C70.063 32.2333 70.053 32.37 70.053 32.51V35.1H69.173Z" fill="#00AEC7"/>
</g>
<defs>
<clipPath id="clip0">
<rect width="150" height="37.19" fill="white"/>
</clipPath>
</defs>
</svg>
