<svg width="18" height="29" viewBox="0 0 18 29" fill="none" xmlns="http://www.w3.org/2000/svg">
<path d="M8.26515 28C8.23236 28 8.19958 28 8.16679 28C5.2752 27.9932 3.22288 27.347 1.89183 26.0137C1.3345 25.4627 0.993536 24.6872 1.00009 24.0002C1.00665 23.4832 1.1968 23.0274 1.56399 22.6805C2.40327 21.8778 3.65564 22.0615 4.76376 22.2315C5.22274 22.2995 5.6555 22.3676 6.01613 22.354C8.41596 22.2655 9.56997 21.456 9.63554 19.7894C9.6421 19.6126 9.78635 19.4697 9.95683 19.4833C10.1273 19.4901 10.265 19.6398 10.2519 19.8166C10.1732 21.8302 8.75036 22.8982 6.0358 23.0002C5.62271 23.0138 5.16373 22.9458 4.67196 22.8709C3.65564 22.7213 2.60654 22.5648 1.98363 23.1566C1.74758 23.3879 1.623 23.6736 1.623 24.007C1.61644 24.5171 1.89183 25.1226 2.32459 25.5511C3.53106 26.7551 5.44568 27.347 8.16679 27.3538C10.4683 27.3606 13.0386 27.1769 14.5926 25.8096C15.8646 24.6872 16.0941 22.9866 16.2187 21.3404C16.3367 19.8302 16.4416 18.048 16.3564 16.2862C16.2777 14.64 16.1334 12.9257 15.445 11.6197C14.9794 10.7422 14.1598 10.266 13.0714 9.81702C12.9009 9.749 12.7173 9.68097 12.5271 9.61295C12.1862 9.83063 11.8452 10.0347 11.5239 10.2116C11.3272 10.3204 11.1305 10.4224 10.9338 10.5313C10.0617 11.0007 9.15689 11.4904 8.42907 12.1639C8.06844 12.4972 7.76026 12.9394 7.50454 13.4835C7.15703 14.2182 6.92754 15.1025 6.68493 16.0277C6.09481 18.2793 5.42601 20.837 2.81636 21.456C2.64588 21.4968 2.48195 21.388 2.44261 21.2111C2.40327 21.0343 2.50818 20.8642 2.67866 20.8234C4.92768 20.2928 5.5178 18.0344 6.0817 15.8576C6.3243 14.9393 6.57346 13.9869 6.94065 13.1978C7.22916 12.5788 7.58979 12.0686 8.00943 11.6741C8.79626 10.9462 9.73389 10.436 10.6453 9.94627C10.842 9.84423 11.0387 9.73539 11.2289 9.62655C11.3928 9.53812 11.5633 9.44289 11.7272 9.34085C10.4552 8.9327 9.05853 8.44973 8.34383 7.2593C7.32095 5.56548 7.63568 3.17782 9.05853 1.84454C9.70111 1.24592 10.5863 0.946613 11.5502 1.00784C12.6648 1.07586 13.7402 1.60645 14.4221 2.42275C15.3859 3.57236 15.6548 5.3274 15.0843 6.78993C14.704 7.76948 13.9697 8.54496 13.1566 9.16399C13.2025 9.17759 13.2418 9.198 13.2877 9.21841C14.2647 9.61975 15.3597 10.1503 15.9761 11.3068C16.7367 12.7353 16.8809 14.5311 16.9662 16.2522C17.058 18.048 16.9465 19.8575 16.8285 21.388C16.6908 23.1703 16.4351 25.0205 14.986 26.2994C13.3074 27.7891 10.6584 28 8.26515 28ZM11.3141 1.64727C10.5994 1.64727 9.95027 1.88535 9.47817 2.32751C8.2717 3.45672 8.00287 5.48386 8.87494 6.93958C9.49129 7.97356 10.7961 8.38851 12.0616 8.78985C12.1862 8.83067 12.3108 8.87148 12.4353 8.9123C13.314 8.30688 14.1336 7.5382 14.5139 6.55184C14.9925 5.30699 14.7696 3.81725 13.9565 2.8513C13.3861 2.17106 12.4485 1.71529 11.5108 1.65407C11.4452 1.64727 11.3797 1.64727 11.3141 1.64727Z" fill="white" stroke="white" stroke-width="0.3"/>
</svg>
