<svg width="39" height="39" viewBox="0 0 39 39" fill="none" xmlns="http://www.w3.org/2000/svg">
<path d="M29.9629 37.8939C30.4191 32.6982 34.114 30.1003 36.0755 25.7224C37.8089 21.9218 37.7633 17.159 37.7177 13.0697C37.7177 11.001 37.6265 8.93234 37.3072 6.91177C37.2159 6.0458 37.0791 4.12145 36.1667 3.68847C33.4297 2.38952 34.114 11.867 34.0684 12.7329" stroke="#00AEC7" stroke-miterlimit="10" stroke-linecap="round" stroke-linejoin="round"/>
<path d="M29.0938 27.3574C30.3255 24.1822 33.0625 21.7767 33.7923 18.4091C34.0204 17.4469 34.4309 15.1858 33.1993 14.7528C32.0133 14.3198 30.7816 16.2923 30.2342 17.062C29.185 18.5053 28.3183 20.141 27.0867 21.4399C25.8094 22.6908 24.2128 23.5086 22.9812 24.8076C19.5599 28.6082 21.9776 33.3229 21.9776 37.797" stroke="#00AEC7" stroke-miterlimit="10" stroke-linecap="round" stroke-linejoin="round"/>
<path d="M19.2435 20.1428C18.8786 19.9023 9.34473 13.7443 9.34473 7.20153C9.34473 4.02634 11.7624 1.47656 14.7731 1.47656C16.7802 1.47656 18.6049 2.63118 19.5172 4.45932C20.4296 2.67929 22.2542 1.47656 24.2613 1.47656C27.272 1.47656 29.6897 4.02634 29.6897 7.20153C29.6897 13.7443 20.1559 19.9023 19.7453 20.1428L19.4716 20.2872L19.2435 20.1428Z" stroke="#00AEC7" stroke-miterlimit="10" stroke-linecap="round" stroke-linejoin="round"/>
<path d="M24.2588 4.98828C25.3992 4.98828 26.3572 5.99857 26.3572 7.2013" stroke="#00AEC7" stroke-miterlimit="10" stroke-linecap="round" stroke-linejoin="round"/>
<path d="M9.06911 37.8939C8.61294 32.7463 4.918 30.1003 2.91087 25.7224C1.22306 21.9218 1.26867 17.159 1.26867 13.0697C1.26867 11.001 1.35991 8.93234 1.67922 6.91177C1.81607 6.0458 1.95292 4.12145 2.86525 3.68847C5.60225 2.38952 4.918 11.867 4.96362 12.7329" stroke="#00AEC7" stroke-miterlimit="10" stroke-linecap="round" stroke-linejoin="round"/>
<path d="M9.93597 27.3574C8.70432 24.1822 5.96733 21.7767 5.23746 18.4091C5.00938 17.4469 4.59883 15.1858 5.83048 14.7528C7.01651 14.3198 8.24816 16.2923 8.79556 17.062C9.84474 18.5053 10.7115 20.141 11.9431 21.4399C13.2204 22.6908 14.8169 23.5086 16.0486 24.8076C19.4698 28.6082 17.0522 33.3229 17.0522 37.797" stroke="#00AEC7" stroke-miterlimit="10" stroke-linecap="round" stroke-linejoin="round"/>
</svg>
