<svg width="1285" height="367" viewBox="0 0 1285 367" fill="none" xmlns="http://www.w3.org/2000/svg">
<path d="M-46 230.123C7.33333 151.123 156.9 -4.97659 328.5 2.62341C500.1 10.2234 644.5 160.936 725.5 230.123C901 384.935 974 374.635 1061.5 353.123C1160.22 328.854 1207.5 251 1233.5 153.5C1253.63 78.0212 1266.28 58.3153 1280 44.6515" stroke="#00AEC7" stroke-width="3"/>
<circle cx="656" cy="168" r="5" fill="#00AEC7"/>
<circle cx="656" cy="168" r="2.5" fill="white"/>
<circle cx="878" cy="338" r="5" fill="#00AEC7"/>
<circle cx="878" cy="338" r="2.5" fill="white"/>
<circle cx="1167" cy="289" r="5" fill="#00AEC7"/>
<circle cx="1167" cy="289" r="2.5" fill="white"/>
<circle cx="1280" cy="45" r="5" fill="#00AEC7"/>
<circle cx="1280" cy="45" r="2.5" fill="white"/>
<circle cx="156" cy="46" r="5" fill="#00AEC7"/>
<circle cx="156" cy="46" r="2.5" fill="white"/>
</svg>
