<svg width="34" height="31" viewBox="0 0 34 31" fill="none" xmlns="http://www.w3.org/2000/svg">
<path d="M6.39798 30.29C5.96492 30.29 5.53186 30.29 5.10713 30.2816C4.95723 30.2816 4.81565 30.2816 4.66574 30.2816C3.89956 30.2731 3.11672 30.2731 2.33389 30.1797C1.4178 30.0694 1.25124 29.4328 1.2096 28.8302C0.951427 25.0702 0.934771 21.2593 1.14297 17.4908C1.18461 16.7948 1.21793 15.9036 1.25124 14.8681C1.4178 10.5904 1.65931 4.12285 2.70865 1.36439C2.80859 1.09279 3.09174 0.965477 3.33325 0.889089C4.82398 0.39681 9.90409 0.261008 14.1597 0.294959C15.0508 0.303446 22.8959 0.388322 23.8036 0.982452C25.1028 1.84818 24.7114 4.99707 24.3699 7.77251C24.2617 8.62975 24.1701 9.37666 24.1617 9.86045C24.1034 12.9924 23.9619 16.1582 23.7453 19.2817C23.737 19.392 23.7204 19.6551 23.7037 20.0286C23.687 20.2747 23.6787 20.5803 23.6537 20.9198C24.0951 20.8943 24.5698 20.9622 25.0528 21.1829C27.8594 22.4815 31.4321 23.7291 32.5148 23.466C32.7313 23.4151 32.9395 23.5509 32.9895 23.7631C33.0395 23.9753 32.9062 24.196 32.698 24.2469C30.7909 24.7052 24.9696 22.0316 24.728 21.9128C24.345 21.7346 23.9702 21.6921 23.6121 21.7261C23.5788 22.2438 23.5455 22.8125 23.5121 23.3642C23.4622 24.1196 22.9292 24.7392 22.2296 24.8835C21.63 25.0023 21.1387 24.7222 20.8805 24.1196C20.5973 23.4575 20.8555 22.6088 21.5551 21.9043C21.8799 21.5733 22.3296 21.2677 22.8542 21.0895C22.8792 20.6651 22.8959 20.2917 22.9125 19.9946C22.9292 19.6212 22.9458 19.3496 22.9542 19.2307C23.1707 16.1243 23.3123 12.9669 23.3706 9.85196C23.3789 9.32574 23.4788 8.56185 23.5871 7.67915C23.8369 5.65062 24.2617 2.25559 23.3789 1.66995C22.9125 1.41532 18.7901 1.12674 13.3852 1.10977C7.49728 1.07582 3.95786 1.38986 3.41653 1.71238C2.44215 4.38597 2.20896 10.7007 2.05073 14.8936C2.00909 15.9291 1.97578 16.8287 1.93414 17.5332C1.72594 21.2677 1.74259 25.0532 2.00076 28.7708C2.03408 29.3055 2.12568 29.3394 2.43382 29.3734C3.16669 29.4583 3.93287 29.4667 4.67407 29.4667C4.82398 29.4667 4.97388 29.4667 5.11546 29.4667C7.51394 29.4922 9.93741 29.4413 12.086 29.3988C12.2609 29.3988 12.4358 29.3904 12.6107 29.3819C13.0105 29.3734 13.4352 29.3649 13.8433 29.3649H21.9048C21.9631 29.2206 22.0881 28.8472 22.2296 27.8965C22.2629 27.6759 22.4628 27.5231 22.6793 27.557C22.8959 27.591 23.0458 27.7947 23.0125 28.0154C22.771 29.645 22.5378 30.1627 22.0547 30.1627H13.8433C13.4435 30.1627 13.0271 30.1712 12.6274 30.1797C12.4525 30.1882 12.2693 30.1882 12.0944 30.1967C10.3372 30.2476 8.38006 30.29 6.39798 30.29ZM22.7959 21.9722C22.5211 22.108 22.2879 22.2863 22.0964 22.473C21.6467 22.9228 21.4468 23.4491 21.5884 23.797C21.7133 24.0941 21.8632 24.1281 22.0631 24.0941C22.4212 24.0262 22.6877 23.7037 22.7127 23.3133C22.746 22.8634 22.771 22.4136 22.7959 21.9722Z" fill="white" stroke="white" stroke-width="0.3"/>
<path d="M7.3835 8.28258C7.18011 8.28258 7.00926 8.14079 7.00112 7.95422C6.98485 7.76019 7.14757 7.58855 7.3591 7.58108C10.4263 7.39452 13.5423 7.2975 16.6095 7.29004C16.821 7.29004 16.9919 7.44676 17 7.64079C17 7.83481 16.8291 7.99899 16.6176 7.99899C13.5667 8.01392 10.467 8.11093 7.41605 8.29004C7.39978 8.28258 7.39164 8.28258 7.3835 8.28258Z" fill="white" stroke="white" stroke-width="0.3"/>
<path d="M7.3835 21.2826C7.18011 21.2826 7.00926 21.1408 7.00112 20.9542C6.98485 20.7602 7.14757 20.5885 7.3591 20.5811C10.4263 20.3945 13.5423 20.2975 16.6095 20.29C16.821 20.29 16.9919 20.4468 17 20.6408C17 20.8348 16.8291 20.999 16.6176 20.999C13.5667 21.0139 10.467 21.1109 7.41605 21.29C7.39978 21.2826 7.39164 21.2826 7.3835 21.2826Z" fill="white" stroke="white" stroke-width="0.3"/>
<path d="M9.50762 12.29C8.78297 12.29 8.06684 12.2717 7.37629 12.226C7.15463 12.2077 6.98413 12.0066 7.00118 11.7596C7.01823 11.5219 7.21431 11.339 7.43597 11.3573C9.02167 11.467 10.7864 11.4121 12.4915 11.3573C14.2136 11.3024 16.0039 11.2384 17.6237 11.3573C17.8454 11.3756 18.0159 11.5767 17.9988 11.8237C17.9818 12.0614 17.7857 12.2443 17.564 12.226C15.9783 12.1163 14.2136 12.1712 12.5085 12.226C11.5196 12.2626 10.5051 12.29 9.50762 12.29Z" fill="white" stroke="white" stroke-width="0.3"/>
<path d="M7.41032 16.29C7.20217 16.29 7.02005 16.1532 7.0027 15.9632C6.97668 15.7655 7.14146 15.5907 7.37563 15.5679C10.7493 15.2714 14.1924 15.2106 17.6094 15.3931C17.8349 15.4083 18.0084 15.5755 17.9997 15.7731C17.9823 15.9708 17.7915 16.1228 17.5661 16.1152C14.201 15.9404 10.8013 15.9936 7.46235 16.29C7.43634 16.29 7.42766 16.29 7.41032 16.29Z" fill="white" stroke="white" stroke-width="0.3"/>
</svg>
