<svg width="24" height="24" viewBox="0 0 24 24" fill="none" xmlns="http://www.w3.org/2000/svg">
<path d="M14.5714 15.0039L15.4286 16.8489C15.4286 16.8489 19.2857 17.6681 19.2857 19.6165C19.2857 21.0003 17.5714 21.0003 17.5714 21.0003H13L10.75 19.7503" stroke="#00AEC7" stroke-width="1.3" stroke-linecap="round" stroke-linejoin="round"/>
<path d="M9.42912 15.0039L8.57198 16.8489C8.57198 16.8489 4.71484 17.6681 4.71484 19.6165C4.71484 21.0003 6.42912 21.0003 6.42912 21.0003H8.50055L10.7506 19.7503L13.5006 18.0003" stroke="#00AEC7" stroke-width="1.3" stroke-linecap="round" stroke-linejoin="round"/>
<path d="M3 15.9261C3 15.9261 5.14286 15.4649 6.42857 15.0036C7.71429 8.54595 11.5714 9.00721 12 9.00721C12.4286 9.00721 16.2857 8.54595 17.5714 15.0036C18.8571 15.4649 21 15.9261 21 15.9261" stroke="#00AEC7" stroke-width="1.3" stroke-linecap="round" stroke-linejoin="round"/>
<path d="M12 7C13.1046 7 14 6.10457 14 5C14 3.89543 13.1046 3 12 3C10.8954 3 10 3.89543 10 5C10 6.10457 10.8954 7 12 7Z" stroke="#00AEC7" stroke-width="1.3" stroke-linecap="round" stroke-linejoin="round"/>
</svg>
