<svg width="30" height="30" viewBox="0 0 30 30" fill="none" xmlns="http://www.w3.org/2000/svg">
<path d="M15.5024 14.8222C12.5348 14.8222 10.125 12.3972 10.125 9.41109C10.125 6.42494 12.5348 4 15.5024 4C18.4699 4 20.8798 6.42494 20.8798 9.41109C20.8798 12.3972 18.4699 14.8222 15.5024 14.8222ZM15.5024 4.77598C12.9617 4.77598 10.8961 6.8545 10.8961 9.41109C10.8961 11.9677 12.9617 14.0462 15.5024 14.0462C18.043 14.0462 20.1086 11.9677 20.1086 9.41109C20.1086 6.8545 18.043 4.77598 15.5024 4.77598Z" fill="white" stroke="white" stroke-width="0.45"/>
<path d="M25.6144 25.0007C25.401 25.0007 25.2289 24.8275 25.2289 24.6127C25.2289 19.2155 20.8636 14.8229 15.5 14.8229C10.1364 14.8229 5.77115 19.2155 5.77115 24.6127C5.77115 24.8275 5.59902 25.0007 5.38557 25.0007C5.17213 25.0007 5 24.8275 5 24.6127C5 18.7859 9.70951 14.0469 15.5 14.0469C21.2905 14.0469 26 18.7859 26 24.6127C26 24.8275 25.8279 25.0007 25.6144 25.0007Z" fill="white" stroke="white" stroke-width="0.45"/>
<path d="M25.9972 24.0977H5.38281V24.9983H25.9972V24.0977Z" fill="white" stroke="white" stroke-width="0.45"/>
</svg>
