<svg width="24" height="24" viewBox="0 0 24 24" fill="none" xmlns="http://www.w3.org/2000/svg">
<path fill-rule="evenodd" clip-rule="evenodd" d="M18.5833 20C18.5833 20 20 20 20 18.5833C20 17.1667 18.5833 12.9167 11.5 12.9167C4.41667 12.9167 3 17.1667 3 18.5833C3 20 4.41667 20 4.41667 20H18.5833ZM4.42375 18.6627V18.6598V18.6627ZM4.44783 18.5833H18.5522C18.5588 18.5826 18.5654 18.5816 18.572 18.5805L18.5833 18.5777C18.5819 18.2292 18.3652 17.1808 17.4047 16.2203C16.481 15.2967 14.7428 14.3333 11.5 14.3333C8.25583 14.3333 6.519 15.2967 5.59533 16.2203C4.63483 17.1808 4.4195 18.2292 4.41667 18.5777C4.42704 18.5797 4.43742 18.5816 4.44783 18.5833ZM18.5777 18.6627V18.6598V18.6627ZM11.5 10.0833C12.2514 10.0833 12.9721 9.78482 13.5035 9.25347C14.0348 8.72212 14.3333 8.00145 14.3333 7.25C14.3333 6.49855 14.0348 5.77788 13.5035 5.24653C12.9721 4.71518 12.2514 4.41667 11.5 4.41667C10.7486 4.41667 10.0279 4.71518 9.49653 5.24653C8.96518 5.77788 8.66667 6.49855 8.66667 7.25C8.66667 8.00145 8.96518 8.72212 9.49653 9.25347C10.0279 9.78482 10.7486 10.0833 11.5 10.0833ZM15.75 7.25C15.75 8.37717 15.3022 9.45817 14.5052 10.2552C13.7082 11.0522 12.6272 11.5 11.5 11.5C10.3728 11.5 9.29183 11.0522 8.4948 10.2552C7.69777 9.45817 7.25 8.37717 7.25 7.25C7.25 6.12283 7.69777 5.04183 8.4948 4.2448C9.29183 3.44777 10.3728 3 11.5 3C12.6272 3 13.7082 3.44777 14.5052 4.2448C15.3022 5.04183 15.75 6.12283 15.75 7.25Z" fill="#00AEC7"/>
</svg>
