<svg width="17" height="17" viewBox="0 0 17 17" fill="none" xmlns="http://www.w3.org/2000/svg">
<path fill-rule="evenodd" clip-rule="evenodd" d="M2.18225 7.51154L2.84335 4.04876C2.93799 3.5508 3.30843 3.18104 3.8073 3.08658L7.28318 2.42533C7.69011 2.34841 8.07542 2.46581 8.3688 2.75865L15.5436 9.93117L9.69506 15.769L2.51483 8.59383C2.22281 8.30099 2.10384 7.91638 2.18225 7.51154Z" stroke="#00AEC7" stroke-width="1.35" stroke-miterlimit="2.6131" stroke-linecap="round" stroke-linejoin="round"/>
<path d="M5.16152 6.32358C5.66925 6.32358 6.08085 5.91274 6.08085 5.40593C6.08085 4.89913 5.66925 4.48828 5.16152 4.48828C4.65379 4.48828 4.24219 4.89913 4.24219 5.40593C4.24219 5.91274 4.65379 6.32358 5.16152 6.32358Z" stroke="#00AEC7" stroke-width="1.35" stroke-miterlimit="2.6131" stroke-linecap="round" stroke-linejoin="round"/>
<path d="M5.01895 4.58239C6.11562 3.60479 6.32407 2.20565 5.48562 1.45824C4.64717 0.710831 3.09706 0.480799 2.00038 1.45839C0.903707 2.43599 1.16188 4.25236 2.00033 4.99977" stroke="#00AEC7" stroke-width="1.35" stroke-miterlimit="2.6131" stroke-linecap="round" stroke-linejoin="round"/>
</svg>
