<svg width="27" height="32" viewBox="0 0 27 32" fill="none" xmlns="http://www.w3.org/2000/svg">
<path d="M20.6193 5C20.4693 5 20.3265 4.98369 20.1837 4.95106C19.6909 4.8287 19.3124 4.49426 19.1196 4.00483C18.8625 3.36042 19.0553 2.61812 19.3624 2.16948C19.4124 2.09607 19.4695 2.02265 19.5267 1.95739C19.7838 1.6719 20.1051 1.45165 20.5407 1.2722C21.1049 1.0438 21.8976 0.839869 22.4403 1.18247C22.7117 1.35377 22.8974 1.64742 22.9688 2.02265C23.0902 2.64259 22.8688 3.66223 22.1047 4.42084C21.7262 4.77976 21.1549 5 20.6193 5ZM21.7405 1.75347C21.4834 1.75347 21.1477 1.83504 20.7764 1.98187C20.4336 2.12054 20.1908 2.28368 20.0123 2.48761C19.9766 2.52839 19.9337 2.57734 19.9052 2.62628C19.6909 2.93625 19.6267 3.37673 19.7409 3.67039C19.848 3.93957 20.048 4.11087 20.3336 4.18429C20.7693 4.29033 21.3406 4.12719 21.6691 3.80906C22.069 3.40936 22.4189 2.69154 22.3189 2.16132C22.2761 1.94924 22.1904 1.87582 22.1261 1.83504C22.0261 1.77794 21.8976 1.75347 21.7405 1.75347Z" fill="white" stroke="white" stroke-width="0.3"/>
<path d="M12.1116 31C10.1801 31 8.39762 30.8053 6.70039 30.4015C5.40794 30.0986 4.22911 29.5073 3.29173 28.7069C2.27624 27.82 1.5661 26.6951 1.25364 25.4476C0.905673 24.0414 0.983788 22.592 1.09031 21.4815C1.5661 16.5709 2.61 10.4776 6.47315 6.87214C8.62486 4.8675 11.6429 3.80027 14.5545 4.03102C17.4021 4.25456 19.9941 5.62465 22.0393 8.00426C23.8573 10.1099 25.1426 12.9005 25.661 15.857C25.938 17.4218 26.0374 18.6981 25.9877 19.8735C25.9238 21.3734 25.5971 22.6425 25.0006 23.753C24.8586 24.0198 24.6953 24.2794 24.539 24.5318C24.9651 25.1447 25.2989 25.7865 25.5474 26.4571C25.7036 26.8753 25.8954 27.5027 25.796 28.1517C25.6894 28.8367 25.2279 29.4136 24.6526 29.5794C24.0632 29.7525 23.3886 29.5073 22.9767 28.9737C22.643 28.5411 22.4867 27.9498 22.5364 27.308C22.6146 26.2624 23.1685 25.3899 23.7153 24.5534C22.7353 23.2843 21.315 22.1522 19.4828 21.1715C18.2969 20.5369 17.0258 20.0033 15.8043 19.4841C14.9664 19.1308 14.1071 18.7702 13.2621 18.3664C12.8502 18.5034 12.4667 18.6404 12.0903 18.7919C9.62615 19.7798 7.11227 20.9696 5.37243 23.0175C4.86113 23.616 4.30013 24.5101 4.49897 25.3466C4.54157 25.5269 4.43505 25.7144 4.25042 25.7648C4.07288 25.8081 3.88825 25.6999 3.83854 25.5125C3.6184 24.6111 3.95926 23.6232 4.85403 22.5704C6.69329 20.4071 9.29239 19.1668 11.8347 18.1501C12.0193 18.078 12.2039 18.0059 12.3886 17.941C12.2892 17.8905 12.1897 17.84 12.0903 17.7823C11.2169 17.3208 10.2298 16.7223 9.51963 15.8065C8.3337 14.2922 8.14907 12.028 9.06514 10.3046C9.96702 8.60998 11.8702 7.50671 13.8018 7.56439C15.6978 7.62208 17.5158 8.77583 18.4318 10.4993C19.1065 11.7684 19.2343 13.2538 18.7798 14.4653C18.0058 16.5204 16.06 17.3785 14.1852 18.0347C14.8102 18.3159 15.4351 18.5755 16.0529 18.8423C17.2956 19.3615 18.5739 19.9023 19.7882 20.5585C21.6204 21.5392 23.0619 22.6713 24.0916 23.9405C24.1982 23.7674 24.3047 23.5871 24.397 23.4141C25.0077 22.2747 25.7392 20.2629 24.9793 15.9652C24.4822 13.1313 23.2537 10.4632 21.5138 8.44413C19.5823 6.20152 17.1536 4.91076 14.4835 4.70164C11.7566 4.48532 8.92312 5.48043 6.90633 7.36249C3.23492 10.8237 2.22653 16.7656 1.75784 21.5464C1.65842 22.5992 1.5803 23.9765 1.90697 25.2745C2.44667 27.4234 4.34274 29.1324 6.85662 29.7309C11.6003 30.8558 16.3796 30.1563 20.4273 29.3343C20.612 29.2982 20.7895 29.4136 20.825 29.6011C20.8605 29.7886 20.7469 29.9688 20.5623 30.0049C17.8921 30.5529 15.7049 30.8486 13.6668 30.9567C13.1342 30.9856 12.6229 31 12.1116 31ZM24.1413 25.1375C23.6727 25.8586 23.2679 26.5581 23.2111 27.3513C23.1756 27.82 23.2821 28.2454 23.5093 28.5411C23.7508 28.8511 24.1484 29.0026 24.468 28.9088C24.8515 28.8007 25.0716 28.3896 25.1284 28.0291C25.1852 27.6613 25.1213 27.2359 24.9154 26.6806C24.7237 26.1542 24.4609 25.635 24.1413 25.1375ZM13.6668 8.25664C12.0335 8.25664 10.4428 9.20128 9.67586 10.6363C8.88051 12.1289 9.04384 14.0831 10.0593 15.3883C10.6914 16.1959 11.6074 16.7512 12.417 17.1838C12.7081 17.3424 13.0064 17.4867 13.3047 17.6381H13.3118C15.3286 16.9531 17.4093 16.2464 18.162 14.2417C18.5526 13.2106 18.4318 11.9414 17.8495 10.8454C17.0471 9.33108 15.4493 8.32154 13.7947 8.27107C13.752 8.25664 13.7094 8.25664 13.6668 8.25664Z" fill="white" stroke="white" stroke-width="0.3"/>
</svg>
