<svg width="30" height="32" viewBox="0 0 30 32" fill="none" xmlns="http://www.w3.org/2000/svg">
<path d="M14.6203 31C13.7306 31 12.7817 30.9314 11.7734 30.8019C10.2165 30.5963 8.45205 30.3677 7.03603 29.3317C5.70897 28.3566 4.87863 26.8179 4.14467 25.3248C3.3514 23.7174 2.20227 21.0436 1.54986 19.3982C1.11245 18.2936 0.734344 17.1281 1.24589 16.092C1.75003 15.0789 2.75088 14.4161 4.12984 14.1724C5.03432 14.0124 5.95362 14.0581 6.84327 14.1038C7.91085 14.1571 8.9117 14.2028 9.8829 13.9362C11.6622 13.4411 11.8475 10.8434 11.9662 9.1218L11.981 8.87041C12.07 7.58301 12.0329 6.25752 11.9958 4.98536L11.9884 4.72635C11.981 4.55114 11.9588 4.33785 11.9365 4.11693C11.8475 3.21042 11.7215 1.96872 12.5889 1.36692C12.967 1.10792 13.4489 0.986034 14.0791 1.00127C14.6722 1.01651 15.1837 1.22218 15.4877 1.5726C15.7249 1.83922 15.8361 2.18202 15.8139 2.57053L15.7842 3.00474C15.6656 4.7873 15.547 6.63079 15.5099 8.44382C15.5025 8.80947 15.4729 9.18274 15.4432 9.58648C15.3394 10.9881 15.2356 12.4279 15.9622 13.4715C17.0446 15.0256 19.7877 14.6523 21.604 14.4085C21.7152 14.3933 21.8264 14.3781 21.9376 14.3628C22.0563 14.3476 22.1675 14.3323 22.2861 14.3171C23.7614 14.119 25.4295 13.8905 26.8307 14.6218C27.3571 14.8961 27.713 15.3379 27.8761 15.9245C28.0836 16.6634 28.0243 18.065 27.1569 19.5581C27.0605 19.7333 26.8381 19.7867 26.675 19.6876C26.5045 19.5886 26.4526 19.3601 26.549 19.1925C27.0383 18.3469 27.4461 17.029 27.194 16.1301C27.0828 15.734 26.853 15.4522 26.5045 15.2693C25.2961 14.6371 23.7392 14.8504 22.3676 15.0332C22.249 15.0484 22.1304 15.0637 22.0118 15.0789C21.908 15.0941 21.7968 15.1094 21.6856 15.1246C19.7061 15.3912 16.711 15.795 15.3839 13.8905C14.5091 12.6336 14.6277 10.9805 14.7315 9.52554C14.7611 9.13703 14.7834 8.77138 14.7908 8.42097C14.8353 6.5927 14.9539 4.74159 15.0651 2.95142L15.0948 2.5172C15.1096 2.32676 15.0577 2.1744 14.9539 2.05252C14.776 1.85446 14.4349 1.73257 14.042 1.71734C13.5675 1.7021 13.2191 1.7859 12.967 1.95349C12.4481 2.31152 12.537 3.22565 12.6186 4.02552C12.6408 4.26167 12.6631 4.48258 12.6705 4.68826L12.6779 4.94727C12.715 6.24229 12.752 7.58301 12.6556 8.9085L12.6408 9.15227C12.5074 11.0796 12.3072 13.9819 10.0386 14.6142C8.9636 14.9113 7.85895 14.858 6.78396 14.8123C5.89431 14.7666 5.04914 14.7285 4.22622 14.8732C3.41812 15.0179 2.35054 15.3988 1.84641 16.412C1.46089 17.1814 1.79451 18.1717 2.17261 19.1163C2.81761 20.7541 3.95932 23.3975 4.73777 24.9896C5.43466 26.3989 6.2131 27.8539 7.40671 28.7299C8.68188 29.6593 10.35 29.8802 11.8253 30.0783C14.902 30.482 17.3708 30.2535 19.3577 29.3774C20.492 28.8746 21.5225 28.1738 22.4195 27.2825C22.553 27.1454 22.768 26.9397 23.0126 26.6731C22.8125 26.3836 22.6642 26.0561 22.5901 25.7209C22.4492 25.1191 22.5382 24.5249 22.8347 24.045C23.1609 23.5117 24.0802 23.0699 24.6807 23.3061C24.8735 23.3822 25.3035 23.6412 25.1775 24.4183C25.0514 25.18 24.5399 25.9723 23.9616 26.6731C24.0432 26.7417 24.1247 26.8026 24.2137 26.8559C24.7994 27.2064 25.5556 27.2597 26.2376 27.0007C27.1199 26.6655 27.7204 25.8656 28.358 24.9286C28.4692 24.7611 28.6916 24.723 28.8473 24.8372C29.0104 24.9515 29.0474 25.18 28.9362 25.34C28.395 26.1399 27.6462 27.2444 26.4823 27.6787C25.6 28.0062 24.6214 27.9377 23.8578 27.473C23.7244 27.3968 23.6057 27.3054 23.4871 27.1987C23.2869 27.412 23.0942 27.6101 22.9163 27.7929C21.9599 28.7451 20.8552 29.4993 19.6394 30.0325C18.2308 30.6801 16.5627 31 14.6203 31ZM24.3545 23.9688C24.0876 23.9688 23.6354 24.1745 23.4723 24.4411C23.2202 24.8449 23.2499 25.2714 23.3166 25.5609C23.3611 25.7514 23.4426 25.9418 23.539 26.1246C23.9987 25.5609 24.4287 24.8982 24.525 24.3116C24.5399 24.205 24.5547 24.0298 24.4732 23.9917C24.4361 23.9764 24.399 23.9688 24.3545 23.9688Z" fill="white" stroke="white" stroke-width="0.3"/>
</svg>
