<svg width="18" height="18" viewBox="0 0 18 18" fill="none" xmlns="http://www.w3.org/2000/svg">
<path d="M6.05167 10.1926C6.23123 9.83353 6.33256 9.42822 6.33256 8.9998C6.33256 8.57138 6.23123 8.16608 6.05167 7.80699V10.1926ZM6.05167 10.1926C5.78296 10.7298 5.34074 11.1606 4.79664 11.4151C4.25254 11.6696 3.63844 11.733 3.05383 11.5949C2.46922 11.4569 1.94834 11.1255 1.57557 10.6545C1.20281 10.1835 1 9.60045 1 8.9998C1 8.39915 1.20281 7.8161 1.57557 7.34509C1.94834 6.87408 2.46922 6.54272 3.05383 6.40468C3.63844 6.26664 4.25254 6.33001 4.79664 6.58452C5.34074 6.83904 5.78296 7.26979 6.05167 7.80699V10.1926ZM6.05167 10.1926L11.9468 13.14L6.05167 10.1926ZM6.05167 7.80699L11.9468 4.85962L6.05167 7.80699ZM11.9468 4.85962C12.1035 5.17285 12.3203 5.45216 12.5849 5.6816C12.8495 5.91103 13.1567 6.08611 13.489 6.19683C13.8212 6.30756 14.1721 6.35175 14.5214 6.3269C14.8708 6.30205 15.2118 6.20863 15.5251 6.05199C15.8383 5.89535 16.1176 5.67855 16.3471 5.41396C16.5765 5.14938 16.7516 4.84219 16.8624 4.50994C16.9731 4.1777 17.0173 3.82689 16.9924 3.47757C16.9676 3.12824 16.8742 2.78723 16.7175 2.474C16.4011 1.84141 15.8464 1.3604 15.1753 1.13679C14.5043 0.913179 13.7719 0.96528 13.1393 1.28163C12.5066 1.59799 12.0256 2.15268 11.802 2.82368C11.5783 3.49469 11.6304 4.22704 11.9468 4.85962V4.85962ZM11.9468 13.14C11.6304 13.7727 11.5784 14.5051 11.8021 15.1762C12.0258 15.8473 12.507 16.4021 13.1397 16.7184C13.7725 17.0348 14.505 17.0868 15.1761 16.8631C15.8472 16.6394 16.402 16.1583 16.7184 15.5256C17.0348 14.8929 17.0868 14.1604 16.8631 13.4893C16.6394 12.8183 16.1582 12.2635 15.5255 11.9472C15.2122 11.7905 14.8711 11.6971 14.5217 11.6723C14.1723 11.6475 13.8214 11.6917 13.4891 11.8025C12.818 12.0261 12.2632 12.5073 11.9468 13.14V13.14Z" stroke="white" stroke-width="2" stroke-linecap="round" stroke-linejoin="round"/>
</svg>
