<svg width="24" height="24" viewBox="0 0 24 24" fill="none" xmlns="http://www.w3.org/2000/svg">
<path d="M3 15V14.25C3 11.3505 5.23858 9 8 9C9.00113 9 9.93353 9.30894 10.7155 9.84097" stroke="#00AEC7" stroke-width="1.3" stroke-linecap="round" stroke-linejoin="round"/>
<path d="M8 9C9.65683 9 11 7.65683 11 6C11 4.34314 9.65683 3 8 3C6.34314 3 5 4.34314 5 6C5 7.65683 6.34314 9 8 9Z" stroke="#00AEC7" stroke-width="1.3" stroke-linecap="round" stroke-linejoin="round"/>
<line x1="21" y1="4.91924" x2="3.91924" y2="22" stroke="#00AEC7" stroke-width="1.3" stroke-linecap="round"/>
<path d="M20.3235 17.5V12.9C20.3235 12.4029 19.9345 12 19.4545 12H18M20.3235 17.5H12.6765L12.0333 19.855C11.8765 20.4294 12.2931 21 12.8695 21H20.1305C20.7069 21 21.1236 20.4294 20.9667 19.855L20.3235 17.5Z" stroke="#00AEC7" stroke-width="1.3" stroke-linecap="round"/>
<path d="M16 19H17" stroke="#00AEC7" stroke-width="1.3" stroke-linecap="round" stroke-linejoin="round"/>
</svg>
