<svg width="28" height="25" viewBox="0 0 28 25" fill="none" xmlns="http://www.w3.org/2000/svg">
<path d="M10 24H1V15H10V24Z" fill="#00AEC7" stroke="white" stroke-miterlimit="10"/>
<path d="M10.6612 19C10.0447 19 6.83474 17.8345 6.80374 17.8241C6.66597 17.769 5.81526 17.4034 4.95766 17.0103C3.17701 16.1897 3.11846 16.0552 3.04613 15.8828C2.97036 15.7138 2.91181 15.5793 3.52143 13.7138C3.81419 12.8138 4.12416 11.9414 4.17927 11.8034C4.23438 11.6655 4.59946 10.8138 4.9921 9.95517C5.81181 8.17241 5.94614 8.11379 6.11835 8.04138C6.18379 8.01379 6.25611 8 6.33877 8C6.95528 8 10.1653 9.16552 10.1963 9.17586C10.334 9.23103 11.1847 9.59655 12.0423 9.98966C13.823 10.8103 13.8815 10.9448 13.9539 11.1172C14.0296 11.2862 14.0882 11.4207 13.4786 13.2862C13.1858 14.1862 12.8758 15.0586 12.8207 15.1966C12.7656 15.3345 12.4005 16.1862 12.0079 17.0448C11.1882 18.8276 11.0539 18.8862 10.8817 18.9586C10.8162 18.9862 10.7439 19 10.6612 19Z" fill="#00AEC7" stroke="white" stroke-miterlimit="10"/>
<path d="M13.2965 16C12.4791 16 10.121 14.5572 9.78359 14.3173C9.75924 14.2999 7.15066 12.2765 7.00805 11.4248C6.86545 10.573 8.66364 7.8091 8.68103 7.78477C8.69842 7.76043 10.7227 5.15645 11.5748 5.01043C11.6166 5.00348 11.6583 5 11.7035 5C12.5209 5 14.879 6.44279 15.2164 6.68268C15.2408 6.70006 17.8493 8.72345 17.9919 9.57522C18.1345 10.427 16.3364 13.1909 16.319 13.2152C16.3016 13.2396 14.2773 15.8436 13.4252 15.9896C13.3834 15.9965 13.3417 16 13.2965 16Z" fill="#00AEC7" stroke="white" stroke-miterlimit="10"/>
<path d="M17.4744 12C16.4812 12 14.853 11.1468 14.2216 10.6655C13.5014 10.1195 12.1497 8.6587 12.0132 7.68601C11.88 6.71331 12.788 4.94198 13.3341 4.22184C13.8802 3.50171 15.3411 2.15017 16.3139 2.01365C16.3788 2.00341 16.4505 2 16.5256 2C17.5188 2 19.147 2.85324 19.7784 3.33447C20.4986 3.88055 21.8503 5.3413 21.9868 6.31399C22.12 7.28669 21.212 9.05802 20.6659 9.77816C20.1198 10.4983 18.6589 11.8498 17.6861 11.9863C17.6212 11.9966 17.5495 12 17.4744 12Z" fill="#00AEC7" stroke="white" stroke-miterlimit="10"/>
<path d="M22.5 10C21.2982 10 20.1699 9.53264 19.3186 8.68138C18.4674 7.83012 18 6.70178 18 5.5C18 4.29822 18.4674 3.16988 19.3186 2.31862C20.1699 1.46736 21.2982 1 22.5 1C23.7018 1 24.8301 1.46736 25.6814 2.31862C26.5326 3.16988 27 4.29822 27 5.5C27 6.70178 26.5326 7.83012 25.6814 8.68138C24.8301 9.53264 23.7018 10 22.5 10Z" fill="#00AEC7" stroke="white" stroke-miterlimit="10"/>
</svg>
