<svg width="24" height="24" viewBox="0 0 24 24" fill="none" xmlns="http://www.w3.org/2000/svg">
<path d="M4.80504 14.6914C4.80504 14.6914 4.91613 16.0511 4.94195 16.4799C4.97637 17.0549 5.19856 17.6972 5.56939 18.1431C6.09279 18.7753 6.70928 18.9982 7.53231 18.9998C8.50008 19.0014 15.5373 19.0014 16.5051 18.9998C17.3281 18.9982 17.9446 18.7753 18.468 18.1431C18.8388 17.6972 19.061 17.0549 19.0962 16.4799C19.1213 16.0511 19.2323 14.6914 19.2323 14.6914" stroke="#00AEC7" stroke-width="1.5" stroke-linecap="round" stroke-linejoin="round"/>
<path d="M9.25809 6.75205V6.4618C9.25809 5.50734 10.031 4.73438 10.9855 4.73438H13.0055C13.9592 4.73438 14.733 5.50734 14.733 6.4618L14.7338 6.75205" stroke="#00AEC7" stroke-width="1.5" stroke-linecap="round" stroke-linejoin="round"/>
<path d="M11.9955 15.6295V14.6172" stroke="#00AEC7" stroke-width="1.5" stroke-linecap="round" stroke-linejoin="round"/>
<path fill-rule="evenodd" clip-rule="evenodd" d="M4.76263 9.14633V11.8587C6.26318 12.8484 8.06102 13.5416 10.0341 13.8162C10.2704 12.9548 11.0472 12.3235 11.9915 12.3235C12.921 12.3235 13.7135 12.9548 13.9341 13.824C15.915 13.5494 17.7199 12.8562 19.2283 11.8587V9.14633C19.2283 7.82103 18.1619 6.75391 16.8366 6.75391H7.1621C5.8368 6.75391 4.76263 7.82103 4.76263 9.14633Z" stroke="#00AEC7" stroke-width="1.5" stroke-linecap="round" stroke-linejoin="round"/>
</svg>
