<svg width="40" height="40" viewBox="0 0 40 40" fill="none" xmlns="http://www.w3.org/2000/svg">
<path d="M30.0208 31.2426C32.364 28.8995 32.364 25.1005 30.0208 22.7574C27.6777 20.4142 23.8787 20.4142 21.5355 22.7574C19.1924 25.1005 19.1924 28.8995 21.5355 31.2426C23.8787 33.5858 27.6777 33.5858 30.0208 31.2426Z" stroke="white" stroke-miterlimit="10"/>
<path d="M27.5 32.5C30.8137 32.5 33.5 29.8137 33.5 26.5C33.5 23.1863 30.8137 20.5 27.5 20.5C24.1863 20.5 21.5 23.1863 21.5 26.5C21.5 29.8137 24.1863 32.5 27.5 32.5Z" stroke="white" stroke-miterlimit="10"/>
<path d="M10.768 20C9.45181 20 8.08374 19.5175 7.05532 18.6141C6.72982 18.3256 6.44205 18.0087 6.1873 17.6634C5.95143 17.7533 5.70612 17.8195 5.45137 17.7674C5.00793 17.6823 4.76262 17.3323 4.65412 16.8924C3.31435 16.339 2.01704 15.5349 1.38961 14.395C0.960317 13.6098 0.884837 12.7395 1.16789 11.7982C1.46509 10.8238 2.24819 9.99606 3.29076 9.52306C3.27189 9.20142 3.27661 8.90816 3.31435 8.65274C3.01243 6.78912 3.87101 4.84036 5.38061 3.99369C6.77699 3.20851 8.39981 3.39771 9.88111 4.03626C10.3859 3.47339 10.919 2.9389 11.4803 2.43752C12.2729 1.72802 13.4758 0.815131 14.8062 1.03271C17.9197 1.54355 19.1934 6.55735 18.9764 8.98857C18.8491 10.3934 18.283 11.5806 17.3159 12.4651C17.7405 13.5719 17.7122 14.6315 17.2357 15.393C16.8488 16.0126 16.2073 16.3957 15.6365 16.6843C15.3723 16.8167 15.1034 16.9397 14.8298 17.0532C14.575 18.1364 13.9193 18.9972 12.9145 19.5081C12.2634 19.8392 11.5228 20 10.768 20ZM6.51753 17.5215C6.74397 17.8195 6.99871 18.0985 7.28176 18.3492C8.79608 19.6831 11.0982 20.0426 12.7493 19.2006C13.5985 18.7702 14.1646 18.0844 14.4288 17.2093C11.9757 18.1175 9.16405 18.2357 6.51753 17.5215C6.52225 17.5215 6.52225 17.5215 6.51753 17.5215ZM7.03174 17.2944C9.56032 17.8904 12.2163 17.7107 14.5278 16.8025C14.5986 16.4147 14.6128 15.9937 14.575 15.5491C14.5278 15.0288 14.391 14.5132 14.1693 14.0166C13.3956 14.1916 12.5654 14.272 11.7021 14.2531C11.669 14.2531 11.6313 14.2531 11.5983 14.2483C10.2349 15.4829 8.68758 16.5187 7.03174 17.2944ZM5.08341 17.0627C5.17776 17.2519 5.31929 17.3843 5.51742 17.4269C5.66366 17.4553 5.81934 17.4222 5.97973 17.3701C5.68725 17.2755 5.38533 17.1762 5.08341 17.0627ZM6.20617 17.0674C6.30524 17.0958 6.40431 17.1242 6.49866 17.1525C8.15922 16.4241 9.72543 15.4261 11.1029 14.2199C9.31501 14.1112 7.7771 13.6949 6.52225 12.976C6.21089 12.7962 5.91369 12.5976 5.64007 12.38C5.42307 13.1226 5.24852 13.8794 5.11643 14.6409C5.39948 15.5254 5.74386 16.3484 6.20617 17.0674ZM4.95604 16.6417C5.20607 16.741 5.45609 16.8309 5.70612 16.9113C5.4325 16.4336 5.20606 15.9227 5.00793 15.3835C4.98434 15.5538 4.96547 15.7241 4.9466 15.8944C4.9183 16.1403 4.9183 16.4005 4.95604 16.6417ZM14.5137 13.9267C14.7354 14.4423 14.8722 14.9767 14.9241 15.5112C14.9619 15.9038 14.9524 16.2822 14.9052 16.6417C15.0987 16.5566 15.2921 16.4667 15.4808 16.3721C16.0139 16.1025 16.6035 15.7572 16.9432 15.2085C17.4668 14.3666 17.2498 13.326 17.0328 12.7063C16.8583 12.8482 16.6696 12.9807 16.4714 13.1037C15.8959 13.4584 15.2355 13.7375 14.5137 13.9267ZM3.32378 9.89673C2.42746 10.3366 1.75757 11.0556 1.50283 11.9022C1.24808 12.7489 1.30941 13.5294 1.69625 14.2294C2.24819 15.2369 3.38511 15.9653 4.59279 16.4903C4.57392 16.2822 4.58336 16.0694 4.60223 15.8613C4.64468 15.4734 4.69658 15.0855 4.76262 14.6977C4.25313 13.9314 3.50305 11.6421 3.32378 9.89673ZM4.14463 10.7529C4.20124 10.9941 4.25313 11.24 4.30974 11.4907C4.49372 12.3043 4.67771 13.1273 4.89943 13.922C5.02208 13.3212 5.17304 12.7253 5.34759 12.1387C4.87584 11.7272 4.47014 11.259 4.14463 10.7529ZM13.2447 12.555C12.8437 13.0233 12.4191 13.4773 11.971 13.903C12.655 13.903 13.3485 13.8368 14.0184 13.6949C13.8108 13.2976 13.5513 12.9145 13.2447 12.555ZM5.74858 12.0252C6.04106 12.2665 6.35713 12.484 6.69208 12.678C7.97995 13.4158 9.5839 13.8226 11.4709 13.8936C12.0181 13.3922 12.5323 12.8577 13.0088 12.2948C12.7824 12.0536 12.5323 11.8313 12.2634 11.6184C11.1737 10.767 9.76317 10.1474 7.95165 9.72645C7.59784 9.64604 7.17798 9.55617 6.72038 9.49468C6.34298 10.3177 6.01747 11.1644 5.74858 12.0252ZM13.4711 12.2854C13.8297 12.7016 14.1316 13.1462 14.3674 13.6145C15.3109 13.3733 16.1884 12.9712 16.9055 12.38C15.7827 9.7974 14.1221 7.53173 12.0983 5.83366C11.4756 5.30863 10.7491 4.82617 9.98017 4.46196C9.38105 5.15254 8.82439 5.88096 8.31961 6.64249C10.5463 6.61884 12.3531 7.03035 13.8061 7.89121C14.1693 8.10879 14.6128 8.41624 14.825 8.88451C15.1175 9.54198 14.9194 10.3366 14.2259 11.3157C13.9759 11.6468 13.7306 11.9685 13.4711 12.2854ZM10.2113 4.18762C10.9756 4.55656 11.6973 5.03902 12.3153 5.55932C14.3533 7.27158 16.0327 9.54198 17.1744 12.1293C17.9669 11.3678 18.5047 10.3272 18.6273 8.95546C18.8444 6.54316 17.5329 1.83208 14.7448 1.37327C13.5655 1.17934 12.4474 2.03547 11.7068 2.69767C11.1831 3.16594 10.6831 3.66732 10.2113 4.18762ZM6.87134 9.16831C7.29592 9.2298 7.68747 9.31021 8.02713 9.39062C9.89054 9.82105 11.3435 10.4643 12.4757 11.3441C12.7493 11.557 12.9994 11.784 13.2352 12.0252C13.4758 11.7272 13.7117 11.4245 13.9334 11.1123C14.5514 10.242 14.7401 9.5609 14.4995 9.02641C14.3297 8.64801 13.9617 8.39259 13.6221 8.1892C12.1738 7.32834 10.3529 6.93575 8.08374 6.99251C7.63558 7.69255 7.23459 8.42097 6.87134 9.16831ZM3.95593 9.64604C4.272 10.4265 4.79564 11.1596 5.46553 11.7793C5.71555 10.9894 6.01747 10.2136 6.35713 9.45684C5.66366 9.39062 4.91358 9.40008 4.18709 9.58455C4.10689 9.60347 4.03141 9.62239 3.95593 9.64604ZM3.80025 10.8096C3.86158 11.1265 3.93706 11.4529 4.01726 11.7745C4.0031 11.7036 3.98423 11.6374 3.97008 11.5664C3.91819 11.3157 3.86158 11.0603 3.80025 10.8096ZM3.66344 8.62436C3.66816 8.64801 3.67288 8.66693 3.67288 8.69058C3.71062 8.90343 3.76723 9.11155 3.83327 9.31967C3.91819 9.29129 4.00782 9.26764 4.09745 9.24399C4.91358 9.0406 5.75329 9.0406 6.50809 9.12101C6.85247 8.39732 7.23459 7.68782 7.65916 7.0067C7.24402 7.02562 6.81001 7.06346 6.36657 7.11076C5.48911 7.21009 4.40881 7.41821 3.82384 8.19866C3.74836 8.30272 3.69647 8.44935 3.66344 8.62436ZM7.42329 3.82341C6.77699 3.82341 6.14013 3.96531 5.55516 4.29641C4.34748 4.97753 3.59268 6.42491 3.60212 7.92432C4.27672 7.09657 5.40892 6.86953 6.33355 6.76547C6.87134 6.70398 7.39027 6.66614 7.89032 6.64722C8.41868 5.82893 9.00365 5.04375 9.64051 4.3106C8.91402 4.00788 8.15922 3.82341 7.42329 3.82341Z" fill="white"/>
<path d="M6.51753 17.5215C6.74397 17.8195 6.99871 18.0985 7.28176 18.3492C8.79608 19.6831 11.0982 20.0426 12.7493 19.2006C13.5985 18.7702 14.1646 18.0844 14.4288 17.2093C11.9757 18.1175 9.16405 18.2357 6.51753 17.5215ZM6.51753 17.5215C6.52225 17.5215 6.52225 17.5215 6.51753 17.5215ZM10.768 20C9.45181 20 8.08374 19.5175 7.05532 18.6141C6.72982 18.3256 6.44205 18.0087 6.1873 17.6634C5.95143 17.7533 5.70612 17.8195 5.45137 17.7674C5.00793 17.6823 4.76262 17.3323 4.65412 16.8924C3.31435 16.339 2.01704 15.5349 1.38961 14.395C0.960317 13.6098 0.884837 12.7395 1.16789 11.7982C1.46509 10.8238 2.24819 9.99606 3.29076 9.52306C3.27189 9.20142 3.27661 8.90816 3.31435 8.65274C3.01243 6.78912 3.87101 4.84036 5.38061 3.99369C6.77699 3.20851 8.39981 3.39771 9.88111 4.03626C10.3859 3.47339 10.919 2.9389 11.4803 2.43752C12.2729 1.72802 13.4758 0.815131 14.8062 1.03271C17.9197 1.54355 19.1934 6.55735 18.9764 8.98857C18.8491 10.3934 18.283 11.5806 17.3159 12.4651C17.7405 13.5719 17.7122 14.6315 17.2357 15.393C16.8488 16.0126 16.2073 16.3957 15.6365 16.6843C15.3723 16.8167 15.1034 16.9397 14.8298 17.0532C14.575 18.1364 13.9193 18.9972 12.9145 19.5081C12.2634 19.8392 11.5228 20 10.768 20ZM7.03174 17.2944C9.56032 17.8904 12.2163 17.7107 14.5278 16.8025C14.5986 16.4147 14.6128 15.9937 14.575 15.5491C14.5278 15.0288 14.391 14.5132 14.1693 14.0166C13.3956 14.1916 12.5654 14.272 11.7021 14.2531C11.669 14.2531 11.6313 14.2531 11.5983 14.2483C10.2349 15.4829 8.68758 16.5187 7.03174 17.2944ZM5.08341 17.0627C5.17776 17.2519 5.31929 17.3843 5.51742 17.4269C5.66366 17.4553 5.81934 17.4222 5.97973 17.3701C5.68725 17.2755 5.38533 17.1762 5.08341 17.0627ZM6.20617 17.0674C6.30524 17.0958 6.40431 17.1242 6.49866 17.1525C8.15922 16.4241 9.72543 15.4261 11.1029 14.2199C9.31501 14.1112 7.7771 13.6949 6.52225 12.976C6.21089 12.7962 5.91369 12.5976 5.64007 12.38C5.42307 13.1226 5.24852 13.8794 5.11643 14.6409C5.39948 15.5254 5.74386 16.3484 6.20617 17.0674ZM4.95604 16.6417C5.20607 16.741 5.45609 16.8309 5.70612 16.9113C5.4325 16.4336 5.20606 15.9227 5.00793 15.3835C4.98434 15.5538 4.96547 15.7241 4.9466 15.8944C4.9183 16.1403 4.9183 16.4005 4.95604 16.6417ZM14.5137 13.9267C14.7354 14.4423 14.8722 14.9767 14.9241 15.5112C14.9619 15.9038 14.9524 16.2822 14.9052 16.6417C15.0987 16.5566 15.2921 16.4667 15.4808 16.3721C16.0139 16.1025 16.6035 15.7572 16.9432 15.2085C17.4668 14.3666 17.2498 13.326 17.0328 12.7063C16.8583 12.8482 16.6696 12.9807 16.4714 13.1037C15.8959 13.4584 15.2355 13.7375 14.5137 13.9267ZM3.32378 9.89673C2.42746 10.3366 1.75757 11.0556 1.50283 11.9022C1.24808 12.7489 1.30941 13.5294 1.69625 14.2294C2.24819 15.2369 3.38511 15.9653 4.59279 16.4903C4.57392 16.2822 4.58336 16.0694 4.60223 15.8613C4.64468 15.4734 4.69658 15.0855 4.76262 14.6977C4.25313 13.9314 3.50305 11.6421 3.32378 9.89673ZM4.14463 10.7529C4.20124 10.9941 4.25313 11.24 4.30974 11.4907C4.49372 12.3043 4.67771 13.1273 4.89943 13.922C5.02208 13.3212 5.17304 12.7253 5.34759 12.1387C4.87584 11.7272 4.47014 11.259 4.14463 10.7529ZM13.2447 12.555C12.8437 13.0233 12.4191 13.4773 11.971 13.903C12.655 13.903 13.3485 13.8368 14.0184 13.6949C13.8108 13.2976 13.5513 12.9145 13.2447 12.555ZM5.74858 12.0252C6.04106 12.2665 6.35713 12.484 6.69208 12.678C7.97995 13.4158 9.5839 13.8226 11.4709 13.8936C12.0181 13.3922 12.5323 12.8577 13.0088 12.2948C12.7824 12.0536 12.5323 11.8313 12.2634 11.6184C11.1737 10.767 9.76317 10.1474 7.95165 9.72645C7.59784 9.64604 7.17798 9.55617 6.72038 9.49468C6.34298 10.3177 6.01747 11.1644 5.74858 12.0252ZM13.4711 12.2854C13.8297 12.7016 14.1316 13.1462 14.3674 13.6145C15.3109 13.3733 16.1884 12.9712 16.9055 12.38C15.7827 9.7974 14.1221 7.53173 12.0983 5.83366C11.4756 5.30863 10.7491 4.82617 9.98017 4.46196C9.38105 5.15254 8.82439 5.88096 8.31961 6.64249C10.5463 6.61884 12.3531 7.03035 13.8061 7.89121C14.1693 8.10879 14.6128 8.41624 14.825 8.88451C15.1175 9.54198 14.9194 10.3366 14.2259 11.3157C13.9759 11.6468 13.7306 11.9685 13.4711 12.2854ZM10.2113 4.18762C10.9756 4.55656 11.6973 5.03902 12.3153 5.55932C14.3533 7.27158 16.0327 9.54198 17.1744 12.1293C17.9669 11.3678 18.5047 10.3272 18.6273 8.95546C18.8444 6.54316 17.5329 1.83208 14.7448 1.37327C13.5655 1.17934 12.4474 2.03547 11.7068 2.69767C11.1831 3.16594 10.6831 3.66732 10.2113 4.18762ZM6.87134 9.16831C7.29592 9.2298 7.68747 9.31021 8.02713 9.39062C9.89054 9.82105 11.3435 10.4643 12.4757 11.3441C12.7493 11.557 12.9994 11.784 13.2352 12.0252C13.4758 11.7272 13.7117 11.4245 13.9334 11.1123C14.5514 10.242 14.7401 9.5609 14.4995 9.02641C14.3297 8.64801 13.9617 8.39259 13.6221 8.1892C12.1738 7.32834 10.3529 6.93575 8.08374 6.99251C7.63558 7.69255 7.23459 8.42097 6.87134 9.16831ZM3.95593 9.64604C4.272 10.4265 4.79564 11.1596 5.46553 11.7793C5.71555 10.9894 6.01747 10.2136 6.35713 9.45684C5.66366 9.39062 4.91358 9.40008 4.18709 9.58455C4.10689 9.60347 4.03141 9.62239 3.95593 9.64604ZM3.80025 10.8096C3.86158 11.1265 3.93706 11.4529 4.01726 11.7745C4.0031 11.7036 3.98423 11.6374 3.97008 11.5664C3.91819 11.3157 3.86158 11.0603 3.80025 10.8096ZM3.66344 8.62436C3.66816 8.64801 3.67288 8.66693 3.67288 8.69058C3.71062 8.90343 3.76723 9.11155 3.83327 9.31967C3.91819 9.29129 4.00782 9.26764 4.09745 9.24399C4.91358 9.0406 5.75329 9.0406 6.50809 9.12101C6.85247 8.39732 7.23459 7.68782 7.65916 7.0067C7.24402 7.02562 6.81001 7.06346 6.36657 7.11076C5.48911 7.21009 4.40881 7.41821 3.82384 8.19866C3.74836 8.30272 3.69647 8.44935 3.66344 8.62436ZM7.42329 3.82341C6.77699 3.82341 6.14013 3.96531 5.55516 4.29641C4.34748 4.97753 3.59268 6.42491 3.60212 7.92432C4.27672 7.09657 5.40892 6.86953 6.33355 6.76547C6.87134 6.70398 7.39027 6.66614 7.89032 6.64722C8.41868 5.82893 9.00365 5.04375 9.64051 4.3106C8.91402 4.00788 8.15922 3.82341 7.42329 3.82341Z" stroke="white" stroke-width="0.3"/>
</svg>
