<svg width="1279" height="1455" viewBox="0 0 1279 1455" fill="none" xmlns="http://www.w3.org/2000/svg">
<path d="M496.938 4.72363C576.438 4.72385 674.944 59.2842 674.944 149.001C674.944 184.295 655.361 233.25 641.865 258.5C610.992 316.266 583.21 356.69 609.567 420.5C655.003 530.5 810.219 551.272 908.756 564.772C908.756 564.772 947.719 571.349 1019.88 587.272C1121.16 609.617 1209.01 641.061 1249.8 726.272C1305.09 841.772 1270.61 961.274 1195.61 1042.77C1174.1 1066.15 1088.57 1127.5 993.061 1149.27C814.561 1184.78 542.35 1216.39 367.352 1240.77C200.64 1264 70.0726 1339.31 31.2317 1392.77C17.1724 1412.12 8.60013 1431.24 4.63477 1450" stroke="#00AEC7" stroke-width="2"/>
<circle cx="668" cy="110" r="5" fill="#00AEC7"/>
<circle cx="668" cy="110" r="2.5" fill="white"/>
<circle cx="497" cy="5" r="5" fill="#00AEC7"/>
<circle cx="497" cy="5" r="2.5" fill="white"/>
<circle cx="606" cy="410" r="5" fill="#00AEC7"/>
<circle cx="606" cy="410" r="2.5" fill="white"/>
<circle cx="1272" cy="795" r="5" fill="#00AEC7"/>
<circle cx="1272" cy="795" r="2.5" fill="white"/>
<circle cx="704" cy="1196" r="5" fill="#00AEC7"/>
<circle cx="704" cy="1196" r="2.5" fill="white"/>
<circle cx="5" cy="1450" r="5" fill="#00AEC7"/>
<circle cx="5" cy="1450" r="2.5" fill="white"/>
</svg>
