<svg width="30" height="23" viewBox="0 0 30 23" fill="none" xmlns="http://www.w3.org/2000/svg">
<path d="M17.5059 8C18.3294 8 19 7.32143 19 6.4881C19 6.22024 18.7824 6 18.5176 6C18.2529 6 18.0353 6.22024 18.0353 6.4881C18.0353 6.78571 17.7941 7.02976 17.5 7.02976C17.2059 7.02976 16.9647 6.78571 16.9647 6.4881C16.9647 6.22024 16.7471 6 16.4824 6C16.2176 6 16 6.22024 16 6.4881C16.0118 7.32738 16.6824 8 17.5059 8Z" fill="white"/>
<path d="M15.3133 10.9807C15.3667 10.9961 15.4261 11 15.4855 11C15.5092 11 15.5271 11 15.5508 10.9961C16.4595 10.9151 17 10.6641 17 10.3166C17 10.1429 16.7802 10 16.513 10C16.507 10 16.5011 10 16.4952 10C16.2754 10.0077 16.0913 10.1081 16.0438 10.2471C15.9666 10.2819 15.7587 10.3398 15.4202 10.3707C15.1529 10.3938 14.9688 10.5521 15.0044 10.7259C15.0282 10.8456 15.1529 10.9382 15.3133 10.9807Z" fill="white"/>
<path d="M12.5059 8C13.3294 8 14 7.32143 14 6.4881C14 6.22024 13.7824 6 13.5176 6C13.2529 6 13.0353 6.22024 13.0353 6.4881C13.0353 6.78571 12.7941 7.02976 12.5 7.02976C12.2059 7.02976 11.9647 6.78571 11.9647 6.4881C11.9647 6.22024 11.7471 6 11.4824 6C11.2176 6 11 6.22024 11 6.4881C11.0118 7.32738 11.6824 8 12.5059 8Z" fill="white"/>
<path d="M25.5272 13C25.2615 13 25.043 13.2202 25.043 13.4881C25.043 13.7857 24.8009 14.0238 24.5057 14.0238C24.2104 14.0238 23.9684 13.7798 23.9684 13.4881C23.9684 13.2202 23.7499 13 23.4842 13C23.2185 13 23 13.2202 23 13.4881C23 14.3214 23.6731 15 24.4998 15C25.3264 15 25.9995 14.3214 25.9995 13.4881C26.0114 13.2143 25.7929 13 25.5272 13Z" fill="white"/>
<path d="M23.5205 18C23.2924 18 23.0994 18.2045 23.0526 18.4848C22.9415 18.5833 22.5906 18.7652 22 18.7652C21.4094 18.7652 21.0526 18.5833 20.9474 18.4848C20.9006 18.2121 20.7135 18.0076 20.4854 18H20.4795C20.2164 18 20 18.2803 20 18.6212C20 19.4773 20.8012 19.9015 21.6842 19.9848C21.7895 19.9924 21.8947 20 22 20C22.9942 20 24 19.5758 24 18.6212C23.9942 18.2803 23.7836 18 23.5205 18Z" fill="white"/>
<path d="M6 13.4881C6 13.2202 5.78235 13 5.51765 13C5.25294 13 5.03529 13.2202 5.03529 13.4881C5.03529 13.7857 4.79412 14.0238 4.5 14.0238C4.20588 14.0238 3.96471 13.7798 3.96471 13.4881C3.96471 13.2202 3.74706 13 3.48235 13C3.21765 13 3 13.2202 3 13.4881C3 14.3214 3.67059 15 4.49412 15C5.32941 14.994 6 14.3155 6 13.4881Z" fill="white"/>
<path d="M9.52047 18C9.2924 18 9.09942 18.2045 9.05263 18.4848C8.94152 18.5833 8.59064 18.7652 8 18.7652C7.40936 18.7652 7.05263 18.5833 6.94737 18.4848C6.90058 18.2045 6.7076 18 6.47953 18C6.21637 18 6 18.2803 6 18.6212C6 19.5758 7.00585 20 8 20C8.99415 20 10 19.5758 10 18.6212C9.99415 18.2803 9.78363 18 9.52047 18Z" fill="white"/>
<path d="M11.5272 13C11.2615 13 11.043 13.2202 11.043 13.4881C11.043 13.7857 10.8009 14.0238 10.5057 14.0238C10.2104 14.0238 9.96836 13.7798 9.96836 13.4881C9.96836 13.2202 9.74989 13 9.48418 13C9.21847 13 9 13.2202 9 13.4881C9 14.3214 9.67313 15 10.4998 15C11.3264 15 11.9995 14.3214 11.9995 13.4881C12.0114 13.2143 11.7929 13 11.5272 13Z" fill="white"/>
<path d="M29.6206 12.9978C29.6147 12.9748 29.6087 12.9518 29.6028 12.9289C29.4073 12.3665 29.1466 11.8271 28.8266 11.3221C28.8088 11.2934 28.7911 11.2705 28.7674 11.2475C28.1393 10.2949 27.3038 9.48578 26.3202 8.88323C26.2965 8.86028 26.2728 8.84306 26.2432 8.82585C26.0062 8.68812 25.7632 8.55614 25.5203 8.44137C24.6967 8.05689 23.8197 7.82161 22.9132 7.72979C22.9132 7.70684 22.9132 7.67814 22.9132 7.65519C22.9132 3.43738 19.3639 0 15.0029 0C10.6418 0 7.09259 3.43738 7.09259 7.66093C7.09259 7.68388 7.09259 7.70684 7.09259 7.72405C3.11671 8.12001 0 11.3852 0 15.3391C0 19.5626 3.54926 23 7.91028 23C11.0151 23 13.7112 21.2555 15.0029 18.7248C16.3124 21.3244 19.0321 23 22.1014 23C22.1843 23 22.2614 23 22.3384 22.9943C22.3562 22.9943 22.3799 23 22.3976 23C22.4036 23 22.4095 23 22.4154 23C26.6698 22.8336 29.9998 19.4765 29.9998 15.3563C30.0057 14.5357 29.8695 13.738 29.6206 12.9978ZM15.0029 0.935379C18.8306 0.935379 21.9414 3.9481 21.9414 7.65519C21.9414 7.66667 21.9414 7.68388 21.9414 7.69536C21.9414 7.81587 21.9355 7.93638 21.9296 8.05115C21.9236 8.0741 21.9177 8.10279 21.9177 8.13149C21.9058 8.30364 21.8881 8.47006 21.8584 8.63648C21.4318 11.4828 19.1743 13.7323 16.2827 14.2545C16.2709 14.2545 16.259 14.2602 16.2472 14.2602C16.2176 14.266 16.1879 14.2717 16.1583 14.2774C16.1287 14.2832 16.0991 14.2889 16.0753 14.2889C16.0576 14.2889 16.0457 14.2947 16.0279 14.2947C15.9865 14.3004 15.945 14.3061 15.9035 14.3119C15.8976 14.3119 15.8976 14.3119 15.8917 14.3119C15.8443 14.3176 15.7909 14.3234 15.7435 14.3291C15.6902 13.9561 15.6132 13.5888 15.5065 13.233C15.3762 12.7912 15.2043 12.3723 15.0029 11.9648C13.8356 9.66941 11.5188 8.01672 8.7813 7.72405C8.72797 7.71831 8.67465 7.71258 8.62724 7.70684C8.60947 7.70684 8.59762 7.70684 8.57984 7.7011C8.53836 7.69536 8.49689 7.69536 8.45541 7.68962C8.43171 7.68962 8.40208 7.68388 8.37838 7.68388C8.34283 7.68388 8.30728 7.67814 8.27172 7.67814C8.23617 7.67814 8.20062 7.67814 8.17099 7.67241C8.14137 7.67241 8.11767 7.67241 8.08804 7.67241C8.08212 7.67241 8.07026 7.67241 8.06434 7.67241C8.06434 7.66093 8.06434 7.65519 8.06434 7.64371C8.06434 3.95384 11.1751 0.935379 15.0029 0.935379ZM7.91028 22.0646C4.08253 22.0646 0.97175 19.0519 0.97175 15.3448C0.97175 11.764 3.88107 8.82585 7.52514 8.63648C7.55476 8.64222 7.59031 8.64222 7.62587 8.64222C7.67327 8.64222 7.71475 8.63648 7.76215 8.63648C7.80955 8.63074 7.86288 8.63074 7.91028 8.63074C7.96953 8.63074 8.02286 8.63074 8.08211 8.63074C8.11767 8.63074 8.14729 8.63074 8.18285 8.63648C8.20655 8.63648 8.23025 8.63648 8.25395 8.63648C8.30135 8.63648 8.34875 8.64222 8.39616 8.64222C8.40208 8.64222 8.41393 8.64222 8.41986 8.64222C11.2462 8.84306 13.6341 10.7081 14.4992 13.256C14.6711 13.7725 14.7836 14.3119 14.8251 14.8743L14.831 14.9374C14.8429 15.0751 14.8547 15.2128 14.8547 15.3505C14.8547 15.4252 14.8547 15.4998 14.8488 15.5744C14.8488 15.5916 14.8488 15.6145 14.8488 15.6317C14.8429 15.7006 14.8429 15.7695 14.837 15.8383C14.837 15.8441 14.837 15.8498 14.837 15.8555C14.831 15.9301 14.8251 16.0047 14.8133 16.0793C14.8133 16.0966 14.8073 16.108 14.8073 16.1252C14.8014 16.1941 14.7896 16.263 14.7777 16.3318C14.7777 16.3376 14.7777 16.3433 14.7777 16.3491C14.7659 16.4237 14.754 16.4983 14.7362 16.5729C14.7362 16.5843 14.7303 16.6015 14.7303 16.613C14.7185 16.6819 14.7007 16.745 14.6888 16.8139C14.6888 16.8196 14.6829 16.8311 14.6829 16.8368C14.6651 16.9114 14.6474 16.9803 14.6296 17.0492C14.6237 17.0664 14.6177 17.0836 14.6118 17.1065C14.594 17.1639 14.5762 17.2213 14.5585 17.2787C13.6875 20.0447 11.0388 22.0646 7.91028 22.0646ZM26.8179 20.2857C26.7883 20.3029 26.7527 20.3258 26.729 20.3488C26.5513 20.5037 26.3617 20.6529 26.1661 20.7907C25.1766 21.485 24.039 21.9039 22.8361 22.0245C22.5932 22.0474 22.3502 22.0646 22.1014 22.0646C22.0244 22.0646 21.9414 22.0646 21.8644 22.0589C18.9491 21.9671 16.4309 20.1422 15.5124 17.4566V17.4508C15.5361 17.3705 15.5539 17.2959 15.5776 17.2156C15.5835 17.1984 15.5836 17.1869 15.5895 17.1697C15.6073 17.1008 15.625 17.0319 15.6369 16.9631C15.6369 16.9516 15.6428 16.9401 15.6428 16.9229C15.6606 16.8426 15.6784 16.7565 15.6902 16.6761C15.6902 16.6704 15.6902 16.6704 15.6902 16.6647C15.7021 16.5901 15.7139 16.5097 15.7258 16.4351C15.7258 16.4179 15.7317 16.4007 15.7317 16.3835C15.7317 16.372 15.7317 16.3663 15.7376 16.3548C15.7495 16.2859 15.7554 16.2228 15.7613 16.1539C15.7613 16.1482 15.7613 16.1425 15.7613 16.1367C15.7672 16.0564 15.7791 15.976 15.785 15.89C15.785 15.8728 15.785 15.8555 15.7909 15.8383C15.7969 15.7752 15.7969 15.7121 15.8028 15.649C15.8028 15.626 15.8028 15.603 15.8028 15.5858C15.8028 15.5342 15.8028 15.4768 15.8087 15.4251C15.8087 15.3965 15.8087 15.3735 15.8087 15.3448C15.8087 15.3219 15.8087 15.2989 15.8087 15.2702C15.8324 15.2702 15.8561 15.2645 15.8857 15.2645C15.9035 15.2645 15.9213 15.2587 15.9331 15.2587C15.9746 15.253 16.0161 15.2473 16.0576 15.2415C16.0813 15.2358 16.105 15.2358 16.1287 15.23C16.1583 15.2243 16.1879 15.2243 16.2176 15.2186C19.6898 14.7021 22.3799 12.0337 22.8361 8.67665C26.3143 9.03817 29.034 11.896 29.034 15.362C29.034 15.6719 29.0103 15.976 28.9688 16.2745C28.9688 16.2859 28.9629 16.2974 28.9629 16.3146C28.8859 16.8311 28.7496 17.3361 28.5481 17.8181C28.5363 17.8411 28.5303 17.8698 28.5244 17.8927C28.1452 18.8051 27.5586 19.6257 26.8179 20.2857Z" fill="white"/>
</svg>
