<svg width="18" height="18" viewBox="0 0 18 18" fill="none" xmlns="http://www.w3.org/2000/svg">
<path d="M9 0C13.9701 0 18 4.02991 18 9C18 13.9701 13.9701 18 9 18C4.02991 18 0 13.9701 0 9C0 4.02991 4.02991 0 9 0ZM9 16.4732C13.1263 16.4732 16.4732 13.1263 16.4732 9C16.4732 4.87366 13.1263 1.52679 9 1.52679C4.87366 1.52679 1.52679 4.87366 1.52679 9C1.52679 13.1263 4.87366 16.4732 9 16.4732Z" fill="#00AEC7"/>
<path d="M5.49208 11.5439L8.35681 9.47265V4.50056C8.35681 4.41217 8.42913 4.33984 8.51752 4.33984H9.48382C9.57221 4.33984 9.64453 4.41217 9.64453 4.50056V10.0331C9.64453 10.0854 9.62042 10.1336 9.57824 10.1637L6.25547 12.5865C6.18315 12.6387 6.0827 12.6226 6.03047 12.5523L5.45592 11.7689C5.40369 11.6945 5.41976 11.5941 5.49208 11.5439Z" fill="#00AEC7"/>
</svg>
