<svg width="24" height="25" viewBox="0 0 24 25" fill="none" xmlns="http://www.w3.org/2000/svg">
<path fill-rule="evenodd" clip-rule="evenodd" d="M4.3 12.7351C4.3 8.67579 7.59071 5.38508 11.65 5.38508C15.7093 5.38508 19 8.67579 19 12.7351C19 16.7944 15.7093 20.0851 11.65 20.0851C7.59071 20.0851 4.3 16.7944 4.3 12.7351ZM11.65 4.08508C6.87274 4.08508 3 7.95782 3 12.7351C3 17.5123 6.87274 21.3851 11.65 21.3851C16.4273 21.3851 20.3 17.5123 20.3 12.7351C20.3 7.95782 16.4273 4.08508 11.65 4.08508ZM11.75 9.73508C11.75 9.40371 11.4814 9.13508 11.15 9.13508C10.8186 9.13508 10.55 9.40371 10.55 9.73508V14.7351V15.3351H11.15H15.15C15.4814 15.3351 15.75 15.0665 15.75 14.7351C15.75 14.4037 15.4814 14.1351 15.15 14.1351H11.75V9.73508Z" fill="#00AEC7"/>
</svg>
