<svg width="24" height="24" viewBox="0 0 24 24" fill="none" xmlns="http://www.w3.org/2000/svg">
<path fill-rule="evenodd" clip-rule="evenodd" d="M4.3 12.65C4.3 8.59071 7.59071 5.3 11.65 5.3C15.7093 5.3 19 8.59071 19 12.65C19 16.7093 15.7093 20 11.65 20C7.59071 20 4.3 16.7093 4.3 12.65ZM11.65 4C6.87274 4 3 7.87274 3 12.65C3 17.4273 6.87274 21.3 11.65 21.3C16.4273 21.3 20.3 17.4273 20.3 12.65C20.3 7.87274 16.4273 4 11.65 4ZM11.75 9.65C11.75 9.31863 11.4814 9.05 11.15 9.05C10.8186 9.05 10.55 9.31863 10.55 9.65V14.65V15.25H11.15H15.15C15.4814 15.25 15.75 14.9814 15.75 14.65C15.75 14.3186 15.4814 14.05 15.15 14.05H11.75V9.65Z" fill="#00AEC7"/>
</svg>
