<svg width="31" height="21" viewBox="0 0 31 21" fill="none" xmlns="http://www.w3.org/2000/svg">
<path d="M15.8556 15.1653L15.8555 15.1653C15.0747 16.1454 15.0168 17.0602 15.1948 17.7772C15.373 18.4957 15.7892 19.0191 15.9633 19.2106C15.9863 19.2328 16.0142 19.2449 16.0382 19.2449H26.0871C30.0833 15.6404 29.4767 11.3072 28.2116 9.44232L28.2114 9.44207C27.5967 8.52364 26.4645 7.96532 25.3421 8.00446C24.5497 8.03377 23.9114 8.36474 23.5387 8.94388C23.5108 8.99125 23.4652 9.02204 23.4104 9.03046C23.3564 9.03879 23.2971 9.02489 23.2394 8.99094C23.2392 8.99081 23.239 8.99069 23.2388 8.99057L22.9175 8.81251L22.9172 8.81235C22.8246 8.76019 22.7809 8.62875 22.8502 8.53189C22.8504 8.53156 22.8506 8.53123 22.8509 8.5309L22.8914 8.56024C23.2542 8.00414 23.7984 7.597 24.4636 7.39839L15.8556 15.1653ZM15.8556 15.1653C17.1545 13.5336 19.0894 13.981 19.6115 14.1393L19.6125 14.1396M15.8556 15.1653L19.6125 14.1396M26.1616 19.2449C30.1321 15.6303 29.5271 11.2924 28.253 9.41425C27.6281 8.4808 26.4792 7.91477 25.3404 7.95449L26.1616 19.2449ZM26.1616 19.2449H26.1063H26.1616ZM8.69111 19.2652H8.70119C8.70361 19.2652 8.70766 19.2652 8.71325 19.2654C8.89432 19.2693 10.6911 19.3089 10.8378 17.5075C10.9083 16.5343 10.7168 15.7995 10.2734 15.3427C9.8098 14.866 9.0237 14.6277 7.94532 14.6376C7.8647 14.6376 7.79415 14.578 7.79415 14.4986H7.74415C7.74415 14.4988 7.74415 14.499 7.74415 14.4992C7.74453 14.611 7.8426 14.6876 7.94532 14.6876L7.94578 14.6876C9.01866 14.6777 9.78797 14.9153 10.2376 15.3775C10.6667 15.8197 10.858 16.5373 10.7879 17.5037C10.7508 17.9588 10.6067 18.291 10.4124 18.5343C10.2178 18.778 9.97074 18.9352 9.72405 19.0364C9.25939 19.2271 8.80189 19.2173 8.71359 19.2154C8.70788 19.2152 8.70372 19.2152 8.70119 19.2152L8.69111 19.2152L8.69045 19.2152L5.6878 19.2549H5.68742H4.86138H4.86132H4.86126H4.8612H4.86114H4.86109H4.86103H4.86097H4.86091H4.86086H4.8608H4.86074H4.86069H4.86063H4.86057H4.86052H4.86046H4.86041H4.86035H4.8603H4.86024H4.86019H4.86013H4.86008H4.86003H4.85997H4.85992H4.85987H4.85981H4.85976H4.85971H4.85965H4.8596H4.85955H4.8595H4.85945H4.8594H4.85934H4.85929H4.85924H4.85919H4.85914H4.85909H4.85904H4.85899H4.85894H4.85889H4.85884H4.85879H4.85874H4.8587H4.85865H4.8586H4.85855H4.8585H4.85846H4.85841H4.85836H4.85831H4.85827H4.85822H4.85817H4.85813H4.85808H4.85803H4.85799H4.85794H4.8579H4.85785H4.8578H4.85776H4.85771H4.85767H4.85762H4.85758H4.85754H4.85749H4.85745H4.8574H4.85736H4.85732H4.85727H4.85723H4.85719H4.85714H4.8571H4.85706H4.85702H4.85697H4.85693H4.85689H4.85685H4.85681H4.85676H4.85672H4.85668H4.85664H4.8566H4.85656H4.85652H4.85648H4.85644H4.8564H4.85636H4.85632H4.85628H4.85624H4.8562H4.85616H4.85612H4.85608H4.85604H4.856H4.85596H4.85592H4.85589H4.85585H4.85581H4.85577H4.85573H4.85569H4.85566H4.85562H4.85558H4.85554H4.85551H4.85547H4.85543H4.8554H4.85536H4.85532H4.85528H4.85525H4.85521H4.85518H4.85514H4.8551H4.85507H4.85503H4.855H4.85496H4.85492H4.85489H4.85485H4.85482H4.85478H4.85475H4.85471H4.85468H4.85464H4.85461H4.85457H4.85454H4.85451H4.85447H4.85444H4.8544H4.85437H4.85434H4.8543H4.85427H4.85423H4.8542H4.85417H4.85413H4.8541H4.85407H4.85403H4.854H4.85397H4.85394H4.8539H4.85387H4.85384H4.8538H4.85377H4.85374H4.85371H4.85368H4.85364H4.85361H4.85358H4.85355H4.85351H4.85348H4.85345H4.85342H4.85339H4.85336H4.85332H4.85329H4.85326H4.85323H4.8532H4.85317H4.85314H4.8531H4.85307H4.85304H4.85301H4.85298H4.85295H4.85292H4.85289H4.85286H4.85283H4.8528H4.85277H4.85273H4.8527H4.85267H4.85264H4.85261H4.85258H4.85255H4.85252H4.85249H4.85246H4.85243H4.8524H4.85237H4.85234H4.85231H4.85228H4.85225H4.85222H4.85219H4.85216H4.85213H4.8521H4.85207H4.85204H4.85201H4.85198H4.85195H4.85192H4.85189H4.85186H4.85183H4.8518H4.85177H4.85174H4.85171H4.85169H4.85166H4.85163H4.8516H4.85157H4.85154H4.85151H4.85148H4.85145H4.85142H4.85139H4.85136H4.85133H4.8513H4.85127H4.85124H4.85121H4.85118H4.85115H4.85112H4.85109H4.85106H4.85103H4.85101H4.85098H4.85095H4.85092H4.85089H4.85086H4.85083H4.8508H4.85077H4.85074H4.85071H4.85068H4.85065H4.85062H4.85059H4.85056H4.85053H4.8505H4.85047H4.85044H4.85041H4.85038H4.85035H4.85032H4.85029H4.85026H4.85023H4.8502H4.85017H4.85014H4.85011H4.85008H4.85005H4.85002H4.84999H4.84996H4.84993H4.8499H4.84987H4.84984H4.84981H4.84978H4.84974H4.84971H4.84968H4.84965H4.84962H4.84959H4.84956H4.84953H4.8495H4.84947H4.84943H4.8494H4.84937H4.84934H4.84931H4.84928H4.84925H4.84921H4.84918H4.84915H4.84912H4.84909H4.84906H4.84902H4.84899H4.84896H4.84893H4.84889H4.84886H4.84883H4.8488H4.84876H4.84873H4.8487H4.84867H4.84863H4.8486H4.84857H4.84853H4.8485H4.84847H4.84843H4.8484H4.84837H4.84833H4.8483H4.84827H4.84823H4.8482H4.84816H4.84813H4.8481H4.84806H4.84803H4.84799H4.84796H4.84792H4.84789H4.84785H4.84782H4.84778H4.84775H4.84771H4.84768H4.84764H4.84761H4.84757H4.84753H4.8475H4.84746H4.84743H4.84739H4.84735H4.84732H4.84728H4.84724H4.84721H4.84717H4.84713H4.8471H4.84706H4.84702H4.84698H4.84695H4.84691H4.84687H4.84683H4.84679H4.84676H4.84672H4.84668H4.84664H4.8466H4.84656H4.84652H4.84648H4.84644H4.8464H4.84636H4.84633H4.84629H4.84625H4.84621H4.84616H4.84612H4.84608H4.84604H4.846H4.84596H4.84592H4.84588H4.84584H4.8458H4.84575H4.84571H4.84567H4.84563H4.84559H4.84554H4.8455H4.84546H4.84542H4.84537H4.84533H4.84529H4.84524H4.8452H4.84515H4.84511H4.84507H4.84502H4.84498H4.84493H4.84489H4.84484H4.8448H4.84475H4.84471H4.84466H4.84461H4.84457H4.84452H4.84448H4.84443H4.84438H4.84434H4.84429H4.84424H4.84419H4.84415H4.8441H4.84405H4.844H4.84395H4.84391H4.84386H4.84381H4.84376H4.84371H4.84366H4.84361H4.84358C2.96526 19.0776 1.96534 17.7572 1.80688 16.5082C1.62647 15.086 1.88862 14.0322 2.5684 13.3624C3.03768 12.9 3.64706 12.6697 4.19973 12.5591C4.75212 12.4485 5.24378 12.4583 5.47295 12.473L5.47294 12.4731H5.47615C5.58007 12.4731 5.66345 12.4066 5.67693 12.3003L5.67695 12.3002L5.72732 11.8932L8.69111 19.2652ZM8.69111 19.2652L5.6878 19.3049L8.69111 19.2652ZM15.4453 4.0399C15.4758 4.00213 15.4777 3.96573 15.4613 3.93885L15.459 3.93505L15.4592 3.93496C15.2851 3.58222 14.8744 2.91268 14.1144 2.40529C13.3559 1.89888 12.2455 1.55125 10.6656 1.84681L15.4453 4.0399ZM15.4453 4.0399C15.0604 4.49908 14.8068 4.90857 14.6946 5.10958C14.6388 5.20625 14.6826 5.32497 14.774 5.37645L14.7739 5.37663L14.7781 5.37851C14.8325 5.40289 14.8971 5.43471 14.9629 5.46711L14.9635 5.46741C15.0278 5.49909 15.0932 5.5313 15.149 5.55638C15.2469 5.60999 15.355 5.56543 15.4062 5.47713L15.4064 5.47666C15.6014 5.13192 16.2219 4.14856 17.2438 3.42106C18.2636 2.69509 19.6825 2.22382 21.4831 2.89713L21.5006 2.8503L15.4453 4.0399ZM19.6125 14.1396C19.7043 14.1654 19.8131 14.1269 19.854 14.0204C19.854 14.0202 19.8541 14.02 19.8542 14.0199L19.9344 13.8223L19.9346 13.8218M19.6125 14.1396L19.9346 13.8218M19.9346 13.8218L20.0051 13.6431L20.0053 13.6425M19.9346 13.8218L20.0053 13.6425M20.0053 13.6425C20.0445 13.5395 19.9941 13.4166 19.8813 13.3879C19.262 13.198 16.8455 12.6548 15.2331 14.6759L15.2331 14.676M20.0053 13.6425L15.2331 14.676M15.2331 14.676C14.5102 15.5839 14.292 16.4597 14.3253 17.2254C14.3585 17.9898 14.6421 18.6409 14.9168 19.1021L14.9171 19.1025M15.2331 14.676L14.9171 19.1025M14.9171 19.1025C14.9554 19.1654 14.9143 19.2449 14.8288 19.2449H11.0696C10.9904 19.2449 10.9441 19.1549 10.997 19.0888C11.3167 18.7226 11.5421 18.2257 11.5831 17.5606C11.6743 16.3706 11.4212 15.4508 10.8133 14.8213L10.8133 14.8213M14.9171 19.1025L10.8133 14.8213M10.8133 14.8213C10.1952 14.1819 9.22178 13.8726 7.92474 13.8925L10.8133 14.8213ZM26.0563 19.2949H16.0382C15.9978 19.2949 15.9575 19.2751 15.9273 19.2453L26.0563 19.2949ZM5.47615 12.4231C5.55678 12.4231 5.61725 12.3735 5.62733 12.2941L5.47615 12.4231ZM5.72734 11.8931C5.74046 11.789 5.66268 11.6792 5.54847 11.678L5.72734 11.8931ZM3.69176 11.787C2.8807 10.6418 2.31964 8.88809 3.21094 7.4244L3.21102 7.42426C3.76803 6.50301 4.6112 5.95705 5.57141 5.86926L5.57155 5.86925C6.50142 5.78152 7.44389 6.16123 8.16022 6.90568C8.23174 6.98871 8.3536 6.98386 8.43057 6.92066L8.43058 6.92067L8.43141 6.91996L8.74346 6.65216C8.82475 6.58495 8.83927 6.45192 8.75692 6.37021C8.3605 5.95967 7.9124 5.62824 7.42249 5.40685C7.39957 5.39542 7.38575 5.38199 7.37799 5.36809C7.37032 5.35435 7.36623 5.33598 7.36996 5.31027L7.37001 5.31027L7.37023 5.30798C7.40002 5.00466 7.49962 4.49402 7.7487 3.9639L7.74872 3.96384C8.28514 2.81866 9.25796 2.11243 10.6656 1.84683L3.69176 11.787ZM7.32047 5.30309C7.35071 4.99525 7.45149 4.47887 7.70345 3.94263C8.24767 2.78078 9.23534 2.0658 10.6564 1.79768L7.32047 5.30309ZM7.73415 14.095C7.73425 14.0959 7.73435 14.0968 7.73447 14.0977L7.78407 14.0914L7.73409 14.0927L7.73415 14.095ZM26.8803 19.7052C27.1056 19.5409 27.2573 19.3695 27.2906 19.3305C28.0742 18.6723 28.7495 17.558 29.2352 16.3871C29.7217 15.2142 30.0211 13.9767 30.0465 13.0702C30.1074 11.0903 29.3565 9.66996 28.8991 8.99891C28.129 7.86072 26.7467 7.16949 25.3597 7.2084C25.4497 6.66866 25.4888 5.77831 25.0621 4.84536C24.6185 3.87557 23.675 2.8669 21.7802 2.15803C19.8686 1.43668 18.0155 1.7478 16.4296 3.06003L16.4296 3.06002L16.4285 3.06094L16.2924 3.18011L16.1571 3.29868C16.157 3.29877 16.1569 3.29886 16.1567 3.29895C16.1072 3.34054 16.0426 3.33159 16.01 3.28062C15.6997 2.77444 15.1424 2.06977 14.2537 1.56795C13.3638 1.06544 12.1449 0.768321 10.5163 1.07325C9.00697 1.34867 8.06874 2.0633 7.48689 2.84909C6.90596 3.63364 6.68223 4.48635 6.59583 5.03715L6.59581 5.03715L6.59563 5.03861C6.58987 5.08402 6.54089 5.12128 6.48138 5.1146C6.15447 5.05437 5.82788 5.04444 5.50181 5.07455C4.2954 5.18537 3.21366 5.89044 2.53098 7.00485L2.57362 7.03097L2.53098 7.00485C1.48852 8.70671 2.04298 10.695 2.90456 12.0234L2.90451 12.0234L2.90603 12.0255C2.93641 12.0674 2.91986 12.1335 2.87216 12.1608C2.56661 12.3214 2.27036 12.5227 2.00438 12.7847C1.13281 13.6435 0.799457 14.9326 1.01228 16.5903C1.20531 18.1217 2.38841 19.7207 4.58622 20.015C4.59485 20.03 4.61104 20.0401 4.62958 20.0401H4.83114C4.84149 20.0401 4.85255 20.0418 4.86839 20.0444L4.86981 20.0446C4.88403 20.0469 4.9026 20.05 4.92185 20.05L4.93193 20.05L4.93257 20.05L5.69787 20.0401H5.69823H25.9854C26.3333 20.0401 26.6486 19.8743 26.8803 19.7052Z" fill="white" stroke="white" stroke-width="0.1" stroke-linecap="square" stroke-linejoin="round"/>
</svg>
