<svg width="18" height="16" viewBox="0 0 18 16" fill="none" xmlns="http://www.w3.org/2000/svg">
<path d="M16.0142 3.46836C15.649 3.56997 15.3708 3.55304 15.3708 3.55304L15.3882 3.4853C15.7186 3.23127 16.5707 2.41837 16.675 2.04579C16.7272 1.87643 16.6577 1.82563 16.6577 1.82563L15.5795 2.26595L14.6752 2.65546C14.0665 2.01192 13.1101 1.60547 12.0667 1.60547C10.1712 1.60547 8.65823 2.90949 8.65823 4.50142C8.65823 4.78932 8.7104 5.33125 8.79735 5.60222C8.79735 5.6869 8.79735 5.51754 8.79735 5.60222C7.58005 5.56835 6.03233 5.09416 4.65852 4.39981C1.92828 3.06191 1.75438 2.13047 1.75438 2.13047C1.31963 2.57079 1.09355 4.02723 1.52831 5.17883C1.80655 5.90706 2.763 6.56753 2.763 6.56753C2.763 6.56753 2.32825 6.56754 1.8935 6.43205C1.44136 6.27963 1.28485 6.14415 1.28485 6.14415C1.0066 6.77076 1.5457 7.90543 2.46737 8.71833C3.00646 9.19252 3.9803 9.48042 3.9803 9.48042L2.44998 9.51429C2.36303 10.9707 5.58019 11.8344 5.58019 11.8344C4.64113 12.5457 3.54555 12.9691 2.38042 12.9691C1.77177 12.9691 1.18051 12.8844 0.624023 12.7151C2.17174 13.9683 4.1542 14.832 6.32796 14.7135C12.0667 14.4256 15.3012 9.6159 15.4577 4.89093V4.90787C15.4577 4.90787 15.7186 4.77238 16.3099 4.21352C16.8837 3.65465 17.2489 2.99417 17.2489 2.99417C17.2489 2.99417 16.3794 3.36675 16.0142 3.46836Z" stroke="#00AEC7" stroke-width="1.25" stroke-linecap="round" stroke-linejoin="round"/>
</svg>
