<svg width="32" height="32" viewBox="0 0 32 32" fill="none" xmlns="http://www.w3.org/2000/svg">
<path d="M25.188 9.34963C26.2653 8.68829 26.9787 7.78563 27.328 6.63763C26.3441 7.16977 25.2882 7.55646 24.1933 7.78563C23.256 6.77763 22.0693 6.26562 20.6467 6.26562C19.256 6.26562 18.0813 6.75363 17.1227 7.70296C16.6597 8.15376 16.2937 8.69435 16.047 9.2916C15.8003 9.88885 15.6781 10.5302 15.688 11.1763C15.688 11.5883 15.74 11.9563 15.844 12.2683C11.7427 12.1283 8.348 10.427 5.67333 7.15229C5.22 7.95362 4.99333 8.76963 4.99333 9.61363C4.99333 11.3483 5.72533 12.723 7.18667 13.7323C6.35333 13.6616 5.61867 13.451 4.99333 13.1056C4.99333 14.3443 5.35733 15.379 6.08667 16.2896C6.79514 17.177 7.79357 17.7865 8.90667 18.011C8.49067 18.1176 8.052 18.1683 7.60133 18.1683C7.18533 18.1683 6.89067 18.1336 6.716 18.0576C7.02267 19.067 7.60133 19.8856 8.43733 20.5123C9.26378 21.1398 10.2691 21.4869 11.3067 21.503C9.53067 22.8963 7.5 23.5856 5.20267 23.5856C4.64 23.5856 4.24133 23.5776 4 23.535C6.26267 25.0043 8.78133 25.7336 11.568 25.7336C14.42 25.7336 16.94 25.011 19.1333 23.5656C21.3267 22.1283 22.9453 20.355 23.9853 18.267C25.0138 16.2466 25.5493 14.0114 25.548 11.7443V11.1203C26.5066 10.4135 27.3365 9.54711 28.0013 8.55896C27.1035 8.94811 26.1571 9.21407 25.188 9.34963Z" fill="#ffffff"/>
</svg>
