<svg width="26" height="26" viewBox="0 0 26 26" fill="none" xmlns="http://www.w3.org/2000/svg">
<path d="M20 25C20.2936 21.5188 22.6714 19.7781 23.9338 16.8449C25.0493 14.2984 25.02 11.1072 24.9906 8.36737C24.9906 6.98132 24.9319 5.59526 24.7264 4.24144C24.6677 3.66124 24.5796 2.37189 23.9925 2.08178C22.2311 1.21147 22.6714 7.56152 22.6421 8.14173" stroke="white" stroke-miterlimit="10" stroke-linecap="round" stroke-linejoin="round"/>
<path d="M18.9285 18.2226C19.6925 16.1613 21.3903 14.5997 21.843 12.4135C21.9845 11.7888 22.2392 10.3209 21.4752 10.0399C20.7395 9.75877 19.9755 11.0393 19.6359 11.539C18.9851 12.476 18.4475 13.5378 17.6835 14.3811C16.8912 15.1931 15.9008 15.7241 15.1369 16.5674C13.0147 19.0347 14.5143 22.0954 14.5143 25" stroke="white" stroke-miterlimit="10" stroke-linecap="round" stroke-linejoin="round"/>
<path d="M12.3251 12.9079C12.0919 12.7545 6 8.82609 6 4.65217C6 2.6266 7.54484 1 9.46861 1C10.7511 1 11.917 1.73657 12.5 2.90281C13.083 1.76726 14.2489 1 15.5314 1C17.4552 1 19 2.6266 19 4.65217C19 8.82609 12.9081 12.7545 12.6457 12.9079L12.4709 13L12.3251 12.9079Z" stroke="white" stroke-miterlimit="10" stroke-linecap="round" stroke-linejoin="round"/>
<path d="M16 3C16.5435 3 17 3.45652 17 4" stroke="white" stroke-miterlimit="10" stroke-linecap="round" stroke-linejoin="round"/>
<path d="M6 25C5.70761 21.551 3.33922 19.7781 2.05269 16.8449C0.970838 14.2984 1.00008 11.1072 1.00008 8.36737C1.00008 6.98132 1.05856 5.59526 1.26323 4.24144C1.35095 3.66124 1.43867 2.37189 2.02345 2.08178C3.77781 1.21147 3.33922 7.56152 3.36846 8.14173" stroke="white" stroke-miterlimit="10" stroke-linecap="round" stroke-linejoin="round"/>
<path d="M6.07148 18.2226C5.30749 16.1613 3.60973 14.5997 3.15699 12.4135C3.01551 11.7888 2.76085 10.3209 3.52484 10.0399C4.26053 9.75877 5.02453 11.0393 5.36408 11.539C6.01489 12.476 6.55251 13.5378 7.3165 14.3811C8.10879 15.1931 9.09915 15.7241 9.86314 16.5674C11.9853 19.0347 10.4857 22.0954 10.4857 25" stroke="white" stroke-miterlimit="10" stroke-linecap="round" stroke-linejoin="round"/>
</svg>
