<svg width="32" height="32" viewBox="0 0 32 32" fill="none" xmlns="http://www.w3.org/2000/svg">
<path d="M10.2854 25.9996H6V11.7148H10.2854V25.9996ZM25.9987 25.9996H21.7133V18.3687C21.7133 16.3803 21.0047 15.3903 19.6005 15.3903C18.4878 15.3903 17.7821 15.9446 17.4278 17.0545V25.9996H13.1424C13.1424 25.9996 13.1995 13.1433 13.1424 11.7148H16.525L16.7864 14.5718H16.875C17.7535 13.1433 19.1577 12.1748 21.0833 12.1748C22.5475 12.1748 23.7317 12.5819 24.6359 13.6047C25.5459 14.6289 25.9987 16.0031 25.9987 17.933V25.9996Z" fill="#ffffff"/>
<path d="M8.14383 10.2854C9.36666 10.2854 10.358 9.32611 10.358 8.14272C10.358 6.95933 9.36666 6 8.14383 6C6.92099 6 5.92969 6.95933 5.92969 8.14272C5.92969 9.32611 6.92099 10.2854 8.14383 10.2854Z" fill="#B2E7EE"/>
</svg>
