<svg width="32" height="32" viewBox="0 0 32 32" fill="none" xmlns="http://www.w3.org/2000/svg">
<path d="M22 24.8877V21.7092C20.9023 22.3985 19.8342 22.74 18.7972 22.74C18.3082 22.74 17.7618 22.5954 17.1498 22.3138C16.7839 22.0815 16.569 21.8262 16.505 21.54C16.3245 21.1954 16.2129 20.4508 16.2129 19.3031V14.24H21.1353V11.1631H16.2129V6H13.3054C13.061 7.20308 12.8165 8.05846 12.5704 8.57385C12.2685 9.20462 11.7795 9.77692 11.1084 10.2908C10.4855 10.7819 9.77049 11.1602 9 11.4062V14.24H11.2905V21.1954C11.2905 21.9954 11.4103 22.6785 11.6564 23.2523C11.8386 23.7108 12.2045 24.1677 12.7574 24.6262C13.1824 25.0292 13.7928 25.3708 14.5869 25.6569C15.5632 25.8877 16.4147 26 17.1498 26C18.003 26 18.7972 25.9138 19.529 25.7431C20.3913 25.5677 21.223 25.2798 22 24.8877Z" fill="#ffffff"/>
</svg>
