<svg width="182" height="164" viewBox="0 0 182 164" fill="none" xmlns="http://www.w3.org/2000/svg">
<path d="M89.312 48.7037C93.7566 61.3369 111.723 66.7628 123.629 63.0317C144.617 56.4471 157.547 32.0173 137.188 16.5534C131.793 12.4547 124.799 10.3252 118.102 11.3337C110.068 12.5382 103.299 17.9275 97.6973 23.8166C93.2456 28.4933 89.1069 33.9774 88.4071 40.3985C88.0903 43.4358 88.4421 46.2001 89.312 48.7037Z" fill="#F6FDFF"/>
<path d="M181 162.947C169.927 149.649 159.553 141.821 143.731 135.672C139.268 133.939 132.742 133.285 129.823 128.974C126.356 123.852 126.02 117.313 127.29 111.41C128.02 108.017 129.188 104.751 130.088 101.407C130.977 98.1072 131.535 94.6953 133.188 91.6597C134.846 88.6104 137.758 86.4734 139.057 83.1664C140.563 79.3348 141.15 74.8191 140.082 70.7982C139.236 67.6075 137.633 64.8844 138.542 61.5135C139.973 56.2178 142.214 50.7737 142.048 45.1997C142.021 44.2875 141.874 43.2612 141.144 42.7184C137.275 39.8492 132.383 48.8648 129.607 50.1146C127.635 51.0041 128.723 45.8748 132.057 46.3538C135.794 46.892 132.277 55.2143 128.567 54.8653C126.165 54.6395 124.147 52.7853 122.006 51.8069C117.305 49.6608 111.851 50.199 106.782 51.1888C101.628 52.1946 96.5458 53.4969 91.2528 53.0362C81.9868 52.2265 73.3058 48.1624 63.8469 49.9048C63.178 50.028 62.4908 50.1853 61.942 50.589C61.3932 50.9927 61.0122 51.7043 61.1937 52.3657C61.4182 53.1936 62.4273 53.5881 63.2641 53.4285C65.1917 53.0613 68.6591 49.9573 65.897 48.3357C60.9034 45.4073 55.2725 50.2902 50.1293 48.5866C49.4489 48.3608 48.7913 48.0506 48.0837 47.9297C47.3762 47.8088 46.5825 47.9138 46.0722 48.4201C44.2558 50.2104 47.1902 56.2816 47.8411 58.259C48.9205 61.5432 50.3674 65.076 50.4626 68.5791C50.5987 73.64 49.7143 76.5113 50.1224 80.409C50.5306 84.3067 53.5899 86.5623 56.2431 89.436C60.4838 94.0293 61.3388 98.0684 61.5316 104.279C61.6858 109.294 61.8332 114.382 60.6539 119.258C57.8396 130.892 53.0065 133.396 42.9898 136.895C34.4132 139.892 26.0927 143.566 17.8517 147.384C11.0099 150.554 4.36759 152.867 0.999959 160.308" stroke="#00AEC7" stroke-width="2" stroke-miterlimit="10" stroke-linecap="round" stroke-linejoin="round"/>
<path d="M128.421 68.8448C126.133 69.58 124.181 67.7257 122.338 66.6798C120.082 65.399 116.856 65.164 114.345 65.5177C112.698 65.7501 110.82 66.5408 110.272 68.284C109.693 70.1307 110.643 72.4018 112.428 73.1471C114.044 73.8216 116.48 73.1117 116.998 71.2625C117.28 70.2545 116.859 69.1682 116.245 68.3219C113.096 63.9716 106.612 65.4318 102.566 67.4528C100.88 68.2941 99.3372 69.5421 98.4596 71.2246C97.3053 73.4351 97.5073 75.9588 97.2579 78.3638C96.9638 81.2034 96.5624 84.0278 96.0339 86.8319C95.1363 91.6041 99.2848 104.329 92.8951 103.192" stroke="#00AEC7" stroke-width="2" stroke-miterlimit="10" stroke-linecap="round" stroke-linejoin="round"/>
<path d="M100.474 108.708C98.1913 109.358 95.0636 110.78 93.375 110.841C91.6864 110.899 85.9784 108.589 83.8947 108" stroke="#00AEC7" stroke-width="2" stroke-miterlimit="10" stroke-linecap="round" stroke-linejoin="round"/>
<path d="M121.316 116.073C121.161 116.667 120.832 117.485 120.381 118.443C116.06 127.635 107.58 134.741 97.4742 135.77C96.5831 135.861 95.7186 135.914 94.8751 135.936C82.257 136.261 70.0276 128.396 66.3891 116.31C66.2226 115.757 66.0587 115.197 65.8949 114.631" stroke="#00AEC7" stroke-width="2" stroke-miterlimit="10" stroke-linecap="round" stroke-linejoin="round"/>
<path d="M148.335 64.0898C150.309 67.2543 155.627 60.0579 152.631 60.1587C149.634 60.2596 146.638 61.3667 148.335 64.0898Z" stroke="#00AEC7" stroke-width="2" stroke-miterlimit="10" stroke-linecap="round" stroke-linejoin="round"/>
<path d="M48.2427 50.2109C48.2427 50.2109 40.8341 46.6511 47.0865 40.0019C53.339 33.3527 56.0594 46.1134 51.981 42.6208C46.1299 37.6093 53.0737 30.4045 58.4693 28.7668C69.9767 25.2765 81.1463 32.4185 92.6355 31.8002C96.1812 31.6098 99.5318 30.4224 103.096 30.3731C106.609 30.3238 110.062 31.267 113.327 32.479C116.496 33.6552 121.856 38.9026 125.322 38.4993C129.401 38.0244 131.603 33.4064 133.443 30.0549C133.829 29.3537 133.48 26.3989 132.891 25.8567C132.426 25.4288 131.68 25.5655 131.091 25.8029C126.863 27.5078 125.267 32.5731 126.276 36.7087C131.091 44.2976 142.631 38.6383 142.631 36.18" stroke="#00AEC7" stroke-width="2" stroke-miterlimit="10" stroke-linecap="round" stroke-linejoin="round"/>
<path d="M121.79 75.7897C121.79 75.7897 114.908 81.0007 103.79 77.3107" stroke="#00AEC7" stroke-width="2" stroke-miterlimit="10" stroke-linecap="round" stroke-linejoin="round"/>
<path d="M84.3682 75.7897C84.3682 75.7897 77.6679 81.0007 66.8418 77.3107" stroke="#00AEC7" stroke-width="2" stroke-miterlimit="10" stroke-linecap="round" stroke-linejoin="round"/>
<path d="M97.0285 114.632C97.071 114.632 97.1157 114.632 97.1582 114.632C96.5373 114.636 95.9376 114.834 95.3549 115.097C94.919 115.294 94.5022 115.539 94.0747 115.753C93.6537 115.966 93.3347 116.344 92.8626 116.464C92.0226 116.674 91.508 116.312 90.7914 115.982C90.4001 115.802 90.0003 115.626 89.5793 115.516" stroke="#00AEC7" stroke-width="2" stroke-miterlimit="10" stroke-linecap="round" stroke-linejoin="round"/>
<path d="M90.0991 82.4209C90.5832 78.037 90.9233 72.9313 89.579 68.6841" stroke="#00AEC7" stroke-width="2" stroke-miterlimit="10" stroke-linecap="round" stroke-linejoin="round"/>
</svg>
