<svg width="182" height="179" viewBox="0 0 182 179" fill="none" xmlns="http://www.w3.org/2000/svg">
<path fill-rule="evenodd" clip-rule="evenodd" d="M93.6879 74.3248C99.031 74.1173 104.374 73.3182 109.3 75.3934C115.182 77.871 120.635 81.5627 123.887 87.0458C127.675 93.4323 132.237 101.649 128.765 108.213C125.21 114.935 115.268 113.964 108.181 116.746C103.28 118.669 98.9226 121.404 93.6879 121.98C87.8775 122.619 81.4747 123.537 76.6726 120.211C71.842 116.864 71.6921 110.054 68.9653 104.855C65.4532 98.1585 55.9028 92.5311 58.416 85.401C60.9495 78.2134 71.6514 78.8597 78.9341 76.5727C83.7987 75.0451 88.592 74.5227 93.6879 74.3248Z" fill="#F6FDFF"/>
<path d="M65.9397 104.022C63.6645 110.775 57.944 124.826 53.2636 127.008C47.4131 129.735 10.5549 142.982 6.84953 142.787C3.14421 142.592 0.999023 133.631 0.999023 131.489C0.999023 129.346 5.09438 122.138 16.9904 129.151C21.669 131.909 40.5875 116.294 42.3426 113.372C44.0978 110.45 49.1682 83.568 52.8735 78.1136C54.4852 75.7412 60.0817 73.295 65.9397 71.1438M65.9397 104.022C67.8118 108.697 72.1802 110.126 74.1304 110.255M65.9397 104.022C64.3795 100.126 62.8743 93.7004 65.9397 84.5421V71.1438M81.9311 65.0621C82.3991 63.6595 82.6461 59.413 82.7111 57.465M81.9311 65.0621C81.6005 66.0527 73.5494 68.3494 65.9397 71.1438M81.9311 65.0621C81.411 73.1138 82.4493 86.2753 90.9994 86.2753C99.5494 86.2753 100.913 72.2047 100.458 65.0621M82.7111 57.465C86.4165 60.3869 96.9474 59.9974 100.263 57.465M82.7111 57.465C81.2008 56.2739 79.6558 53.5108 78.4164 49.8679M100.263 57.465C108.648 50.647 111.964 29.0243 105.333 18.5052C98.5075 10.3235 85.4414 9.93386 79.2008 18.5052M100.263 57.465C100.068 59.9974 99.8726 63.8934 100.458 65.0621M79.2008 18.5052C78.2258 24.7386 82.3991 27.5437 89.7318 30.1929C100.653 33.3097 105.606 6.15477 86.4165 1.16792C81.346 -0.149504 71.0881 6.38852 69.06 17.1414C68.2799 22.3361 66.4077 33.6216 65.1596 37.2059C63.5995 41.6863 60.0892 47.5303 56.7739 49.4783C53.4586 51.4263 65.1596 54.1534 69.84 53.569C73.5843 53.1015 77.1177 50.9068 78.4164 49.8679M79.2008 18.5052C74.2715 27.8056 75.4951 41.281 78.4164 49.8679M100.458 65.0621C101.028 66.2009 110.28 68.3833 116.839 70.0712M116.839 104.022C116.995 104.801 124.25 120.969 130.685 128.177C134.586 131.138 169.104 144.93 176.904 142.202C179.635 140.449 181 133.657 181 130.709C181 127.593 175.929 124.476 172.029 126.619C168.909 128.333 163.968 128.632 161.888 128.567C154.243 125.761 140.631 115.71 137.706 109.281C136.458 103.204 131.465 77.1397 123.275 72.0749C122.877 71.6778 120.215 70.94 116.839 70.0712M116.839 104.022C118.529 100.256 120.024 94.1504 116.839 84.5421C116.839 77.5293 116.839 71.9728 116.839 70.0712M116.839 104.022C116.08 105.64 113.69 108.517 109.428 109.712M74.1304 110.255C81.6711 110.255 98.4685 110.255 105.333 110.255C106.853 110.255 108.217 110.052 109.428 109.712M74.1304 110.255C74.0143 114.695 73.2662 121.566 71.4169 128.177M109.428 109.712C109.428 114.552 110.318 121.679 112.204 128.177M122.495 143.566C158.573 119.216 167.934 156.812 137.706 162.462L98.8976 177.851H96.3623M122.495 143.566L93.2421 164.02M122.495 143.566C117.705 141.999 114.324 135.486 112.204 128.177M93.2421 164.02C89.4717 165.124 81.151 167.215 78.0307 166.747C74.9105 166.28 72.3102 164.734 71.4002 164.02C66.9148 161.904 64.1035 164.602 62.3558 167.721M93.2421 164.02L96.3623 177.851M93.2421 164.02L60.5999 145.514M62.3558 167.721C60.1585 171.643 60.7234 176.983 66.9148 177.851H96.3623M62.3558 167.721L32.7868 155.644C20.1497 150.189 21.8658 127.593 42.7327 135.385L60.5999 145.514M60.5999 145.514C65.9771 142.486 69.3709 135.491 71.4169 128.177M71.4169 128.177H112.204" stroke="#00AEC7" stroke-width="2" stroke-linecap="round" stroke-linejoin="round"/>
</svg>
