<svg width="182" height="179" viewBox="0 0 182 179" fill="none" xmlns="http://www.w3.org/2000/svg">
<path fill-rule="evenodd" clip-rule="evenodd" d="M93.6888 74.3248C99.032 74.1173 104.375 73.3182 109.301 75.3934C115.183 77.871 120.636 81.5627 123.888 87.0458C127.676 93.4323 132.237 101.649 128.766 108.213C125.211 114.935 115.269 113.964 108.182 116.746C103.281 118.669 98.9236 121.404 93.6888 121.98C87.8785 122.619 81.4757 123.537 76.6736 120.211C71.8429 116.864 71.6931 110.054 68.9663 104.855C65.4541 98.1585 55.9038 92.5311 58.417 85.401C60.9504 78.2134 71.6523 78.8597 78.9351 76.5727C83.7997 75.0451 88.593 74.5227 93.6888 74.3248Z" fill="#F6FDFF"/>
<path d="M65.9407 104.022C63.6655 110.775 57.945 124.826 53.2646 127.008C47.414 129.735 10.5558 142.982 6.85051 142.787C3.14519 142.592 1 133.631 1 131.489C1 129.346 5.09536 122.138 16.9914 129.151C21.6699 131.909 40.5885 116.294 42.3436 113.372C44.0988 110.45 49.1692 83.568 52.8745 78.1136C54.4862 75.7412 60.0827 73.295 65.9407 71.1438M65.9407 104.022C67.8128 108.697 72.1812 110.126 74.1314 110.255M65.9407 104.022C64.3805 100.126 62.8752 93.7004 65.9407 84.5421V71.1438M81.9321 65.0621C82.4001 63.6595 82.6471 59.413 82.7121 57.465M81.9321 65.0621C81.6015 66.0527 73.5504 68.3494 65.9407 71.1438M81.9321 65.0621C81.412 73.1138 82.4503 86.2753 91.0003 86.2753C99.5504 86.2753 100.914 72.2047 100.459 65.0621M82.7121 57.465C86.4174 60.3869 96.9484 59.9974 100.264 57.465M82.7121 57.465C81.2018 56.2739 79.6568 53.5108 78.4174 49.8679M100.264 57.465C108.649 50.647 111.965 29.0243 105.334 18.5052C98.5085 10.3235 85.4424 9.93386 79.2018 18.5052M100.264 57.465C100.069 59.9974 99.8736 63.8934 100.459 65.0621M79.2018 18.5052C78.2267 24.7386 82.4001 27.5437 89.7327 30.1929C100.654 33.3097 105.607 6.15477 86.4174 1.16792C81.347 -0.149504 71.0891 6.38852 69.0609 17.1414C68.2809 22.3361 66.4087 33.6216 65.1606 37.2059C63.6005 41.6863 60.0902 47.5303 56.7749 49.4783C53.4596 51.4263 65.1606 54.1534 69.841 53.569C73.5853 53.1015 77.1187 50.9068 78.4174 49.8679M79.2018 18.5052C74.2725 27.8056 75.496 41.281 78.4174 49.8679M100.459 65.0621C101.029 66.2009 110.281 68.3833 116.84 70.0712M116.84 104.022C116.996 104.801 124.251 120.969 130.686 128.177C134.587 131.138 169.105 144.93 176.905 142.202C179.636 140.449 181.001 133.657 181.001 130.709C181.001 127.593 175.93 124.476 172.03 126.619C168.91 128.333 163.969 128.632 161.889 128.567C154.244 125.761 140.632 115.71 137.707 109.281C136.459 103.204 131.466 77.1397 123.276 72.0749C122.878 71.6778 120.216 70.94 116.84 70.0712M116.84 104.022C118.53 100.256 120.025 94.1504 116.84 84.5421C116.84 77.5293 116.84 71.9728 116.84 70.0712M116.84 104.022C116.081 105.64 113.69 108.517 109.429 109.712M74.1314 110.255C81.672 110.255 98.4695 110.255 105.334 110.255C106.854 110.255 108.217 110.052 109.429 109.712M74.1314 110.255C74.0153 114.695 73.2672 121.566 71.4179 128.177M109.429 109.712C109.429 114.552 110.319 121.679 112.205 128.177M122.496 143.566C158.574 119.216 167.935 156.812 137.707 162.462L98.8985 177.851H96.3633M122.496 143.566L93.243 164.02M122.496 143.566C117.706 141.999 114.325 135.486 112.205 128.177M93.243 164.02C89.4727 165.124 81.152 167.215 78.0317 166.747C74.9114 166.28 72.3112 164.734 71.4011 164.02C66.9157 161.904 64.1045 164.602 62.3568 167.721M93.243 164.02L96.3633 177.851M93.243 164.02L60.6009 145.514M62.3568 167.721C60.1594 171.643 60.7243 176.983 66.9157 177.851H96.3633M62.3568 167.721L32.7878 155.644C20.1507 150.189 21.8668 127.593 42.7336 135.385L60.6009 145.514M60.6009 145.514C65.9781 142.486 69.3719 135.491 71.4179 128.177M71.4179 128.177H112.205" stroke="#00AEC7" stroke-width="2" stroke-linecap="round" stroke-linejoin="round"/>
<circle cx="153" cy="29" r="27" stroke="#00AEC7" stroke-width="2"/>
</svg>
