<svg width="182" height="169" viewBox="0 0 182 169" fill="none" xmlns="http://www.w3.org/2000/svg">
<path fill-rule="evenodd" clip-rule="evenodd" d="M88.2613 19.5187C96.6408 18.8467 104.451 23.2963 111.282 28.1947C118.148 33.1187 126.586 38.8528 126.989 47.291C127.394 55.7756 116.685 60.2271 113.182 67.9657C110.303 74.325 113.847 83.2548 108.615 87.8774C103.376 92.5064 95.2253 89.3602 88.2613 89.9844C80.3453 90.694 71.3102 96.7026 65.0709 91.7807C58.7803 86.8183 61.4506 76.6617 61.2217 68.6541C61.0567 62.8802 62.9245 57.6558 63.9328 51.9683C65.1643 45.022 63.5439 37.3282 67.7761 31.6833C72.659 25.1705 80.146 20.1694 88.2613 19.5187Z" fill="#F6FDFF"/>
<path d="M89.8311 163.981C68.4026 165.928 15.961 160.24 1 121.907C37.2338 117.232 85.1558 118.401 89.8311 163.981ZM89.8311 163.981C71.5195 162.033 27.1818 143.879 19.7013 86.846C46.5844 95.027 88.6623 111.389 89.8311 163.981ZM89.8311 163.981C136.584 164.916 152.169 112.947 154.117 86.846C130.351 90.7417 84.2208 111.623 89.8311 163.981ZM89.8311 163.981C91.7792 144.113 112.74 106.48 181 114.895C166.974 138.269 127.234 179.174 89.8311 163.981ZM89.8311 163.981C89.0519 148.787 83.2857 114.661 66.4545 99.7018C45.4156 81.0025 82.8485 53.5237 88.975 27.3294C91.876 14.9257 100.54 -1.11049 91 1.22951C81.46 3.56951 87.7 24.5545 91 29.5795C99.961 45.1622 113.568 76.7761 108.532 86.846C102.688 98.5331 86.3247 105.545 75.8052 88.0147C71.1299 75.159 87.4935 68.1467 94.5065 76.3277C98.4026 82.5608 102.455 94.3257 87.4935 91.5208" stroke="#00AEC7" stroke-width="2" stroke-linecap="round" stroke-linejoin="round"/>
</svg>
