<svg width="182" height="180" viewBox="0 0 182 180" fill="none" xmlns="http://www.w3.org/2000/svg">
<path fill-rule="evenodd" clip-rule="evenodd" d="M119.353 93.9213C126.769 93.7012 133.251 97.4633 140.1 100.309C149.409 104.177 161.209 104.936 166.483 113.505C171.993 122.458 171.865 134.851 167.132 144.236C162.599 153.226 151.759 156.373 142.664 160.739C135.218 164.314 127.42 165.382 119.353 167.175C108.392 169.611 96.4996 179.117 87.0293 173.102C77.6903 167.17 82.7482 152.222 79.2995 141.735C75.837 131.205 61.8871 121.679 66.861 111.769C72.0899 101.35 88.4229 105.276 99.4857 101.515C106.367 99.1751 112.086 94.1371 119.353 93.9213Z" fill="#F6FDFF"/>
<path d="M74.3675 94.3088C64.7862 81.58 96.1919 66.4132 111.097 86.355C123.385 102.796 95.1277 114.466 75.9646 111.283C56.8015 108.101 57.7831 98.5248 58.3987 86.355C59.3744 67.069 88.4739 55.985 105.241 65.6696C122.084 75.3973 129.854 97.7714 116.419 113.933C101.569 131.799 69.7916 125.272 52.5433 109.69C35.5025 94.2955 39.3641 80.6951 48.2849 63.0174C61.3241 37.1783 90.1345 40.6696 116.419 52.9404C142.621 65.1723 146.545 83.7301 140.374 109.69C133.068 140.426 113.258 138.886 85.5464 139.39C60.7573 139.84 45.0277 137.434 30.1864 117.645C17.2341 100.376 21.2365 88.7592 30.1864 63.0174C39.437 36.4105 51.6886 28.1858 72.2387 26.9523C116.419 24.3004 135.555 39.3309 147.826 59.8352C167.945 93.4495 164.014 115.439 144.1 139.39C125.465 161.803 105.242 160.075 72.2387 160.075C39.2353 160.075 27.8759 137.118 11.3751 122.798C-5.12568 108.478 -1.81672 66.9631 20.3921 31.6259C42.6008 -3.71132 78.4902 1.17163 104.381 3.88826C138.646 7.48359 174.674 56.7949 177.807 73.2313C185.791 115.129 180.297 143.396 144.1 166.201C107.903 189.007 44.7229 175.218 17.0429 166.201" stroke="#00AEC7" stroke-width="2" stroke-linecap="round" stroke-linejoin="round"/>
</svg>
