<svg width="182" height="132" viewBox="0 0 182 132" fill="none" xmlns="http://www.w3.org/2000/svg">
<path fill-rule="evenodd" clip-rule="evenodd" d="M115.066 6.83931C122.502 7.73659 128.452 12.5503 134.532 16.9322C140.643 21.3371 148.06 25.1024 150.365 32.2823C152.669 39.456 150.468 47.623 146.431 53.9816C142.868 59.5925 135.288 60.3438 129.998 64.3609C124.532 68.5118 121.749 76.2544 115.066 77.8001C107.885 79.4612 99.5535 77.6442 94.1153 72.6606C88.8331 67.82 89.0157 59.7342 87.6666 52.691C86.5011 46.6062 86.1881 40.7416 86.8209 34.5784C87.6357 26.6422 86.1798 17.3686 91.8667 11.7836C97.6542 6.09991 107.02 5.86833 115.066 6.83931Z" fill="#F6FDFF"/>
<path d="M93.7835 129.97C162.072 132.196 180.381 72.7529 181 42.7528C172.483 42.7528 164.776 43.5171 157.804 44.9063M93.7835 129.97C92.2092 129.918 90.663 129.848 89.1443 129.759M93.7835 129.97C92.8088 117.786 95.9137 84.0043 121.008 62.2374M89.1443 129.759C8.31938 125.041 5.55361 68.2531 1 42.7528C8.93833 43.3198 17.1077 44.3314 25.1237 46.1808M89.1443 129.759C86.9123 95.7316 75.4451 74.9511 59.806 62.2374M121.008 62.2374C119.861 56.5922 117.588 48.1226 114.196 39.0314M121.008 62.2374C130.101 54.3493 142.083 48.039 157.804 44.9063M59.806 62.2374C59.6078 54.5705 62.034 46.6837 65.7175 39.0314M59.806 62.2374C49.5611 53.9089 37.5259 49.0421 25.1237 46.1808M114.196 39.0314C109.039 25.2113 101.298 9.95477 91 1C84.3078 10.7342 72.7325 24.4576 65.7175 39.0314M114.196 39.0314C122.814 34.9793 139.015 26.38 134.875 24.4C129.7 21.925 124.75 34.525 137.35 33.625C147.43 32.905 152.712 24.5647 154.093 20.4846C156.32 38.2991 157.495 44.1885 157.804 44.9063M65.7175 39.0314C54.0419 34.0863 29.7629 23.2681 26.0515 19.5568C25.3093 26.2372 25.1237 40.0896 25.1237 46.1808" stroke="#00AEC7" stroke-width="2" stroke-linecap="round" stroke-linejoin="round"/>
</svg>
