<svg width="20" height="20" viewBox="0 0 20 20" fill="none" xmlns="http://www.w3.org/2000/svg">
<path d="M15.4861 17.9167L15.4862 17.9667H15.4863L15.4865 17.9667L15.4874 17.9667L15.4903 17.9666L15.501 17.9663C15.5103 17.966 15.5236 17.9654 15.5404 17.9642C15.574 17.9618 15.6217 17.9571 15.6788 17.9475C15.7927 17.9285 15.9454 17.8905 16.0987 17.8138C16.2522 17.7371 16.4073 17.6212 16.5238 17.4464C16.6406 17.2712 16.7167 17.04 16.7167 16.7361C16.7167 16.133 16.4166 14.9396 15.3739 13.8969C14.3298 12.8528 12.5453 11.9639 9.58333 11.9639C6.6214 11.9639 4.83689 12.8528 3.79277 13.8969C2.75011 14.9396 2.45 16.133 2.45 16.7361C2.45 17.04 2.52612 17.2712 2.64286 17.4464C2.75939 17.6212 2.91442 17.7371 3.06792 17.8138C3.22122 17.8905 3.37392 17.9285 3.48787 17.9475C3.54497 17.9571 3.59266 17.9618 3.62627 17.9642C3.64308 17.9654 3.6564 17.966 3.66563 17.9663L3.67636 17.9666L3.6793 17.9667L3.68014 17.9667L3.6804 17.9667H3.68049L3.68056 17.9167V17.9667H15.4861V17.9167ZM14.4685 14.8023C15.2201 15.5539 15.4161 16.3688 15.4346 16.6861H3.73222C3.75169 16.3685 3.94672 15.5537 4.69813 14.8023C5.45674 14.0437 6.89044 13.2444 9.58333 13.2444C12.2751 13.2444 13.7099 14.0437 14.4685 14.8023ZM11.2175 8.92587C10.7841 9.35929 10.1963 9.60278 9.58333 9.60278C8.97039 9.60278 8.38255 9.35929 7.94913 8.92587C7.51571 8.49245 7.27222 7.90461 7.27222 7.29167C7.27222 6.67872 7.51571 6.09088 7.94913 5.65746C8.38255 5.22405 8.97039 4.98056 9.58333 4.98056C10.1963 4.98056 10.7841 5.22405 11.2175 5.65746C11.651 6.09088 11.8944 6.67872 11.8944 7.29167C11.8944 7.90461 11.651 8.49245 11.2175 8.92587ZM12.123 9.83136C12.7966 9.15779 13.175 8.24424 13.175 7.29167C13.175 6.3391 12.7966 5.42554 12.123 4.75197C11.4495 4.07841 10.5359 3.7 9.58333 3.7C8.63076 3.7 7.71721 4.07841 7.04364 4.75197C6.37007 5.42554 5.99167 6.3391 5.99167 7.29167C5.99167 8.24424 6.37007 9.15779 7.04364 9.83136C7.71721 10.5049 8.63076 10.8833 9.58333 10.8833C10.5359 10.8833 11.4495 10.5049 12.123 9.83136Z" fill="#00AEC7" stroke="#00AEC7" stroke-width="0.1"/>
</svg>
