<svg width="18" height="13" viewBox="0 0 18 13" fill="none" xmlns="http://www.w3.org/2000/svg">
<path fill-rule="evenodd" clip-rule="evenodd" d="M1.53205 6.5C1.5912 6.61178 1.66466 6.74443 1.75292 6.89309C2.04284 7.38149 2.48889 8.0369 3.10692 8.69241C4.33699 9.99709 6.24751 11.3043 9 11.3043C11.7525 11.3043 13.663 9.99709 14.8931 8.69241C15.5111 8.0369 15.9572 7.38149 16.2471 6.89309C16.3353 6.74443 16.4088 6.61178 16.468 6.5C16.4088 6.38822 16.3353 6.25557 16.2471 6.10691C15.9572 5.61851 15.5111 4.9631 14.8931 4.30759C13.663 3.00291 11.7525 1.69565 9 1.69565C6.24751 1.69565 4.33699 3.00291 3.10692 4.30759C2.48889 4.9631 2.04284 5.61851 1.75292 6.10691C1.66466 6.25557 1.5912 6.38822 1.53205 6.5ZM17.2895 6.5C17.925 6.12084 17.9248 6.12045 17.9246 6.12003L17.9243 6.1191L17.9233 6.11683L17.9207 6.11076L17.9128 6.09254C17.9064 6.07774 17.8975 6.05768 17.8862 6.03272C17.8635 5.98279 17.831 5.91318 17.7883 5.8267C17.7029 5.65383 17.5766 5.41294 17.4067 5.12679C17.0675 4.5554 16.5514 3.79777 15.8372 3.04024C14.4028 1.51883 12.1686 0 9 0C5.83144 0 3.59722 1.51883 2.16282 3.04024C1.44861 3.79777 0.932491 4.5554 0.593302 5.12679C0.423433 5.41294 0.297084 5.65383 0.211713 5.8267C0.169003 5.91318 0.136473 5.98279 0.11381 6.03272C0.102477 6.05768 0.0936035 6.07774 0.087152 6.09254L0.0792831 6.11076L0.0767 6.11683L0.0757444 6.1191L0.0753505 6.12003C0.0751768 6.12045 0.0750123 6.12084 0.710526 6.5L0.0750123 6.12084C-0.0250041 6.35953 -0.0250041 6.64047 0.0750123 6.87916L0.710526 6.5C0.0750123 6.87916 0.0751768 6.87955 0.0753505 6.87996L0.0757444 6.8809L0.0767 6.88317L0.0792831 6.88924L0.087152 6.90746C0.0936035 6.92226 0.102477 6.94231 0.11381 6.96728C0.136473 7.0172 0.169003 7.08682 0.211713 7.1733C0.297084 7.34617 0.423433 7.58705 0.593302 7.87321C0.932491 8.4446 1.44861 9.20222 2.16282 9.95976C3.59722 11.4812 5.83144 13 9 13C12.1686 13 14.4028 11.4812 15.8372 9.95976C16.5514 9.20222 17.0675 8.4446 17.4067 7.87321C17.5766 7.58705 17.7029 7.34617 17.7883 7.1733C17.831 7.08682 17.8635 7.0172 17.8862 6.96728C17.8975 6.94231 17.9064 6.92226 17.9128 6.90746L17.9207 6.88924L17.9233 6.88317L17.9243 6.8809L17.9246 6.87996C17.9248 6.87955 17.925 6.87916 17.2895 6.5ZM17.2895 6.5L17.925 6.87916C18.025 6.64047 18.025 6.35953 17.925 6.12084L17.2895 6.5ZM1.34525 6.11895C1.3451 6.1186 1.34509 6.11858 1.34522 6.11889L1.34525 6.11895ZM1.34522 6.88111C1.34509 6.88142 1.3451 6.8814 1.34525 6.88104L1.34522 6.88111Z" fill="#00AEC7"/>
<path d="M11 6.5C11 7.32843 10.1046 8 9 8C7.89543 8 7 7.32843 7 6.5C7 5.67157 7.89543 5 9 5C10.1046 5 11 5.67157 11 6.5Z" fill="#00AEC7"/>
</svg>
