<svg width="43" height="29" viewBox="0 0 43 29" fill="none" xmlns="http://www.w3.org/2000/svg">
<path d="M19.7319 17.4445L19.732 17.4447L19.7364 17.443L20.3271 17.2122L20.3271 17.2123L20.3286 17.2116C20.4495 17.1598 20.512 17.0321 20.456 16.9157C20.0872 15.8481 20.1871 14.6236 20.7134 13.6271C21.3672 12.3894 22.9216 11.4171 24.4775 11.2742C25.6321 11.1743 26.6239 11.5168 27.2886 12.267L27.2885 12.267L27.2907 12.2691C27.3783 12.3568 27.5054 12.3761 27.6131 12.3042L27.6132 12.3044L27.6166 12.3017L28.1209 11.8979L28.121 11.8979L28.1217 11.8973C28.2324 11.8049 28.2283 11.6595 28.1601 11.5572L28.1605 11.5569L28.1559 11.5517C27.2222 10.5004 25.8949 10.0052 24.3676 10.1507C22.4364 10.3251 20.5617 11.5016 19.7316 13.0901C19.0481 14.371 18.9316 15.928 19.4256 17.2965C19.4651 17.4307 19.6137 17.4783 19.7319 17.4445Z" fill="#00AEC7" stroke="white" stroke-width="0.1" stroke-linecap="square" stroke-linejoin="round"/>
<path d="M32.0053 15.5589L32.0052 15.5589L32.005 15.5594L31.7607 16.1492C31.7049 16.2634 31.7631 16.4072 31.8867 16.4606C33.4539 17.1881 34.3354 18.5547 34.3354 20.2651C34.3211 22.4222 32.9214 24.4957 30.9217 25.3677L30.9217 25.3676L30.9194 25.3688C30.8161 25.4204 30.7389 25.5462 30.7946 25.6775L31.0248 26.2681L31.0248 26.2681L31.0255 26.2696C31.0517 26.3308 31.0966 26.3771 31.153 26.4006C31.2096 26.4242 31.2741 26.4234 31.3361 26.3968L31.3363 26.3967C33.7459 25.3507 35.415 22.8528 35.4441 20.2659L35.4441 20.2656C35.4586 18.0968 34.3228 16.3487 32.3315 15.4322L32.3315 15.4322L32.3303 15.4317C32.2052 15.378 32.0598 15.4314 32.0053 15.5589Z" fill="#00AEC7" stroke="white" stroke-width="0.1" stroke-linecap="square" stroke-linejoin="round"/>
<path d="M15.4017 8.47782L15.4017 8.47793L16.0061 8.34831C16.148 8.3133 16.2777 8.40219 16.2972 8.53282C16.4276 9.20063 16.7041 11.4683 15.3071 13.2159L15.307 13.2161C14.2134 14.5733 12.4237 15.2536 9.96564 15.2536H9.9653H9.96496H9.96462H9.96428H9.96394H9.9636H9.96326H9.96292H9.96258H9.96224H9.9619H9.96156H9.96122H9.96088H9.96053H9.96019H9.95985H9.9595H9.95916H9.95882H9.95847H9.95813H9.95778H9.95744H9.95709H9.95675H9.9564H9.95606H9.95571H9.95536H9.95501H9.95467H9.95432H9.95397H9.95362H9.95327H9.95293H9.95258H9.95223H9.95188H9.95153H9.95118H9.95083H9.95048H9.95012H9.94977H9.94942H9.94907H9.94872H9.94837H9.94801H9.94766H9.94731H9.94695H9.9466H9.94624H9.94589H9.94554H9.94518H9.94483H9.94447H9.94412H9.94376H9.9434H9.94305H9.94269H9.94233H9.94198H9.94162H9.94126H9.9409H9.94055H9.94019H9.93983H9.93947H9.93911H9.93875H9.93839H9.93803H9.93767H9.93731H9.93695H9.93659H9.93623H9.93587H9.93551H9.93515H9.93479H9.93443H9.93406H9.9337H9.93334H9.93298H9.93261H9.93225H9.93189H9.93152H9.93116H9.93079H9.93043H9.93007H9.9297H9.92934H9.92897H9.92861H9.92824H9.92788H9.92751H9.92714H9.92678H9.92641H9.92605H9.92568H9.92531H9.92495H9.92458H9.92421H9.92384H9.92348H9.92311H9.92274H9.92237H9.922H9.92163H9.92127H9.9209H9.92053H9.92016H9.91979H9.91942H9.91905H9.91868H9.91831H9.91794H9.91757H9.9172H9.91683H9.91646H9.91609H9.91571H9.91534H9.91497H9.9146H9.91423H9.91386H9.91348H9.91311H9.91274H9.91237H9.91199H9.91162H9.91125H9.91088H9.9105H9.91013H9.90976H9.90938H9.90901H9.90863H9.90826H9.90789H9.90751H9.90714H9.90676H9.90639H9.90601H9.90564H9.90526H9.90489H9.90451H9.90414H9.90376H9.90339H9.90301H9.90264H9.90226H9.90189H9.90151H9.90113H9.90076H9.90038H9.90001H9.89963H9.89925H9.89888H9.8985H9.89812H9.89775H9.89737H9.89699H9.89661H9.89624H9.89586H9.89548H9.8951H9.89473H9.89435H9.89397H9.89359H9.89322H9.89284H9.89246H9.89208H9.8917H9.89133H9.89095H9.89057H9.89019H9.88981H9.88943H9.88906H9.88868H9.8883H9.88792H9.88754H9.88716H9.88678H9.8864H9.88602H9.88565H9.88527H9.88489H9.88451H9.88413H9.88375H9.88337H9.88299H9.88261H9.88223H9.88185H9.88147H9.88109H9.88071H9.88033H9.87995H9.87957H9.8792H9.87882H9.87844H9.87806H9.87768H9.8773H9.87692H9.87654H9.87616H9.87578H9.8754H9.87502H9.87464H9.87426H9.87388H9.8735H9.87312H9.87274H9.87236H9.87198H9.8716H9.87122H9.87084H9.87046H9.87008H9.8697H9.86932H9.86894H9.86856H9.86818H9.8678H9.86742H9.86704H9.86666H9.86628H9.8659H9.86552H9.86514H9.86476H9.86438H9.864H9.86362H9.86324H9.86286H9.86248H9.8621H9.86172H9.86134H9.86097H9.86059H9.86021H9.85983H9.85945H9.85907H9.85869H9.85831H9.85793H9.85755H9.85717H9.85679H9.85642H9.85604H9.85566H9.85528H9.8549H9.85452H9.85414H9.85377H9.85339H9.85301H9.85263H9.85225H9.85187H9.8515H9.85112H9.85074H9.85036H9.84998H9.84961H9.84923H9.84885H9.84847H9.8481H9.84772H9.84734H9.84696H9.84659H9.84621H9.84583H9.84546H9.84508H9.8447H9.84433H9.84395H9.84357H9.8432H9.84282H9.84245H9.84207H9.84169H9.84132H9.84094H9.84057H9.84019H9.83982H9.83944H9.83907H9.83869H9.83832H9.83794H9.83757H9.83719H9.83682H9.83644H9.83607H9.8357H9.83532H9.83495H9.83457H9.8342H9.83383H9.83345H9.83308H9.83271H9.83233H9.83196H9.83159H9.83122H9.83084H9.83047H9.8301H9.82973H9.82936H9.82899H9.82861H9.82824H9.82787H9.8275H9.82713H9.82676H9.82639H9.82602H9.82565H9.82528H9.82491H9.82454H9.82417H9.8238H9.82343H9.82306H9.82269H9.82232H9.82195H9.82159H9.82122H9.82085H9.82048H9.82011H9.81975H9.81938H9.81901H9.81864H9.81828H9.81791H9.81754H9.81718H9.81681H9.81645H9.81608H9.81571H9.81535H9.81498H9.81462H9.81425H9.81389H9.81353H9.81316H9.8128H9.81243H9.81207H9.81171H9.81134H9.81098H9.81062H9.81026H9.80989H9.80953H9.80917H9.80881H9.80845H9.80808H9.80772H9.80736H9.807H9.80664H9.80628H9.80592H9.80556H9.8052H9.80484H9.80449H9.80413H9.80377H9.80341H9.80305H9.80269H9.80234H9.80198H9.80162H9.80127H9.80091H9.80055H9.8002H9.79984H9.79949H9.79913H9.79877H9.79842H9.79807H9.79771H9.79736H9.797H9.79665H9.7963H9.79594H9.79559H9.79524H9.79489H9.79453H9.79418H9.79383H9.79348H9.79313H9.79278H9.79243H9.79208H9.79173H9.79138H9.79103H9.79068H9.79033H9.78998H9.78964H9.78929H9.78894H9.78859H9.78825H9.7879H9.78755H9.78721H9.78686H9.78652H9.78617H9.78583H9.78548H9.78514H9.78479H9.78445H9.78411H9.78376H9.78342H9.78308H9.78274H9.7824H9.78205H9.78171H9.78137H9.78103H9.78069H9.78035H9.78001H9.77967H9.77933H9.779H9.77866H9.77832C9.76491 15.2536 9.75206 15.2482 9.74266 15.2386C9.73326 15.2291 9.72809 15.2161 9.72833 15.2027L9.74273 14.3812L9.74274 14.3807L9.79273 14.3816C9.79273 14.2807 9.87918 14.1942 9.98004 14.1942L15.4017 8.47782ZM15.4017 8.47782L15.3984 8.47875C15.2746 8.51415 15.2005 8.62344 15.2186 8.7502L15.2186 8.7502L15.2189 8.75196C15.2687 9.03003 15.3438 9.6344 15.2706 10.3387C15.1974 11.043 14.9762 11.8439 14.4366 12.519C13.5856 13.5835 12.0911 14.1297 9.97991 14.1442L15.4017 8.47782Z" fill="#00AEC7" stroke="white" stroke-width="0.1" stroke-linecap="square" stroke-linejoin="round"/>
<path d="M21.7614 21.2632L21.7614 21.2632C20.6404 22.6924 20.5565 24.0283 20.8124 25.0762C21.0688 26.1255 21.6669 26.8892 21.9168 27.1681C21.9529 27.2038 21.998 27.2246 22.0391 27.2246H36.4141C42.1427 21.9812 41.2764 15.6721 39.461 12.9538L39.4608 12.9536C38.5774 11.6131 36.9516 10.7991 35.3403 10.8562C34.2017 10.8989 33.2818 11.3823 32.7444 12.2308C32.708 12.2939 32.6484 12.3351 32.576 12.3464C32.5044 12.3576 32.4244 12.339 32.3451 12.2915C32.3449 12.2914 32.3447 12.2913 32.3444 12.2912L31.8846 12.0323L31.8843 12.0321C31.7613 11.9618 31.7054 11.7858 31.7956 11.6579C32.3208 10.8407 33.1085 10.2425 34.0703 9.95082L34.075 9.94941L34.075 9.94964C34.1273 9.93919 34.1694 9.89699 34.1799 9.84466L34.1805 9.84165L34.1806 9.84168C34.3088 9.3571 34.4941 8.24041 34.013 7.00469C33.5328 5.77099 32.3849 4.41007 29.8309 3.44075L29.8486 3.394L29.8309 3.44074C27.2489 2.46007 25.2131 3.14666 23.7506 4.20422C22.2858 5.26337 21.3968 6.69459 21.1174 7.19654L21.1171 7.19701C21.0488 7.3166 20.9059 7.37544 20.7772 7.30334C20.6975 7.26702 20.604 7.22022 20.5115 7.17396L20.511 7.17367C20.417 7.12668 20.3243 7.08027 20.2461 7.04468L20.2418 7.04276L20.2419 7.04257C20.1201 6.9729 20.0641 6.81398 20.1367 6.68637C20.1367 6.68623 20.1368 6.6861 20.1369 6.68596L20.1803 6.71075C20.3388 6.42234 20.699 5.83109 21.2466 5.16774L21.7614 21.2632ZM21.7614 21.2632C23.6277 18.8821 26.4067 19.5359 27.1539 19.766L27.1549 19.7663C27.2776 19.8014 27.421 19.7487 27.4746 19.6065M21.7614 21.2632L27.4746 19.6065M10.4396 19.4519C10.2991 19.4521 10.1715 19.5741 10.1883 19.7218L10.2026 20.3095C10.2026 20.3097 10.2026 20.3099 10.2026 20.3101C10.203 20.4571 10.3306 20.5613 10.4688 20.5613L10.4692 20.5613C12.0053 20.547 13.1123 20.8922 13.7611 21.5698C14.381 22.2185 14.6546 23.2685 14.5542 24.6752C14.5009 25.3404 14.2933 25.8273 14.0125 26.1845C13.7314 26.542 13.3748 26.7722 13.0197 26.9202C12.3511 27.1989 11.693 27.1845 11.567 27.1817C11.5589 27.1815 11.553 27.1814 11.5494 27.1814L11.535 27.1814L11.5343 27.1814L7.24118 27.2391H7.2408H6.05966H6.05958H6.05949H6.05941H6.05932H6.05924H6.05916H6.05908H6.05899H6.05891H6.05883H6.05875H6.05867H6.05859H6.05851H6.05843H6.05835H6.05827H6.05819H6.05811H6.05804H6.05796H6.05788H6.0578H6.05773H6.05765H6.05757H6.0575H6.05742H6.05734H6.05727H6.05719H6.05712H6.05705H6.05697H6.0569H6.05682H6.05675H6.05668H6.05661H6.05653H6.05646H6.05639H6.05632H6.05625H6.05618H6.0561H6.05603H6.05596H6.05589H6.05582H6.05575H6.05569H6.05562H6.05555H6.05548H6.05541H6.05534H6.05528H6.05521H6.05514H6.05507H6.05501H6.05494H6.05488H6.05481H6.05474H6.05468H6.05461H6.05455H6.05448H6.05442H6.05436H6.05429H6.05423H6.05416H6.0541H6.05404H6.05398H6.05391H6.05385H6.05379H6.05373H6.05367H6.0536H6.05354H6.05348H6.05342H6.05336H6.0533H6.05324H6.05318H6.05312H6.05306H6.053H6.05294H6.05288H6.05283H6.05277H6.05271H6.05265H6.05259H6.05254H6.05248H6.05242H6.05236H6.05231H6.05225H6.05219H6.05214H6.05208H6.05203H6.05197H6.05192H6.05186H6.05181H6.05175H6.0517H6.05164H6.05159H6.05153H6.05148H6.05142H6.05137H6.05132H6.05126H6.05121H6.05116H6.0511H6.05105H6.051H6.05095H6.05089H6.05084H6.05079H6.05074H6.05069H6.05064H6.05058H6.05053H6.05048H6.05043H6.05038H6.05033H6.05028H6.05023H6.05018H6.05013H6.05008H6.05003H6.04998H6.04993H6.04988H6.04983H6.04978H6.04974H6.04969H6.04964H6.04959H6.04954H6.04949H6.04945H6.0494H6.04935H6.0493H6.04925H6.04921H6.04916H6.04911H6.04907H6.04902H6.04897H6.04892H6.04888H6.04883H6.04878H6.04874H6.04869H6.04865H6.0486H6.04855H6.04851H6.04846H6.04842H6.04837H6.04833H6.04828H6.04823H6.04819H6.04814H6.0481H6.04805H6.04801H6.04796H6.04792H6.04787H6.04783H6.04779H6.04774H6.0477H6.04765H6.04761H6.04756H6.04752H6.04748H6.04743H6.04739H6.04734H6.0473H6.04726H6.04721H6.04717H6.04713H6.04708H6.04704H6.047H6.04695H6.04691H6.04687H6.04682H6.04678H6.04674H6.04669H6.04665H6.04661H6.04657H6.04652H6.04648H6.04644H6.04639H6.04635H6.04631H6.04627H6.04622H6.04618H6.04614H6.0461H6.04605H6.04601H6.04597H6.04593H6.04588H6.04584H6.0458H6.04576H6.04572H6.04567H6.04563H6.04559H6.04555H6.0455H6.04546H6.04542H6.04538H6.04534H6.04529H6.04525H6.04521H6.04517H6.04512H6.04508H6.04504H6.045H6.04496H6.04491H6.04487H6.04483H6.04479H6.04474H6.0447H6.04466H6.04462H6.04457H6.04453H6.04449H6.04445H6.0444H6.04436H6.04432H6.04428H6.04423H6.04419H6.04415H6.04411H6.04406H6.04402H6.04398H6.04394H6.04389H6.04385H6.04381H6.04376H6.04372H6.04368H6.04363H6.04359H6.04355H6.04351H6.04346H6.04342H6.04338H6.04333H6.04329H6.04324H6.0432H6.04316H6.04311H6.04307H6.04303H6.04298H6.04294H6.04289H6.04285H6.0428H6.04276H6.04272H6.04267H6.04263H6.04258H6.04254H6.04249H6.04245H6.0424H6.04236H6.04231H6.04227H6.04222H6.04218H6.04213H6.04209H6.04204H6.04199H6.04195H6.0419H6.04186H6.04181H6.04176H6.04172H6.04167H6.04162H6.04158H6.04153H6.04148H6.04144H6.04139H6.04134H6.0413H6.04125H6.0412H6.04115H6.0411H6.04106H6.04101H6.04096H6.04091H6.04086H6.04081H6.04077H6.04072H6.04067H6.04062H6.04057H6.04052H6.04047H6.04042H6.04037H6.04032H6.04027H6.04022H6.04017H6.04012H6.04007H6.04002H6.03997H6.03992H6.03987H6.03981H6.03976H6.03971H6.03966H6.03961H6.03955H6.0395H6.03945H6.0394H6.03934H6.03929H6.03924H6.03918H6.03913H6.03908H6.03902H6.03897H6.03892H6.03886H6.03881H6.03875H6.0387H6.03864H6.03859H6.03853H6.03848H6.03842H6.03836H6.03831H6.03825H6.03819H6.03814H6.03808H6.03802H6.03797H6.03791H6.03785H6.03779H6.03773H6.03768H6.03762H6.03756H6.0375H6.03744H6.03738H6.03732H6.03726H6.0372H6.03714H6.03708H6.03702H6.03696H6.0369H6.03684H6.03677H6.03671H6.03665H6.03659H6.03653H6.03646H6.0364H6.03634H6.03627H6.03621H6.03615H6.03608H6.03602H6.03595H6.03589H6.03582H6.03576H6.03569H6.03563H6.03556H6.03549H6.03543H6.03536H6.03529H6.03523H6.03516H6.03509H6.03502H6.03495H6.03489H6.03482H6.03475H6.03468H6.03461H6.03454H6.03447H6.0344H6.03433H6.03426H6.03418H6.03411H6.03404H6.03397H6.0339H6.03382H6.03375H6.03368H6.0336H6.03353H6.03346H6.03338H6.03331H6.03323C3.33697 26.981 1.8992 25.055 1.67135 23.2306C1.41295 21.1617 1.78777 19.6228 2.76659 18.6432C3.44161 17.9676 4.31728 17.6318 5.10963 17.4707C5.90174 17.3097 6.60662 17.324 6.93534 17.3454L6.93534 17.3455H6.9386C7.07781 17.3455 7.18666 17.2559 7.20435 17.1143L7.20436 17.1141L7.27639 16.523L27.6441 19.0404L27.5432 19.3L27.428 19.5884M10.4396 19.4519C12.2911 19.423 13.676 19.8716 14.5539 20.7941L14.5539 20.7941C15.4171 21.702 15.7784 23.0302 15.6482 24.7544C15.5899 25.7158 15.2694 26.4326 14.8155 26.9604C14.7267 27.0726 14.8057 27.2246 14.9355 27.2246H20.31C20.4462 27.2246 20.5198 27.0921 20.4544 26.9831L20.4542 26.9827C20.0626 26.315 19.6589 25.3732 19.6116 24.2683C19.5643 23.162 19.8743 21.8958 20.9046 20.5814L20.9047 20.5814C23.2013 17.6574 26.6443 18.4431 27.528 18.7183M10.4396 19.4519C10.4397 19.4519 10.4398 19.4519 10.4399 19.4519V19.5019L10.4392 19.4519C10.4393 19.4519 10.4394 19.4519 10.4396 19.4519ZM27.528 18.7183C27.5284 18.7184 27.5289 18.7186 27.5293 18.7187L27.5144 18.7664L27.5265 18.7179C27.527 18.7181 27.5275 18.7182 27.528 18.7183ZM27.528 18.7183C27.6759 18.7563 27.7427 18.9198 27.6909 19.058L27.6907 19.0585L27.5898 19.3181L27.5897 19.3186L27.4748 19.606L27.428 19.5884M27.428 19.5884L27.4744 19.607L27.4746 19.6065M27.428 19.5884C27.3847 19.7038 27.2695 19.747 27.1686 19.7182L27.4746 19.6065M38.1117 27.31C38.0673 27.3629 37.8507 27.6126 37.5277 27.852C37.1981 28.0962 36.7517 28.3341 36.2606 28.3341H7.25596H7.25559L6.16118 28.3485L6.16052 28.3485L6.14611 28.3485C6.12031 28.3485 6.0952 28.3443 6.07461 28.3409L6.07305 28.3406C6.0507 28.3369 6.0332 28.3341 6.01643 28.3341H5.72826C5.70599 28.3341 5.68712 28.3195 5.68065 28.2994C2.54097 27.8776 0.853008 25.5608 0.577917 23.344C0.274201 20.9411 0.750359 19.0775 1.98982 17.837C2.36837 17.4582 2.79019 17.1671 3.22568 16.9345C3.30365 16.8895 3.33393 16.7782 3.28128 16.7045L3.27978 16.7024L3.27984 16.7024C2.05024 14.7768 1.26225 11.8997 2.74604 9.43928L2.78885 9.4651L2.74604 9.43928C3.71871 7.82651 5.25943 6.80682 6.97715 6.64655C6.97716 6.64655 6.97717 6.64655 6.97718 6.64655L6.98182 6.69633L38.1117 27.31ZM38.1117 27.31C39.2287 26.3575 40.193 24.7426 40.8871 23.043C41.582 21.3414 42.009 19.5472 42.0453 18.2344C42.1321 15.3656 41.0608 13.3077 40.4086 12.3358C39.3071 10.6823 37.3253 9.68019 35.3403 9.74618C35.4717 8.96812 35.5358 7.66591 34.9211 6.30087C34.2899 4.89896 32.9458 3.43772 30.241 2.40992C27.515 1.3651 24.8735 1.81561 22.6121 3.71624L22.612 3.71622L22.611 3.71716L22.2226 4.06266C22.2225 4.06276 22.2224 4.06286 22.2223 4.06296C22.1426 4.13099 22.0351 4.11783 21.9808 4.03114C21.5384 3.29825 20.7441 2.27807 19.4775 1.55165C18.2097 0.824492 16.4721 0.393709 14.1482 0.83566C11.9956 1.23464 10.659 2.2694 9.83039 3.406C9.00273 4.54134 8.68378 5.77566 8.56061 6.57334L8.56059 6.57333L8.56041 6.57477C8.55019 6.65657 8.46613 6.71556 8.3727 6.70458C8.37223 6.70452 8.37175 6.70446 8.37128 6.7044L8.36507 6.75402L38.1117 27.31ZM21.2325 4.96272C21.2622 5.01231 21.2558 5.07597 21.2078 5.13621L11.5782 8.5566C11.0163 7.96535 10.3823 7.48947 9.69069 7.17222L9.71306 7.1275C9.71282 7.12738 9.71257 7.12726 9.71233 7.12713C9.67648 7.10905 9.65285 7.08673 9.63905 7.06161C9.62528 7.03656 9.61898 7.00456 9.62491 6.96297L9.62518 6.96072C9.66798 6.51813 9.81091 5.77392 10.1683 5.00127L10.1684 5.00121C10.9388 3.33055 12.3362 2.30126 14.3541 1.91452C16.618 1.48432 18.2111 1.99013 19.3003 2.72877C20.3911 3.46845 20.9805 4.44439 21.2304 4.95886L21.2302 4.95894L21.2325 4.96272ZM11.5963 8.89744C11.7033 8.80774 11.7219 8.63025 11.6141 8.52173L7.03946 16.2861C6.6072 16.2572 5.6418 16.2284 4.56114 16.5024L4.55291 16.4531C4.55227 16.4532 4.55162 16.4533 4.55097 16.4534C4.48229 16.4642 4.41572 16.4414 4.37063 16.3859C3.20871 14.7197 2.40038 12.1619 3.68186 10.0244L3.68194 10.0242C4.48162 8.68083 5.69294 7.88371 7.0729 7.75557L7.07305 7.75555C8.40966 7.62747 9.76344 8.18202 10.7916 9.26766C10.8848 9.37804 11.0461 9.37317 11.1492 9.28719L11.1492 9.2872L11.15 9.28648L11.5959 8.89783C11.596 8.8977 11.5962 8.89757 11.5963 8.89744ZM7.27641 16.5229C7.29369 16.3838 7.19086 16.2372 7.04121 16.2361L7.27641 16.5229ZM14.9355 27.2746C14.7626 27.2746 14.6617 27.0727 14.777 26.9285L20.944 20.6123C18.8979 23.2224 19.7192 25.6307 20.4973 26.9574C20.5838 27.1016 20.4829 27.2746 20.31 27.2746H14.9355Z" fill="#00AEC7" stroke="white" stroke-width="0.1" stroke-linecap="square" stroke-linejoin="round"/>
</svg>
