<?xml version="1.0" encoding="utf-8"?>
<!-- Generator: Adobe Illustrator 25.4.1, SVG Export Plug-In . SVG Version: 6.00 Build 0)  -->
<svg version="1.1" id="Layer_1" xmlns="http://www.w3.org/2000/svg" xmlns:xlink="http://www.w3.org/1999/xlink" x="0px" y="0px"
	 viewBox="0 0 320 617.6" style="enable-background:new 0 0 320 617.6;" xml:space="preserve">
<style type="text/css">
	.st0{fill:#F9F2EA;}
	.st1{fill:#F9F2EA;filter:url(#Adobe_OpacityMaskFilter);}
	.st2{mask:url(#mask0_00000158733333623922479800000014109455150599980163_);}
	.st3{opacity:0.3;fill:#CBEEF3;enable-background:new    ;}
	.st4{fill:none;stroke:#CBEEF3;stroke-width:3;stroke-linecap:round;}
</style>
<path class="st0" d="M320,0H0v609.1c82.2-74,156.8,3.3,208.3-41.4c36.1-31.3,72.7-25.1,111.7-29.9"/>
<defs>
	<filter id="Adobe_OpacityMaskFilter" filterUnits="userSpaceOnUse" x="33.7" y="316.5" width="250" height="292.6">
		<feColorMatrix  type="matrix" values="1 0 0 0 0  0 1 0 0 0  0 0 1 0 0  0 0 0 1 0"/>
	</filter>
</defs>
<mask maskUnits="userSpaceOnUse" x="33.7" y="316.5" width="250" height="292.6" id="mask0_00000158733333623922479800000014109455150599980163_">
	<path class="st1" d="M-59-1.1v690.7c104.7-197.1,203.7-66.7,267.3-121.9c63.6-55.1,128.9,6.1,205.3-81.7S323.8,38.3,491.5-1.1
		L-59-1.1z"/>
</mask>
<g class="st2">
	<path class="st3" d="M259.8,415.6c0.9-7.2-4-14.1-7.1-21.1c-2.2-5-3.9-10.1-5.8-15.1c-4.4-11.6-15.6-20.8-28.8-26.5
		c-21.5-9.4-48.5-11.1-72.5-7.4c-5.4,0.8-7.6-0.6-6.9-4.9c1.2-7.4-1.8-13.6-11.7-15.1c-6.3-0.9-12.9-0.4-19.1,0.8
		c-11.8,2.3-21.1,7.3-25.9,16.4c-2.5,4.7-3.6,9.7-4.5,14.7c-2.1,12.7-1,26.4,13.2,34.4c12,6.8,27.8,9.9,42.2,11.9
		c15.6,2.2,31.5,3.4,46.7,7.1c10.9,2.7,21.3,6.9,30.1,12.6c2.9,1.9,5.7,4,8.7,5.8c12.1,7.1,31.7,3.9,39-6.9
		C258.7,419.9,259.5,417.7,259.8,415.6z"/>
	<path class="st4" d="M214.4,596.2c0.5-7.9-1.1-26.6-10.4-44.9 M214.4,596.2l15.5,3.6c1.2,0.3-10-19.3-15.1-28.1 M214.4,596.2
		l-44.5-10.3 M180.3,349.9c4.4,7.3,7.2,16,7.5,25.6c0.5,10.9-0.1,36.1-7,50.3c-8.6,17.8-6.8,29.3-7.1,33.2
		c-0.3,4,8.9,58.7,25.8,84.3c1.7,2.6,3.2,5.2,4.6,7.8 M180.3,349.9c-15.9-26.4-54.4-36.9-84-29.8c-39,9.4-50.4,47-46.2,63.2
		c1,3.7,1.8,12.5-2.3,18.1c-4.1,5.6-9.4,13.1-11.5,16.1c-1.6,2.3-2.7,7.4,5.5,9.6c8.2,2.2,9.4,4.6,9,5.6c-0.1,1.3-0.6,4.2-1.5,4.9
		c-1.2,0.9-7.2,6.9,0.5,9.4c-2.8,2.1-4.2,3.7-2.1,5.7l4.8,4.4c1.3,1,3.7,4,2.9,7.7c-1.1,4.6-2.9,20.7,13.4,19.6
		c13-0.9,21.7-1.4,24.5-1.5c6.4-0.1,17.8,3.7,12.5,19.2c-3.8,16.5-1.6,18.2-5.6,24.1l-38.6,65.5c-2.1,3.5-0.1,8,3.8,8.9l13.5,3.1
		 M180.3,349.9c-0.3,3.2-6,9.1-8.2,6.8c-3-3.1,5.3-6.4,10.1-7.4c69.4-13.2,101.4,44.7,89.7,77.3c-1.7,4.4-3.7,14.4,1.7,19.4
		c3.4,6.7,6.8,13.7,8.1,16.4c0.9,2,1.5,6.2-3.5,7.3c-4.9,1.2-8.6,1.9-9.8,2.2c-1.2,0.2-3.3,1.3-1.9,4.6s2.4,5.4,2.7,6.1
		c0.7,1.6,0.7,5-4.6,5.5c2.7,2.6,3.1,6.7-1.2,8.5c-3.4,1.4-5.1,2.3-5.5,2.6c-1,0.6-2.6,3.3-1.5,9.7c1.4,8.1-6.3,14.4-13.7,12
		c-7.4-2.5-28.9-7.4-32.9-6.7c-3.7,0.7-9.6,3.8-7.6,20.1l1.7,16.9 M78.8,603.8c29.5-37.2,56.8-107.9,60.1-122.1
		c0.8-3.5,7-23.6,0.1-37.4c-3.6-11.2-8.3-39.5,1.9-62.8c5.6-11.7,17.9-24.2,24.4-26.3 M78.8,603.8l16.1,3.7"/>
</g>
</svg>
