<?xml version="1.0" encoding="utf-8"?>
<!-- Generator: Adobe Illustrator 25.4.1, SVG Export Plug-In . SVG Version: 6.00 Build 0)  -->
<svg version="1.1" id="Layer_1" xmlns="http://www.w3.org/2000/svg" xmlns:xlink="http://www.w3.org/1999/xlink" x="0px" y="0px"
	 viewBox="0 0 1440 829" style="enable-background:new 0 0 1440 829;" xml:space="preserve">
<style type="text/css">
	.st0{opacity:0.3;fill:#282020;enable-background:new    ;}
	.st1{fill:#F9F2EA;}
	
		.st2{clip-path:url(#SVGID_00000004524254350776267350000002268374618034842808_);fill:none;stroke:#CBEEF3;stroke-width:3;stroke-linecap:round;}
	
		.st3{opacity:0.3;clip-path:url(#SVGID_00000004524254350776267350000002268374618034842808_);fill:#CBEEF3;enable-background:new    ;}
</style>
<path class="st0" d="M1338.5,350.9c1.7-14.2-7.9-27.8-14-41.5c-4.4-9.8-7.7-19.9-11.4-29.8c-8.7-22.9-30.7-40.9-56.7-52.2
	c-42.3-18.5-95.5-21.9-142.6-14.5c-10.5,1.7-14.8-1.2-13.5-9.6c2.4-14.6-3.5-26.8-22.9-29.7c-12.4-1.9-25.3-0.8-37.7,1.6
	c-23.1,4.5-41.5,14.4-50.9,32.2c-4.8,9.2-7.2,19-8.8,28.8c-4.2,24.9-1.9,51.9,25.9,67.6c23.7,13.4,54.7,19.4,83,23.5
	c30.7,4.4,62,6.8,91.9,14c21.5,5.2,41.9,13.5,59.1,24.9c5.7,3.8,11.1,7.8,17.1,11.4c23.8,14,62.3,7.7,76.6-13.6
	C1336.5,359.5,1338,355.1,1338.5,350.9z"/>
<path class="st1" d="M0,0l1440.3,0.3l-0.3,773.3c-604.3-241.9-887.1-70.8-1116.8-174C144.8,519.4,214.9,376.9,0,181.6"/>
<g>
	<defs>
		<path id="SVGID_1_" d="M-0.2,0.6l1440.3,0.3l-0.3,773.3C835.5,532.3,552.8,703.4,323,600.2C144.6,520,214.7,377.5-0.2,182.2"/>
	</defs>
	<clipPath id="SVGID_00000099663788534479269580000006260928806774839699_">
		<use xlink:href="#SVGID_1_"  style="overflow:visible;"/>
	</clipPath>
	
		<path style="clip-path:url(#SVGID_00000099663788534479269580000006260928806774839699_);fill:none;stroke:#CBEEF3;stroke-width:3;stroke-linecap:round;" d="
		M1206.2,709.9c1.2-17.5-2.3-58.9-23.1-99.4 M1206.2,709.9l34.3,8c2.6,0.6-22.1-42.6-33.4-62.3 M1206.2,709.9l-98.4-22.9
		 M1130.7,164.7c9.7,16.1,16,35.4,16.6,56.7c1.2,24-0.3,80-15.5,111.5c-19.1,39.4-15,64.8-15.8,73.6c-0.8,8.8,19.8,130,57.1,186.7
		c3.8,5.7,7.1,11.5,10.1,17.4 M1130.7,164.7c-35.2-58.5-120.5-81.7-185.9-65.9c-86.3,20.8-111.6,104-102.3,139.8
		c2.1,8.2,4.1,27.7-5,40.1c-9.1,12.3-20.8,28.9-25.5,35.7c-3.5,5.1-5.9,16.4,12.3,21.3c18.2,4.9,20.9,10.3,20,12.4
		c-0.3,2.9-1.3,9.2-3.4,10.8c-2.6,2-16,15.2,1.2,20.9c-6.2,4.6-9.2,8.2-4.7,12.7l10.7,9.8c2.9,2.3,8.3,8.8,6.4,16.9
		c-2.4,10.2-6.3,45.8,29.6,43.4c28.7-1.9,48.1-3,54.2-3.3c14.1-0.2,39.4,8.1,27.6,42.5c-8.5,36.5-3.4,40.3-12.4,53.4l-90,152.8
		c-2.3,3.9-0.2,9,4.3,10l38.5,8.9 M1130.7,164.7c-0.7,7.1-13.3,20.1-18.2,15.1c-6.6-6.8,11.7-14.3,22.3-16.3
		c153.7-29.1,224.4,98.9,198.6,171.1c-3.7,9.7-8.1,32,3.8,43c7.6,14.8,15.1,30.4,17.8,36.3c2,4.3,3.3,13.6-7.7,16.3
		c-10.9,2.6-19.1,4.3-21.8,4.8c-2.7,0.4-7.2,3-4.1,10.2c3.1,7.3,5.3,12,5.9,13.4c1.5,3.6,1.5,11.2-10.2,12.2
		c6,5.7,6.9,14.9-2.6,18.7c-7.6,3-11.2,5.1-12.1,5.8c-2.1,1.2-5.8,7.2-3.3,21.6c3.2,17.9-13.9,32-30.3,26.5
		c-16.4-5.5-64.1-16.4-72.9-14.8c-8.1,1.5-21.3,8.4-16.8,44.6l3.7,37.4 M906.2,726.8c65.2-82.3,125.8-238.9,133.1-270.3
		c1.8-7.7,15.6-52.2,0.3-82.8c-8-24.9-18.4-87.6,4.3-139c12.5-25.9,39.6-53.5,54-58.3 M906.2,726.8l35.6,8.3"/>
	
		<path style="opacity:0.3;clip-path:url(#SVGID_00000099663788534479269580000006260928806774839699_);fill:#CBEEF3;enable-background:new    ;" d="
		M1301,329.9c1.9-16-8.9-31.3-15.8-46.8c-4.9-11-8.7-22.4-12.9-33.5c-9.7-25.8-34.5-46-63.9-58.8c-47.6-20.8-107.5-24.7-160.5-16.3
		c-11.9,1.9-16.7-1.3-15.2-10.9c2.7-16.4-3.9-30.1-25.8-33.4c-14-2.1-28.5-0.9-42.4,1.8c-26,5-46.7,16.2-57.3,36.3
		c-5.5,10.3-8.1,21.4-9.9,32.5c-4.7,28-2.2,58.4,29.1,76.1c26.6,15,61.6,21.9,93.4,26.4c34.5,4.9,69.8,7.6,103.4,15.8
		c24.2,5.9,47.1,15.2,66.6,28c6.4,4.2,12.5,8.8,19.2,12.8c26.8,15.8,70.2,8.6,86.3-15.3C1298.7,339.6,1300.4,334.7,1301,329.9z"/>
</g>
</svg>
