<svg width="15" height="15" viewBox="0 0 15 15" fill="none" xmlns="http://www.w3.org/2000/svg">
<path d="M10.8148 8.70547C10.6445 8.61797 9.79609 8.20234 9.63828 8.14609C9.48047 8.08672 9.36484 8.05859 9.25078 8.23359C9.13516 8.40703 8.80703 8.79297 8.70391 8.91016C8.60391 9.02578 8.50234 9.03984 8.33203 8.95391C7.31953 8.44766 6.65547 8.05078 5.98828 6.90547C5.81172 6.60078 6.16484 6.62266 6.49453 5.96484C6.55078 5.84922 6.52266 5.75078 6.47891 5.66328C6.43516 5.57578 6.09141 4.72891 5.94766 4.38359C5.80859 4.04766 5.66484 4.09453 5.56016 4.08828C5.46016 4.08203 5.34609 4.08203 5.23047 4.08203C5.11484 4.08203 4.92891 4.12578 4.77109 4.29609C4.61328 4.46953 4.16797 4.88672 4.16797 5.73359C4.16797 6.58047 4.78516 7.40078 4.86953 7.51641C4.95703 7.63203 6.08359 9.36953 7.81328 10.118C8.90703 10.5898 9.33516 10.6305 9.88203 10.5492C10.2148 10.4992 10.9008 10.1336 11.043 9.72891C11.1852 9.32578 11.1852 8.98047 11.143 8.90859C11.1008 8.83203 10.9852 8.78828 10.8148 8.70547Z" fill="#4DC6D8"/>
<path d="M14.1224 4.61953C13.7692 3.78047 13.263 3.02734 12.6177 2.38047C11.9724 1.73516 11.2192 1.22734 10.3786 0.875781C9.51923 0.514844 8.60673 0.332031 7.6661 0.332031H7.63485C6.68798 0.336719 5.77079 0.524219 4.90829 0.892969C4.07548 1.24922 3.3286 1.75547 2.68954 2.40078C2.05048 3.04609 1.54892 3.79609 1.20204 4.63203C0.842667 5.49766 0.661417 6.41797 0.666104 7.36484C0.670792 8.44922 0.930167 9.52578 1.4161 10.4883V12.8633C1.4161 13.2602 1.73798 13.582 2.13485 13.582H4.51142C5.47392 14.068 6.55048 14.3273 7.63485 14.332H7.66767C8.6036 14.332 9.51142 14.1508 10.3661 13.7961C11.202 13.4477 11.9536 12.9477 12.5974 12.3086C13.2427 11.6695 13.7505 10.9227 14.1052 10.0898C14.4739 9.22734 14.6614 8.31016 14.6661 7.36328C14.6708 6.41172 14.4864 5.48828 14.1224 4.61953ZM11.7614 11.4633C10.6661 12.5477 9.21298 13.1445 7.6661 13.1445H7.63954C6.69735 13.1398 5.76142 12.9055 4.93485 12.4648L4.8036 12.3945H2.6036V10.1945L2.53329 10.0633C2.09267 9.23672 1.85829 8.30078 1.8536 7.35859C1.84735 5.80078 2.44267 4.33828 3.53485 3.23672C4.62548 2.13516 6.08329 1.52578 7.6411 1.51953H7.66767C8.44892 1.51953 9.20673 1.67109 9.92079 1.97109C10.6177 2.26328 11.2427 2.68359 11.7802 3.22109C12.3161 3.75703 12.738 4.38359 13.0302 5.08047C13.3333 5.80234 13.4849 6.56797 13.4817 7.35859C13.4724 8.91484 12.8614 10.3727 11.7614 11.4633Z" fill="#4DC6D8"/>
</svg>
