<svg width="214" height="122" viewBox="0 0 214 122" fill="none" xmlns="http://www.w3.org/2000/svg">
<path fill-rule="evenodd" clip-rule="evenodd" d="M151.312 10.8244C158.141 11.9398 163.064 17.1106 168.805 20.9396C174.824 24.9537 182.711 27.1663 185.66 33.7327C188.703 40.5095 185.824 48.1383 184.279 55.3957C182.53 63.6095 183.432 74.3637 176.111 78.5925C168.687 82.8803 159.727 76.1652 151.312 74.4366C144.986 73.137 138.454 73.1825 133.009 69.7382C127.316 66.1367 121.723 61.3132 120.245 54.7844C118.809 48.4391 124.09 42.8284 125.478 36.4726C127.106 29.0223 123.622 19.8439 129.057 14.4474C134.5 9.04371 143.709 9.58242 151.312 10.8244Z" fill="#F9F2EA"/>
<path d="M0 91.6515H51.735C51.8243 98.2327 57.0961 109.421 77.4684 101.523C86.8504 99.9225 88.1907 102.324 88.9949 108.46C89.6382 113.369 89.263 118.866 88.9949 121C95.3389 110.595 105.078 95.9204 122.234 91.6515C136.602 89.5171 156.098 86.1376 164.051 84.7146C168.608 83.6474 175.309 80.1789 175.309 65.5047C175.309 52.2712 175.309 40.9587 175.309 36.9566C174.952 33.1324 170.806 26.3378 157.081 29.7529C142.928 32.5276 90.2458 41.4033 65.6739 45.4943C61.5637 45.7611 53.0217 48.856 51.735 59.1013C51.3061 69.3466 51.5563 81.1571 51.735 85.7817L59.2406 88.9834M59.2406 88.9834C59.0619 79.7342 58.7581 60.7021 58.9725 58.5677C59.2406 55.8996 61.385 50.2968 74.2518 48.6959C84.5452 47.4153 88.9055 46.3836 89.7991 46.0279C89.7097 47.184 91.1393 51.6308 95.9644 53.4984C106.419 56.1665 129.203 59.7416 134.565 60.1685C138.675 60.4353 146.895 62.6231 146.895 69.2399C146.895 75.8566 146.895 79.4674 146.895 80.4456C151.005 75.4653 160.834 65.5047 167.268 65.5047C173.701 65.5047 182.457 65.5047 186.031 65.5047C188.176 65.7715 192.465 65.0777 192.465 60.1685C192.465 55.2593 192.107 35.3557 191.929 26.0176C191.929 20.1479 191.929 18.547 175.309 15.0786L109.635 1.47157C105.346 0.315417 93.0157 0.67173 93.0157 9.7425C93.0157 19.988 93.5519 32.4828 93.5519 37.0186C93.5519 38.2637 91.848 40.1506 90.3352 38.0243C86.5824 32.7497 93.9093 36.1567 97.0366 36.1567C97.9301 36.2456 99.8244 36.3168 100.253 35.8899C100.682 35.463 100.432 21.1267 100.253 14.0119C99.9852 10.9882 102.344 5.52757 113.924 7.87545C125.504 10.2233 160.566 17.2136 176.65 20.4152C179.598 21.2157 184.155 22.3896 184.155 29.2198V53.4984C184.334 56.5224 181.367 61.8233 168.072 58.8351C157.993 61.183 153.865 65.1494 153.061 66.8392C152.435 62.7482 149.844 56.9674 138.317 54.2994C127.81 52.5918 117.677 50.2084 113.924 49.2301M59.2406 88.9834C59.598 90.7828 60.7417 94.1681 62.4573 93.3143C64.6017 92.2471 62.4573 88.9213 59.2406 88.9834ZM113.924 49.2301V100.723C121.162 97.966 140.355 92.2915 159.226 91.6515C167.759 91.3622 189.327 91.28 214 91.3014M113.924 49.2301C115.979 48.8059 119.768 47.4773 118.481 45.5563C116.873 43.1551 113.656 46.2338 113.924 49.2301Z" stroke="#00AEC7"/>
</svg>
