<svg width="86" height="142" viewBox="0 0 86 142" fill="none" xmlns="http://www.w3.org/2000/svg">
<path fill-rule="evenodd" clip-rule="evenodd" d="M31.6752 48.9964C38.0253 47.7171 45.4439 45.1557 50.6149 49.141C55.7875 53.1276 55.9268 61.114 55.9994 67.7433C56.0571 73.0053 51.8498 77.0739 50.9779 82.2599C49.8592 88.9133 55.6358 98.126 50.2392 102.004C44.8043 105.909 38.2399 97.1448 31.6752 96.1293C26.6384 95.3501 21.2794 99.2797 16.7831 96.8281C12.1472 94.3004 10.312 88.5991 8.56297 83.5276C6.77121 78.3321 4.99236 72.752 6.67512 67.5184C8.35509 62.2935 13.1205 59.0422 17.4725 55.8179C21.8154 52.6003 26.4158 50.0559 31.6752 48.9964Z" fill="#F9F2EA"/>
<path d="M50.5533 110.418C60.0473 113.34 65.3116 111.636 66.757 110.418C74.9729 103.115 69.657 92.3222 69.4956 92.1608C69.2674 91.9326 63.5619 81.4344 52.8355 73.9031C42.1091 66.3718 42.7938 64.3179 42.3374 61.1228C41.9722 58.5667 43.8588 54.4283 44.8478 52.6786C45.9128 50.5485 49.3209 45.0104 54.4331 39.8982C60.8232 33.5081 61.9643 31.9105 61.2797 31.9105C60.595 31.9105 57.3999 36.2467 56.487 38.0725C55.5742 39.8982 56.9435 46.7448 58.0846 48.1142C59.2257 49.4836 63.3337 66.3718 64.703 70.0234C66.0723 73.6749 77.2551 103.344 76.5705 104.256C75.8858 105.169 74.2882 110.875 74.06 111.103C73.8318 111.331 73.3754 114.755 74.2882 121.601C75.9314 126.896 76.4944 123.96 76.5705 121.829C76.4183 119.699 76.3879 115.576 77.4833 116.124C78.8527 116.809 79.3091 122.058 79.5373 122.514C79.7655 122.971 78.3962 126.85 77.7116 127.307C77.0269 127.763 75.6576 132.328 76.7987 131.871C77.9398 131.415 78.168 130.045 80.4502 126.85C83.4171 124.34 85.4711 115.439 84.5582 114.526C83.6453 113.614 82.9606 98.7792 82.7324 98.0945C82.5042 97.4099 80.4502 81.4344 79.5373 80.0651C78.6244 78.6958 74.5165 58.3841 73.6036 56.3301C72.6907 54.2762 69.2674 36.0185 68.5827 27.8026C67.8981 19.5866 60.8232 10.4578 52.1508 8.86024C45.2129 7.5822 41.3484 28.5633 40.2834 39.2136C39.4466 42.5608 37.4991 50.0312 36.4036 53.135C35.0343 57.0148 36.6318 67.9694 39.5987 72.762C34.5779 77.7829 25.6772 80.5215 17.6895 83.4884C9.7018 86.4553 10.3865 77.0982 10.1582 76.6418C9.93002 76.1853 8.78892 60.8945 8.10426 59.0688C7.55653 57.6082 8.33248 47.9621 8.78892 43.3216C8.78892 42.4087 9.01714 40.5373 9.93002 40.3547C11.0711 40.1265 11.0711 41.0394 11.0711 41.724C11.0711 42.4087 10.3865 42.6369 8.78892 41.0394C3.85936 36.6575 5.82205 30.9976 7.4196 28.7154L14.4944 19.3584L22.2539 11.1424C26.4532 6.94319 27.2748 5.20871 26.5901 3.61117C25.6772 2.24184 24.9926 1.7854 19.0589 1.10068C8.10426 -0.268648 9.93002 12.7399 10.8429 15.2504C11.7558 17.7608 13.3533 44.2344 13.3533 46.7448C13.3533 49.2552 12.8969 57.4712 10.8429 60.8945C8.78892 64.3178 5.59383 86.6834 4.22451 89.4221C2.85518 92.1607 1.94219 101.29 2.39874 103.344C2.8553 105.398 1.25753 121.145 1.02931 121.373C0.846729 121.556 1.56182 131.186 1.94219 135.979C2.55078 137.805 3.90489 140.361 4.45262 135.979C5.00034 131.597 3.46366 125.024 2.62685 122.286C3.00726 125.633 5.77641 132.967 13.8098 135.523C13.2703 134.12 12.2208 132.564 11.0711 131.242M50.5533 110.418C41.0593 107.497 40.0552 109.658 40.7398 111.103C42.0331 112.625 45.8063 114.618 50.5533 110.418ZM50.5533 110.418C54.9656 103.952 59.6821 89.2852 43.2502 82.3473C24.3079 81.2062 24.5361 82.1191 19.0589 85.9988C14.677 89.1026 13.8858 93.9865 14.038 96.0405C14.1901 96.8013 14.677 98.4597 15.4073 99.0074C15.4073 100.468 13.5816 127.611 12.6687 141M11.0711 131.242C9.78895 129.766 8.38222 128.581 7.4196 128.22C5.59383 127.535 4.90917 121.145 5.13739 120.917C5.36561 120.688 6.96316 121.145 7.4196 121.829C7.85845 122.488 7.66439 125.889 14.9509 129.801M11.0711 131.242C14.2662 133.351 18.3742 133.24 15.8638 130.274C15.5471 130.115 15.243 129.958 14.9509 129.801M14.9509 129.801C15.4834 129.958 16.4115 130 15.8638 128.904C15.1791 127.535 11.7558 126.166 11.7558 122.971C11.7558 119.775 11.5276 107.223 11.984 106.31C12.3492 105.58 11.2233 103.115 10.6147 101.974C10.3104 100.985 10.2039 98.3684 12.2122 95.8123C14.2206 93.2562 16.8527 85.3142 17.9177 81.6626L26.3619 59.5252C27.4269 57.5473 28.0964 53.3176 22.2539 52.2222C21.1128 55.189 21.5693 55.8737 19.7435 57.9277C17.9177 59.9817 25.6772 58.8406 26.5901 55.4173C27.503 51.9939 28.1877 36.4749 27.503 33.2799C27.503 29.8565 28.4159 14.5658 26.1337 13.1964C24.3079 12.101 28.8723 12.74 31.3828 13.1964C34.8061 14.1093 38.6858 15.7069 40.968 20.9559C41.8809 23.0556 41.1963 27.3461 39.8269 28.9437C38.3815 31.4541 35.4907 36.5662 35.4907 36.9314C35.4907 37.3878 33.665 40.8111 35.2625 42.4087C36.8601 43.778 39.3705 38.9854 41.8809 33.2799C42.5656 30.9976 55.3459 10.4578 30.4699 2.01362" stroke="#00AEC7"/>
</svg>
