<svg width="130" height="116" viewBox="0 0 130 116" fill="none" xmlns="http://www.w3.org/2000/svg">
<path fill-rule="evenodd" clip-rule="evenodd" d="M45.5033 15.3928C50.44 15.5345 54.9294 10.3397 59.5546 12.0492C64.2905 13.7996 66.8625 19.0427 68.3157 23.8245C69.7476 28.5361 68.8429 33.4607 67.5015 38.1982C66.1044 43.1322 64.8149 48.6753 60.4812 51.4937C56.1974 54.2797 50.6297 52.6898 45.5033 52.5048C40.6014 52.3278 35.3121 53.2275 31.3008 50.4402C27.2679 47.638 25.8976 42.5489 24.4692 37.889C23.0696 33.323 22.0813 28.6278 23.1915 23.985C24.3708 19.0534 26.0636 13.0663 30.8454 11.2248C35.7012 9.35485 40.2934 15.2432 45.5033 15.3928Z" fill="#F9F2EA"/>
<path d="M15.7109 68.1306C5.43982 68.1306 -8.35918 47.1251 9.11888 41.2986C12.5078 40.1689 16.1694 43.1385 16.1694 47.7383C16.1694 54.0672 2.52539 53.1047 2.52539 38.3854C2.9853 31.588 7.40044 17.4412 21.3818 15.2333M21.3818 15.2333C27.3606 14.4666 33.0329 20.4463 27.2073 23.6662C21.3818 26.886 19.0822 17.2266 21.3818 15.2333ZM21.3818 15.2333C26.1342 8.28243 40.0235 -3.53399 57.5615 4.80701M57.5615 4.80701C67.3729 10.7867 62.1606 15.2332 57.5615 16.4598C52.9624 17.6864 46.9835 9.25343 57.5615 4.80701ZM57.5615 4.80701C64.6646 0.871665 81.5075 -3.28855 92.0549 11.5534M92.0549 11.5534C98.0337 20.1396 89.602 24.1262 87.3024 23.6662C85.0029 23.2061 75.1914 16.6131 92.0549 11.5534ZM92.0549 11.5534C101.202 10.9401 119.68 14.9879 120.416 36.0855M120.416 36.0855C120.416 48.5048 109.378 47.8915 107.385 43.5984C105.392 39.3053 109.378 29.1858 120.416 36.0855ZM120.416 36.0855C127.724 43.5473 134.065 58.931 123.093 66.5339C114.156 72.7264 103.604 63.5819 99.2601 58.931C92.5148 52.5935 74.4556 41.1759 56.1817 46.205C37.9079 51.234 38.8584 60.362 41.6179 64.2974C44.9395 67.9261 56.1817 75.1835 65.2267 60.0043C73.1895 46.641 69.8258 30.8724 89.2954 28.2659C98.187 26.7326 104.779 40.8386 89.2954 41.2986C84.6452 41.503 73.1065 39.9186 64.1535 31.9457C55.2006 23.9728 53.7158 23.1332 45.9104 23.6662C35.5557 24.3732 31.1012 28.0206 26.4408 41.7585C25.9809 43.394 26.1035 47.0023 30.2734 48.3515C35.4857 50.0381 48.8193 45.6359 42.5377 38.692C39.6249 35.4722 28.2397 43.8259 25.061 51.7247C21.5207 60.5224 17.7331 69.5718 30.7333 75.3368C34.5148 76.9212 44.8986 79.0166 56.1817 74.7235C59.4765 73.4699 62.9909 73.2491 66.4531 73.6756M66.4531 73.6756C74.8475 74.7095 82.9352 79.5484 86.8425 82.6964C91.3394 85.2008 101.376 88.3388 105.546 80.8565C110.758 71.5037 99.7201 63.2241 93.7412 63.5307C87.7623 63.8374 86.3826 65.6773 76.7245 64.7574C68.9979 64.0214 66.6575 70.3962 66.4531 73.6756ZM66.4531 73.6756C66.0954 76.3759 67.9861 83.6777 78.4108 91.2827C91.4416 100.789 89.1421 110.908 88.2223 114.895" stroke="#00AEC7"/>
</svg>
