<svg width="94" height="142" viewBox="0 0 94 142" fill="none" xmlns="http://www.w3.org/2000/svg">
<path fill-rule="evenodd" clip-rule="evenodd" d="M39.6889 20.0769C45.0207 19.2883 49.0205 24.7502 53.3553 27.9531C57.6484 31.1251 63.5314 33.4215 64.775 38.6125C66.0102 43.7685 61.8706 48.4778 59.3959 53.1668C57.3649 57.015 55.1268 60.6171 51.7277 63.3337C48.1856 66.1648 44.1752 69.5766 39.6889 68.9172C35.2617 68.2665 32.9544 63.4734 29.9732 60.1362C27.6744 57.5628 26.3211 54.5802 24.3508 51.7472C21.2455 47.2824 13.9791 44.0981 15.1205 38.7806C16.2203 33.6567 24.5049 34.778 28.6747 31.6035C33.0092 28.3037 34.3 20.874 39.6889 20.0769Z" fill="#F9F2EA"/>
<path d="M17.1517 141L16.4643 53.0254C16.2352 45.8087 14.9179 33.2311 11.4814 40.6539C8.0449 48.0768 14.6315 53.4836 18.3544 55.2592C18.7553 55.6601 19.5571 55.7059 19.5571 52.6818C19.5571 48.9016 13.7152 9.20993 18.3544 1.13414C25.7429 0.275009 42.4099 3.71152 45.1591 6.63255C47.9083 9.55358 50.1421 7.14813 60.9671 29.4854C66.0531 38.6953 72.2503 43.1742 74.7131 44.2624C78.8942 46.3243 86.3285 52.9568 82.6171 62.9914C78.4933 73.026 74.8388 74.5037 72.9949 75.8783C69.8447 78.2266 63.9912 85.3631 65.7782 95.1228C67.0955 98.502 68.8039 106.083 69.7302 108.525C71.6203 113.508 57.5306 127.941 48.4238 112.649C45.8464 103.943 38.7329 86.8751 30.8976 88.2497M30.8976 88.2497C23.0624 89.6243 24.8837 97.2992 26.7738 100.965C27.7475 102.855 32.2379 105.123 42.4099 99.0747C52.582 93.0265 56.156 73.0718 56.6714 63.8505C57.4733 52.3955 55.2625 28.6263 40.0044 25.1898C24.7463 21.7533 17.6098 25.9344 15.9488 28.4545C15.4333 29.1991 15.1241 31.4099 18.0107 34.2966C21.6191 37.9049 22.65 40.4823 22.8218 41.8569C22.9937 43.2315 23.8528 64.8815 20.9318 70.2081C20.2444 71.5827 22.1345 71.0672 22.8218 70.8954C23.5091 70.7235 26.0865 68.4898 28.3202 68.8335C30.554 69.1771 31.2413 69.8644 30.554 71.0672C29.8667 72.27 27.8048 71.7545 27.9766 71.0672C28.1484 70.3799 30.3822 70.5517 31.7568 70.8954C33.1314 71.239 38.4579 70.7235 36.396 67.6307C33.475 65.0533 31.9286 65.2251 30.8976 62.4759C29.8667 59.7267 30.2103 50.9636 32.1004 49.0735C32.4715 48.7025 33.0777 48.448 33.8187 48.2812M30.8976 88.2497C27.862 87.9634 21.3441 86.6689 19.5571 83.7823C22.1345 81.7204 24.3683 81.8922 25.571 78.6275C26.7738 78.112 27.1175 79.6585 28.1484 79.6585C29.1794 79.6585 30.9842 78.102 31.4131 77.7684C32.9595 76.5656 33.1314 79.3148 35.7087 79.3148C36.797 79.3721 39.0422 79.5897 39.3171 80.0021C39.6607 80.5176 36.9115 81.2049 30.7258 81.0331C25.7772 80.8956 21.9627 82.2718 22.3064 83.2668C22.4782 83.9541 35.0214 83.2668 39.6607 82.064C39.8325 84.9851 36.2586 87.8374 30.8976 88.2497ZM51.173 44.0906C50.3139 47.8708 43.4409 48.6726 41.5508 48.3862C39.6491 48.0837 36.0971 47.7681 33.8187 48.2812M51.173 44.0906C51.7229 40.2417 42.4672 40.5395 37.7706 41.1696C35.1933 41.8569 29.7979 43.1971 28.8357 43.0596C27.6329 42.8878 32.6159 38.0767 38.1143 37.3894C43.6127 36.7021 52.7195 37.5612 53.7504 37.2176C54.7814 36.8739 41.7226 35.3275 29.6948 37.3894C24.7119 37.9049 24.3683 33.0938 22.4782 27.0799C26.8311 26.278 35.8597 25.1898 37.427 25.1898C39.4889 25.1898 46.0183 26.2208 47.221 32.9219C47.6792 39.2222 48.9393 52.1664 49.1111 53.7128C49.3275 55.66 49.2829 65.7406 64.9191 68.1462C69.902 69.6926 83.27 70.5861 87.2564 71.4108C91.2084 71.9836 96.4765 73.8243 88.2873 80.0021C78.4933 87.3906 49.6266 100.278 42.7536 103.542L1 122.099M51.173 44.0906C49.4548 46.5854 43.5783 50.9163 33.8187 48.2812" stroke="#00AEC7"/>
</svg>
