<svg width="1440" height="353" viewBox="0 0 1440 353" fill="none" xmlns="http://www.w3.org/2000/svg">
<path fill-rule="evenodd" clip-rule="evenodd" d="M-224.976 82.7404C-123.048 99.3726 -10.2552 44.7004 97.796 11.7752C202.526 -20.1378 307.047 24.3206 471.532 11.7752C636.032 -0.771375 737.677 60.3923 921.157 32.2456C1047.47 12.8687 1130.16 52.6731 1236.47 75.4252C1377.95 105.704 1487.93 49.1462 1545.55 91.6962C1609.18 138.685 1590.69 273.489 1439.16 308.066C1287.21 342.736 1031.44 320.492 820.956 328.649C652.947 335.16 497.445 360.22 331.846 350.978C160.244 341.401 -88.0941 316.371 -197.111 284.25C-309.804 251.046 -245.89 124.679 -224.976 82.7404Z" fill="#F9F2EA"/>
</svg>
