<svg width="1440" height="310" viewBox="0 0 1440 310" fill="none" xmlns="http://www.w3.org/2000/svg">
<path fill-rule="evenodd" clip-rule="evenodd" d="M1543.3 231.642C1441.2 218.205 1329.01 267.899 1221.33 298.321C1116.95 327.808 1011.96 289.819 847.621 302.932C683.27 316.046 580.966 263.262 397.806 290.393C271.715 309.071 188.597 274.924 82.0445 256.134C-59.7562 231.128 -169.107 282.453 -227.187 245.571C-291.326 204.842 -274.306 85.5147 -123.16 53.0967C28.3953 20.5909 284.394 37.088 494.77 27.2849C662.694 19.46 817.912 -4.59842 983.599 1.524C1155.29 7.86831 1403.88 26.9182 1513.24 53.952C1626.29 81.8977 1563.76 194.331 1543.3 231.642Z" fill="#F9F2EA"/>
</svg>
