<svg width="163" height="30" viewBox="0 0 163 30" fill="none" xmlns="http://www.w3.org/2000/svg">
<g clip-path="url(#clip0)">
<path d="M2.01372 6.95368V19.059C2.01372 19.1223 1.98856 19.1831 1.94377 19.2279C1.89898 19.2727 1.83823 19.2978 1.77488 19.2978H0.639225C0.575882 19.2978 0.515134 19.2727 0.470344 19.2279C0.425553 19.1831 0.400391 19.1223 0.400391 19.059V6.95368C0.400391 6.89034 0.425553 6.82959 0.470344 6.7848C0.515134 6.74001 0.575882 6.71484 0.639225 6.71484H1.77488C1.83823 6.71484 1.89898 6.74001 1.94377 6.7848C1.98856 6.82959 2.01372 6.89034 2.01372 6.95368Z" fill="#3A3A3A"/>
<path d="M7.29106 0.238834V19.0602C7.29106 19.1235 7.2659 19.1843 7.22111 19.2291C7.17632 19.2739 7.11557 19.299 7.05223 19.299H5.91657C5.85323 19.299 5.79248 19.2739 5.74769 19.2291C5.7029 19.1843 5.67773 19.1235 5.67773 19.0602V0.238834C5.67773 0.175492 5.7029 0.114743 5.74769 0.069953C5.79248 0.0251629 5.85323 0 5.91657 0L7.05223 0C7.08359 0 7.11465 0.00617764 7.14363 0.0181802C7.1726 0.0301827 7.19893 0.0477752 7.22111 0.069953C7.24329 0.0921308 7.26088 0.11846 7.27288 0.147436C7.28489 0.176413 7.29106 0.20747 7.29106 0.238834Z" fill="#3A3A3A"/>
<path d="M12.5684 0.238834V19.0602C12.5684 19.1235 12.5432 19.1843 12.4985 19.2291C12.4537 19.2739 12.3929 19.299 12.3296 19.299H11.1939C11.1306 19.299 11.0698 19.2739 11.025 19.2291C10.9802 19.1843 10.9551 19.1235 10.9551 19.0602V0.238834C10.9551 0.175492 10.9802 0.114743 11.025 0.069953C11.0698 0.0251629 11.1306 0 11.1939 0L12.3296 0C12.3929 0 12.4537 0.0251629 12.4985 0.069953C12.5432 0.114743 12.5684 0.175492 12.5684 0.238834Z" fill="#3A3A3A"/>
<path d="M53.6993 6.95368V19.059C53.6993 19.1223 53.6741 19.1831 53.6293 19.2279C53.5845 19.2727 53.5238 19.2978 53.4604 19.2978H52.3248C52.2614 19.2978 52.2007 19.2727 52.1559 19.2279C52.1111 19.1831 52.0859 19.1223 52.0859 19.059V6.95368C52.0859 6.89034 52.1111 6.82959 52.1559 6.7848C52.2007 6.74001 52.2614 6.71484 52.3248 6.71484H53.4604C53.5238 6.71484 53.5845 6.74001 53.6293 6.7848C53.6741 6.82959 53.6993 6.89034 53.6993 6.95368Z" fill="#3A3A3A"/>
<path d="M89.6018 8.07615V15.8884C89.6018 16.6559 89.7479 17.1857 90.0401 17.4779C90.3322 17.77 90.8469 17.9149 91.5841 17.9125H92.8201C92.8834 17.9125 92.9442 17.9377 92.989 17.9825C93.0338 18.0273 93.0589 18.088 93.0589 18.1514V19.0566C93.0589 19.1199 93.0338 19.1807 92.989 19.2254C92.9442 19.2702 92.8834 19.2954 92.8201 19.2954H91.331C90.1933 19.2954 89.3483 19.0303 88.7958 18.5001C88.2433 17.9699 87.9646 17.0981 87.9598 15.8848V8.07615H86.4576C86.3942 8.07615 86.3335 8.05099 86.2887 8.0062C86.2439 7.9614 86.2188 7.90066 86.2188 7.83731V6.95482C86.2188 6.89148 86.2439 6.83073 86.2887 6.78594C86.3335 6.74115 86.3942 6.71599 86.4576 6.71599H87.9706V3.79743C87.9706 3.73409 87.9958 3.67334 88.0405 3.62855C88.0853 3.58376 88.1461 3.55859 88.2094 3.55859H89.3678C89.4311 3.55859 89.4919 3.58376 89.5366 3.62855C89.5814 3.67334 89.6066 3.73409 89.6066 3.79743V6.71599H92.8249C92.8882 6.71599 92.949 6.74115 92.9937 6.78594C93.0385 6.83073 93.0637 6.89148 93.0637 6.95482V7.83731C93.0637 7.90066 93.0385 7.9614 92.9937 8.0062C92.949 8.05099 92.8882 8.07615 92.8249 8.07615H89.6018Z" fill="#3A3A3A"/>
<path d="M97.3244 6.95368V19.059C97.3244 19.1223 97.2992 19.1831 97.2544 19.2279C97.2096 19.2727 97.1489 19.2978 97.0855 19.2978H95.9498C95.8864 19.2978 95.8257 19.2727 95.7809 19.2279C95.7361 19.1831 95.7109 19.1223 95.7109 19.059V6.95368C95.7109 6.89034 95.7361 6.82959 95.7809 6.7848C95.8257 6.74001 95.8864 6.71484 95.9498 6.71484H97.0855C97.1489 6.71484 97.2096 6.74001 97.2544 6.7848C97.2992 6.82959 97.3244 6.89034 97.3244 6.95368Z" fill="#3A3A3A"/>
<path d="M103.303 18.6886C102.36 18.1613 101.585 17.378 101.068 16.4292C100.522 15.4532 100.249 14.3128 100.25 13.0079C100.251 11.7031 100.527 10.5623 101.079 9.58544C101.605 8.63583 102.388 7.85336 103.338 7.32726C104.319 6.78966 105.422 6.51564 106.541 6.53194C107.663 6.51672 108.77 6.79061 109.756 7.32726C110.708 7.84899 111.492 8.63258 112.014 9.58544C112.56 10.5615 112.833 11.7023 112.832 13.0079C112.832 14.2976 112.556 15.4345 112.003 16.4185C111.474 17.3769 110.682 18.1642 109.721 18.6874C108.731 19.222 107.621 19.4953 106.497 19.4815C105.381 19.4992 104.281 19.2259 103.303 18.6886ZM108.797 17.5124C109.52 17.1197 110.116 16.5279 110.514 15.8071C110.952 15.046 111.171 14.1129 111.171 13.0079C111.171 11.9029 110.956 10.9695 110.526 10.2076C110.135 9.48657 109.543 8.89426 108.823 8.50232C108.111 8.13125 107.321 7.93747 106.518 7.93747C105.716 7.93747 104.925 8.13125 104.213 8.50232C103.493 8.89173 102.904 9.4849 102.519 10.2076C102.096 10.9679 101.885 11.9013 101.886 13.0079C101.887 14.1145 102.098 15.0476 102.519 15.8071C102.902 16.5273 103.487 17.1199 104.202 17.5124C104.906 17.8905 105.695 18.0848 106.494 18.0772C107.298 18.0841 108.09 17.8899 108.799 17.5124H108.797Z" fill="#3A3A3A"/>
<path d="M129.971 18.4826C129.567 18.1974 129.225 17.8325 128.967 17.4105C128.71 16.9885 128.541 16.5182 128.472 16.0285C128.466 15.9941 128.468 15.9589 128.478 15.9254C128.487 15.8918 128.504 15.8608 128.527 15.8344C128.549 15.808 128.578 15.7869 128.609 15.7725C128.641 15.7582 128.676 15.751 128.711 15.7515H129.893C129.949 15.7505 130.004 15.7693 130.048 15.8047C130.091 15.8401 130.121 15.8898 130.132 15.945C130.243 16.5616 130.593 17.1093 131.106 17.4687C131.698 17.9058 132.494 18.1247 133.495 18.1255C134.37 18.1255 135.058 17.9181 135.557 17.5033C135.792 17.3211 135.982 17.0869 136.112 16.8191C136.242 16.5512 136.308 16.257 136.306 15.9593C136.313 15.7636 136.28 15.5685 136.208 15.3862C136.137 15.2038 136.029 15.0379 135.891 14.8989C135.592 14.608 135.235 14.384 134.843 14.2421C134.28 14.0379 133.707 13.8649 133.126 13.7238C132.349 13.5304 131.587 13.2838 130.845 12.9858C130.268 12.7462 129.758 12.3709 129.358 11.8919C128.95 11.4071 128.747 10.7579 128.748 9.94424C128.744 9.33347 128.935 8.73737 129.291 8.24135C129.692 7.69324 130.233 7.26337 130.858 6.99702C131.584 6.67888 132.37 6.52164 133.163 6.53607C134.516 6.53607 135.607 6.878 136.435 7.56186C137.202 8.19318 137.64 9.04542 137.748 10.1186C137.752 10.1522 137.749 10.1862 137.739 10.2184C137.728 10.2507 137.711 10.2803 137.689 10.3055C137.666 10.3307 137.639 10.3508 137.608 10.3645C137.577 10.3782 137.543 10.3851 137.509 10.3849H136.375C136.317 10.3854 136.26 10.3647 136.216 10.3267C136.173 10.2887 136.144 10.2359 136.136 10.1783C136.07 9.56455 135.77 8.99962 135.3 8.5996C134.77 8.1474 134.044 7.92091 133.122 7.92011C132.308 7.92011 131.647 8.11198 131.141 8.4957C130.635 8.87943 130.381 9.3571 130.38 9.92871C130.372 10.15 130.407 10.3707 130.484 10.5783C130.561 10.7859 130.678 10.9762 130.829 11.1384C131.143 11.4632 131.525 11.7148 131.947 11.8752C132.393 12.052 132.992 12.2478 133.744 12.4627C134.481 12.6527 135.205 12.8921 135.91 13.1792C136.444 13.4057 136.917 13.7528 137.293 14.1931C137.678 14.6389 137.877 15.2304 137.89 15.9676C137.9 16.6137 137.706 17.2464 137.337 17.7768C136.945 18.3263 136.411 18.7598 135.793 19.0319C135.076 19.3515 134.297 19.5089 133.511 19.4928C132.066 19.4873 130.885 19.1505 129.971 18.4826Z" fill="#3A3A3A"/>
<path d="M67.5461 7.8811C68.5014 8.81017 68.9791 10.1584 68.9791 11.9258V19.0609C68.9791 19.1243 68.954 19.185 68.9092 19.2298C68.8644 19.2746 68.8036 19.2998 68.7403 19.2998H67.6273C67.564 19.2998 67.5032 19.2746 67.4584 19.2298C67.4136 19.185 67.3885 19.1243 67.3885 19.0609V12.1085C67.3885 10.7407 67.0465 9.69585 66.3627 8.97377C65.6788 8.2517 64.7458 7.89066 63.5636 7.89066C62.3495 7.89066 61.3814 8.27478 60.6593 9.04303C59.9373 9.81129 59.5762 10.9406 59.5762 12.4309V19.0598C59.5762 19.1231 59.5511 19.1838 59.5063 19.2286C59.4615 19.2734 59.4007 19.2986 59.3374 19.2986H58.2017C58.1384 19.2986 58.0776 19.2734 58.0328 19.2286C57.9881 19.1838 57.9629 19.1231 57.9629 19.0598V6.95443C57.9629 6.89108 57.9881 6.83034 58.0328 6.78555C58.0776 6.74075 58.1384 6.71559 58.2017 6.71559H59.3374C59.4007 6.71559 59.4615 6.74075 59.5063 6.78555C59.5511 6.83034 59.5762 6.89108 59.5762 6.95443V8.85913C59.9588 8.10863 60.5623 7.49346 61.3054 7.09653C62.0929 6.68051 62.9728 6.4702 63.8633 6.48512C65.3656 6.48512 66.5932 6.95045 67.5461 7.8811Z" fill="#3A3A3A"/>
<path d="M124.79 7.8811C125.746 8.81017 126.223 10.1584 126.223 11.9258V19.0609C126.223 19.1243 126.198 19.185 126.153 19.2298C126.109 19.2746 126.048 19.2998 125.984 19.2998H124.871C124.808 19.2998 124.747 19.2746 124.703 19.2298C124.658 19.185 124.633 19.1243 124.633 19.0609V12.1085C124.633 10.7407 124.291 9.69585 123.607 8.97377C122.923 8.2517 121.99 7.89066 120.807 7.89066C119.593 7.89066 118.626 8.27478 117.903 9.04303C117.181 9.81129 116.82 10.9406 116.82 12.4309V19.0598C116.82 19.1231 116.795 19.1838 116.75 19.2286C116.706 19.2734 116.645 19.2986 116.582 19.2986H115.446C115.383 19.2986 115.322 19.2734 115.277 19.2286C115.232 19.1838 115.207 19.1231 115.207 19.0598V6.95443C115.207 6.89108 115.232 6.83034 115.277 6.78555C115.322 6.74075 115.383 6.71559 115.446 6.71559H116.582C116.645 6.71559 116.706 6.74075 116.75 6.78555C116.795 6.83034 116.82 6.89108 116.82 6.95443V8.85913C117.203 8.10872 117.806 7.49353 118.548 7.09653C119.336 6.68051 120.216 6.4702 121.106 6.48512C122.607 6.48512 123.835 6.95045 124.79 7.8811Z" fill="#3A3A3A"/>
<path d="M86.6675 24.543L85.5211 28.2043H85.0517L84.0391 25.1329L83.0264 28.2043H82.5488L81.4023 24.543H81.88L82.7912 27.729L83.8182 24.543H84.2875L85.3001 27.735L86.2053 24.543H86.6675Z" fill="#3A3A3A"/>
<path d="M90.6036 26.5545H87.5656C87.571 26.8045 87.6401 27.0491 87.7663 27.265C87.8808 27.4554 88.0463 27.6101 88.2439 27.7116C88.4434 27.8125 88.6641 27.8641 88.8876 27.8621C89.1604 27.8712 89.4292 27.7939 89.6554 27.6412C89.8605 27.4983 90.0072 27.2863 90.0686 27.0441H90.5642C90.4802 27.3934 90.2776 27.7028 89.991 27.9194C89.6719 28.1534 89.283 28.2725 88.8876 28.2574C88.5643 28.2627 88.2452 28.1833 87.9621 28.0269C87.6905 27.8729 87.4684 27.6447 87.322 27.3689C87.1623 27.0617 87.0826 26.7192 87.0904 26.373C87.0829 26.0261 87.1613 25.6828 87.3185 25.3735C87.4616 25.0964 87.6835 24.8679 87.9561 24.7167C88.2417 24.5615 88.5626 24.4829 88.8876 24.4886C89.2073 24.4829 89.5228 24.5629 89.8011 24.7202C90.0533 24.8655 90.26 25.078 90.3982 25.334C90.5405 25.5963 90.6132 25.8907 90.6096 26.1891C90.6137 26.3109 90.6117 26.4329 90.6036 26.5545ZM89.9767 25.4738C89.8669 25.2864 89.7051 25.135 89.5109 25.0379C89.3107 24.9395 89.0903 24.8892 88.8673 24.891C88.5378 24.8835 88.2181 25.0037 87.9752 25.2266C87.8478 25.3492 87.7459 25.496 87.6756 25.6584C87.6053 25.8207 87.5679 25.9954 87.5656 26.1724H90.1415C90.1524 25.9287 90.0954 25.6868 89.9767 25.4738Z" fill="#3A3A3A"/>
<path d="M91.9503 23.2383V28.2013H91.4727V23.2383H91.9503Z" fill="#3A3A3A"/>
<path d="M93.4823 23.2383V28.2013H93.0117V23.2383H93.4823Z" fill="#3A3A3A"/>
<path d="M97.4082 24.7274C97.6768 24.5627 97.9876 24.4797 98.3026 24.4886C98.6177 24.4835 98.9284 24.5635 99.2018 24.7202C99.467 24.8757 99.6824 25.1035 99.8228 25.377C99.9706 25.6866 100.047 26.0252 100.047 26.3682C100.047 26.7112 99.9706 27.0499 99.8228 27.3594C99.6817 27.6354 99.4651 27.8656 99.1982 28.0233C98.9269 28.1827 98.6173 28.2652 98.3026 28.2622C97.9854 28.2706 97.6725 28.1877 97.401 28.0233C97.1585 27.8765 96.9659 27.6602 96.8481 27.4024V28.2072H96.3848V23.2383H96.8469V25.3508C96.9702 25.0934 97.1651 24.877 97.4082 24.7274ZM99.3929 25.5765C99.2835 25.364 99.1146 25.1881 98.9069 25.0701C98.6939 24.9512 98.4533 24.8906 98.2095 24.8946C97.968 24.8923 97.7305 24.955 97.5216 25.0761C97.312 25.1988 97.1411 25.378 97.0284 25.5932C96.9104 25.8349 96.849 26.1004 96.849 26.3694C96.849 26.6384 96.9104 26.9039 97.0284 27.1456C97.1411 27.3605 97.312 27.5392 97.5216 27.6615C97.7305 27.7826 97.968 27.8453 98.2095 27.843C98.4536 27.8467 98.6943 27.7853 98.9069 27.6651C99.1157 27.5437 99.2846 27.364 99.3929 27.148C99.5156 26.9041 99.5766 26.6339 99.5708 26.361C99.5772 26.0888 99.5161 25.8193 99.3929 25.5765Z" fill="#3A3A3A"/>
<path d="M104.212 26.5545H101.174C101.18 26.8047 101.249 27.0492 101.376 27.2651C101.49 27.4555 101.656 27.6102 101.853 27.7117C102.053 27.8127 102.274 27.8643 102.498 27.8622C102.771 27.8708 103.04 27.7936 103.266 27.6412C103.47 27.498 103.617 27.2861 103.678 27.0442H104.175C104.09 27.3936 103.887 27.703 103.6 27.9195C103.282 28.1533 102.893 28.2724 102.498 28.2574C102.175 28.2631 101.856 28.1836 101.573 28.027C101.3 27.8734 101.078 27.6451 100.931 27.369C100.772 27.0618 100.692 26.7192 100.7 26.373C100.692 26.0262 100.771 25.6828 100.928 25.3735C101.071 25.0967 101.293 24.8683 101.566 24.7167C101.852 24.5615 102.173 24.483 102.498 24.4886C102.819 24.4823 103.136 24.5623 103.415 24.7203C103.67 24.8649 103.879 25.0775 104.019 25.3341C104.162 25.5964 104.235 25.8908 104.231 26.1891C104.231 26.3112 104.224 26.4332 104.212 26.5545ZM103.585 25.4738C103.475 25.2863 103.313 25.1348 103.119 25.038C102.919 24.9396 102.699 24.8893 102.475 24.8911C102.146 24.8839 101.826 25.0041 101.583 25.2266C101.456 25.3495 101.354 25.4963 101.284 25.6586C101.214 25.8209 101.176 25.9955 101.174 26.1724H103.75C103.761 25.9288 103.704 25.6869 103.585 25.4738Z" fill="#3A3A3A"/>
<path d="M105.077 23.748C105.044 23.7156 105.018 23.6769 105.001 23.6342C104.984 23.5915 104.976 23.5457 104.977 23.4996C104.976 23.4541 104.984 23.4088 105.001 23.3666C105.018 23.3245 105.044 23.2864 105.077 23.2548C105.142 23.194 105.227 23.1602 105.316 23.1602C105.405 23.1602 105.49 23.194 105.555 23.2548C105.587 23.2864 105.613 23.3245 105.63 23.3666C105.648 23.4088 105.656 23.4541 105.655 23.4996C105.656 23.5457 105.648 23.5915 105.631 23.6342C105.613 23.6769 105.587 23.7156 105.555 23.748C105.491 23.8107 105.405 23.8459 105.316 23.8459C105.226 23.8459 105.141 23.8107 105.077 23.748ZM105.555 24.5397V28.201H105.087V24.5397H105.555Z" fill="#3A3A3A"/>
<path d="M109.41 24.8798C109.687 25.1497 109.825 25.5418 109.825 26.0561V28.2056H109.362V26.1098C109.362 25.7118 109.263 25.4076 109.064 25.1975C108.958 25.0904 108.831 25.007 108.69 24.9526C108.55 24.8983 108.399 24.8743 108.249 24.8822C108.093 24.8749 107.936 24.9011 107.791 24.959C107.645 25.0168 107.514 25.1051 107.405 25.2178C107.194 25.4411 107.09 25.7695 107.09 26.2042V28.202H106.619V24.5407H107.09V25.164C107.201 24.9458 107.376 24.7669 107.592 24.6517C107.821 24.5302 108.077 24.469 108.336 24.4738C108.533 24.466 108.73 24.498 108.914 24.5677C109.099 24.6375 109.267 24.7436 109.41 24.8798Z" fill="#3A3A3A"/>
<path d="M113.299 24.7308C113.539 24.875 113.73 25.0874 113.849 25.341V24.5433H114.319V28.3037C114.324 28.615 114.249 28.9225 114.1 29.1958C113.959 29.449 113.749 29.6563 113.493 29.7929C113.221 29.9361 112.916 30.0083 112.609 30.003C112.193 30.019 111.783 29.9019 111.438 29.6687C111.132 29.4533 110.923 29.1252 110.858 28.7563H111.32C111.398 29.0069 111.56 29.2226 111.78 29.3666C112.027 29.5244 112.316 29.6035 112.61 29.5934C112.831 29.5971 113.05 29.5454 113.246 29.443C113.433 29.3403 113.585 29.185 113.684 28.9964C113.796 28.7813 113.852 28.5413 113.846 28.299V27.3938C113.724 27.6493 113.532 27.8645 113.292 28.0136C113.024 28.1813 112.713 28.2665 112.397 28.2584C112.08 28.2621 111.768 28.1795 111.494 28.0195C111.228 27.8621 111.011 27.6318 110.871 27.3556C110.723 27.0461 110.646 26.7074 110.646 26.3644C110.646 26.0214 110.723 25.6828 110.871 25.3732C111.011 25.0988 111.228 24.8707 111.494 24.7164C111.769 24.5599 112.081 24.4799 112.397 24.4848C112.715 24.4777 113.028 24.5632 113.299 24.7308ZM113.668 25.5966C113.555 25.3814 113.384 25.2022 113.175 25.0795C112.966 24.9585 112.729 24.8958 112.488 24.898C112.244 24.894 112.003 24.9546 111.789 25.0735C111.582 25.1914 111.413 25.3674 111.303 25.5798C111.18 25.8238 111.119 26.0947 111.127 26.368C111.12 26.6408 111.181 26.911 111.303 27.1549C111.412 27.3709 111.58 27.5506 111.789 27.672C112.003 27.7927 112.245 27.8541 112.49 27.85C112.731 27.8521 112.968 27.7894 113.177 27.6684C113.387 27.5462 113.557 27.3674 113.67 27.1526C113.789 26.9111 113.851 26.6455 113.851 26.3763C113.851 26.1072 113.789 25.8416 113.67 25.6001L113.668 25.5966Z" fill="#3A3A3A"/>
<path d="M117.242 25.3742C117.385 25.0999 117.604 24.8721 117.872 24.7174C118.153 24.5601 118.47 24.4801 118.792 24.4858C119.191 24.47 119.584 24.5881 119.908 24.8213C120.202 25.0463 120.403 25.3708 120.474 25.7337H119.972C119.919 25.4832 119.774 25.2616 119.566 25.1127C119.338 24.9573 119.067 24.8787 118.792 24.8882C118.56 24.8848 118.331 24.9424 118.128 25.0554C117.927 25.1718 117.764 25.345 117.661 25.5534C117.54 25.8074 117.481 26.0866 117.49 26.3678C117.482 26.6501 117.54 26.9304 117.661 27.1858C117.763 27.3964 117.925 27.5716 118.128 27.6886C118.33 27.8024 118.56 27.8605 118.792 27.8569C119.067 27.8665 119.338 27.7878 119.566 27.6324C119.775 27.4816 119.92 27.2579 119.972 27.0055H120.474C120.399 27.3657 120.197 27.6869 119.905 27.9107C119.583 28.147 119.191 28.2674 118.792 28.2522C118.47 28.2583 118.153 28.1788 117.872 28.0217C117.604 27.8663 117.386 27.6382 117.242 27.3637C117.092 27.0532 117.014 26.7127 117.014 26.3678C117.014 26.0229 117.092 25.6824 117.242 25.3719V25.3742Z" fill="#3A3A3A"/>
<path d="M124.641 26.5545H121.603C121.608 26.8045 121.677 27.0491 121.803 27.265C121.918 27.4554 122.083 27.6101 122.281 27.7116C122.48 27.8125 122.701 27.8641 122.925 27.8621C123.198 27.8712 123.466 27.7939 123.693 27.6412C123.897 27.498 124.044 27.2861 124.106 27.0441H124.601C124.517 27.3934 124.315 27.7028 124.028 27.9194C123.709 28.1534 123.32 28.2725 122.925 28.2574C122.601 28.2627 122.282 28.1833 121.999 28.0269C121.728 27.8729 121.506 27.6447 121.359 27.3689C121.199 27.0617 121.12 26.7192 121.127 26.373C121.12 26.0261 121.198 25.6828 121.356 25.3735C121.499 25.0964 121.721 24.8679 121.993 24.7167C122.279 24.5615 122.6 24.4829 122.925 24.4886C123.244 24.4833 123.558 24.5633 123.836 24.7202C124.088 24.8658 124.294 25.0782 124.433 25.334C124.575 25.5963 124.648 25.8907 124.644 26.1891C124.654 26.3467 124.649 26.4697 124.641 26.5545ZM124.014 25.4738C123.904 25.2867 123.742 25.1354 123.548 25.0379C123.347 24.9393 123.127 24.889 122.903 24.891C122.574 24.8839 122.254 25.0041 122.011 25.2266C121.884 25.3495 121.783 25.4963 121.712 25.6586C121.642 25.821 121.605 25.9956 121.603 26.1724H124.179C124.19 25.9287 124.133 25.6868 124.014 25.4738Z" fill="#3A3A3A"/>
<path d="M128.302 24.8797C128.58 25.1496 128.719 25.5417 128.719 26.0559V28.2055H128.254V26.1097C128.254 25.7116 128.155 25.4075 127.956 25.1973C127.85 25.0903 127.723 25.0068 127.582 24.9525C127.442 24.8982 127.292 24.8742 127.141 24.8821C126.985 24.8749 126.828 24.901 126.683 24.9589C126.537 25.0167 126.405 25.1049 126.296 25.2176C126.089 25.4421 125.985 25.7709 125.985 26.204V28.2019H125.508V24.5405H125.985V25.1639C126.097 24.946 126.272 24.7673 126.488 24.6516C126.718 24.5302 126.974 24.469 127.233 24.4737C127.43 24.4664 127.625 24.4986 127.809 24.5683C127.993 24.6381 128.16 24.7439 128.302 24.8797Z" fill="#3A3A3A"/>
<path d="M130.368 24.9359V27.2048C130.368 27.4281 130.411 27.5834 130.496 27.6681C130.581 27.7529 130.735 27.7947 130.945 27.7947H131.375V28.1972H130.872C130.54 28.1972 130.295 28.1207 130.134 27.9667C129.973 27.8126 129.895 27.5583 129.895 27.2048V24.9359H129.387V24.5406H129.895V23.6211H130.373V24.5406H131.38V24.9359H130.368Z" fill="#3A3A3A"/>
<path d="M133.089 24.6631C133.327 24.5337 133.596 24.471 133.867 24.4816V24.9712H133.748C133.45 24.9563 133.158 25.0544 132.93 25.2459C132.724 25.4286 132.622 25.7355 132.622 26.1642V28.2098H132.152V24.5425H132.622V25.1981C132.717 24.9749 132.88 24.7876 133.089 24.6631Z" fill="#3A3A3A"/>
<path d="M137.873 26.5547H134.835C134.841 26.8047 134.91 27.0493 135.036 27.2652C135.15 27.4556 135.316 27.6103 135.514 27.7118C135.713 27.8128 135.934 27.8644 136.157 27.8623C136.43 27.8714 136.699 27.794 136.925 27.6414C137.129 27.4981 137.276 27.2862 137.337 27.0443H137.834C137.75 27.3936 137.547 27.7029 137.261 27.9196C136.941 28.1536 136.553 28.2727 136.157 28.2576C135.834 28.263 135.515 28.1835 135.232 28.0271C134.96 27.8731 134.738 27.6448 134.592 27.3691C134.431 27.0621 134.352 26.7194 134.36 26.3731C134.352 26.0262 134.43 25.6827 134.588 25.3736C134.731 25.0969 134.952 24.8685 135.225 24.7168C135.511 24.5617 135.832 24.4832 136.157 24.4887C136.477 24.4815 136.794 24.5603 137.073 24.7168C137.327 24.8615 137.536 25.074 137.676 25.3306C137.818 25.5929 137.891 25.8873 137.888 26.1857C137.886 26.3469 137.882 26.4699 137.873 26.5547ZM137.246 25.4739C137.136 25.2866 136.974 25.1352 136.779 25.0381C136.579 24.9392 136.359 24.8889 136.136 24.8912C135.806 24.884 135.487 25.0042 135.244 25.2267C135.116 25.3495 135.015 25.4963 134.945 25.6587C134.874 25.821 134.837 25.9957 134.835 26.1725H137.41C137.421 25.929 137.365 25.6871 137.246 25.4739Z" fill="#3A3A3A"/>
<path d="M83.8043 12.904C83.79 11.6414 83.5201 10.5352 82.9946 9.58541C82.4694 8.63124 81.6821 7.84726 80.7257 7.32603C79.7398 6.79056 78.6329 6.51713 77.511 6.53191C76.3924 6.51596 75.2887 6.78953 74.307 7.32603C73.3577 7.853 72.5753 8.6358 72.0489 9.58541C71.4956 10.5614 71.2169 11.7023 71.2129 13.0079C71.209 14.3135 71.4816 15.454 72.0309 16.4292C72.5518 17.379 73.3304 18.1622 74.2772 18.6886C75.2542 19.226 76.3543 19.4997 77.4692 19.4827C79.2605 19.4827 81.0517 18.6993 82.1933 17.0621V19.0755C82.1933 19.1388 82.2185 19.1996 82.2633 19.2444C82.3081 19.2892 82.3688 19.3143 82.4322 19.3143H83.5678C83.6312 19.3143 83.6919 19.2892 83.7367 19.2444C83.7815 19.1996 83.8067 19.1388 83.8067 19.0755C83.8067 17.9291 83.8067 12.904 83.8043 12.904ZM81.4912 15.8071C81.0921 16.5281 80.495 17.1199 79.7704 17.5123C79.0613 17.8899 78.269 18.0841 77.4656 18.0772C76.666 18.0851 75.8773 17.8908 75.1728 17.5123C74.4576 17.1203 73.8727 16.5275 73.4902 15.8071C73.0675 15.046 72.8561 14.1129 72.8561 13.0079C72.8561 11.9029 73.0675 10.9695 73.4902 10.2076C73.8756 9.48445 74.4659 8.89122 75.1871 8.50229C75.8987 8.13122 76.6894 7.93745 77.4919 7.93745C78.2944 7.93745 79.0851 8.13122 79.7966 8.50229C80.5185 8.8932 81.111 9.48571 81.5019 10.2076C81.9318 10.9679 82.1472 11.9013 82.148 13.0079C82.1488 14.1145 81.9298 15.0476 81.4912 15.8071Z" fill="#3A3A3A"/>
<path d="M21.0775 19.5193C22.5527 19.5193 23.7549 19.0548 24.6839 18.1257C25.613 17.1966 26.0779 15.8484 26.0787 14.081V6.94587C26.0787 6.88252 26.0536 6.82177 26.0088 6.77698C25.964 6.73219 25.9032 6.70703 25.8399 6.70703H24.7269C24.6636 6.70703 24.6028 6.73219 24.558 6.77698C24.5133 6.82177 24.4881 6.88252 24.4881 6.94587V13.8971C24.4881 15.2641 24.1577 16.3086 23.4969 17.0307C22.8362 17.7527 21.9373 18.1138 20.8005 18.1138C19.6636 18.1138 18.7648 17.7527 18.104 17.0307C17.4433 16.3086 17.1129 15.2641 17.1129 13.8971V6.94587C17.1129 6.88252 17.0877 6.82177 17.0429 6.77698C16.9981 6.73219 16.9374 6.70703 16.874 6.70703H15.7623C15.6989 6.70703 15.6382 6.73219 15.5934 6.77698C15.5486 6.82177 15.5234 6.88252 15.5234 6.94587V14.081C15.5234 15.8468 15.988 17.1951 16.917 18.1257C17.8461 19.0564 19.0486 19.5209 20.5246 19.5193" fill="#3A3A3A"/>
<path d="M46.9421 7.87972C46.0123 6.94986 44.8101 6.48493 43.3357 6.48493C42.3442 6.47027 41.3703 6.7477 40.5354 7.28263C39.7188 7.81443 39.1099 8.61091 38.811 9.53842C38.5193 8.60647 37.9077 7.80753 37.0842 7.28263C36.3439 6.80497 35.213 6.47179 34.0128 6.48732C32.538 6.50642 31.2997 6.95185 30.3694 7.88211C29.4391 8.81237 28.9746 10.1594 28.9746 11.9256V19.0619C28.9746 19.1253 28.9998 19.186 29.0446 19.2308C29.0894 19.2756 29.1501 19.3008 29.2134 19.3008H30.3324C30.3957 19.3008 30.4565 19.2756 30.5013 19.2308C30.5461 19.186 30.5712 19.1253 30.5712 19.0619V12.1071C30.5712 10.7398 30.9008 9.63754 31.5612 8.91507C32.2216 8.19259 32.9596 7.81762 34.0893 7.82837C35.496 7.84031 36.2961 8.24633 37.0914 9.06553C37.747 9.74024 38.0909 10.8687 38.0742 12.051V19.0524C38.0854 19.1457 38.132 19.2313 38.2044 19.2912H39.3173C39.3807 19.2912 39.4414 19.2661 39.4862 19.2213C39.531 19.1765 39.5562 19.1157 39.5562 19.0524V12.051C39.6183 10.7684 39.8308 9.77248 40.4697 9.06553C41.1755 8.28096 41.9242 7.82121 43.2951 7.82837C44.432 7.83434 45.1007 8.25111 45.7611 8.97239C46.4215 9.69367 46.7523 10.7398 46.7523 12.1071V19.0584C46.7523 19.1217 46.7774 19.1825 46.8222 19.2272C46.867 19.272 46.9278 19.2972 46.9911 19.2972H48.1041C48.1674 19.2972 48.2282 19.272 48.273 19.2272C48.3177 19.1825 48.3429 19.1217 48.3429 19.0584V11.922C48.3389 10.1562 47.872 8.80879 46.9421 7.87972Z" fill="#3A3A3A"/>
<path d="M1.20373 5.38402C1.86853 5.38402 2.40745 4.84509 2.40745 4.18029C2.40745 3.51549 1.86853 2.97656 1.20373 2.97656C0.538926 2.97656 0 3.51549 0 4.18029C0 4.84509 0.538926 5.38402 1.20373 5.38402Z" fill="#3A3A3A"/>
<path d="M52.8932 5.38402C53.558 5.38402 54.0969 4.84509 54.0969 4.18029C54.0969 3.51549 53.558 2.97656 52.8932 2.97656C52.2284 2.97656 51.6895 3.51549 51.6895 4.18029C51.6895 4.84509 52.2284 5.38402 52.8932 5.38402Z" fill="#3A3A3A"/>
<path d="M162.378 12.2182V12.2087C162.265 11.0515 161.477 10.298 160.387 9.99346C159.655 9.79403 158.879 9.74149 158.186 9.4322C157.571 9.15394 157.059 8.68833 156.724 8.10189C156.421 7.56571 156.38 7.01519 156.247 6.43005C156.132 5.82206 155.897 5.24312 155.555 4.72716C155.089 4.09064 154.429 3.62256 153.674 3.39327C151.248 2.62542 148.547 4.0429 146.935 5.81266C145.43 7.4642 144.477 9.69372 144.439 11.9376C144.373 15.7852 146.931 19.4059 150.552 20.6765C152.736 21.4316 155.124 21.334 157.239 20.4031C160.377 19.0035 162.711 15.7243 162.378 12.2182Z" fill="#3A3A3A"/>
<path d="M160.619 6.45229C161.357 6.45229 161.956 5.85348 161.956 5.11482C161.956 4.37615 161.357 3.77734 160.619 3.77734C159.88 3.77734 159.281 4.37615 159.281 5.11482C159.281 5.85348 159.88 6.45229 160.619 6.45229Z" fill="#3A3A3A"/>
<path d="M96.5162 5.38402C97.181 5.38402 97.7199 4.84509 97.7199 4.18029C97.7199 3.51549 97.181 2.97656 96.5162 2.97656C95.8514 2.97656 95.3125 3.51549 95.3125 4.18029C95.3125 4.84509 95.8514 5.38402 96.5162 5.38402Z" fill="#3A3A3A"/>
</g>
<defs>
<clipPath id="clip0">
<rect width="162.409" height="30" fill="white"/>
</clipPath>
</defs>
</svg>
